<?xml version="1.0" standalone="no"?>
<!DOCTYPE svg PUBLIC "-//W3C//DTD SVG 1.1//EN" "http://www.w3.org/Graphics/SVG/1.1/DTD/svg11.dtd" >
<svg xmlns="http://www.w3.org/2000/svg">
<metadata>
Created by FontPrep 20130207 at Mon Nov  4 15:07:23 2013
 By Michael Hurley
Copyright (c) 2011 - 2012 Linotype Corp., www.linotype.com. All rights reserved. This font software may not be reproduced, modified, disclosed or transferred without the express written approval of Linotype Corp. Neue Haas Grotesk is a trademark of Linotype Corp. registered in the U.S. Patent and Trademark Office and may be registered in certain other jurisdictions in the name of Linotype Corp. or its licensee Linotype GmbH. This typeface is original artwork of Christian Schwartz. The design may be protected in certain jurisdictions.
</metadata>
<defs>
<font id="f5b94efa11265b00b17eb1e8599022ae" horiz-adv-x='1024' >
  <font-face 
    font-family="NHaasGroteskDSPro-36XLtIt"
    font-weight="350"
    font-style="italic"
    font-stretch="normal"
    units-per-em="2048"
    panose-1="2 11 3 4 2 2 2 9 2 4"
    ascent="1569"
    descent="-479"
    x-height="1059"
    cap-height="1464"
    bbox="-451 -418 2286 1868"
    underline-thickness="40"
    underline-position="-231"
    slope="-11"
    unicode-range="U+000D-FB04"
  />
<missing-glyph 
 />
    <glyph glyph-name="f_f" unicode="ff" horiz-adv-x="929" 
d="M561 1464h84l-16 -86h-70q-70 0 -99.5 -31.5t-39.5 -86.5l-39 -201h324l43 223q20 100 78.5 145.5t158.5 45.5h84l-16 -87h-70q-70 0 -99.5 -31.5t-39.5 -86.5l-41 -209h192l-16 -82h-193l-188 -977h-98l188 977h-323l-189 -977h-98l188 977h-155l16 82h156l41 215
q20 100 78.5 145t158.5 45z" />
    <glyph glyph-name="fi" unicode="fi" horiz-adv-x="808" 
d="M782 1464h99l-31 -161h-98zM705 1059h98l-205 -1059h-98zM563 1473h84l-16 -87h-70q-70 0 -99.5 -31.5t-39.5 -86.5l-41 -209h192l-16 -82h-192l-189 -977h-98l188 977h-155l16 82h156l43 223q20 100 78.5 145.5t158.5 45.5z" />
    <glyph glyph-name="fl" unicode="fl" horiz-adv-x="802" 
d="M782 1464h99l-283 -1464h-98zM563 1473h84l-16 -87h-70q-70 0 -99.5 -31.5t-39.5 -86.5l-41 -209h192l-16 -82h-192l-189 -977h-98l188 977h-155l16 82h156l43 223q20 100 78.5 145.5t158.5 45.5z" />
    <glyph glyph-name="f_f_i" unicode="ffi" horiz-adv-x="1230" 
d="M1204 1464h99l-31 -161h-98zM1126 1059h99l-205 -1059h-98zM561 1464h84l-16 -86h-70q-70 0 -99.5 -31.5t-39.5 -86.5l-39 -201h324l43 223q20 100 78.5 145.5t158.5 45.5h84l-16 -87h-70q-70 0 -99.5 -31.5t-39.5 -86.5l-41 -209h192l-16 -82h-193l-188 -977h-98
l188 977h-323l-189 -977h-98l188 977h-155l16 82h156l41 215q20 100 78.5 145t158.5 45z" />
    <glyph glyph-name="f_f_l" unicode="ffl" horiz-adv-x="1224" 
d="M1204 1464h99l-283 -1464h-98zM561 1464h84l-16 -86h-70q-70 0 -99.5 -31.5t-39.5 -86.5l-39 -201h324l43 223q20 100 78.5 145.5t158.5 45.5h84l-16 -87h-70q-70 0 -99.5 -31.5t-39.5 -86.5l-41 -209h192l-16 -82h-193l-188 -977h-98l188 977h-323l-189 -977h-98
l188 977h-155l16 82h156l41 215q20 100 78.5 145t158.5 45z" />
    <glyph glyph-name=".notdef" 
 />
    <glyph glyph-name=".null" horiz-adv-x="0" 
 />
    <glyph glyph-name=".null" horiz-adv-x="0" 
 />
    <glyph glyph-name="nonmarkingreturn" unicode="&#xd;" horiz-adv-x="0" 
 />
    <glyph glyph-name="space" unicode=" " horiz-adv-x="319" 
 />
    <glyph glyph-name="exclam" unicode="!" horiz-adv-x="397" 
d="M66 162h122l-30 -162h-123zM233 995l91 469h110l-92 -481l-143 -629h-70z" />
    <glyph glyph-name="quotedbl" unicode="&#x22;" horiz-adv-x="528" 
d="M268 1464h101l-84 -438h-101zM520 1464h101l-84 -438h-101z" />
    <glyph glyph-name="numbersign" unicode="#" horiz-adv-x="1110" 
d="M389 526h303l101 371h-304zM297 526l100 371h-207l27 88h203l115 420h92l-113 -420h303l113 420h92l-115 -420h205l-27 -88h-200l-101 -371h199l-27 -88h-196l-119 -438h-92l119 438h-301l-119 -438h-94l118 438h-209l27 88h207z" />
    <glyph glyph-name="dollar" unicode="$" horiz-adv-x="1085" 
d="M299 1052q0 -83 61.5 -138.5t202.5 -108.5l103 532l-39 2q-224 0 -276 -102t-52 -185zM893 416q0 88 -62.5 148.5t-212.5 117.5l-114 -592h33q246 0 301 119t55 207zM997 435q0 -213 -128 -322t-332 -109h-50l-34 -178h-80l37 190q-165 29 -269 143.5t-116 303.5h102
q8 -160 89 -249t210 -114l119 609q-178 63 -262 139t-84 203q0 180 124 279.5t308 99.5l53 -3l25 123h79l-26 -135q131 -31 217 -122t94 -244h-98q-6 113 -69.5 181t-162.5 95l-106 -547q183 -69 271.5 -148.5t88.5 -194.5z" />
    <glyph glyph-name="percent" unicode="%" horiz-adv-x="1591" 
d="M1397 466q0 85 -39.5 152.5t-113.5 67.5q-132 0 -196.5 -121t-64.5 -280q0 -98 41.5 -165t115.5 -68t120.5 34t76 92.5t45 130t15.5 157.5zM1233 764q123 0 191.5 -85t68.5 -226q0 -199 -93 -339.5t-249 -140.5q-121 0 -192.5 85t-71.5 227q0 200 96 339.5t250 139.5z
M1335 1403h97l-1106 -1403h-99zM672 1133q0 85 -39 153t-127 68q-119 0 -183.5 -121.5t-64.5 -250.5q0 -259 170 -263q119 0 181.5 122t62.5 292zM508 1432q123 0 191.5 -85t68.5 -227q0 -198 -93 -338.5t-249 -140.5q-121 0 -192.5 85t-71.5 226q0 201 96 340.5t250 139.5z
" />
    <glyph glyph-name="ampersand" unicode="&#x26;" horiz-adv-x="1150" 
d="M625 1356q-88 0 -143.5 -62t-55.5 -140t26.5 -141t86.5 -157q123 63 194.5 130.5t71.5 184.5q0 78 -46 131.5t-134 53.5zM139 354q0 -141 85.5 -216t201.5 -75t212.5 45.5t156.5 116.5l-308 516q-61 -29 -123.5 -61.5t-143.5 -108.5t-81 -217zM460 -27q-193 0 -312 96
t-119 273t103 276t314 197q-66 98 -95 169.5t-29 141.5q0 140 89 229t217 89t204.5 -70.5t76.5 -199.5q0 -201 -135 -282t-192 -110l276 -469q70 118 117 344h98q-45 -267 -164 -434l135 -223h-114l-88 143q-74 -78 -179 -124t-203 -46z" />
    <glyph glyph-name="quotesingle" unicode="'" horiz-adv-x="276" 
d="M268 1464h101l-84 -438h-101z" />
    <glyph glyph-name="parenleft" unicode="(" horiz-adv-x="546" 
d="M254 317q0 -290 106 -559h-92q-118 258 -125 559q-11 539 274 967q89 135 201 260h103q-223 -262 -345 -562t-122 -665z" />
    <glyph glyph-name="parenright" unicode=")" horiz-adv-x="546" 
d="M342 949q0 328 -106 595h92q118 -258 125 -559q11 -539 -274 -967q-89 -135 -202 -260h-102q467 549 467 1191z" />
    <glyph glyph-name="asterisk" unicode="*" horiz-adv-x="712" 
d="M524 1217l221 61l19 -72l-223 -61l98 -201l-70 -39l-104 215l-184 -198l-54 51l170 180l-188 92l37 68l194 -94l47 245h84z" />
    <glyph glyph-name="plus" unicode="+" horiz-adv-x="1028" 
d="M147 715h351l75 383h103l-76 -383h350l-18 -92h-350l-76 -390h-103l76 390h-350z" />
    <glyph glyph-name="comma" unicode="," horiz-adv-x="288" 
d="M-49 -133q33 10 49 34t31 99h-51l30 162h123l-37 -189q-16 -80 -52 -117.5t-105 -48.5z" />
    <glyph glyph-name="hyphen" unicode="-" horiz-adv-x="632" 
d="M84 623h502l-19 -88h-501z" />
    <glyph glyph-name="period" unicode="." horiz-adv-x="288" 
d="M10 162h123l-31 -162h-122z" />
    <glyph glyph-name="slash" unicode="/" horiz-adv-x="741" 
d="M780 1464h109l-850 -1464h-109z" />
    <glyph glyph-name="zero" unicode="0" horiz-adv-x="1124" 
d="M190 502q0 -184 74 -311.5t246 -127.5t304.5 170t158.5 381t26 288q0 186 -72.5 313.5t-241.5 127.5t-305.5 -170t-163 -381.5t-26.5 -289.5zM459.5 -27q-163.5 0 -270.5 146.5t-107 386.5q0 188 81.5 471.5t249 369t276.5 85.5q208 0 313.5 -147.5t105.5 -383.5
q0 -315 -113.5 -555.5t-242.5 -306.5t-292.5 -66z" />
    <glyph glyph-name="one" unicode="1" horiz-adv-x="604" 
d="M424 1077h-283l15 72q173 12 246.5 63t113.5 199h74l-273 -1411h-102z" />
    <glyph glyph-name="two" unicode="2" horiz-adv-x="991" 
d="M899 1088q0 110 -72.5 181.5t-205.5 71.5t-228.5 -87t-134.5 -281h-104q34 233 164.5 346t299.5 113t279.5 -93t110.5 -268q0 -272 -189.5 -382.5t-274.5 -158.5q-195 -111 -297 -204.5t-141 -229.5h752l-18 -96h-863q49 318 244 439.5t278 167.5t154.5 88t126 94.5
t87 120.5t32.5 178z" />
    <glyph glyph-name="three" unicode="3" horiz-adv-x="1013" 
d="M140.5 92q-122.5 119 -122.5 324h105q8 -158 92 -252t258 -94q231 0 284.5 128t53.5 232t-73.5 186t-225.5 82h-74l17 90h106q141 0 228.5 78t87.5 218t-75.5 199.5t-167.5 59.5q-161 0 -256.5 -99.5t-111.5 -246.5h-106q25 193 150 314t295 121t274 -84.5t104 -237.5
t-70.5 -241.5t-181.5 -129.5v-6q86 -41 137.5 -128t51.5 -188t-34 -183t-128 -171.5t-295 -89.5q-200 0 -322.5 119z" />
    <glyph glyph-name="four" unicode="4" horiz-adv-x="1044" 
d="M147 461h525l147 764h-4l-668 -758v-6zM653 371h-641l21 100l833 946h95l-187 -956h203l-19 -90h-202l-70 -371h-102z" />
    <glyph glyph-name="five" unicode="5" horiz-adv-x="974" 
d="M238 782q117 117 289 117t277 -110t105 -313t-126 -353t-349 -150q-164 0 -284 102.5t-134 284.5h107q10 -135 91 -212.5t222 -77.5q180 0 272.5 116t92.5 283q0 166 -75 252t-216 86q-189 0 -301 -145h-103l220 741h657l-18 -94h-576l-156 -527h5z" />
    <glyph glyph-name="six" unicode="6" horiz-adv-x="1069" 
d="M280.5 147.5q90.5 -86.5 229.5 -86.5q181 0 272.5 119.5t91.5 282.5t-81 252.5t-215 89.5q-171 0 -279.5 -121t-108.5 -286q0 -164 90.5 -250.5zM522 -27q-166 0 -278 84q-158 128 -158 380q0 376 100.5 566.5t211.5 309.5t317 119q158 0 250 -89.5t100 -257.5h-104
q-2 117 -68 186.5t-172 69.5q-199 0 -331 -176t-185 -493h4q66 111 165.5 166t195.5 55q184 0 297.5 -109.5t113.5 -313.5t-91 -309.5t-179.5 -146.5t-188.5 -41z" />
    <glyph glyph-name="seven" unicode="7" horiz-adv-x="952" 
d="M944 1311h-745l18 92h862l-18 -94q-372 -341 -523 -722.5t-200 -586.5h-113q85 366 280.5 719t438.5 588v4z" />
    <glyph glyph-name="eight" unicode="8" horiz-adv-x="1052" 
d="M394 863q75 -62 199 -62t218 72.5t94 200.5t-77 198.5t-201 70.5t-216 -85t-92 -209t75 -186zM248.5 140.5q96.5 -77.5 246.5 -77.5t257.5 91.5t107.5 247.5t-96.5 233.5t-247.5 77.5t-257.5 -92t-106.5 -247q0 -156 96.5 -233.5zM494 -27q-187 0 -319 100.5t-132 276.5
t89 274.5t237 143.5v6q-72 35 -113 103.5t-41 155.5q0 173 121.5 286t286.5 113t276 -87.5t111 -254.5q0 -129 -71 -214t-189 -126v-7q96 -37 155.5 -124t61.5 -195t-33 -190t-99.5 -139.5t-155.5 -89.5t-185 -32z" />
    <glyph glyph-name="nine" unicode="9" horiz-adv-x="1052" 
d="M831 1257.5q-91 85.5 -245 85.5t-251 -121.5t-97 -280.5t79.5 -250t208.5 -91q180 0 288 123t108 286t-91 248.5zM594 1432q163 0 274 -84q158 -132 158 -394q0 -259 -71.5 -495.5t-213.5 -366.5q-137 -119 -311 -119t-277.5 88t-111.5 258h104q2 -127 81 -191.5
t196 -64.5q157 0 260 101q78 74 139.5 227.5t91.5 345.5h-4q-66 -113 -168.5 -169t-198.5 -56q-184 0 -297.5 112.5t-113.5 312.5q0 199 96.5 307t183.5 148t183 40z" />
    <glyph glyph-name="colon" unicode=":" horiz-adv-x="309" 
d="M20 162h123l-30 -162h-123zM143 795h123l-30 -162h-123z" />
    <glyph glyph-name="semicolon" unicode=";" horiz-adv-x="309" 
d="M-39 -133q33 10 49 33t31 100h-51l30 162h123l-37 -189q-16 -80 -52 -117.5t-105 -48.5zM143 795h123l-30 -162h-123z" />
    <glyph glyph-name="less" unicode="&#x3c;" horiz-adv-x="989" 
d="M111 588l22 117l846 331l-21 -104l-749 -291v-4l635 -301l-21 -96z" />
    <glyph glyph-name="equal" unicode="=" horiz-adv-x="1028" 
d="M113 526h802l-18 -92h-803zM174 834h801l-19 -93h-802z" />
    <glyph glyph-name="greater" unicode="&#x3e;" horiz-adv-x="989" 
d="M920 688l-23 -117l-846 -331l21 104l749 291v4l-635 301l21 96z" />
    <glyph glyph-name="question" unicode="?" horiz-adv-x="980" 
d="M328 162h123l-31 -162h-123zM827.5 1338.5q-75.5 60.5 -203.5 60.5t-226.5 -88t-127.5 -252h-106q25 186 153.5 309t331.5 123q240 0 301.5 -122t61.5 -203q0 -144 -71.5 -234.5t-229.5 -204.5q-49 -37 -124 -99t-112 -274h-100q36 194 90 271t188 176q47 35 92.5 69.5
t101.5 104.5t56 186q0 117 -75.5 177.5z" />
    <glyph glyph-name="at" unicode="@" horiz-adv-x="1738" 
d="M580 512q0 -260 204 -260q157 0 244 121.5t107 320.5q10 131 -39 214t-178 83q-162 0 -250 -146t-88 -333zM867 -205q-373 0 -577 200.5t-204 541.5q0 182 64.5 348t181.5 293t279.5 202.5t333.5 75.5q332 0 540.5 -186.5t208.5 -513.5q0 -223 -95.5 -395.5
t-295.5 -172.5q-102 0 -152 48t-55 116h-2q-45 -78 -129.5 -131t-182.5 -53q-147 0 -225 92t-78 252q0 210 118 385.5t318.5 175.5t266.5 -164h6l35 148h86l-121 -578q-20 -92 5.5 -151.5t145.5 -59.5t190 146t70 321q0 318 -174 476.5t-456 158.5q-166 0 -310.5 -61.5
t-250 -172t-167 -263t-61.5 -317.5q0 -322 174.5 -498.5t495.5 -176.5q177 0 399 84l29 -78q-214 -92 -411 -92z" />
    <glyph glyph-name="A" unicode="A" horiz-adv-x="1232" 
d="M315 559h580l-115 582q-32 167 -39 219h-4q-38 -88 -110 -221zM913 471h-645l-254 -471h-106l788 1464h121l297 -1464h-106z" />
    <glyph glyph-name="B" unicode="B" horiz-adv-x="1220" 
d="M745 809q154 0 247 84t93 219q0 258 -262 258h-432l-108 -561h462zM627 96q221 0 327 111q86 86 86 226t-69.5 212t-204.5 72h-502l-119 -621h482zM1149 451q0 -184 -102 -299q-137 -152 -424 -152h-600l282 1464h520q259 0 313 -127t54 -207q0 -141 -70.5 -231
t-189.5 -131v-4q217 -70 217 -313z" />
    <glyph glyph-name="C" unicode="C" horiz-adv-x="1312" 
d="M644 -27q-259 0 -404.5 165t-145.5 446q0 158 44 319.5t135.5 292.5t230 214t328.5 83t323 -105.5t162 -324.5h-103q-23 162 -124 251t-267 89t-283.5 -75t-226 -248.5t-108.5 -493.5q0 -371 165 -445.5t274 -74.5q204 0 340.5 124t186.5 340h101q-97 -399 -297.5 -478
t-330.5 -79z" />
    <glyph glyph-name="D" unicode="D" horiz-adv-x="1298" 
d="M1171 889q0 481 -419 481h-361l-248 -1278h392q316 0 476 223t160 574zM758 1464q524 0 524 -571q0 -378 -133 -560.5t-273.5 -257.5t-334.5 -75h-518l282 1464h453z" />
    <glyph glyph-name="E" unicode="E" horiz-adv-x="1144" 
d="M305 1464h905l-16 -92h-801l-110 -571h755l-18 -90h-756l-119 -615h850l-18 -96h-954z" />
    <glyph glyph-name="F" unicode="F" horiz-adv-x="1060" 
d="M305 1464h885l-16 -92h-783l-108 -567h692l-19 -90h-690l-139 -715h-104z" />
    <glyph glyph-name="G" unicode="G" horiz-adv-x="1406" 
d="M94 584q0 172 49.5 335.5t145.5 290.5t237.5 205t333.5 78t324.5 -109.5t152.5 -332.5h-100q-8 163 -117 257.5t-271 94.5q-161 0 -282 -68.5t-241.5 -241.5t-120.5 -503q0 -524 457 -524q235 0 367.5 141.5t172.5 353.5l17 84h-484l17 92h585l-141 -737h-80l31 231h-6
q-174 -258 -499 -258q-250 0 -399 158.5t-149 452.5z" />
    <glyph glyph-name="H" unicode="H" horiz-adv-x="1265" 
d="M305 1464h105l-123 -641h805l122 641h107l-283 -1464h-106l141 733h-805l-141 -733h-104z" />
    <glyph glyph-name="I" unicode="I" horiz-adv-x="370" 
d="M313 1464h105l-283 -1464h-104z" />
    <glyph glyph-name="J" unicode="J" horiz-adv-x="919" 
d="M355 -27q-187 0 -286 109.5t-57 318.5l11 54h102l-8 -43q-45 -251 55 -297.5t204 -46.5t177.5 61t99.5 195l221 1140h107l-225 -1161q-41 -230 -175.5 -280t-225.5 -50z" />
    <glyph glyph-name="K" unicode="K" horiz-adv-x="1193" 
d="M549 797l-324 -281l-98 -516h-104l282 1464h105l-158 -815l922 815h141l-688 -598l471 -866h-115z" />
    <glyph glyph-name="L" unicode="L" horiz-adv-x="1026" 
d="M305 1464h105l-265 -1368h750l-18 -96h-854z" />
    <glyph glyph-name="M" unicode="M" horiz-adv-x="1552" 
d="M305 1464h146l254 -1319h4l737 1319h162l-283 -1464h-102l256 1327h-4q-16 -31 -50 -89t-63 -114l-629 -1124h-104l-215 1124q-17 84 -31 203h-4l-256 -1327h-100z" />
    <glyph glyph-name="N" unicode="N" horiz-adv-x="1284" 
d="M305 1464h117l448 -1034q51 -118 109 -276h4l254 1310h102l-282 -1464h-113l-438 1012q-68 150 -125 303h-4l-254 -1315h-100z" />
    <glyph glyph-name="O" unicode="O" horiz-adv-x="1411" 
d="M203 622q0 -253 125 -403.5t348 -150.5q150 0 264.5 67.5t229 236.5t114.5 486q0 240 -129.5 390.5t-347.5 150.5q-150 0 -263.5 -67.5t-189 -179.5t-113.5 -255t-38 -275zM672 -27q-253 0 -416.5 169.5t-163.5 461.5q0 162 47 321.5t138.5 285.5t225 204t283.5 78
q279 0 444 -173.5t165 -461.5q0 -355 -136.5 -543t-271.5 -265t-315 -77z" />
    <glyph glyph-name="P" unicode="P" horiz-adv-x="1138" 
d="M655 745q297 0 363.5 128t66.5 241t-70.5 184.5t-228.5 71.5h-395l-121 -625h385zM788 1464q299 0 351.5 -135t52.5 -235t-40 -187.5t-147.5 -170.5t-351.5 -83h-399l-127 -653h-104l282 1464h483z" />
    <glyph glyph-name="Q" unicode="Q" horiz-adv-x="1411" 
d="M203 622q0 -253 125 -403.5t348 -150.5q154 0 274 73l-155 148l67 73l170 -161q182 164 217 362.5t35 304.5q0 230 -129.5 380.5t-347.5 150.5q-150 0 -263.5 -67.5t-189 -179.5t-113.5 -255t-38 -275zM92 604q0 162 47 321.5t138.5 285.5t225 204t283.5 78
q279 0 444 -173.5t165 -476.5t-109.5 -473.5t-181.5 -234.5l151 -143l-65 -76l-168 156q-152 -99 -350 -99q-253 0 -416.5 169.5t-163.5 461.5z" />
    <glyph glyph-name="R" unicode="R" horiz-adv-x="1243" 
d="M733 772q395 0 395 338q0 117 -67.5 188.5t-216.5 71.5h-453l-115 -598h457zM854 1464q188 0 283.5 -91t95.5 -252q0 -306 -289 -398v-6q181 -71 156 -327q-33 -338 22 -382v-8h-108q-51 51 -21 371q16 181 -47.5 245t-238.5 64h-449l-131 -680h-104l282 1464h549z" />
    <glyph glyph-name="S" unicode="S" horiz-adv-x="1144" 
d="M530 63q184 0 302 88.5t118 272.5q0 107 -86.5 173t-292.5 130q-215 72 -304 148t-89 217q0 185 139.5 293t402.5 108t333.5 -151.5t72.5 -256.5h-102q-4 158 -104.5 238t-260.5 80q-262 0 -319 -114.5t-57 -206.5t75.5 -150t207.5 -100t217 -74.5t179.5 -101
t94.5 -232.5q0 -212 -148.5 -331.5t-376.5 -119.5q-237 0 -381.5 123.5t-140.5 366.5h105q-6 -296 159.5 -348t255.5 -52z" />
    <glyph glyph-name="T" unicode="T" horiz-adv-x="1128" 
d="M211 1464h1059l-19 -94h-477l-264 -1370h-104l264 1370h-477z" />
    <glyph glyph-name="U" unicode="U" horiz-adv-x="1232" 
d="M544 70q202 0 309.5 85t143.5 283l199 1026h104l-200 -1036q-85 -451 -545 -451q-384 0 -429.5 191.5t-19.5 333.5l187 962h104l-186 -962q-83 -432 333 -432z" />
    <glyph glyph-name="V" unicode="V" horiz-adv-x="1165" 
d="M172 1464h104l195 -1063q34 -200 45 -286h4q23 47 44 92t95 190l560 1067h106l-770 -1464h-111z" />
    <glyph glyph-name="W" unicode="W" horiz-adv-x="1716" 
d="M188 1464h103l86 -1011q4 -43 7 -98.5t7 -108.5t6 -113h4q23 57 51 127t74 176l441 1028h110l101 -1024q4 -41 7 -94t7 -104t8 -109h4l43 115q33 90 82 205l422 1011h102l-618 -1464h-115l-100 1090q-4 39 -6 82.5t-6 83.5t-7 83h-4q-14 -41 -29 -81l-24 -64
q-24 -64 -41 -104l-465 -1090h-116z" />
    <glyph glyph-name="X" unicode="X" horiz-adv-x="1073" 
d="M516 754l-313 710h112l277 -641h4l508 641h121l-582 -725l328 -739h-115l-289 670h-4l-545 -670h-118z" />
    <glyph glyph-name="Y" unicode="Y" horiz-adv-x="1118" 
d="M528 651l-360 813h111l317 -727h4l567 727h117l-653 -825l-123 -639h-105z" />
    <glyph glyph-name="Z" unicode="Z" horiz-adv-x="1134" 
d="M1077 1374h-801l17 90h930l-19 -96l-1106 -1270v-6h889l-16 -92h-1016l18 102l1104 1266v6z" />
    <glyph glyph-name="bracketleft" unicode="[" horiz-adv-x="567" 
d="M362 1544h332l-18 -90h-232l-309 -1604h232l-19 -92h-332z" />
    <glyph glyph-name="backslash" unicode="\" horiz-adv-x="856" 
d="M182 1464h99l471 -1464h-99z" />
    <glyph glyph-name="bracketright" unicode="]" horiz-adv-x="567" 
d="M254 -242h-334l19 92h233l309 1604h-233l18 90h334z" />
    <glyph glyph-name="asciicircum" unicode="^" horiz-adv-x="768" 
d="M98 938l391 526h115l213 -526h-102l-176 448h-4l-326 -448h-111z" />
    <glyph glyph-name="underscore" unicode="_" horiz-adv-x="741" 
d="M-156 -258h748l-17 -82h-747z" />
    <glyph glyph-name="grave" unicode="`" 
d="M633 1204l-141 260h131l96 -260h-86z" />
    <glyph glyph-name="a" unicode="a" horiz-adv-x="985" 
d="M336 55q170 0 265 90.5t122 225.5l41 207q-88 -34 -317.5 -50t-289 -87t-57.5 -173t70 -157.5t166 -55.5zM801 794q0 204 -267 203q-267 0 -319 -239h-100q29 152 139.5 237.5t288.5 85.5q288 0 325 -139t17 -248l-107 -536q-12 -66 16.5 -86.5t86.5 -5.5h6l-13 -70
q-24 -12 -84 -12t-90.5 47t-17.5 108h-6q-68 -110 -168 -138t-170 -28q-141 0 -240.5 78t-99.5 216t84 224.5t232 104.5t246 20t150 24t71.5 58t19.5 96z" />
    <glyph glyph-name="b" unicode="b" horiz-adv-x="1040" 
d="M483 59q204 0 310 182t106 410q0 146 -70 246t-217 100q-201 0 -318.5 -187.5t-117.5 -403.5q-2 -162 76 -254.5t231 -92.5zM631 1081q171 0 270.5 -117t99.5 -311q0 -273 -136 -474.5t-388 -201.5q-117 0 -207 57.5t-131 166.5h-4l-39 -201h-98l283 1464h98l-115 -587h4
q137 204 363 204z" />
    <glyph glyph-name="c" unicode="c" horiz-adv-x="944" 
d="M450 -27q-185 0 -295 113.5t-110 353.5t139.5 440.5t390.5 200.5q154 0 247 -88t110 -239h-94q-15 161 -106.5 202t-181.5 41t-170.5 -52t-157.5 -175t-77 -364t114 -294t196 -53q129 2 217 85t123 214h96q-72 -269 -213 -327t-228 -58z" />
    <glyph glyph-name="d" unicode="d" horiz-adv-x="1040" 
d="M866 641q0 166 -75 261t-222 95q-195 0 -310.5 -182t-115.5 -416t103.5 -289t195.5 -55t174 56.5t137.5 144.5t84 193.5t28.5 191.5zM41 406q0 123 37 244.5t105.5 217t168 154.5t221.5 59t206.5 -60t121.5 -167h4l119 610h98l-284 -1464h-99l33 170h-4
q-128 -197 -352 -197q-173 0 -274 113.5t-101 319.5z" />
    <glyph glyph-name="e" unicode="e" horiz-adv-x="976" 
d="M573 997q-162 0 -265 -114t-142 -283h672q40 274 -70.5 335.5t-194.5 61.5zM436 -27q-174 0 -282.5 116t-108.5 349t142 438t393 205q176 0 268 -104q111 -122 99.5 -263t-19.5 -196h-776q-28 -231 58 -345t231 -114t230 72t124 184h98q-53 -166 -168 -254t-289 -88z" />
    <glyph glyph-name="f" unicode="f" horiz-adv-x="507" 
d="M563 1473h84l-16 -87h-70q-70 0 -99.5 -31.5t-39.5 -86.5l-41 -209h192l-16 -82h-192l-189 -977h-98l188 977h-155l16 82h156l43 223q20 100 78.5 145.5t158.5 45.5z" />
    <glyph glyph-name="g" unicode="g" horiz-adv-x="1040" 
d="M145 445q0 -168 73 -259.5t218 -91.5q197 0 312.5 166t115.5 397t-108.5 285.5t-200.5 54.5t-171 -51t-132 -133t-80 -181.5t-27 -186.5zM399 -383q-236 0 -304 95t-77 171h101q17 -137 126 -159.5t173 -22.5q134 0 215.5 82t107.5 223l35 176h-4q-135 -172 -348 -172
q-180 0 -281.5 113t-99.5 311q0 113 36 228.5t145.5 267t350.5 151.5q113 0 198 -57t130 -170h4l39 205h98l-204 -1053q-34 -182 -138 -286t-303 -103z" />
    <glyph glyph-name="h" unicode="h" horiz-adv-x="964" 
d="M651 995q-167 0 -285 -102t-147 -254l-123 -639h-98l283 1464h98l-115 -592h4q70 88 160 147.5t231 59.5t214 -88t40 -246l-143 -745h-98l143 743q25 123 -22.5 187.5t-141.5 64.5z" />
    <glyph glyph-name="i" unicode="i" horiz-adv-x="313" 
d="M287 1464h98l-31 -161h-98zM209 1059h98l-205 -1059h-98z" />
    <glyph glyph-name="j" unicode="j" horiz-adv-x="313" 
d="M287 1464h98l-31 -161h-98zM-152 -254q104 0 127 113l234 1200h98l-233 -1204q-23 -111 -80 -153t-146 -42h-47l17 86h30z" />
    <glyph glyph-name="k" unicode="k" horiz-adv-x="911" 
d="M514 680l309 -680h-108l-279 610l-268 -235l-72 -375h-98l283 1464h98l-186 -962l622 557h131z" />
    <glyph glyph-name="l" unicode="l" horiz-adv-x="307" 
d="M287 1464h98l-283 -1464h-98z" />
    <glyph glyph-name="m" unicode="m" horiz-adv-x="1548" 
d="M270 883q158 196 348 196q228 0 248 -217h4q162 217 387 217q132 0 201.5 -88t38.5 -246l-143 -745h-99l144 743q25 123 -20.5 187.5t-128.5 64.5q-153 0 -263 -99t-137 -247l-125 -649h-98l143 743q25 123 -19.5 187.5t-128.5 64.5q-150 0 -260.5 -98.5t-140.5 -247.5
l-125 -649h-98l205 1059h98l-35 -176h4z" />
    <glyph glyph-name="n" unicode="n" horiz-adv-x="964" 
d="M651 995q-167 0 -285 -102t-147 -254l-123 -639h-98l205 1059h98l-37 -187h4q70 88 160 147.5t231 59.5t214 -88t40 -246l-143 -745h-98l143 743q25 123 -22.5 187.5t-141.5 64.5z" />
    <glyph glyph-name="o" unicode="o" horiz-adv-x="1024" 
d="M145 437q0 -172 81 -276t235 -104q106 0 185 51.5t156 175.5t77 339q0 253 -115.5 314.5t-211.5 61.5t-174.5 -52t-129.5 -135t-77 -184.5t-26 -190.5zM480 -27q-204 0 -319.5 120t-115.5 323q0 257 136.5 461t387.5 204q181 0 295.5 -122.5t114.5 -327.5
q0 -254 -95.5 -394.5t-193.5 -202t-210 -61.5z" />
    <glyph glyph-name="p" unicode="p" horiz-adv-x="1040" 
d="M483 59q204 0 310 182t106 410q0 146 -70 246t-217 100q-201 0 -318.5 -187.5t-117.5 -403.5q-2 -162 76 -254.5t231 -92.5zM631 1081q171 0 270.5 -117t99.5 -311q0 -273 -136 -474.5t-388 -201.5q-117 0 -209 58.5t-131 165.5h-4l-104 -541h-99l273 1399h98l-37 -182h4
q137 204 363 204z" />
    <glyph glyph-name="q" unicode="q" horiz-adv-x="1044" 
d="M866 641q0 166 -75 261t-222 95q-195 0 -310.5 -182t-115.5 -416t103.5 -289t195.5 -55t174 56.5t137.5 144.5t84 193.5t28.5 191.5zM41 406q0 123 37 244.5t105.5 217t168 154.5t221.5 59t206.5 -60t121.5 -167h4l41 205h98l-272 -1399h-96l96 510h-4
q-128 -197 -352 -197q-173 0 -274 113.5t-101 319.5z" />
    <glyph glyph-name="r" unicode="r" horiz-adv-x="573" 
d="M260 850h4q131 198 240.5 206.5t142.5 8.5l-18 -98q-91 4 -166 -30q-76 -34 -150.5 -121t-105.5 -247l-111 -569h-98l205 1059h98z" />
    <glyph glyph-name="s" unicode="s" horiz-adv-x="866" 
d="M92 319q15 -260 295 -260q135 0 211 59.5t76 169.5t-94 152.5t-168 70.5q-165 63 -231 124t-66 181t101.5 192.5t256.5 72.5q156 0 248 -79.5t100 -221.5h-94q-8 106 -77.5 160.5t-182.5 54.5t-163 -31.5t-71.5 -68.5t-21.5 -82q0 -78 57.5 -124.5t164.5 -84.5
q108 -39 223.5 -93.5t115.5 -208.5t-108 -241.5t-276.5 -87.5t-281 86.5t-112.5 259.5h98z" />
    <glyph glyph-name="t" unicode="t" horiz-adv-x="536" 
d="M298 76q52 0 89 14h6l-16 -84q-37 -14 -90 -14q-206 0 -162 211l149 774h-159l16 82h160l61 319h101l-62 -319h189l-17 -82h-188l-152 -787q-10 -59 6.5 -86.5t68.5 -27.5z" />
    <glyph glyph-name="u" unicode="u" horiz-adv-x="952" 
d="M305 -25q-141 0 -214 88.5t-40 253.5l144 742h98l-143 -740q-49 -260 176 -260q149 0 263 107.5t148 275.5l119 617h98l-204 -1059h-99l35 178h-4q-163 -203 -377 -203z" />
    <glyph glyph-name="v" unicode="v" horiz-adv-x="897" 
d="M117 1059h102l109 -672q28 -156 41 -299h4l51 102q23 43 47.5 93.5t46.5 93.5l356 682h103l-557 -1059h-123z" />
    <glyph glyph-name="w" unicode="w" horiz-adv-x="1380" 
d="M305 92h4q23 56 44 106t43 100t40 91l293 670h111l63 -670q4 -41 6 -91l4 -100t5 -106h4q24 58 48 110t46 107.5t43 98.5l289 651h100l-483 -1059h-119l-66 700q-4 41 -6 85t-4 84t-2 83h-4q-36 -98 -60 -154.5t-40 -97.5l-308 -700h-123l-108 1059h102l64 -656
q14 -158 14 -311z" />
    <glyph glyph-name="x" unicode="x" horiz-adv-x="899" 
d="M391 571l-237 488h114l193 -426h4l336 426h114l-403 -502l274 -557h-114l-232 496h-4l-397 -496h-113z" />
    <glyph glyph-name="y" unicode="y" horiz-adv-x="917" 
d="M94 -258q119 0 193 145l51 99l-232 1073h101l145 -697q26 -111 47 -270h4q76 171 127 266l351 701h104l-618 -1213q-55 -109 -122 -152.5t-136 -43.5t-117 12l18 90h4q30 -10 80 -10z" />
    <glyph glyph-name="z" unicode="z" horiz-adv-x="845" 
d="M737 973h-559l17 86h688l-17 -82l-782 -885v-6h627l-17 -86h-747l16 90l774 877v6z" />
    <glyph glyph-name="braceleft" unicode="{" horiz-adv-x="567" 
d="M285 -242q-133 0 -176 71t-21 183l88 455q14 72 -7.5 108.5t-102.5 38.5l18 93q80 2 114.5 34.5t51.5 108.5l88 455q34 190 119.5 214.5t148.5 24.5h58l-19 -90h-39q-78 0 -116.5 -34.5t-53.5 -127.5l-90 -467q-14 -72 -49 -111.5t-96 -56.5v-4q49 -23 69.5 -67.5
t3.5 -128.5l-90 -467q-16 -78 12.5 -109t96.5 -31h43l-19 -92h-32z" />
    <glyph glyph-name="bar" unicode="|" horiz-adv-x="405" 
d="M201 1544h94v-1786h-94v1786z" />
    <glyph glyph-name="braceright" unicode="}" horiz-adv-x="567" 
d="M330 1544q246 0 196 -254l-88 -454q-14 -72 7.5 -109t103.5 -39l-19 -92q-80 -2 -114.5 -35t-50.5 -108l-89 -455q-23 -128 -83 -184t-185 -56h-57l18 92h39q76 0 114 32t56 128l90 467q14 72 49 112t97 56v4q-49 23 -69.5 68t-4.5 129l90 467q16 78 -12.5 109.5
t-95.5 31.5h-43l18 90h33z" />
    <glyph glyph-name="asciitilde" unicode="~" horiz-adv-x="763" 
d="M279 698q-71 0 -93 -108h-92q18 102 69 151.5t107 49.5t90.5 -17.5t64.5 -38t57.5 -38t59.5 -17.5t58.5 26.5t34.5 79.5h92q-16 -98 -65.5 -148t-105.5 -50t-93 17.5t-69 38t-60.5 37.5t-54.5 17z" />
    <glyph glyph-name="uni00A0" unicode="&#xa0;" horiz-adv-x="319" 
 />
    <glyph glyph-name="exclamdown" unicode="&#xa1;" horiz-adv-x="397" 
d="M358 1042h-122l30 162h123zM190 209l-90 -469h-110l92 481l143 629h70z" />
    <glyph glyph-name="cent" unicode="&#xa2;" horiz-adv-x="944" 
d="M145 400q0 -118 52.5 -212t173.5 -120l180 927q-201 -11 -303.5 -185.5t-102.5 -409.5zM45 418q0 256 97.5 398t195.5 202.5t229 62.5l25 129h82l-27 -135q123 -18 198 -100t87 -221h-96q-15 139 -84.5 183t-120.5 54l-180 -932h4q129 2 217 84t123 213l96 2
q-72 -269 -213 -327t-225 -58h-19l-28 -147h-82l30 158q-141 27 -225 134t-84 300z" />
    <glyph glyph-name="sterling" unicode="&#xa3;" horiz-adv-x="1064" 
d="M942 80q-146 -100 -258 -100q-70 0 -121 15t-97 32.5t-91 33t-92 15.5q-108 0 -238 -80l-49 92q285 175 285 440q0 42 -15 115h-162l19 84h125q-16 66 -31.5 132.5t-15.5 148.5t33.5 163.5t126 171t285.5 89.5t296.5 -117.5t99.5 -315.5h-100q6 247 -107.5 295.5
t-190.5 48.5q-154 0 -245.5 -93.5t-91.5 -254.5q0 -63 14.5 -130.5t30.5 -137.5h363l-19 -84h-327q10 -72 10 -111q0 -127 -58.5 -230t-156.5 -175l2 -4q77 35 136 35q82 0 190.5 -44t195.5 -44t203 86z" />
    <glyph glyph-name="currency" unicode="&#xa4;" horiz-adv-x="980" 
d="M526 1137q153 0 254 -88l152 161l61 -61l-153 -164q78 -106 78 -266t-80 -275l155 -163l-61 -62l-152 162q-105 -88 -254 -88t-252 88l-151 -162l-62 62l154 165q-78 109 -78 269t78 268l-154 166l62 61l149 -161q101 88 254 88zM527 379q71 0 125.5 26.5t90 72.5
t54 107.5t18.5 169.5t-74 205t-213 97q-138 0 -214 -95.5t-76 -285.5t109 -243.5t180 -53.5z" />
    <glyph glyph-name="yen" unicode="&#xa5;" horiz-adv-x="1048" 
d="M143 668h342l-290 737h110l260 -680h4l508 680h117l-561 -737h340l-17 -82h-364l-31 -156h365l-17 -82h-362l-68 -348h-100l67 348h-366l16 82h365l31 156h-365z" />
    <glyph glyph-name="brokenbar" unicode="&#xa6;" horiz-adv-x="411" 
d="M158 1544h96v-809h-96v809zM254 -242h-96v842h96v-842z" />
    <glyph glyph-name="section" unicode="&#xa7;" horiz-adv-x="1103" 
d="M907 378q0 87 -63.5 160.5t-164.5 149.5t-154.5 119t-94.5 90q-98 -20 -167.5 -74.5t-69.5 -148.5t66 -171t212 -186q146 -117 201 -174q158 34 196.5 110.5t38.5 124.5zM451 -283q227 0 227 187q0 75 -55.5 142.5t-172.5 158.5q-116 91 -176.5 142.5t-122 124
t-61.5 189.5q0 116 81 195.5t206 108.5q-43 75 -43 151q0 146 100 231t254 85t242 -91.5t94 -255.5h-102q-8 111 -67 183.5t-169 72.5t-179 -53t-69 -153t56 -163t160 -140.5t162 -125t101.5 -97.5t68 -104t24.5 -147.5t-75 -165t-212 -112.5q59 -83 59 -176
q0 -129 -91 -203t-252 -74t-269.5 104t-112.5 273h107q6 -135 78.5 -211t208.5 -76z" />
    <glyph glyph-name="dieresis" unicode="&#xa8;" horiz-adv-x="1048" 
d="M807 1464h100l-30 -164h-101zM502 1464h100l-31 -164h-100z" />
    <glyph glyph-name="copyright" unicode="&#xa9;" horiz-adv-x="1636" 
d="M861 250q-187 0 -302 132.5t-115 346t114.5 347.5t307.5 134q147 0 240.5 -77.5t116.5 -206.5h-103q-16 88 -81 142t-159 54q-165 0 -247 -111.5t-82 -282.5t81.5 -280.5t217.5 -109.5q137 0 206.5 72.5t80.5 183.5h100q-4 -66 -61 -205t-315 -139zM858 31
q289 0 476.5 199t187.5 497t-187 498t-477 200t-476.5 -199.5t-186.5 -498.5t187 -497.5t476 -198.5zM857 -35q-157 0 -292 57.5t-236.5 159t-158.5 241.5t-57 304t57 304t215.5 300t472.5 160q156 0 292 -57.5t237.5 -160t159 -242.5t57.5 -304t-57.5 -304t-159 -241.5
t-237.5 -159t-293 -57.5z" />
    <glyph glyph-name="ordfeminine" unicode="&#xaa;" horiz-adv-x="933" 
d="M415 549q147 0 225 76t105 196l33 164q-72 -29 -163 -33t-192 -19t-151.5 -62.5t-49.5 -137.5t55.5 -137t137.5 -47zM117 731q0 125 83 195.5t220 87.5q117 10 198.5 16t135.5 32t55 122q0 125 -84 145.5t-129 20.5q-233 0 -279 -205h-98q25 133 123 210t256 77
q250 0 285 -120t16 -212l-92 -457q-18 -106 88 -82h6l-14 -74q-30 -10 -62 -10q-74 0 -99.5 43t-16.5 92h-7q-104 -145 -290 -145q-128 0 -211.5 69.5t-83.5 194.5z" />
    <glyph glyph-name="guillemotleft" unicode="&#xab;" horiz-adv-x="811" 
d="M115 496l26 135l293 223l-26 -135l-220 -158v-4l154 -178l-23 -121zM434 496l27 135l293 223l-27 -135l-221 -158v-4l156 -178l-23 -121z" />
    <glyph glyph-name="logicalnot" unicode="&#xac;" horiz-adv-x="1028" 
d="M158 760h762l-95 -484h-100l76 392h-662z" />
    <glyph glyph-name="uni00AD" unicode="&#xad;" horiz-adv-x="632" 
d="M84 623h502l-19 -88h-501z" />
    <glyph glyph-name="registered" unicode="&#xae;" horiz-adv-x="1064" 
d="M655 1028q101 0 101 88t-99 88h-143v-176h141zM838 1124q0 -100 -99 -129v-2q41 -10 59.5 -38.5t23.5 -84.5t8.5 -90.5t13.5 -40.5v-4h-80q-14 6 -23 123q-2 104 -108 105h-119v-228h-82v537h242q74 0 119 -41t45 -107zM622.5 561q90.5 0 166 33t130 90t85 137
t30.5 174.5t-30.5 173t-85 137t-130 91.5t-166 33t-166 -33t-130 -91.5t-85 -137t-30.5 -173t30.5 -174.5t85 -137t130 -90t166 -33zM137 996q0 212 141.5 353.5t344 141.5t344 -141.5t141.5 -353.5t-139 -354t-346.5 -142t-346.5 142t-139 354z" />
    <glyph glyph-name="macron" unicode="&#xaf;" 
d="M426 1391h467l-19 -99h-466z" />
    <glyph glyph-name="degree" unicode="&#xb0;" horiz-adv-x="641" 
d="M447 1022q69 0 109 47t40 119t-40 119t-109 47t-109.5 -47t-40.5 -119t40.5 -119t109.5 -47zM446.5 944q-51.5 0 -95.5 19.5t-76.5 52.5t-51 77t-18.5 95t18.5 95t51 77t76.5 52.5t95.5 19.5t95.5 -19.5t76.5 -52.5t51 -77t18.5 -95t-18.5 -95t-51 -77t-76.5 -52.5
t-95.5 -19.5z" />
    <glyph glyph-name="plusminus" unicode="&#xb1;" horiz-adv-x="1028" 
d="M27 92h802l-16 -92h-803zM152 735h350l71 363h103l-72 -363h350l-18 -92h-350l-72 -369h-102l71 369h-350z" />
    <glyph glyph-name="twosuperior" unicode="&#xb2;" horiz-adv-x="638" 
d="M623 1269q0 57 -43 95.5t-112 38.5t-124 -49t-74 -154h-90q20 145 104.5 213t187.5 68t176 -57t73 -162q0 -151 -110.5 -215t-185.5 -103t-143.5 -90t-88.5 -127h440l-17 -78h-544q31 193 152.5 266.5t172.5 101.5t91 50.5t70 49t47.5 61t17.5 91.5z" />
    <glyph glyph-name="threesuperior" unicode="&#xb3;" horiz-adv-x="679" 
d="M623 1269q0 138 -150 138q-70 0 -124 -47t-68 -137h-86q18 119 96 188.5t194 69.5q158 0 194 -73.5t36 -139.5t-43 -116t-109 -73v-4q55 -20 89 -69.5t34 -109.5q0 -121 -84.5 -192t-209.5 -71q-124 0 -203.5 70.5t-84.5 199.5h86q6 -92 58.5 -142t140.5 -50t144.5 46
t57.5 124t-42 119.5t-127 41.5h-43l14 74h60q72 -2 121 39t49 114z" />
    <glyph glyph-name="acute" unicode="&#xb4;" 
d="M713 1464h139l-205 -260h-88z" />
    <glyph glyph-name="mu" unicode="&#xb5;" horiz-adv-x="952" 
d="M319 -25q-153 0 -202 111h-4l-84 -426h-99l273 1399h98l-143 -740q-49 -260 176 -260q149 0 263 107.5t148 275.5l119 617h99l-205 -1059h-99l35 178h-4q-118 -147 -210.5 -175t-160.5 -28z" />
    <glyph glyph-name="paragraph" unicode="&#xb6;" horiz-adv-x="972" 
d="M500 782q-158 0 -247 78t-89 213q0 195 145 305q115 86 289 86h430l-283 -1464h-100l264 1362h-157l-265 -1362h-100l152 782h-39z" />
    <glyph glyph-name="periodcentered" unicode="&#xb7;" horiz-adv-x="288" 
d="M119 717h123l-33 -162h-123z" />
    <glyph glyph-name="cedilla" unicode="&#xb8;" 
d="M311 -172q-21 0 -80 -14l-22 45l145 141h97l-115 -104v-5q72 4 112.5 -26.5t40.5 -78.5q0 -87 -61.5 -125t-151.5 -38q-91 0 -170 45l29 53q72 -28 135 -28q123 0 123 80q0 55 -82 55z" />
    <glyph glyph-name="onesuperior" unicode="&#xb9;" horiz-adv-x="442" 
d="M362 1253h-188l12 66q111 4 161 38t75 113h76l-158 -821h-94z" />
    <glyph glyph-name="ordmasculine" unicode="&#xba;" horiz-adv-x="925" 
d="M301.5 638.5q68.5 -87.5 198.5 -87.5q167 0 260.5 143.5t93.5 335.5q0 134 -66 228t-198 94q-170 0 -263.5 -149.5t-93.5 -312.5q0 -164 68.5 -251.5zM516 467q-180 0 -282.5 105t-102.5 284q0 226 123 401t340 175q160 0 261 -107t101 -308t-85 -324.5t-171 -174.5
t-184 -51z" />
    <glyph glyph-name="guillemotright" unicode="&#xbb;" horiz-adv-x="811" 
d="M707 616l-27 -135l-293 -223l27 135l219 158v4l-154 178l23 121zM387 616l-27 -135l-292 -223l26 135l221 158v4l-155 178l22 121z" />
    <glyph glyph-name="onequarter" unicode="&#xbc;" horiz-adv-x="1419" 
d="M797 276h309l78 410h-2l-385 -407v-3zM1090 205h-400l19 88l508 530h83l-104 -547h121l-14 -71h-123l-39 -205h-88zM1307 1464h106l-1261 -1464h-107zM379 1253h-189l13 66q111 4 161 38t74 113h76l-158 -821h-94z" />
    <glyph glyph-name="onehalf" unicode="&#xbd;" horiz-adv-x="1497" 
d="M1315 620q0 56 -43 95t-112 39t-124 -49.5t-73 -153.5h-91q20 145 104.5 212.5t192.5 67.5q160 0 202 -80.5t42 -140.5q0 -105 -66 -167t-185 -125q-119 -62 -188 -113t-89 -127h440l-16 -78h-545q30 191 152 265.5t174 102.5t91.5 50t69 49t47 62t17.5 91zM1288 1464
h107l-1262 -1464h-106zM379 1253h-189l13 66q111 4 161 38t74 113h76l-158 -821h-94z" />
    <glyph glyph-name="threequarters" unicode="&#xbe;" horiz-adv-x="1552" 
d="M930 276h309l78 410h-2l-385 -407v-3zM1223 205h-400l19 88l508 530h84l-105 -547h121l-14 -71h-123l-39 -205h-88zM1452 1464h107l-1262 -1464h-107zM633 1269q1 138 -149 138q-70 0 -124.5 -47t-68.5 -137h-86q18 119 96 188.5t195 69.5q157 0 193 -73.5t36 -139.5
t-43 -116t-109 -73v-4q55 -20 89 -69.5t34 -109.5q0 -121 -84.5 -192t-208.5 -71t-204 70.5t-84 199.5h86q6 -92 58.5 -142t140.5 -50t144 46t57 124t-42 119.5t-127 41.5h-43l14 74h60q72 -2 121 39t49 114z" />
    <glyph glyph-name="questiondown" unicode="&#xbf;" horiz-adv-x="980" 
d="M674 1042h-123l31 162h123zM173.5 -134q75.5 -61 203.5 -61t226.5 88.5t127.5 251.5h107q-24 -184 -152.5 -308t-333.5 -124q-152 0 -257 85.5t-105 235.5t73.5 241.5t227.5 201.5q49 37 123.5 100t111.5 273h101q-34 -183 -80.5 -253.5t-91.5 -109.5t-99 -79
t-99.5 -74.5t-102 -104t-56.5 -185.5q0 -117 75.5 -178z" />
    <glyph glyph-name="Agrave" unicode="&#xc0;" horiz-adv-x="1232" 
d="M729 1542l-141 225h135l94 -225h-88zM315 559h580l-115 582q-32 167 -39 219h-4q-38 -88 -110 -221zM913 471h-645l-254 -471h-106l788 1464h121l297 -1464h-106z" />
    <glyph glyph-name="Aacute" unicode="&#xc1;" horiz-adv-x="1232" 
d="M879 1767h139l-203 -225h-90zM315 559h580l-115 582q-32 167 -39 219h-4q-38 -88 -110 -221zM913 471h-645l-254 -471h-106l788 1464h121l297 -1464h-106z" />
    <glyph glyph-name="Acircumflex" unicode="&#xc2;" horiz-adv-x="1232" 
d="M723 1747h127l149 -207h-108l-111 146h-4l-162 -146h-114zM315 559h580l-115 582q-32 167 -39 219h-4q-38 -88 -110 -221zM913 471h-645l-254 -471h-106l788 1464h121l297 -1464h-106z" />
    <glyph glyph-name="Atilde" unicode="&#xc3;" horiz-adv-x="1232" 
d="M756.5 1600.5q-80.5 44.5 -106.5 44.5q-57 0 -75 -84h-83q16 88 61 130t88 42q62 0 138.5 -44t109.5 -44q58 0 76 84h84q-14 -86 -60.5 -129.5t-99.5 -43.5q-52 0 -132.5 44.5zM315 559h580l-115 582q-32 167 -39 219h-4q-38 -88 -110 -221zM913 471h-645l-254 -471h-106
l788 1464h121l297 -1464h-106z" />
    <glyph glyph-name="Adieresis" unicode="&#xc4;" horiz-adv-x="1232" 
d="M891 1710h100l-33 -164h-100zM586 1710h100l-33 -164h-100zM315 559h580l-115 582q-32 167 -39 219h-4q-38 -88 -110 -221zM913 471h-645l-254 -471h-106l788 1464h121l297 -1464h-106z" />
    <glyph glyph-name="Aring" unicode="&#xc5;" horiz-adv-x="1232" 
d="M776 1587q45 0 73 31t28 76t-28 75.5t-73 30.5t-72.5 -30.5t-27.5 -75.5t27.5 -76t72.5 -31zM776 1520q-37 0 -69.5 13t-56 36.5t-38 55.5t-14.5 69t14.5 68.5t38 55t56 37t69.5 13.5t70 -13.5t56.5 -37t37.5 -55t14 -68.5t-14 -69t-37.5 -55.5t-56.5 -36.5t-70 -13z
M315 559h580l-115 582q-32 167 -39 219h-4q-38 -88 -110 -221zM913 471h-645l-254 -471h-106l788 1464h121l297 -1464h-106z" />
    <glyph glyph-name="AE" unicode="&#xc6;" horiz-adv-x="1884" 
d="M358 559h566l155 813h-231zM905 471h-600l-282 -471h-111l881 1464h1149l-17 -92h-739l-111 -571h694l-18 -90h-694l-119 -615h788l-18 -96h-893z" />
    <glyph glyph-name="Ccedilla" unicode="&#xc7;" horiz-adv-x="1312" 
d="M559 -172q-20 0 -80 -14l-22 45l121 118q-232 19 -358 183.5t-126 423.5q0 158 44 319.5t135.5 292.5t230 214t328.5 83t323 -105.5t162 -324.5h-103q-23 162 -124 251t-267 89t-283.5 -75t-226 -248.5t-108.5 -493.5q0 -371 165 -445.5t274 -74.5q204 0 340.5 124
t186.5 340h101q-92 -389 -288 -472t-316 -85l-84 -77v-5q72 4 112.5 -26.5t40.5 -78.5q0 -86 -61 -124.5t-152 -38.5t-170 45l29 53q72 -28 135 -28q123 0 123 80q0 55 -82 55z" />
    <glyph glyph-name="Egrave" unicode="&#xc8;" horiz-adv-x="1144" 
d="M758 1542l-142 225h136l94 -225h-88zM305 1464h905l-16 -92h-801l-110 -571h755l-18 -90h-756l-119 -615h850l-18 -96h-954z" />
    <glyph glyph-name="Eacute" unicode="&#xc9;" horiz-adv-x="1144" 
d="M879 1767h139l-203 -225h-90zM305 1464h905l-16 -92h-801l-110 -571h755l-18 -90h-756l-119 -615h850l-18 -96h-954z" />
    <glyph glyph-name="Ecircumflex" unicode="&#xca;" horiz-adv-x="1144" 
d="M764 1747h127l149 -207h-108l-111 146h-4l-162 -146h-114zM305 1464h905l-16 -92h-801l-110 -571h755l-18 -90h-756l-119 -615h850l-18 -96h-954z" />
    <glyph glyph-name="Edieresis" unicode="&#xcb;" horiz-adv-x="1144" 
d="M926 1710h100l-33 -164h-100zM621 1710h100l-33 -164h-100zM305 1464h905l-16 -92h-801l-110 -571h755l-18 -90h-756l-119 -615h850l-18 -96h-954z" />
    <glyph glyph-name="Igrave" unicode="&#xcc;" horiz-adv-x="370" 
d="M332 1542l-142 225h136l94 -225h-88zM313 1464h105l-283 -1464h-104z" />
    <glyph glyph-name="Iacute" unicode="&#xcd;" horiz-adv-x="370" 
d="M487 1767h140l-203 -225h-90zM313 1464h105l-283 -1464h-104z" />
    <glyph glyph-name="Icircumflex" unicode="&#xce;" horiz-adv-x="370" 
d="M344 1747h127l150 -207h-109l-111 146h-4l-161 -146h-115zM313 1464h105l-283 -1464h-104z" />
    <glyph glyph-name="Idieresis" unicode="&#xcf;" horiz-adv-x="370" 
d="M506 1710h100l-33 -164h-100zM201 1710h100l-33 -164h-100zM313 1464h105l-283 -1464h-104z" />
    <glyph glyph-name="Eth" unicode="&#xd0;" horiz-adv-x="1318" 
d="M1192 889q0 481 -420 481h-360l-115 -590h502l-19 -90h-501l-115 -598h391q317 0 477 224t160 573zM778 1464q399 0 462 -221t63 -373t-43 -312.5t-133.5 -284t-230.5 -198.5t-335 -75h-518l133 690h-143l18 90h142l133 684h452z" />
    <glyph glyph-name="Ntilde" unicode="&#xd1;" horiz-adv-x="1284" 
d="M863 1600.5q-81 44.5 -107 44.5q-25 0 -45.5 -21.5t-28.5 -62.5h-84q16 88 61.5 130t88.5 42q60 0 138 -44t107 -44q62 0 78 84h84q-14 -86 -60.5 -129.5t-98.5 -43.5t-133 44.5zM305 1464h117l448 -1034q51 -118 109 -276h4l254 1310h102l-282 -1464h-113l-438 1012
q-68 150 -125 303h-4l-254 -1315h-100z" />
    <glyph glyph-name="Ograve" unicode="&#xd2;" horiz-adv-x="1411" 
d="M819 1542l-141 225h135l94 -225h-88zM203 622q0 -253 125 -403.5t348 -150.5q150 0 264.5 67.5t229 236.5t114.5 486q0 240 -129.5 390.5t-347.5 150.5q-150 0 -263.5 -67.5t-189 -179.5t-113.5 -255t-38 -275zM672 -27q-253 0 -416.5 169.5t-163.5 461.5q0 162 47 321.5
t138.5 285.5t225 204t283.5 78q279 0 444 -173.5t165 -461.5q0 -355 -136.5 -543t-271.5 -265t-315 -77z" />
    <glyph glyph-name="Oacute" unicode="&#xd3;" horiz-adv-x="1411" 
d="M936 1767h139l-203 -225h-90zM203 622q0 -253 125 -403.5t348 -150.5q150 0 264.5 67.5t229 236.5t114.5 486q0 240 -129.5 390.5t-347.5 150.5q-150 0 -263.5 -67.5t-189 -179.5t-113.5 -255t-38 -275zM672 -27q-253 0 -416.5 169.5t-163.5 461.5q0 162 47 321.5
t138.5 285.5t225 204t283.5 78q279 0 444 -173.5t165 -461.5q0 -355 -136.5 -543t-271.5 -265t-315 -77z" />
    <glyph glyph-name="Ocircumflex" unicode="&#xd4;" horiz-adv-x="1411" 
d="M815 1747h127l150 -207h-109l-111 146h-4l-161 -146h-115zM203 622q0 -253 125 -403.5t348 -150.5q150 0 264.5 67.5t229 236.5t114.5 486q0 240 -129.5 390.5t-347.5 150.5q-150 0 -263.5 -67.5t-189 -179.5t-113.5 -255t-38 -275zM672 -27q-253 0 -416.5 169.5
t-163.5 461.5q0 162 47 321.5t138.5 285.5t225 204t283.5 78q279 0 444 -173.5t165 -461.5q0 -355 -136.5 -543t-271.5 -265t-315 -77z" />
    <glyph glyph-name="Otilde" unicode="&#xd5;" horiz-adv-x="1411" 
d="M842.5 1600.5q-80.5 44.5 -106.5 44.5t-46 -21.5t-28 -62.5h-84q16 88 61 130t88 42q62 0 138.5 -44t109.5 -44q58 0 76 84h84q-14 -86 -60.5 -129.5t-99.5 -43.5q-52 0 -132.5 44.5zM203 622q0 -253 125 -403.5t348 -150.5q150 0 264.5 67.5t229 236.5t114.5 486
q0 240 -129.5 390.5t-347.5 150.5q-150 0 -263.5 -67.5t-189 -179.5t-113.5 -255t-38 -275zM672 -27q-253 0 -416.5 169.5t-163.5 461.5q0 162 47 321.5t138.5 285.5t225 204t283.5 78q279 0 444 -173.5t165 -461.5q0 -355 -136.5 -543t-271.5 -265t-315 -77z" />
    <glyph glyph-name="Odieresis" unicode="&#xd6;" horiz-adv-x="1411" 
d="M985 1710h100l-32 -164h-101zM680 1710h100l-32 -164h-101zM203 622q0 -253 125 -403.5t348 -150.5q150 0 264.5 67.5t229 236.5t114.5 486q0 240 -129.5 390.5t-347.5 150.5q-150 0 -263.5 -67.5t-189 -179.5t-113.5 -255t-38 -275zM672 -27q-253 0 -416.5 169.5
t-163.5 461.5q0 162 47 321.5t138.5 285.5t225 204t283.5 78q279 0 444 -173.5t165 -461.5q0 -355 -136.5 -543t-271.5 -265t-315 -77z" />
    <glyph glyph-name="multiply" unicode="&#xd7;" horiz-adv-x="1021" 
d="M293 1032l248 -305l325 305l60 -63l-330 -310l254 -307l-70 -57l-250 303l-323 -303l-60 63l328 308l-252 309z" />
    <glyph glyph-name="Oslash" unicode="&#xd8;" horiz-adv-x="1411" 
d="M203 604q0 -180 71 -311l867 971q-131 135 -334 135q-150 0 -263.5 -67.5t-227 -236t-113.5 -491.5zM1284 858q0 201 -92 340l-870 -973q129 -157 354 -157q150 0 264.5 67.5t229 236.5t114.5 486zM92 604q0 162 47 321.5t138.5 285.5t225.5 204t308 78q235 0 397 -154
l138 154l59 -55l-141 -160q131 -172 131 -420q0 -355 -136.5 -543t-271.5 -265t-315 -77q-256 0 -418 174l-162 -180l-59 56l168 188q-109 160 -109 393z" />
    <glyph glyph-name="Ugrave" unicode="&#xd9;" horiz-adv-x="1232" 
d="M784 1542l-141 225h135l94 -225h-88zM544 70q202 0 309.5 85t143.5 283l199 1026h104l-200 -1036q-85 -451 -545 -451q-384 0 -429.5 191.5t-19.5 333.5l187 962h104l-186 -962q-83 -432 333 -432z" />
    <glyph glyph-name="Uacute" unicode="&#xda;" horiz-adv-x="1232" 
d="M891 1767h139l-203 -225h-90zM544 70q202 0 309.5 85t143.5 283l199 1026h104l-200 -1036q-85 -451 -545 -451q-384 0 -429.5 191.5t-19.5 333.5l187 962h104l-186 -962q-83 -432 333 -432z" />
    <glyph glyph-name="Ucircumflex" unicode="&#xdb;" horiz-adv-x="1232" 
d="M776 1747h127l150 -207h-109l-110 146h-5l-161 -146h-115zM544 70q202 0 309.5 85t143.5 283l199 1026h104l-200 -1036q-85 -451 -545 -451q-384 0 -429.5 191.5t-19.5 333.5l187 962h104l-186 -962q-83 -432 333 -432z" />
    <glyph glyph-name="Udieresis" unicode="&#xdc;" horiz-adv-x="1232" 
d="M940 1710h100l-32 -164h-101zM635 1710h100l-33 -164h-100zM544 70q202 0 309.5 85t143.5 283l199 1026h104l-200 -1036q-85 -451 -545 -451q-384 0 -429.5 191.5t-19.5 333.5l187 962h104l-186 -962q-83 -432 333 -432z" />
    <glyph glyph-name="Yacute" unicode="&#xdd;" horiz-adv-x="1118" 
d="M829 1767h140l-203 -225h-90zM528 651l-360 813h111l317 -727h4l567 727h117l-653 -825l-123 -639h-105z" />
    <glyph glyph-name="Thorn" unicode="&#xde;" horiz-adv-x="1148" 
d="M600 463q295 0 362.5 128.5t67.5 240.5t-70.5 183.5t-228.5 71.5h-395l-121 -624h385zM733 1182q207 0 305 -99t99 -236q0 -248 -147 -362t-392 -114h-399l-72 -371h-104l282 1464h105l-56 -282h379z" />
    <glyph glyph-name="germandbls" unicode="&#xdf;" horiz-adv-x="944" 
d="M611 25.5q-85 -35.5 -178 -35.5t-169 26l17 86h4q55 -27 141 -26q164 2 256 108.5t92 290.5q0 135 -68.5 218t-203.5 83h-76l16 84h66q158 0 235.5 86t77.5 207t-61.5 183.5t-165.5 62.5t-179 -71t-100 -200l-219 -1128h-98l219 1139q33 160 136.5 251t243.5 91
t230.5 -84t90.5 -227q0 -144 -70 -230t-172 -123v-4q90 -37 145.5 -127t55.5 -203t-32 -203t-90.5 -154.5t-143.5 -100z" />
    <glyph glyph-name="agrave" unicode="&#xe0;" horiz-adv-x="985" 
d="M557 1204l-141 260h131l96 -260h-86zM336 55q170 0 265 90.5t122 225.5l41 207q-88 -34 -317.5 -50t-289 -87t-57.5 -173t70 -157.5t166 -55.5zM801 794q0 204 -267 203q-267 0 -319 -239h-100q29 152 139.5 237.5t288.5 85.5q288 0 325 -139t17 -248l-107 -536
q-12 -66 16.5 -86.5t86.5 -5.5h6l-13 -70q-24 -12 -84 -12t-90.5 47t-17.5 108h-6q-68 -110 -168 -138t-170 -28q-141 0 -240.5 78t-99.5 216t84 224.5t232 104.5t246 20t150 24t71.5 58t19.5 96z" />
    <glyph glyph-name="aacute" unicode="&#xe1;" horiz-adv-x="985" 
d="M676 1464h139l-205 -260h-88zM336 55q170 0 265 90.5t122 225.5l41 207q-88 -34 -317.5 -50t-289 -87t-57.5 -173t70 -157.5t166 -55.5zM801 794q0 204 -267 203q-267 0 -319 -239h-100q29 152 139.5 237.5t288.5 85.5q288 0 325 -139t17 -248l-107 -536
q-12 -66 16.5 -86.5t86.5 -5.5h6l-13 -70q-24 -12 -84 -12t-90.5 47t-17.5 108h-6q-68 -110 -168 -138t-170 -28q-141 0 -240.5 78t-99.5 216t84 224.5t232 104.5t246 20t150 24t71.5 58t19.5 96z" />
    <glyph glyph-name="acircumflex" unicode="&#xe2;" horiz-adv-x="985" 
d="M539 1430h127l122 -218h-108l-84 156h-4l-135 -156h-115zM336 55q170 0 265 90.5t122 225.5l41 207q-88 -34 -317.5 -50t-289 -87t-57.5 -173t70 -157.5t166 -55.5zM801 794q0 204 -267 203q-267 0 -319 -239h-100q29 152 139.5 237.5t288.5 85.5q288 0 325 -139t17 -248
l-107 -536q-12 -66 16.5 -86.5t86.5 -5.5h6l-13 -70q-24 -12 -84 -12t-90.5 47t-17.5 108h-6q-68 -110 -168 -138t-170 -28q-141 0 -240.5 78t-99.5 216t84 224.5t232 104.5t246 20t150 24t71.5 58t19.5 96z" />
    <glyph glyph-name="atilde" unicode="&#xe3;" horiz-adv-x="985" 
d="M566.5 1273q-76.5 44 -102.5 44t-46.5 -21.5t-28.5 -62.5h-84q16 88 61.5 130t88.5 42q60 0 135.5 -44t103.5 -44q61 0 78 84h84q-14 -86 -60.5 -129t-99.5 -43t-129.5 44zM336 55q170 0 265 90.5t122 225.5l41 207q-88 -34 -317.5 -50t-289 -87t-57.5 -173t70 -157.5
t166 -55.5zM801 794q0 204 -267 203q-267 0 -319 -239h-100q29 152 139.5 237.5t288.5 85.5q288 0 325 -139t17 -248l-107 -536q-12 -66 16.5 -86.5t86.5 -5.5h6l-13 -70q-24 -12 -84 -12t-90.5 47t-17.5 108h-6q-68 -110 -168 -138t-170 -28q-141 0 -240.5 78t-99.5 216
t84 224.5t232 104.5t246 20t150 24t71.5 58t19.5 96z" />
    <glyph glyph-name="adieresis" unicode="&#xe4;" horiz-adv-x="985" 
d="M711 1464h100l-31 -164h-100zM406 1464h100l-31 -164h-100zM336 55q170 0 265 90.5t122 225.5l41 207q-88 -34 -317.5 -50t-289 -87t-57.5 -173t70 -157.5t166 -55.5zM801 794q0 204 -267 203q-267 0 -319 -239h-100q29 152 139.5 237.5t288.5 85.5q288 0 325 -139
t17 -248l-107 -536q-12 -66 16.5 -86.5t86.5 -5.5h6l-13 -70q-24 -12 -84 -12t-90.5 47t-17.5 108h-6q-68 -110 -168 -138t-170 -28q-141 0 -240.5 78t-99.5 216t84 224.5t232 104.5t246 20t150 24t71.5 58t19.5 96z" />
    <glyph glyph-name="aring" unicode="&#xe5;" horiz-adv-x="985" 
d="M586 1247q45 0 72.5 31t27.5 76t-27.5 75.5t-72.5 30.5t-73 -30.5t-28 -75.5t28 -76t73 -31zM586 1180q-37 0 -70 13t-56.5 36.5t-37.5 55.5t-14 69t14 68.5t37.5 55t56.5 37t70 13.5t69.5 -13.5t56 -37t38 -55t14.5 -68.5t-14.5 -69t-38 -55.5t-56 -36.5t-69.5 -13z
M336 55q170 0 265 90.5t122 225.5l41 207q-88 -34 -317.5 -50t-289 -87t-57.5 -173t70 -157.5t166 -55.5zM801 794q0 204 -267 203q-267 0 -319 -239h-100q29 152 139.5 237.5t288.5 85.5q288 0 325 -139t17 -248l-107 -536q-12 -66 16.5 -86.5t86.5 -5.5h6l-13 -70
q-24 -12 -84 -12t-90.5 47t-17.5 108h-6q-68 -110 -168 -138t-170 -28q-141 0 -240.5 78t-99.5 216t84 224.5t232 104.5t246 20t150 24t71.5 58t19.5 96z" />
    <glyph glyph-name="ae" unicode="&#xe6;" horiz-adv-x="1660" 
d="M1258 997q-162 0 -266.5 -113.5t-143.5 -283.5h674q40 273 -70 335t-194 62zM332 55q173 0 260.5 88.5t116.5 227.5l41 207q-77 -30 -221 -40.5t-205 -21.5q-123 -23 -174.5 -84.5t-49.5 -163.5t69 -157.5t163 -55.5zM530 1081q129 0 223.5 -52t114.5 -173
q63 98 161.5 161.5t212.5 63.5t178.5 -25.5t108.5 -74.5q78 -87 91 -201t-8 -262h-778q-41 -335 91 -397t216 -62q129 0 214 72t124 184h98q-53 -166 -168 -254t-271 -88t-253 78t-125 219q-56 -160 -172 -228.5t-255 -68.5t-237 78.5t-98 216.5q0 137 84 223.5t228 104.5
t239 20t147 24t72 58t20 96q0 203 -263 203t-314 -239h-100q29 152 135 237.5t284 85.5z" />
    <glyph glyph-name="ccedilla" unicode="&#xe7;" horiz-adv-x="944" 
d="M367 -172q-24 0 -80 -14l-23 45l121 118q-154 18 -247 128t-93 313q0 262 139.5 462.5t390.5 200.5q154 0 247 -88t110 -239h-94q-15 161 -106.5 202t-181.5 41t-170.5 -52t-157.5 -175t-77 -364t114 -294t196 -53q129 2 217 85t123 214h96q-41 -166 -148.5 -270
t-265.5 -115l-86 -77v-5q72 4 113 -26.5t41 -78.5q0 -86 -61 -124.5t-152 -38.5t-170 45l28 53q72 -28 136 -28q123 0 123 80q0 55 -82 55z" />
    <glyph glyph-name="egrave" unicode="&#xe8;" horiz-adv-x="976" 
d="M578 1204l-142 260h131l97 -260h-86zM573 997q-162 0 -265 -114t-142 -283h672q40 274 -70.5 335.5t-194.5 61.5zM436 -27q-174 0 -282.5 116t-108.5 349t142 438t393 205q176 0 268 -104q111 -122 99.5 -263t-19.5 -196h-776q-28 -231 58 -345t231 -114t230 72t124 184
h98q-53 -166 -168 -254t-289 -88z" />
    <glyph glyph-name="eacute" unicode="&#xe9;" horiz-adv-x="976" 
d="M688 1464h139l-204 -260h-88zM573 997q-162 0 -265 -114t-142 -283h672q40 274 -70.5 335.5t-194.5 61.5zM436 -27q-174 0 -282.5 116t-108.5 349t142 438t393 205q176 0 268 -104q111 -122 99.5 -263t-19.5 -196h-776q-28 -231 58 -345t231 -114t230 72t124 184h98
q-53 -166 -168 -254t-289 -88z" />
    <glyph glyph-name="ecircumflex" unicode="&#xea;" horiz-adv-x="976" 
d="M567 1430h127l123 -218h-108l-84 156h-4l-136 -156h-114zM573 997q-162 0 -265 -114t-142 -283h672q40 274 -70.5 335.5t-194.5 61.5zM436 -27q-174 0 -282.5 116t-108.5 349t142 438t393 205q176 0 268 -104q111 -122 99.5 -263t-19.5 -196h-776q-28 -231 58 -345
t231 -114t230 72t124 184h98q-53 -166 -168 -254t-289 -88z" />
    <glyph glyph-name="edieresis" unicode="&#xeb;" horiz-adv-x="976" 
d="M743 1464h101l-31 -164h-100zM438 1464h101l-31 -164h-100zM573 997q-162 0 -265 -114t-142 -283h672q40 274 -70.5 335.5t-194.5 61.5zM436 -27q-174 0 -282.5 116t-108.5 349t142 438t393 205q176 0 268 -104q111 -122 99.5 -263t-19.5 -196h-776q-28 -231 58 -345
t231 -114t230 72t124 184h98q-53 -166 -168 -254t-289 -88z" />
    <glyph glyph-name="igrave" unicode="&#xec;" horiz-adv-x="313" 
d="M236 1204l-113 260h125l74 -260h-86zM209 1059h98l-205 -1059h-98z" />
    <glyph glyph-name="iacute" unicode="&#xed;" horiz-adv-x="313" 
d="M209 1059h98l-205 -1059h-98zM375 1464h133l-176 -260h-86z" />
    <glyph glyph-name="icircumflex" unicode="&#xee;" horiz-adv-x="313" 
d="M246 1430h125l92 -218h-98l-62 154h-4l-113 -154h-106zM209 1059h98l-205 -1059h-98z" />
    <glyph glyph-name="idieresis" unicode="&#xef;" horiz-adv-x="313" 
d="M379 1464h98l-31 -164h-98zM174 1464h98l-30 -164h-99zM209 1059h98l-205 -1059h-98z" />
    <glyph glyph-name="eth" unicode="&#xf0;" horiz-adv-x="1032" 
d="M145 437q0 -172 81 -276t235 -104q106 0 186 52.5t158 177t78 362.5t-112 294t-207 56t-176 -52t-134 -135t-81 -184.5t-28 -190.5zM981 668q0 -280 -138 -487.5t-384 -207.5q-182 0 -298 120t-116 323q0 252 99.5 397t200.5 206.5t239 61.5q174 0 272 -141h2
q-70 195 -178 328l-287 -113l-26 68l262 102q-68 72 -158 139h131q60 -42 119 -104l203 80l24 -68l-176 -69q209 -260 209 -635z" />
    <glyph glyph-name="ntilde" unicode="&#xf1;" horiz-adv-x="964" 
d="M719 1317q58 0 76 84h84q-14 -86 -60.5 -129t-90.5 -43q-61 0 -139 44t-103 44q-26 0 -46 -21.5t-28 -62.5h-84q16 88 61 130t88 42q61 0 135.5 -44t106.5 -44zM651 995q-167 0 -285 -102t-147 -254l-123 -639h-98l205 1059h98l-37 -187h4q70 88 160 147.5t231 59.5
t214 -88t40 -246l-143 -745h-98l143 743q25 123 -22.5 187.5t-141.5 64.5z" />
    <glyph glyph-name="ograve" unicode="&#xf2;" horiz-adv-x="1024" 
d="M571 1204l-141 260h131l96 -260h-86zM145 437q0 -172 81 -276t235 -104q106 0 185 51.5t156 175.5t77 339q0 253 -115.5 314.5t-211.5 61.5t-174.5 -52t-129.5 -135t-77 -184.5t-26 -190.5zM480 -27q-204 0 -319.5 120t-115.5 323q0 257 136.5 461t387.5 204
q181 0 295.5 -122.5t114.5 -327.5q0 -254 -95.5 -394.5t-193.5 -202t-210 -61.5z" />
    <glyph glyph-name="oacute" unicode="&#xf3;" horiz-adv-x="1024" 
d="M705 1464h139l-205 -260h-88zM145 437q0 -172 81 -276t235 -104q106 0 185 51.5t156 175.5t77 339q0 253 -115.5 314.5t-211.5 61.5t-174.5 -52t-129.5 -135t-77 -184.5t-26 -190.5zM480 -27q-204 0 -319.5 120t-115.5 323q0 257 136.5 461t387.5 204q181 0 295.5 -122.5
t114.5 -327.5q0 -254 -95.5 -394.5t-193.5 -202t-210 -61.5z" />
    <glyph glyph-name="ocircumflex" unicode="&#xf4;" horiz-adv-x="1024" 
d="M582 1430h127l122 -218h-108l-84 156h-4l-135 -156h-115zM145 437q0 -172 81 -276t235 -104q106 0 185 51.5t156 175.5t77 339q0 253 -115.5 314.5t-211.5 61.5t-174.5 -52t-129.5 -135t-77 -184.5t-26 -190.5zM480 -27q-204 0 -319.5 120t-115.5 323q0 257 136.5 461
t387.5 204q181 0 295.5 -122.5t114.5 -327.5q0 -254 -95.5 -394.5t-193.5 -202t-210 -61.5z" />
    <glyph glyph-name="otilde" unicode="&#xf5;" horiz-adv-x="1024" 
d="M597 1273q-78 44 -103 44t-45.5 -21.5t-28.5 -62.5h-84q16 88 61 130t89 42q61 0 135 -44t103 -44q62 0 79 84h84q-14 -86 -60.5 -129t-98.5 -43q-53 0 -131 44zM145 437q0 -172 81 -276t235 -104q106 0 185 51.5t156 175.5t77 339q0 253 -115.5 314.5t-211.5 61.5
t-174.5 -52t-129.5 -135t-77 -184.5t-26 -190.5zM480 -27q-204 0 -319.5 120t-115.5 323q0 257 136.5 461t387.5 204q181 0 295.5 -122.5t114.5 -327.5q0 -254 -95.5 -394.5t-193.5 -202t-210 -61.5z" />
    <glyph glyph-name="odieresis" unicode="&#xf6;" horiz-adv-x="1024" 
d="M750 1464h100l-31 -164h-100zM444 1464h101l-31 -164h-100zM145 437q0 -172 81 -276t235 -104q106 0 185 51.5t156 175.5t77 339q0 253 -115.5 314.5t-211.5 61.5t-174.5 -52t-129.5 -135t-77 -184.5t-26 -190.5zM480 -27q-204 0 -319.5 120t-115.5 323q0 257 136.5 461
t387.5 204q181 0 295.5 -122.5t114.5 -327.5q0 -254 -95.5 -394.5t-193.5 -202t-210 -61.5z" />
    <glyph glyph-name="divide" unicode="&#xf7;" horiz-adv-x="1028" 
d="M559 1083h123l-31 -153h-123zM426 408h123l-31 -154h-123zM147 715h803l-18 -92h-803z" />
    <glyph glyph-name="oslash" unicode="&#xf8;" horiz-adv-x="1024" 
d="M145 426q0 -113 41 -205l602 682q-79 96 -223 96q-202 0 -311 -177.5t-109 -395.5zM879 623q0 119 -48 217l-604 -682q84 -101 234 -101q106 0 185 51.5t156 175.5t77 339zM979 631q0 -254 -95.5 -394.5t-193.5 -202t-231 -61.5q-178 0 -293 115l-105 -119l-53 49
l113 127q-76 111 -76 247q0 280 136.5 484.5t387.5 204.5q169 0 279 -110l102 114l54 -49l-107 -123q82 -120 82 -282z" />
    <glyph glyph-name="ugrave" unicode="&#xf9;" horiz-adv-x="952" 
d="M563 1204l-141 260h131l96 -260h-86zM305 -25q-141 0 -214 88.5t-40 253.5l144 742h98l-143 -740q-49 -260 176 -260q149 0 263 107.5t148 275.5l119 617h98l-204 -1059h-99l35 178h-4q-163 -203 -377 -203z" />
    <glyph glyph-name="uacute" unicode="&#xfa;" horiz-adv-x="952" 
d="M674 1464h139l-205 -260h-88zM305 -25q-141 0 -214 88.5t-40 253.5l144 742h98l-143 -740q-49 -260 176 -260q149 0 263 107.5t148 275.5l119 617h98l-204 -1059h-99l35 178h-4q-163 -203 -377 -203z" />
    <glyph glyph-name="ucircumflex" unicode="&#xfb;" horiz-adv-x="952" 
d="M565 1430h127l123 -218h-108l-84 156h-5l-135 -156h-114zM305 -25q-141 0 -214 88.5t-40 253.5l144 742h98l-143 -740q-49 -260 176 -260q149 0 263 107.5t148 275.5l119 617h98l-204 -1059h-99l35 178h-4q-163 -203 -377 -203z" />
    <glyph glyph-name="udieresis" unicode="&#xfc;" horiz-adv-x="952" 
d="M731 1464h100l-30 -164h-101zM426 1464h100l-30 -164h-101zM305 -25q-141 0 -214 88.5t-40 253.5l144 742h98l-143 -740q-49 -260 176 -260q149 0 263 107.5t148 275.5l119 617h98l-204 -1059h-99l35 178h-4q-163 -203 -377 -203z" />
    <glyph glyph-name="yacute" unicode="&#xfd;" horiz-adv-x="917" 
d="M657 1464h140l-205 -260h-88zM94 -258q119 0 193 145l51 99l-232 1073h101l145 -697q26 -111 47 -270h4q76 171 127 266l351 701h104l-618 -1213q-55 -109 -122 -152.5t-136 -43.5t-117 12l18 90h4q30 -10 80 -10z" />
    <glyph glyph-name="thorn" unicode="&#xfe;" horiz-adv-x="1040" 
d="M483 59q204 0 310 182t106 410q0 146 -70 246t-217 100q-201 0 -318.5 -187.5t-117.5 -403.5q-2 -162 76 -254.5t231 -92.5zM631 1081q171 0 270.5 -117t99.5 -311q0 -273 -136 -474.5t-388 -201.5q-117 0 -209 58.5t-131 165.5h-4l-104 -541h-99l351 1804h98l-115 -587
h4q137 204 363 204z" />
    <glyph glyph-name="ydieresis" unicode="&#xff;" horiz-adv-x="917" 
d="M700 1464h101l-31 -164h-100zM395 1464h101l-31 -164h-100zM94 -258q119 0 193 145l51 99l-232 1073h101l145 -697q26 -111 47 -270h4q76 171 127 266l351 701h104l-618 -1213q-55 -109 -122 -152.5t-136 -43.5t-117 12l18 90h4q30 -10 80 -10z" />
    <glyph glyph-name="Amacron" unicode="&#x100;" horiz-adv-x="1232" 
d="M545 1661h477l-18 -98h-478zM315 559h580l-115 582q-32 167 -39 219h-4q-38 -88 -110 -221zM913 471h-645l-254 -471h-106l788 1464h121l297 -1464h-106z" />
    <glyph glyph-name="amacron" unicode="&#x101;" horiz-adv-x="985" 
d="M360 1391h467l-18 -99h-467zM336 55q170 0 265 90.5t122 225.5l41 207q-88 -34 -317.5 -50t-289 -87t-57.5 -173t70 -157.5t166 -55.5zM801 794q0 204 -267 203q-267 0 -319 -239h-100q29 152 139.5 237.5t288.5 85.5q288 0 325 -139t17 -248l-107 -536
q-12 -66 16.5 -86.5t86.5 -5.5h6l-13 -70q-24 -12 -84 -12t-90.5 47t-17.5 108h-6q-68 -110 -168 -138t-170 -28q-141 0 -240.5 78t-99.5 216t84 224.5t232 104.5t246 20t150 24t71.5 58t19.5 96z" />
    <glyph glyph-name="Abreve" unicode="&#x102;" horiz-adv-x="1232" 
d="M774.5 1542q-104.5 0 -162 60.5t-57.5 148.5h90q4 -51 36 -83t96 -32t103.5 32t55.5 83h94q-18 -90 -84.5 -149.5t-171 -59.5zM315 559h580l-115 582q-32 167 -39 219h-4q-38 -88 -110 -221zM913 471h-645l-254 -471h-106l788 1464h121l297 -1464h-106z" />
    <glyph glyph-name="abreve" unicode="&#x103;" horiz-adv-x="985" 
d="M598 1300q120 0 158 123h94q-18 -96 -85 -156.5t-171.5 -60.5t-161.5 61.5t-57 155.5h90q4 -55 35.5 -89t97.5 -34zM336 55q170 0 265 90.5t122 225.5l41 207q-88 -34 -317.5 -50t-289 -87t-57.5 -173t70 -157.5t166 -55.5zM801 794q0 204 -267 203q-267 0 -319 -239
h-100q29 152 139.5 237.5t288.5 85.5q288 0 325 -139t17 -248l-107 -536q-12 -66 16.5 -86.5t86.5 -5.5h6l-13 -70q-24 -12 -84 -12t-90.5 47t-17.5 108h-6q-68 -110 -168 -138t-170 -28q-141 0 -240.5 78t-99.5 216t84 224.5t232 104.5t246 20t150 24t71.5 58t19.5 96z" />
    <glyph glyph-name="Aogonek" unicode="&#x104;" horiz-adv-x="1232" 
d="M315 559h580l-115 582q-32 167 -39 219h-4q-38 -88 -110 -221zM911 -213q0 -66 78 -66q51 0 101 21h6l-15 -76q-43 -24 -118 -24q-74 0 -114 37.5t-40 103.5t58.5 128t136.5 107l-91 453h-645l-254 -471h-106l788 1464h121l295 -1456q-201 -121 -201 -221z" />
    <glyph glyph-name="aogonek" unicode="&#x105;" horiz-adv-x="985" 
d="M336 55q170 0 265 90.5t122 225.5l41 207q-88 -34 -317.5 -50t-289 -87t-57.5 -173t70 -157.5t166 -55.5zM801 794q0 204 -267 203q-267 0 -319 -239h-100q29 152 139.5 237.5t288.5 85.5q288 0 325 -139t17 -248l-107 -536q-12 -66 16.5 -86.5t86.5 -5.5h6l-13 -70
q-98 -39 -159.5 -97.5t-61.5 -111.5q0 -66 78 -66q51 0 100 21h7l-15 -76q-43 -24 -118 -24q-74 0 -114 37.5t-40 102.5t56.5 123t127.5 95q-39 18 -50 58t-3 81h-6q-68 -110 -168 -138t-170 -28q-141 0 -240.5 78t-99.5 216t84 224.5t232 104.5t246 20t150 24t71.5 58
t19.5 96z" />
    <glyph glyph-name="Cacute" unicode="&#x106;" horiz-adv-x="1312" 
d="M942 1767h139l-202 -225h-91zM644 -27q-259 0 -404.5 165t-145.5 446q0 158 44 319.5t135.5 292.5t230 214t328.5 83t323 -105.5t162 -324.5h-103q-23 162 -124 251t-267 89t-283.5 -75t-226 -248.5t-108.5 -493.5q0 -371 165 -445.5t274 -74.5q204 0 340.5 124
t186.5 340h101q-97 -399 -297.5 -478t-330.5 -79z" />
    <glyph glyph-name="cacute" unicode="&#x107;" horiz-adv-x="944" 
d="M684 1464h139l-205 -260h-88zM450 -27q-185 0 -295 113.5t-110 353.5t139.5 440.5t390.5 200.5q154 0 247 -88t110 -239h-94q-15 161 -106.5 202t-181.5 41t-170.5 -52t-157.5 -175t-77 -364t114 -294t196 -53q129 2 217 85t123 214h96q-72 -269 -213 -327t-228 -58z" />
    <glyph glyph-name="Ccircumflex" unicode="&#x108;" horiz-adv-x="1312" 
d="M821 1747h127l150 -207h-109l-110 146h-5l-161 -146h-115zM644 -27q-259 0 -404.5 165t-145.5 446q0 158 44 319.5t135.5 292.5t230 214t328.5 83t323 -105.5t162 -324.5h-103q-23 162 -124 251t-267 89t-283.5 -75t-226 -248.5t-108.5 -493.5q0 -371 165 -445.5
t274 -74.5q204 0 340.5 124t186.5 340h101q-97 -399 -297.5 -478t-330.5 -79z" />
    <glyph glyph-name="ccircumflex" unicode="&#x109;" horiz-adv-x="944" 
d="M573 1430h127l123 -218h-108l-84 156h-4l-135 -156h-115zM450 -27q-185 0 -295 113.5t-110 353.5t139.5 440.5t390.5 200.5q154 0 247 -88t110 -239h-94q-15 161 -106.5 202t-181.5 41t-170.5 -52t-157.5 -175t-77 -364t114 -294t196 -53q129 2 217 85t123 214h96
q-72 -269 -213 -327t-228 -58z" />
    <glyph glyph-name="Cdotaccent" unicode="&#x10a;" horiz-adv-x="1312" 
d="M834 1710h98l-33 -164h-98zM644 -27q-259 0 -404.5 165t-145.5 446q0 158 44 319.5t135.5 292.5t230 214t328.5 83t323 -105.5t162 -324.5h-103q-23 162 -124 251t-267 89t-283.5 -75t-226 -248.5t-108.5 -493.5q0 -371 165 -445.5t274 -74.5q204 0 340.5 124t186.5 340
h101q-97 -399 -297.5 -478t-330.5 -79z" />
    <glyph glyph-name="cdotaccent" unicode="&#x10b;" horiz-adv-x="944" 
d="M563 1464h99l-31 -164h-99zM450 -27q-185 0 -295 113.5t-110 353.5t139.5 440.5t390.5 200.5q154 0 247 -88t110 -239h-94q-15 161 -106.5 202t-181.5 41t-170.5 -52t-157.5 -175t-77 -364t114 -294t196 -53q129 2 217 85t123 214h96q-72 -269 -213 -327t-228 -58z" />
    <glyph glyph-name="Ccaron" unicode="&#x10c;" horiz-adv-x="1312" 
d="M909 1538h-127l-149 207h108l111 -146h4l162 146h115zM644 -27q-259 0 -404.5 165t-145.5 446q0 158 44 319.5t135.5 292.5t230 214t328.5 83t323 -105.5t162 -324.5h-103q-23 162 -124 251t-267 89t-283.5 -75t-226 -248.5t-108.5 -493.5q0 -371 165 -445.5t274 -74.5
q204 0 340.5 124t186.5 340h101q-97 -399 -297.5 -478t-330.5 -79z" />
    <glyph glyph-name="ccaron" unicode="&#x10d;" horiz-adv-x="944" 
d="M649 1212h-127l-123 218h109l84 -156h4l135 156h115zM450 -27q-185 0 -295 113.5t-110 353.5t139.5 440.5t390.5 200.5q154 0 247 -88t110 -239h-94q-15 161 -106.5 202t-181.5 41t-170.5 -52t-157.5 -175t-77 -364t114 -294t196 -53q129 2 217 85t123 214h96
q-72 -269 -213 -327t-228 -58z" />
    <glyph glyph-name="Dcaron" unicode="&#x10e;" horiz-adv-x="1298" 
d="M819 1538h-127l-149 207h108l111 -146h4l162 146h114zM1171 889q0 481 -419 481h-361l-248 -1278h392q316 0 476 223t160 574zM758 1464q524 0 524 -571q0 -378 -133 -560.5t-273.5 -257.5t-334.5 -75h-518l282 1464h453z" />
    <glyph glyph-name="dcaron" unicode="&#x10f;" horiz-adv-x="1040" 
d="M1143 1206q29 10 45 29.5t26 67.5l3 10h-54l29 151h121l-31 -159q-27 -139 -152 -158zM866 641q0 166 -75 261t-222 95q-195 0 -310.5 -182t-115.5 -416t103.5 -289t195.5 -55t174 56.5t137.5 144.5t84 193.5t28.5 191.5zM41 406q0 123 37 244.5t105.5 217t168 154.5
t221.5 59t206.5 -60t121.5 -167h4l119 610h98l-284 -1464h-99l33 170h-4q-128 -197 -352 -197q-173 0 -274 113.5t-101 319.5z" />
    <glyph glyph-name="Dcroat" unicode="&#x110;" horiz-adv-x="1318" 
d="M1192 889q0 481 -420 481h-360l-115 -590h502l-19 -90h-501l-115 -598h391q317 0 477 224t160 573zM778 1464q399 0 462 -221t63 -373t-43 -312.5t-133.5 -284t-230.5 -198.5t-335 -75h-518l133 690h-143l18 90h142l133 684h452z" />
    <glyph glyph-name="dcroat" unicode="&#x111;" horiz-adv-x="1040" 
d="M866 641q0 166 -75 261t-222 95q-195 0 -310.5 -182t-115.5 -416t103.5 -289t195.5 -55t174 56.5t137.5 144.5t84 193.5t28.5 191.5zM41 406q0 123 37 244.5t105.5 217t168 154.5t221.5 59t206.5 -60t121.5 -167h4l68 352h-254l16 82h254l35 176h98l-35 -176h115l-16 -82
h-115l-233 -1206h-99l33 170h-4q-128 -197 -352 -197q-173 0 -274 113.5t-101 319.5z" />
    <glyph glyph-name="Emacron" unicode="&#x112;" horiz-adv-x="1144" 
d="M569 1661h478l-19 -98h-477zM305 1464h905l-16 -92h-801l-110 -571h755l-18 -90h-756l-119 -615h850l-18 -96h-954z" />
    <glyph glyph-name="emacron" unicode="&#x113;" horiz-adv-x="976" 
d="M379 1391h467l-19 -99h-467zM573 997q-162 0 -265 -114t-142 -283h672q40 274 -70.5 335.5t-194.5 61.5zM436 -27q-174 0 -282.5 116t-108.5 349t142 438t393 205q176 0 268 -104q111 -122 99.5 -263t-19.5 -196h-776q-28 -231 58 -345t231 -114t230 72t124 184h98
q-53 -166 -168 -254t-289 -88z" />
    <glyph glyph-name="Ebreve" unicode="&#x114;" horiz-adv-x="1144" 
d="M795 1636q121 0 157 115h95q-18 -90 -85 -149.5t-171.5 -59.5t-162 60.5t-57.5 148.5h91q4 -51 35.5 -83t97.5 -32zM305 1464h905l-16 -92h-801l-110 -571h755l-18 -90h-756l-119 -615h850l-18 -96h-954z" />
    <glyph glyph-name="ebreve" unicode="&#x115;" horiz-adv-x="976" 
d="M598 1300q120 0 158 123h94q-18 -96 -85 -156.5t-171.5 -60.5t-161.5 61.5t-57 155.5h90q4 -55 35.5 -89t97.5 -34zM573 997q-162 0 -265 -114t-142 -283h672q40 274 -70.5 335.5t-194.5 61.5zM436 -27q-174 0 -282.5 116t-108.5 349t142 438t393 205q176 0 268 -104
q111 -122 99.5 -263t-19.5 -196h-776q-28 -231 58 -345t231 -114t230 72t124 184h98q-53 -166 -168 -254t-289 -88z" />
    <glyph glyph-name="Edotaccent" unicode="&#x116;" horiz-adv-x="1144" 
d="M764 1710h98l-33 -164h-98zM305 1464h905l-16 -92h-801l-110 -571h755l-18 -90h-756l-119 -615h850l-18 -96h-954z" />
    <glyph glyph-name="edotaccent" unicode="&#x117;" horiz-adv-x="976" 
d="M578 1464h98l-31 -164h-98zM573 997q-162 0 -265 -114t-142 -283h672q40 274 -70.5 335.5t-194.5 61.5zM436 -27q-174 0 -282.5 116t-108.5 349t142 438t393 205q176 0 268 -104q111 -122 99.5 -263t-19.5 -196h-776q-28 -231 58 -345t231 -114t230 72t124 184h98
q-53 -166 -168 -254t-289 -88z" />
    <glyph glyph-name="Eogonek" unicode="&#x118;" horiz-adv-x="1144" 
d="M649 -213q0 -66 78 -66q51 0 100 21h7l-15 -76q-43 -24 -118 -24q-74 0 -114 37.5t-40 101.5t52 123t122 96h-698l282 1464h905l-16 -92h-801l-110 -571h755l-18 -90h-756l-119 -615h850l-18 -96h-127q-201 -109 -201 -213z" />
    <glyph glyph-name="eogonek" unicode="&#x119;" horiz-adv-x="976" 
d="M573 997q-162 0 -265 -114t-142 -283h672q40 274 -70.5 335.5t-194.5 61.5zM342 -223.5q0 59.5 45 112t107 86.5q-14 -2 -16 -2h-27q-188 0 -297 116t-109 349t142 438t393 205q176 0 268 -104q111 -122 99.5 -263t-19.5 -196h-776q-28 -231 58 -345t231 -114t230 72
t124 184h98q-51 -175 -195 -274q-142 -98 -198 -147.5t-56 -106.5q0 -66 78 -66q51 0 101 21h6l-15 -76q-43 -24 -118 -24q-74 0 -114 37.5t-40 97z" />
    <glyph glyph-name="Ecaron" unicode="&#x11a;" horiz-adv-x="1144" 
d="M842 1538h-127l-150 207h109l110 -146h4l162 146h115zM305 1464h905l-16 -92h-801l-110 -571h755l-18 -90h-756l-119 -615h850l-18 -96h-954z" />
    <glyph glyph-name="ecaron" unicode="&#x11b;" horiz-adv-x="976" 
d="M664 1212h-127l-123 218h108l84 -156h4l135 156h115zM573 997q-162 0 -265 -114t-142 -283h672q40 274 -70.5 335.5t-194.5 61.5zM436 -27q-174 0 -282.5 116t-108.5 349t142 438t393 205q176 0 268 -104q111 -122 99.5 -263t-19.5 -196h-776q-28 -231 58 -345t231 -114
t230 72t124 184h98q-53 -166 -168 -254t-289 -88z" />
    <glyph glyph-name="Gcircumflex" unicode="&#x11c;" horiz-adv-x="1406" 
d="M836 1747h127l149 -207h-108l-111 146h-4l-162 -146h-115zM94 584q0 172 49.5 335.5t145.5 290.5t237.5 205t333.5 78t324.5 -109.5t152.5 -332.5h-100q-8 163 -117 257.5t-271 94.5q-161 0 -282 -68.5t-241.5 -241.5t-120.5 -503q0 -524 457 -524q235 0 367.5 141.5
t172.5 353.5l17 84h-484l17 92h585l-141 -737h-80l31 231h-6q-174 -258 -499 -258q-250 0 -399 158.5t-149 452.5z" />
    <glyph glyph-name="gcircumflex" unicode="&#x11d;" horiz-adv-x="1040" 
d="M598 1430h127l123 -218h-109l-84 156h-4l-135 -156h-115zM145 445q0 -168 73 -259.5t218 -91.5q197 0 312.5 166t115.5 397t-108.5 285.5t-200.5 54.5t-171 -51t-132 -133t-80 -181.5t-27 -186.5zM399 -383q-236 0 -304 95t-77 171h101q17 -137 126 -159.5t173 -22.5
q134 0 215.5 82t107.5 223l35 176h-4q-135 -172 -348 -172q-180 0 -281.5 113t-99.5 311q0 113 36 228.5t145.5 267t350.5 151.5q113 0 198 -57t130 -170h4l39 205h98l-204 -1053q-34 -182 -138 -286t-303 -103z" />
    <glyph glyph-name="Gbreve" unicode="&#x11e;" horiz-adv-x="1406" 
d="M885 1636q121 0 157 115h95q-18 -90 -85 -149.5t-171.5 -59.5t-161.5 60.5t-57 148.5h90q4 -51 35.5 -83t97.5 -32zM94 584q0 172 49.5 335.5t145.5 290.5t237.5 205t333.5 78t324.5 -109.5t152.5 -332.5h-100q-8 163 -117 257.5t-271 94.5q-161 0 -282 -68.5
t-241.5 -241.5t-120.5 -503q0 -524 457 -524q235 0 367.5 141.5t172.5 353.5l17 84h-484l17 92h585l-141 -737h-80l31 231h-6q-174 -258 -499 -258q-250 0 -399 158.5t-149 452.5z" />
    <glyph glyph-name="gbreve" unicode="&#x11f;" horiz-adv-x="1040" 
d="M643 1300q120 0 158 123h94q-18 -96 -85 -156.5t-171 -60.5t-161.5 61.5t-57.5 155.5h90q4 -55 36 -89t97 -34zM145 445q0 -168 73 -259.5t218 -91.5q197 0 312.5 166t115.5 397t-108.5 285.5t-200.5 54.5t-171 -51t-132 -133t-80 -181.5t-27 -186.5zM399 -383
q-236 0 -304 95t-77 171h101q17 -137 126 -159.5t173 -22.5q134 0 215.5 82t107.5 223l35 176h-4q-135 -172 -348 -172q-180 0 -281.5 113t-99.5 311q0 113 36 228.5t145.5 267t350.5 151.5q113 0 198 -57t130 -170h4l39 205h98l-204 -1053q-34 -182 -138 -286t-303 -103z
" />
    <glyph glyph-name="Gdotaccent" unicode="&#x120;" horiz-adv-x="1406" 
d="M842 1710h98l-33 -164h-98zM94 584q0 172 49.5 335.5t145.5 290.5t237.5 205t333.5 78t324.5 -109.5t152.5 -332.5h-100q-8 163 -117 257.5t-271 94.5q-161 0 -282 -68.5t-241.5 -241.5t-120.5 -503q0 -524 457 -524q235 0 367.5 141.5t172.5 353.5l17 84h-484l17 92h585
l-141 -737h-80l31 231h-6q-174 -258 -499 -258q-250 0 -399 158.5t-149 452.5z" />
    <glyph glyph-name="gdotaccent" unicode="&#x121;" horiz-adv-x="1040" 
d="M608 1464h99l-31 -164h-98zM145 445q0 -168 73 -259.5t218 -91.5q197 0 312.5 166t115.5 397t-108.5 285.5t-200.5 54.5t-171 -51t-132 -133t-80 -181.5t-27 -186.5zM399 -383q-236 0 -304 95t-77 171h101q17 -137 126 -159.5t173 -22.5q134 0 215.5 82t107.5 223l35 176
h-4q-135 -172 -348 -172q-180 0 -281.5 113t-99.5 311q0 113 36 228.5t145.5 267t350.5 151.5q113 0 198 -57t130 -170h4l39 205h98l-204 -1053q-34 -182 -138 -286t-303 -103z" />
    <glyph glyph-name="Gcommaaccent" unicode="&#x122;" horiz-adv-x="1406" 
d="M502 -358q59 20 78 114h-54l29 146h121l-29 -152q-29 -150 -158 -168zM94 584q0 172 49.5 335.5t145.5 290.5t237.5 205t333.5 78t324.5 -109.5t152.5 -332.5h-100q-8 163 -117 257.5t-271 94.5q-161 0 -282 -68.5t-241.5 -241.5t-120.5 -503q0 -524 457 -524
q235 0 367.5 141.5t172.5 353.5l17 84h-484l17 92h585l-141 -737h-80l31 231h-6q-174 -258 -499 -258q-250 0 -399 158.5t-149 452.5z" />
    <glyph glyph-name="gcommaaccent" unicode="&#x123;" horiz-adv-x="1040" 
d="M743 1485q-58 -20 -77 -115h53l-29 -145h-121l29 151q29 150 158 168zM145 445q0 -168 73 -259.5t218 -91.5q197 0 312.5 166t115.5 397t-108.5 285.5t-200.5 54.5t-171 -51t-132 -133t-80 -181.5t-27 -186.5zM399 -383q-236 0 -304 95t-77 171h101q17 -137 126 -159.5
t173 -22.5q134 0 215.5 82t107.5 223l35 176h-4q-135 -172 -348 -172q-180 0 -281.5 113t-99.5 311q0 113 36 228.5t145.5 267t350.5 151.5q113 0 198 -57t130 -170h4l39 205h98l-204 -1053q-34 -182 -138 -286t-303 -103z" />
    <glyph glyph-name="Hcircumflex" unicode="&#x124;" horiz-adv-x="1265" 
d="M797 1747h127l149 -207h-108l-111 146h-4l-162 -146h-115zM305 1464h105l-123 -641h805l122 641h107l-283 -1464h-106l141 733h-805l-141 -733h-104z" />
    <glyph glyph-name="hcircumflex" unicode="&#x125;" horiz-adv-x="964" 
d="M631 1747h127l149 -207h-108l-111 146h-4l-162 -146h-114zM651 995q-167 0 -285 -102t-147 -254l-123 -639h-98l283 1464h98l-115 -592h4q70 88 160 147.5t231 59.5t214 -88t40 -246l-143 -745h-98l143 743q25 123 -22.5 187.5t-141.5 64.5z" />
    <glyph glyph-name="Hbar" unicode="&#x126;" horiz-adv-x="1265" 
d="M1092 823l47 250h-805l-47 -250h805zM229 1073h-141l18 88h140l59 303h105l-60 -303h805l59 303h107l-59 -303h143l-19 -88h-141l-207 -1073h-106l141 733h-805l-141 -733h-104z" />
    <glyph glyph-name="hbar" unicode="&#x127;" horiz-adv-x="964" 
d="M651 995q-167 0 -285 -102t-147 -254l-123 -639h-98l231 1206h-112l16 82h113l35 176h98l-35 -176h258l-16 -82h-258l-64 -334h4q70 88 160 147.5t231 59.5t214 -88t40 -246l-143 -745h-98l143 743q25 123 -22.5 187.5t-141.5 64.5z" />
    <glyph glyph-name="Itilde" unicode="&#x128;" horiz-adv-x="370" 
d="M384 1600.5q-81 44.5 -107 44.5t-46 -21.5t-28 -62.5h-84q16 88 60.5 130t88.5 42q61 0 138 -44t107 -44q62 0 79 84h84q-14 -86 -60.5 -129.5t-98.5 -43.5t-133 44.5zM313 1464h105l-283 -1464h-104z" />
    <glyph glyph-name="itilde" unicode="&#x129;" horiz-adv-x="313" 
d="M399 1321q43 0 58 80h84q-10 -86 -51.5 -127t-82.5 -41q-57 0 -115 40t-75 40q-42 0 -57 -80h-84q12 88 51 128t80 40q54 0 114 -40t78 -40zM209 1059h98l-205 -1059h-98z" />
    <glyph glyph-name="Imacron" unicode="&#x12a;" horiz-adv-x="370" 
d="M236 1655h325l-18 -88h-326zM313 1464h105l-283 -1464h-104z" />
    <glyph glyph-name="imacron" unicode="&#x12b;" horiz-adv-x="313" 
d="M147 1391h326l-18 -99h-326zM209 1059h98l-205 -1059h-98z" />
    <glyph glyph-name="Ibreve" unicode="&#x12c;" horiz-adv-x="370" 
d="M389 1636q120 0 158 115h94q-18 -90 -85 -149.5t-171 -59.5t-161.5 60.5t-57.5 148.5h90q4 -51 36 -83t97 -32zM313 1464h105l-283 -1464h-104z" />
    <glyph glyph-name="ibreve" unicode="&#x12d;" horiz-adv-x="313" 
d="M305 1300q120 0 158 123h94q-18 -96 -84.5 -156.5t-171 -60.5t-162 61.5t-57.5 155.5h90q4 -55 36 -89t97 -34zM209 1059h98l-205 -1059h-98z" />
    <glyph glyph-name="Iogonek" unicode="&#x12e;" horiz-adv-x="370" 
d="M-107.5 -94.5q56.5 63.5 140.5 106.5l280 1452h105l-283 -1462q-196 -108 -196 -215q0 -66 77 -66q51 0 101 21h6l-14 -76q-43 -24 -118 -24t-115 37.5t-40 99.5q0 63 56.5 126.5z" />
    <glyph glyph-name="iogonek" unicode="&#x12f;" horiz-adv-x="313" 
d="M287 1464h98l-31 -161h-98zM-193 -217q0 66 59.5 127t139.5 102l203 1047h98l-205 -1059q-90 -57 -141 -107.5t-51 -105.5q0 -66 78 -66q51 0 100 21h6l-14 -76q-43 -24 -118 -24t-115 37.5t-40 103.5z" />
    <glyph glyph-name="Idotaccent" unicode="&#x130;" horiz-adv-x="370" 
d="M360 1710h99l-33 -164h-98zM313 1464h105l-283 -1464h-104z" />
    <glyph glyph-name="dotlessi" unicode="&#x131;" horiz-adv-x="313" 
d="M209 1059h98l-205 -1059h-98z" />
    <glyph glyph-name="IJ" unicode="&#x132;" horiz-adv-x="1271" 
d="M708 -27q-188 0 -287.5 110t-55.5 318l10 54h102l-8 -43q-45 -252 55 -298t204 -46t177.5 61t100.5 195l221 1140h106l-225 -1161q-41 -230 -175 -280t-225 -50zM313 1464h105l-283 -1464h-104z" />
    <glyph glyph-name="ij" unicode="&#x133;" horiz-adv-x="624" 
d="M600 1464h98l-30 -161h-99zM162 -254q103 0 127 113l233 1200h99l-234 -1204q-23 -111 -80 -153t-145 -42h-47l16 86h31zM287 1464h98l-31 -161h-98zM209 1059h98l-205 -1059h-98z" />
    <glyph glyph-name="Jcircumflex" unicode="&#x134;" horiz-adv-x="919" 
d="M899 1747h127l150 -207h-109l-111 146h-4l-161 -146h-115zM355 -27q-187 0 -286 109.5t-57 318.5l11 54h102l-8 -43q-45 -251 55 -297.5t204 -46.5t177.5 61t99.5 195l221 1140h107l-225 -1161q-41 -230 -175.5 -280t-225.5 -50z" />
    <glyph glyph-name="jcircumflex" unicode="&#x135;" horiz-adv-x="313" 
d="M244 1430h125l92 -218h-99l-61 154h-4l-113 -154h-106zM-162 -254q59 0 93 30.5t49 102.5l229 1180h98l-229 -1182q-23 -117 -84.5 -167t-165.5 -50h-27l17 86h20z" />
    <glyph glyph-name="Kcommaaccent" unicode="&#x136;" horiz-adv-x="1193" 
d="M391 -358q59 20 78 114h-53l28 146h121l-28 -152q-29 -150 -158 -168zM549 797l-324 -281l-98 -516h-104l282 1464h105l-158 -815l922 815h141l-688 -598l471 -866h-115z" />
    <glyph glyph-name="kcommaaccent" unicode="&#x137;" horiz-adv-x="911" 
d="M283 -358q58 20 77 114h-53l29 146h121l-29 -152q-29 -150 -158 -168zM514 680l309 -680h-108l-279 610l-268 -235l-72 -375h-98l283 1464h98l-186 -962l622 557h131z" />
    <glyph glyph-name="kgreenlandic" unicode="&#x138;" horiz-adv-x="911" 
d="M514 680l309 -680h-108l-279 610l-268 -235l-72 -375h-98l205 1059h98l-108 -557l622 557h131z" />
    <glyph glyph-name="Lacute" unicode="&#x139;" horiz-adv-x="1026" 
d="M477 1767h139l-202 -225h-90zM305 1464h105l-265 -1368h750l-18 -96h-854z" />
    <glyph glyph-name="lacute" unicode="&#x13a;" horiz-adv-x="307" 
d="M461 1767h139l-203 -225h-90zM287 1464h98l-283 -1464h-98z" />
    <glyph glyph-name="Lcommaaccent" unicode="&#x13b;" horiz-adv-x="1056" 
d="M328 -358q57 20 75 104l3 10h-54l29 146h121l-29 -152q-29 -150 -158 -168zM305 1464h105l-265 -1368h750l-18 -96h-854z" />
    <glyph glyph-name="lcommaaccent" unicode="&#x13c;" horiz-adv-x="307" 
d="M-78 -358q59 20 78 114h-53l28 146h121l-28 -152q-29 -150 -158 -168zM287 1464h98l-283 -1464h-98z" />
    <glyph glyph-name="Lcaron" unicode="&#x13d;" horiz-adv-x="1026" 
d="M662 1206q29 10 45.5 30t27.5 77h-53l29 151h120l-30 -159q-27 -139 -152 -158zM305 1464h105l-265 -1368h750l-18 -96h-854z" />
    <glyph glyph-name="lcaron" unicode="&#x13e;" horiz-adv-x="307" 
d="M406 1206q29 10 45.5 30t27.5 77h-53l29 151h120l-30 -159q-27 -139 -152 -158zM287 1464h98l-283 -1464h-98z" />
    <glyph glyph-name="Ldot" unicode="&#x13f;" horiz-adv-x="1026" 
d="M721 717h123l-33 -162h-123zM305 1464h105l-265 -1368h750l-18 -96h-854z" />
    <glyph glyph-name="ldot" unicode="&#x140;" horiz-adv-x="479" 
d="M371 717h123l-33 -162h-123zM287 1464h98l-283 -1464h-98z" />
    <glyph glyph-name="Lslash" unicode="&#x141;" horiz-adv-x="1067" 
d="M276 559l-90 -463h750l-18 -96h-855l99 506l-195 -90l23 106l192 90l164 852h105l-154 -798l573 270l-22 -107z" />
    <glyph glyph-name="lslash" unicode="&#x142;" horiz-adv-x="393" 
d="M297 801l-154 -801h-98l139 721l-159 -113l22 111l158 112l123 633h98l-107 -551l177 125l-21 -112z" />
    <glyph glyph-name="Nacute" unicode="&#x143;" horiz-adv-x="1284" 
d="M930 1767h139l-203 -225h-90zM305 1464h117l448 -1034q51 -118 109 -276h4l254 1310h102l-282 -1464h-113l-438 1012q-68 150 -125 303h-4l-254 -1315h-100z" />
    <glyph glyph-name="nacute" unicode="&#x144;" horiz-adv-x="964" 
d="M711 1464h139l-205 -260h-88zM651 995q-167 0 -285 -102t-147 -254l-123 -639h-98l205 1059h98l-37 -187h4q70 88 160 147.5t231 59.5t214 -88t40 -246l-143 -745h-98l143 743q25 123 -22.5 187.5t-141.5 64.5z" />
    <glyph glyph-name="Ncommaaccent" unicode="&#x145;" horiz-adv-x="1284" 
d="M412 -358q58 20 77 114h-53l29 146h121l-29 -152q-29 -150 -158 -168zM305 1464h117l448 -1034q51 -118 109 -276h4l254 1310h102l-282 -1464h-113l-438 1012q-68 150 -125 303h-4l-254 -1315h-100z" />
    <glyph glyph-name="ncommaaccent" unicode="&#x146;" horiz-adv-x="964" 
d="M270 -358q59 20 78 114h-53l29 146h120l-28 -152q-29 -150 -158 -168zM651 995q-167 0 -285 -102t-147 -254l-123 -639h-98l205 1059h98l-37 -187h4q70 88 160 147.5t231 59.5t214 -88t40 -246l-143 -745h-98l143 743q25 123 -22.5 187.5t-141.5 64.5z" />
    <glyph glyph-name="Ncaron" unicode="&#x147;" horiz-adv-x="1284" 
d="M909 1538h-127l-149 207h108l111 -146h4l162 146h115zM305 1464h117l448 -1034q51 -118 109 -276h4l254 1310h102l-282 -1464h-113l-438 1012q-68 150 -125 303h-4l-254 -1315h-100z" />
    <glyph glyph-name="ncaron" unicode="&#x148;" horiz-adv-x="964" 
d="M670 1212h-127l-123 218h108l84 -156h4l136 156h114zM651 995q-167 0 -285 -102t-147 -254l-123 -639h-98l205 1059h98l-37 -187h4q70 88 160 147.5t231 59.5t214 -88t40 -246l-143 -745h-98l143 743q25 123 -22.5 187.5t-141.5 64.5z" />
    <glyph glyph-name="napostrophe" unicode="&#x149;" horiz-adv-x="976" 
d="M125 1204q60 21 78 109h-53l28 151h119l-29 -151q-29 -150 -155 -168zM674 1079q139 0 210 -83.5t44 -239.5l-146 -756h-98l143 745q27 131 -26 189.5t-143 58.5q-163 0 -284.5 -90.5t-146.5 -218.5l-131 -684h-98l205 1059h98l-35 -178h4q161 198 404 198z" />
    <glyph glyph-name="Eng" unicode="&#x14a;" horiz-adv-x="1284" 
d="M631 -289q133 0 211 58.5t110 212.5l-446 1030q-68 150 -125 303h-4l-254 -1315h-100l282 1464h117l448 -1034q51 -118 109 -276h4l254 1310h102l-292 -1517q-41 -233 -175.5 -281.5t-215.5 -48.5t-113 8l18 92q30 -6 70 -6z" />
    <glyph glyph-name="eng" unicode="&#x14b;" horiz-adv-x="964" 
d="M651 995q-167 0 -285 -102t-147 -254l-123 -639h-98l205 1059h98l-37 -187h4q70 88 160 147.5t231 59.5t214 -88t40 -246l-172 -890q-23 -111 -80 -153t-145 -42h-47l16 86h31q104 0 127 113l172 884q25 123 -22.5 187.5t-141.5 64.5z" />
    <glyph glyph-name="Omacron" unicode="&#x14c;" horiz-adv-x="1411" 
d="M629 1661h477l-19 -98h-477zM203 622q0 -253 125 -403.5t348 -150.5q150 0 264.5 67.5t229 236.5t114.5 486q0 240 -129.5 390.5t-347.5 150.5q-150 0 -263.5 -67.5t-189 -179.5t-113.5 -255t-38 -275zM672 -27q-253 0 -416.5 169.5t-163.5 461.5q0 162 47 321.5
t138.5 285.5t225 204t283.5 78q279 0 444 -173.5t165 -461.5q0 -355 -136.5 -543t-271.5 -265t-315 -77z" />
    <glyph glyph-name="omacron" unicode="&#x14d;" horiz-adv-x="1024" 
d="M397 1391h467l-18 -99h-467zM145 437q0 -172 81 -276t235 -104q106 0 185 51.5t156 175.5t77 339q0 253 -115.5 314.5t-211.5 61.5t-174.5 -52t-129.5 -135t-77 -184.5t-26 -190.5zM480 -27q-204 0 -319.5 120t-115.5 323q0 257 136.5 461t387.5 204q181 0 295.5 -122.5
t114.5 -327.5q0 -254 -95.5 -394.5t-193.5 -202t-210 -61.5z" />
    <glyph glyph-name="Obreve" unicode="&#x14e;" horiz-adv-x="1411" 
d="M856 1636q120 0 158 115h94q-18 -90 -85 -149.5t-171 -59.5t-161.5 60.5t-57.5 148.5h90q4 -51 36 -83t97 -32zM203 622q0 -253 125 -403.5t348 -150.5q150 0 264.5 67.5t229 236.5t114.5 486q0 240 -129.5 390.5t-347.5 150.5q-150 0 -263.5 -67.5t-189 -179.5
t-113.5 -255t-38 -275zM672 -27q-253 0 -416.5 169.5t-163.5 461.5q0 162 47 321.5t138.5 285.5t225 204t283.5 78q279 0 444 -173.5t165 -461.5q0 -355 -136.5 -543t-271.5 -265t-315 -77z" />
    <glyph glyph-name="obreve" unicode="&#x14f;" horiz-adv-x="1024" 
d="M623 1300q121 0 157 123h94q-18 -96 -84.5 -156.5t-171 -60.5t-162 61.5t-57.5 155.5h90q4 -55 36 -89t98 -34zM145 437q0 -172 81 -276t235 -104q106 0 185 51.5t156 175.5t77 339q0 253 -115.5 314.5t-211.5 61.5t-174.5 -52t-129.5 -135t-77 -184.5t-26 -190.5z
M480 -27q-204 0 -319.5 120t-115.5 323q0 257 136.5 461t387.5 204q181 0 295.5 -122.5t114.5 -327.5q0 -254 -95.5 -394.5t-193.5 -202t-210 -61.5z" />
    <glyph glyph-name="Ohungarumlaut" unicode="&#x150;" horiz-adv-x="1411" 
d="M1001 1767h119l-129 -225h-86zM741 1767h119l-129 -225h-84zM203 622q0 -253 125 -403.5t348 -150.5q150 0 264.5 67.5t229 236.5t114.5 486q0 240 -129.5 390.5t-347.5 150.5q-150 0 -263.5 -67.5t-189 -179.5t-113.5 -255t-38 -275zM672 -27q-253 0 -416.5 169.5
t-163.5 461.5q0 162 47 321.5t138.5 285.5t225 204t283.5 78q279 0 444 -173.5t165 -461.5q0 -355 -136.5 -543t-271.5 -265t-315 -77z" />
    <glyph glyph-name="ohungarumlaut" unicode="&#x151;" horiz-adv-x="1024" 
d="M784 1464h119l-145 -260h-86zM532 1464h119l-145 -260h-84zM145 437q0 -172 81 -276t235 -104q106 0 185 51.5t156 175.5t77 339q0 253 -115.5 314.5t-211.5 61.5t-174.5 -52t-129.5 -135t-77 -184.5t-26 -190.5zM480 -27q-204 0 -319.5 120t-115.5 323q0 257 136.5 461
t387.5 204q181 0 295.5 -122.5t114.5 -327.5q0 -254 -95.5 -394.5t-193.5 -202t-210 -61.5z" />
    <glyph glyph-name="OE" unicode="&#x152;" horiz-adv-x="2207" 
d="M223 622q0 -260 109.5 -407t329.5 -147q184 0 340 120t194 322l80 405q40 207 -78 345.5t-334 138.5q-150 0 -268.5 -67.5t-201.5 -179.5t-127 -255t-44 -275zM657 -27q-250 0 -397 168t-147 463q0 162 53 321.5t151.5 285.5t237.5 204t311 78q271 0 356 -113.5
t109 -175.5l49 260h906l-17 -92h-801l-110 -571h756l-19 -90h-756l-118 -615h850l-19 -96h-954l41 213q-186 -240 -482 -240z" />
    <glyph glyph-name="oe" unicode="&#x153;" horiz-adv-x="1796" 
d="M1393 997q-163 0 -264.5 -112.5t-143.5 -284.5h672q40 273 -70 335t-194 62zM145 437q0 -172 81 -276t235 -104q106 0 185 51.5t156 175.5t77 339q0 253 -115.5 314.5t-211.5 61.5t-174.5 -52t-129.5 -135t-77 -184.5t-26 -190.5zM455 -27q-178 0 -294 120t-116 323
q0 257 136.5 461t387.5 204q150 0 249.5 -85t131.5 -232q98 223 231.5 270t221.5 47q172 0 264 -104q111 -122 99.5 -263t-19.5 -196h-776q-6 -50 -6 -112q0 -148 75 -247.5t220 -99.5t230 72t124 184h98q-53 -166 -167.5 -254t-271.5 -88t-254 79t-128 227
q-95 -216 -222.5 -261t-213.5 -45z" />
    <glyph glyph-name="Racute" unicode="&#x154;" horiz-adv-x="1243" 
d="M870 1767h140l-203 -225h-90zM733 772q395 0 395 338q0 117 -67.5 188.5t-216.5 71.5h-453l-115 -598h457zM854 1464q188 0 283.5 -91t95.5 -252q0 -306 -289 -398v-6q181 -71 156 -327q-33 -338 22 -382v-8h-108q-51 51 -21 371q16 181 -47.5 245t-238.5 64h-449
l-131 -680h-104l282 1464h549z" />
    <glyph glyph-name="racute" unicode="&#x155;" horiz-adv-x="573" 
d="M543 1464h139l-205 -260h-88zM260 850h4q131 198 240.5 206.5t142.5 8.5l-18 -98q-91 4 -166 -30q-76 -34 -150.5 -121t-105.5 -247l-111 -569h-98l205 1059h98z" />
    <glyph glyph-name="Rcommaaccent" unicode="&#x156;" horiz-adv-x="1243" 
d="M467 -358q59 20 78 114h-53l28 146h121l-29 -152q-29 -150 -157 -168zM733 772q395 0 395 338q0 117 -67.5 188.5t-216.5 71.5h-453l-115 -598h457zM854 1464q188 0 283.5 -91t95.5 -252q0 -306 -289 -398v-6q181 -71 156 -327q-33 -338 22 -382v-8h-108q-51 51 -21 371
q16 181 -47.5 245t-238.5 64h-449l-131 -680h-104l282 1464h549z" />
    <glyph glyph-name="rcommaaccent" unicode="&#x157;" horiz-adv-x="573" 
d="M-82 -358q59 20 78 114h-53l28 146h121l-29 -152q-29 -150 -157 -168zM260 850h4q131 198 240.5 206.5t142.5 8.5l-18 -98q-91 4 -166 -30q-76 -34 -150.5 -121t-105.5 -247l-111 -569h-98l205 1059h98z" />
    <glyph glyph-name="Rcaron" unicode="&#x158;" horiz-adv-x="1243" 
d="M838 1538h-127l-150 207h109l110 -146h4l162 146h115zM733 772q395 0 395 338q0 117 -67.5 188.5t-216.5 71.5h-453l-115 -598h457zM854 1464q188 0 283.5 -91t95.5 -252q0 -306 -289 -398v-6q181 -71 156 -327q-33 -338 22 -382v-8h-108q-51 51 -21 371
q16 181 -47.5 245t-238.5 64h-449l-131 -680h-104l282 1464h549z" />
    <glyph glyph-name="rcaron" unicode="&#x159;" horiz-adv-x="573" 
d="M504 1212h-127l-123 218h108l84 -156h5l135 156h114zM260 850h4q131 198 240.5 206.5t142.5 8.5l-18 -98q-91 4 -166 -30q-76 -34 -150.5 -121t-105.5 -247l-111 -569h-98l205 1059h98z" />
    <glyph glyph-name="Sacute" unicode="&#x15a;" horiz-adv-x="1144" 
d="M797 1767h139l-203 -225h-90zM530 63q184 0 302 88.5t118 272.5q0 107 -86.5 173t-292.5 130q-215 72 -304 148t-89 217q0 185 139.5 293t402.5 108t333.5 -151.5t72.5 -256.5h-102q-4 158 -104.5 238t-260.5 80q-262 0 -319 -114.5t-57 -206.5t75.5 -150t207.5 -100
t217 -74.5t179.5 -101t94.5 -232.5q0 -212 -148.5 -331.5t-376.5 -119.5q-237 0 -381.5 123.5t-140.5 366.5h105q-6 -296 159.5 -348t255.5 -52z" />
    <glyph glyph-name="sacute" unicode="&#x15b;" horiz-adv-x="866" 
d="M604 1464h139l-204 -260h-88zM92 319q15 -260 295 -260q135 0 211 59.5t76 169.5t-94 152.5t-168 70.5q-165 63 -231 124t-66 181t101.5 192.5t256.5 72.5q156 0 248 -79.5t100 -221.5h-94q-8 106 -77.5 160.5t-182.5 54.5t-163 -31.5t-71.5 -68.5t-21.5 -82
q0 -78 57.5 -124.5t164.5 -84.5q108 -39 223.5 -93.5t115.5 -208.5t-108 -241.5t-276.5 -87.5t-281 86.5t-112.5 259.5h98z" />
    <glyph glyph-name="Scircumflex" unicode="&#x15c;" horiz-adv-x="1144" 
d="M659 1747h127l150 -207h-109l-110 146h-4l-162 -146h-115zM530 63q184 0 302 88.5t118 272.5q0 107 -86.5 173t-292.5 130q-215 72 -304 148t-89 217q0 185 139.5 293t402.5 108t333.5 -151.5t72.5 -256.5h-102q-4 158 -104.5 238t-260.5 80q-262 0 -319 -114.5
t-57 -206.5t75.5 -150t207.5 -100t217 -74.5t179.5 -101t94.5 -232.5q0 -212 -148.5 -331.5t-376.5 -119.5q-237 0 -381.5 123.5t-140.5 366.5h105q-6 -296 159.5 -348t255.5 -52z" />
    <glyph glyph-name="scircumflex" unicode="&#x15d;" horiz-adv-x="866" 
d="M477 1430h127l123 -218h-109l-83 156h-5l-135 -156h-114zM92 319q15 -260 295 -260q135 0 211 59.5t76 169.5t-94 152.5t-168 70.5q-165 63 -231 124t-66 181t101.5 192.5t256.5 72.5q156 0 248 -79.5t100 -221.5h-94q-8 106 -77.5 160.5t-182.5 54.5t-163 -31.5
t-71.5 -68.5t-21.5 -82q0 -78 57.5 -124.5t164.5 -84.5q108 -39 223.5 -93.5t115.5 -208.5t-108 -241.5t-276.5 -87.5t-281 86.5t-112.5 259.5h98z" />
    <glyph glyph-name="Scedilla" unicode="&#x15e;" horiz-adv-x="1144" 
d="M426 -172q-24 0 -80 -14l-22 45l122 118q-313 33 -375.5 201t-60.5 285h105q-6 -296 159.5 -348t255.5 -52q184 0 302 88.5t118 272.5q0 107 -86.5 173t-292.5 130q-215 72 -304 148t-89 217q0 185 139.5 293t402.5 108t333.5 -151.5t72.5 -256.5h-102q-4 158 -104.5 238
t-260.5 80q-262 0 -319 -114.5t-57 -206.5t75.5 -150t207.5 -100t217 -74.5t179.5 -101t94.5 -232.5q0 -212 -149 -331.5t-371 -119.5h-2l-84 -77v-5q72 4 112.5 -26.5t40.5 -78.5q0 -86 -61 -124.5t-152 -38.5t-170 45l29 53q72 -28 135 -28q123 0 123 80q0 55 -82 55z" />
    <glyph glyph-name="scedilla" unicode="&#x15f;" horiz-adv-x="866" 
d="M92 319q15 -260 295 -260q135 0 211 59.5t76 169.5t-94 152.5t-168 70.5q-165 63 -231 124t-66 181t101.5 192.5t256.5 72.5q156 0 248 -79.5t100 -221.5h-94q-8 106 -77.5 160.5t-182.5 54.5t-163 -31.5t-71.5 -68.5t-21.5 -82q0 -78 57.5 -124.5t164.5 -84.5
q108 -39 223.5 -93.5t115.5 -217.5q0 -132 -94 -220t-250 -98l-86 -79v-5q72 4 113 -26.5t41 -78.5q0 -86 -62 -124.5t-153 -38.5t-168 45l28 53q72 -28 135 -28q123 0 123 80q0 55 -82 55q-23 0 -79 -14l-23 45l121 118q-239 20 -290.5 139.5t-51.5 202.5h98z" />
    <glyph glyph-name="Scaron" unicode="&#x160;" horiz-adv-x="1144" 
d="M752 1538h-127l-150 207h109l110 -146h4l162 146h115zM530 63q184 0 302 88.5t118 272.5q0 107 -86.5 173t-292.5 130q-215 72 -304 148t-89 217q0 185 139.5 293t402.5 108t333.5 -151.5t72.5 -256.5h-102q-4 158 -104.5 238t-260.5 80q-262 0 -319 -114.5t-57 -206.5
t75.5 -150t207.5 -100t217 -74.5t179.5 -101t94.5 -232.5q0 -212 -148.5 -331.5t-376.5 -119.5q-237 0 -381.5 123.5t-140.5 366.5h105q-6 -296 159.5 -348t255.5 -52z" />
    <glyph glyph-name="scaron" unicode="&#x161;" horiz-adv-x="866" 
d="M557 1212h-127l-123 218h109l84 -156h4l135 156h115zM92 319q15 -260 295 -260q135 0 211 59.5t76 169.5t-94 152.5t-168 70.5q-165 63 -231 124t-66 181t101.5 192.5t256.5 72.5q156 0 248 -79.5t100 -221.5h-94q-8 106 -77.5 160.5t-182.5 54.5t-163 -31.5t-71.5 -68.5
t-21.5 -82q0 -78 57.5 -124.5t164.5 -84.5q108 -39 223.5 -93.5t115.5 -208.5t-108 -241.5t-276.5 -87.5t-281 86.5t-112.5 259.5h98z" />
    <glyph glyph-name="uni0162" unicode="&#x162;" horiz-adv-x="1128" 
d="M326 -358q58 20 77 114h-53l29 146h121l-29 -152q-29 -150 -158 -168zM211 1464h1059l-19 -94h-477l-264 -1370h-104l264 1370h-477z" />
    <glyph glyph-name="uni0163" unicode="&#x163;" horiz-adv-x="536" 
d="M94 -358q59 20 78 114h-53l28 146h121l-28 -152q-29 -150 -158 -168zM298 76q52 0 89 14h6l-16 -84q-37 -14 -90 -14q-206 0 -162 211l149 774h-159l16 82h160l61 319h101l-62 -319h189l-17 -82h-188l-152 -787q-10 -59 6.5 -86.5t68.5 -27.5z" />
    <glyph glyph-name="Tcaron" unicode="&#x164;" horiz-adv-x="1128" 
d="M807 1538h-127l-150 207h109l111 -146h4l161 146h115zM211 1464h1059l-19 -94h-477l-264 -1370h-104l264 1370h-477z" />
    <glyph glyph-name="tcaron" unicode="&#x165;" horiz-adv-x="536" 
d="M539 1206q29 10 45.5 30t27.5 77h-53l29 151h121l-31 -159q-27 -139 -152 -158zM298 76q52 0 89 14h6l-16 -84q-37 -14 -90 -14q-206 0 -162 211l149 774h-159l16 82h160l61 319h101l-62 -319h189l-17 -82h-188l-152 -787q-10 -59 6.5 -86.5t68.5 -27.5z" />
    <glyph glyph-name="Tbar" unicode="&#x166;" horiz-adv-x="1128" 
d="M211 1464h1059l-19 -94h-477l-104 -539h262l-17 -88h-262l-143 -743h-104l143 743h-262l16 88h262l105 539h-477z" />
    <glyph glyph-name="tbar" unicode="&#x167;" horiz-adv-x="536" 
d="M298 76q52 0 89 14h6l-16 -84q-37 -14 -90 -14q-206 0 -162 211l82 430h-160l16 82h160l51 262h-159l16 82h160l61 319h101l-62 -319h189l-17 -82h-188l-51 -262h188l-16 -82h-189l-84 -443q-10 -59 6.5 -86.5t68.5 -27.5z" />
    <glyph glyph-name="Utilde" unicode="&#x168;" horiz-adv-x="1232" 
d="M806 1600.5q-81 44.5 -107 44.5t-46 -21.5t-28 -62.5h-84q16 88 61 130t88 42q62 0 138.5 -44t106.5 -44q62 0 79 84h84q-14 -86 -60.5 -129.5t-98.5 -43.5t-133 44.5zM544 70q202 0 309.5 85t143.5 283l199 1026h104l-200 -1036q-85 -451 -545 -451q-384 0 -429.5 191.5
t-19.5 333.5l187 962h104l-186 -962q-83 -432 333 -432z" />
    <glyph glyph-name="utilde" unicode="&#x169;" horiz-adv-x="952" 
d="M599 1273q-78 44 -103 44t-45.5 -21.5t-28.5 -62.5h-84q16 88 61 130t89 42q61 0 135 -44t103 -44q62 0 79 84h84q-14 -86 -60.5 -129t-98.5 -43q-53 0 -131 44zM305 -25q-141 0 -214 88.5t-40 253.5l144 742h98l-143 -740q-49 -260 176 -260q149 0 263 107.5t148 275.5
l119 617h98l-204 -1059h-99l35 178h-4q-163 -203 -377 -203z" />
    <glyph glyph-name="Umacron" unicode="&#x16a;" horiz-adv-x="1232" 
d="M588 1661h477l-18 -98h-478zM544 70q202 0 309.5 85t143.5 283l199 1026h104l-200 -1036q-85 -451 -545 -451q-384 0 -429.5 191.5t-19.5 333.5l187 962h104l-186 -962q-83 -432 333 -432z" />
    <glyph glyph-name="umacron" unicode="&#x16b;" horiz-adv-x="952" 
d="M391 1391h467l-18 -99h-467zM305 -25q-141 0 -214 88.5t-40 253.5l144 742h98l-143 -740q-49 -260 176 -260q149 0 263 107.5t148 275.5l119 617h98l-204 -1059h-99l35 178h-4q-163 -203 -377 -203z" />
    <glyph glyph-name="Ubreve" unicode="&#x16c;" horiz-adv-x="1232" 
d="M817 1636q120 0 158 115h94q-18 -90 -84.5 -149.5t-171 -59.5t-162 60.5t-57.5 148.5h90q4 -51 36 -83t97 -32zM544 70q202 0 309.5 85t143.5 283l199 1026h104l-200 -1036q-85 -451 -545 -451q-384 0 -429.5 191.5t-19.5 333.5l187 962h104l-186 -962q-83 -432 333 -432
z" />
    <glyph glyph-name="ubreve" unicode="&#x16d;" horiz-adv-x="952" 
d="M606.5 1206q-104.5 0 -162 61.5t-57.5 155.5h90q4 -55 36 -89t96 -34t103.5 34t55.5 89h94q-18 -96 -84.5 -156.5t-171 -60.5zM305 -25q-141 0 -214 88.5t-40 253.5l144 742h98l-143 -740q-49 -260 176 -260q149 0 263 107.5t148 275.5l119 617h98l-204 -1059h-99l35 178
h-4q-163 -203 -377 -203z" />
    <glyph glyph-name="Uring" unicode="&#x16e;" horiz-adv-x="1232" 
d="M805 1563q45 0 72.5 30.5t27.5 75.5t-27.5 76t-72.5 31t-72.5 -31t-27.5 -76t27.5 -75.5t72.5 -30.5zM805 1495q-37 0 -70 13.5t-56.5 37t-37.5 55t-14 68.5t14 68.5t37.5 55.5t56.5 37t70 13t69.5 -13t56 -37t38 -55.5t14.5 -68.5t-14.5 -68.5t-38 -55t-56 -37
t-69.5 -13.5zM544 70q202 0 309.5 85t143.5 283l199 1026h104l-200 -1036q-85 -451 -545 -451q-384 0 -429.5 191.5t-19.5 333.5l187 962h104l-186 -962q-83 -432 333 -432z" />
    <glyph glyph-name="uring" unicode="&#x16f;" horiz-adv-x="952" 
d="M598 1247q45 0 72.5 31t27.5 76t-27.5 75.5t-72.5 30.5t-72.5 -30.5t-27.5 -75.5t27.5 -76t72.5 -31zM598 1180q-37 0 -69.5 13t-56 36.5t-38 55.5t-14.5 69t14.5 68.5t38 55t56 37t69.5 13.5t69.5 -13.5t56.5 -37t38 -55t14 -68.5t-14 -69t-38 -55.5t-56.5 -36.5
t-69.5 -13zM305 -25q-141 0 -214 88.5t-40 253.5l144 742h98l-143 -740q-49 -260 176 -260q149 0 263 107.5t148 275.5l119 617h98l-204 -1059h-99l35 178h-4q-163 -203 -377 -203z" />
    <glyph glyph-name="Uhungarumlaut" unicode="&#x170;" horiz-adv-x="1232" 
d="M971 1767h119l-129 -225h-87zM711 1767h118l-129 -225h-84zM544 70q202 0 309.5 85t143.5 283l199 1026h104l-200 -1036q-85 -451 -545 -451q-384 0 -429.5 191.5t-19.5 333.5l187 962h104l-186 -962q-83 -432 333 -432z" />
    <glyph glyph-name="uhungarumlaut" unicode="&#x171;" horiz-adv-x="952" 
d="M774 1464h119l-145 -260h-86zM522 1464h119l-145 -260h-84zM305 -25q-141 0 -214 88.5t-40 253.5l144 742h98l-143 -740q-49 -260 176 -260q149 0 263 107.5t148 275.5l119 617h98l-204 -1059h-99l35 178h-4q-163 -203 -377 -203z" />
    <glyph glyph-name="Uogonek" unicode="&#x172;" horiz-adv-x="1232" 
d="M381 -222q0 60 45 112.5t104 86.5q-231 4 -352 135.5t-72 389.5l187 962h104l-186 -962q-83 -432 333 -432q202 0 309.5 85t143.5 283l199 1026h104l-200 -1036q-61 -317 -303 -410q-41 -16 -177.5 -62.5t-136.5 -168.5q0 -66 78 -66q51 0 101 21h6l-15 -76
q-43 -24 -118 -24q-74 0 -114 38t-40 98z" />
    <glyph glyph-name="uogonek" unicode="&#x173;" horiz-adv-x="952" 
d="M557 -213q0 -66 78 -66q51 0 100 21h6l-14 -76q-43 -24 -118 -24q-74 0 -114 37.5t-40 103.5t59 127t139 102l33 166h-4q-163 -203 -377 -203q-141 0 -214 88.5t-40 253.5l144 742h98l-143 -740q-49 -260 176 -260q149 0 263 107.5t148 275.5l119 617h98l-204 -1059
q-90 -57 -141.5 -107.5t-51.5 -105.5z" />
    <glyph glyph-name="Wcircumflex" unicode="&#x174;" horiz-adv-x="1716" 
d="M991 1747h127l150 -207h-109l-110 146h-5l-161 -146h-115zM188 1464h103l86 -1011q4 -43 7 -98.5t7 -108.5t6 -113h4q23 57 51 127t74 176l441 1028h110l101 -1024q4 -41 7 -94t7 -104t8 -109h4l43 115q33 90 82 205l422 1011h102l-618 -1464h-115l-100 1090
q-4 39 -6 82.5t-6 83.5t-7 83h-4q-14 -41 -29 -81l-24 -64q-24 -64 -41 -104l-465 -1090h-116z" />
    <glyph glyph-name="wcircumflex" unicode="&#x175;" horiz-adv-x="1380" 
d="M774 1430h127l123 -218h-109l-84 156h-4l-135 -156h-114zM305 92h4q23 56 44 106t43 100t40 91l293 670h111l63 -670q4 -41 6 -91l4 -100t5 -106h4q24 58 48 110t46 107.5t43 98.5l289 651h100l-483 -1059h-119l-66 700q-4 41 -6 85t-4 84t-2 83h-4q-36 -98 -60 -154.5
t-40 -97.5l-308 -700h-123l-108 1059h102l64 -656q14 -158 14 -311z" />
    <glyph glyph-name="Ycircumflex" unicode="&#x176;" horiz-adv-x="1118" 
d="M707 1747h127l149 -207h-109l-110 146h-4l-162 -146h-115zM528 651l-360 813h111l317 -727h4l567 727h117l-653 -825l-123 -639h-105z" />
    <glyph glyph-name="ycircumflex" unicode="&#x177;" horiz-adv-x="917" 
d="M537 1430h127l122 -218h-108l-84 156h-4l-135 -156h-115zM94 -258q119 0 193 145l51 99l-232 1073h101l145 -697q26 -111 47 -270h4q76 171 127 266l351 701h104l-618 -1213q-55 -109 -122 -152.5t-136 -43.5t-117 12l18 90h4q30 -10 80 -10z" />
    <glyph glyph-name="Ydieresis" unicode="&#x178;" horiz-adv-x="1118" 
d="M872 1710h101l-33 -164h-100zM567 1710h101l-33 -164h-100zM528 651l-360 813h111l317 -727h4l567 727h117l-653 -825l-123 -639h-105z" />
    <glyph glyph-name="Zacute" unicode="&#x179;" horiz-adv-x="1134" 
d="M842 1767h139l-203 -225h-90zM1077 1374h-801l17 90h930l-19 -96l-1106 -1270v-6h889l-16 -92h-1016l18 102l1104 1266v6z" />
    <glyph glyph-name="zacute" unicode="&#x17a;" horiz-adv-x="845" 
d="M621 1464h139l-205 -260h-88zM737 973h-559l17 86h688l-17 -82l-782 -885v-6h627l-17 -86h-747l16 90l774 877v6z" />
    <glyph glyph-name="Zdotaccent" unicode="&#x17b;" horiz-adv-x="1134" 
d="M743 1710h99l-33 -164h-98zM1077 1374h-801l17 90h930l-19 -96l-1106 -1270v-6h889l-16 -92h-1016l18 102l1104 1266v6z" />
    <glyph glyph-name="zdotaccent" unicode="&#x17c;" horiz-adv-x="845" 
d="M537 1464h98l-31 -164h-98zM737 973h-559l17 86h688l-17 -82l-782 -885v-6h627l-17 -86h-747l16 90l774 877v6z" />
    <glyph glyph-name="Zcaron" unicode="&#x17d;" horiz-adv-x="1134" 
d="M827 1538h-127l-149 207h108l111 -146h4l162 146h115zM1077 1374h-801l17 90h930l-19 -96l-1106 -1270v-6h889l-16 -92h-1016l18 102l1104 1266v6z" />
    <glyph glyph-name="zcaron" unicode="&#x17e;" horiz-adv-x="845" 
d="M621 1212h-127l-123 218h108l84 -156h4l135 156h115zM737 973h-559l17 86h688l-17 -82l-782 -885v-6h627l-17 -86h-747l16 90l774 877v6z" />
    <glyph glyph-name="florin" unicode="&#x192;" horiz-adv-x="663" 
d="M621 1403h110l-16 -88h-88q-61 0 -87 -36t-42 -103l-84 -365h207l-15 -84h-211l-188 -825q-27 -113 -83 -159t-151 -46h-63l16 88h33q123 0 150 125l186 817h-168l14 84h172l86 373q25 109 75 164t147 55z" />
    <glyph glyph-name="AEacute" unicode="&#x1fc;" horiz-adv-x="1884" 
d="M1481 1767h139l-203 -225h-90zM358 559h566l155 813h-231zM905 471h-600l-282 -471h-111l881 1464h1149l-17 -92h-739l-111 -571h694l-18 -90h-694l-119 -615h788l-18 -96h-893z" />
    <glyph glyph-name="aeacute" unicode="&#x1fd;" horiz-adv-x="1660" 
d="M1022 1464h139l-205 -260h-88zM1258 997q-162 0 -266.5 -113.5t-143.5 -283.5h674q40 273 -70 335t-194 62zM332 55q173 0 260.5 88.5t116.5 227.5l41 207q-77 -30 -221 -40.5t-205 -21.5q-123 -23 -174.5 -84.5t-49.5 -163.5t69 -157.5t163 -55.5zM530 1081
q129 0 223.5 -52t114.5 -173q63 98 161.5 161.5t212.5 63.5t178.5 -25.5t108.5 -74.5q78 -87 91 -201t-8 -262h-778q-41 -335 91 -397t216 -62q129 0 214 72t124 184h98q-53 -166 -168 -254t-271 -88t-253 78t-125 219q-56 -160 -172 -228.5t-255 -68.5t-237 78.5t-98 216.5
q0 137 84 223.5t228 104.5t239 20t147 24t72 58t20 96q0 203 -263 203t-314 -239h-100q29 152 135 237.5t284 85.5z" />
    <glyph glyph-name="Oslashacute" unicode="&#x1fe;" horiz-adv-x="1411" 
d="M946 1767h139l-202 -225h-90zM203 604q0 -180 71 -311l867 971q-131 135 -334 135q-150 0 -263.5 -67.5t-227 -236t-113.5 -491.5zM1284 858q0 201 -92 340l-870 -973q129 -157 354 -157q150 0 264.5 67.5t229 236.5t114.5 486zM92 604q0 162 47 321.5t138.5 285.5
t225.5 204t308 78q235 0 397 -154l138 154l59 -55l-141 -160q131 -172 131 -420q0 -355 -136.5 -543t-271.5 -265t-315 -77q-256 0 -418 174l-162 -180l-59 56l168 188q-109 160 -109 393z" />
    <glyph glyph-name="oslashacute" unicode="&#x1ff;" horiz-adv-x="1024" 
d="M680 1464h139l-205 -260h-88zM145 426q0 -113 41 -205l602 682q-79 96 -223 96q-202 0 -311 -177.5t-109 -395.5zM879 623q0 119 -48 217l-604 -682q84 -101 234 -101q106 0 185 51.5t156 175.5t77 339zM979 631q0 -254 -95.5 -394.5t-193.5 -202t-231 -61.5
q-178 0 -293 115l-105 -119l-53 49l113 127q-76 111 -76 247q0 280 136.5 484.5t387.5 204.5q169 0 279 -110l102 114l54 -49l-107 -123q82 -120 82 -282z" />
    <glyph glyph-name="Scommaaccent" unicode="&#x218;" horiz-adv-x="1144" 
d="M373 -358q59 20 78 114h-54l29 146h121l-29 -152q-29 -150 -158 -168zM530 63q184 0 302 88.5t118 272.5q0 107 -86.5 173t-292.5 130q-215 72 -304 148t-89 217q0 185 139.5 293t402.5 108t333.5 -151.5t72.5 -256.5h-102q-4 158 -104.5 238t-260.5 80
q-262 0 -319 -114.5t-57 -206.5t75.5 -150t207.5 -100t217 -74.5t179.5 -101t94.5 -232.5q0 -212 -148.5 -331.5t-376.5 -119.5q-237 0 -381.5 123.5t-140.5 366.5h105q-6 -296 159.5 -348t255.5 -52z" />
    <glyph glyph-name="scommaaccent" unicode="&#x219;" horiz-adv-x="866" 
d="M242 -358q58 20 77 114h-53l29 146h121l-29 -152q-29 -150 -158 -168zM92 319q15 -260 295 -260q135 0 211 59.5t76 169.5t-94 152.5t-168 70.5q-165 63 -231 124t-66 181t101.5 192.5t256.5 72.5q156 0 248 -79.5t100 -221.5h-94q-8 106 -77.5 160.5t-182.5 54.5
t-163 -31.5t-71.5 -68.5t-21.5 -82q0 -78 57.5 -124.5t164.5 -84.5q108 -39 223.5 -93.5t115.5 -208.5t-108 -241.5t-276.5 -87.5t-281 86.5t-112.5 259.5h98z" />
    <glyph glyph-name="uni021A" unicode="&#x21a;" horiz-adv-x="1128" 
d="M326 -358q58 20 77 114h-53l29 146h121l-29 -152q-29 -150 -158 -168zM211 1464h1059l-19 -94h-477l-264 -1370h-104l264 1370h-477z" />
    <glyph glyph-name="uni021B" unicode="&#x21b;" horiz-adv-x="536" 
d="M94 -358q59 20 78 114h-53l28 146h121l-28 -152q-29 -150 -158 -168zM298 76q52 0 89 14h6l-16 -84q-37 -14 -90 -14q-206 0 -162 211l149 774h-159l16 82h160l61 319h101l-62 -319h189l-17 -82h-188l-152 -787q-10 -59 6.5 -86.5t68.5 -27.5z" />
    <glyph glyph-name="uni0237" unicode="&#x237;" horiz-adv-x="313" 
d="M-152 -254q104 0 127 113l234 1200h98l-233 -1204q-23 -111 -80 -153t-146 -42h-47l17 86h30z" />
    <glyph glyph-name="circumflex" unicode="&#x2c6;" 
d="M610 1430h127l123 -218h-108l-84 156h-4l-136 -156h-114z" />
    <glyph glyph-name="caron" unicode="&#x2c7;" 
d="M700 1212h-127l-122 218h108l84 -156h4l135 156h115z" />
    <glyph glyph-name="uni02C9" unicode="&#x2c9;" 
d="M426 1391h467l-19 -99h-466z" />
    <glyph glyph-name="breve" unicode="&#x2d8;" 
d="M688.5 1206q-104.5 0 -162 61.5t-57.5 155.5h90q4 -55 36 -89t96 -34t103.5 34t55.5 89h94q-18 -96 -84.5 -156.5t-171 -60.5z" />
    <glyph glyph-name="dotaccent" unicode="&#x2d9;" horiz-adv-x="1048" 
d="M653 1464h99l-31 -164h-98z" />
    <glyph glyph-name="ring" unicode="&#x2da;" horiz-adv-x="1026" 
d="M670 1247q45 0 72.5 31t27.5 76t-27.5 75.5t-72.5 30.5t-73 -30.5t-28 -75.5t28 -76t73 -31zM670 1180q-37 0 -70 13t-56.5 36.5t-37.5 55.5t-14 69t14 68.5t37.5 55t56.5 37t70 13.5t69.5 -13.5t56 -37t38 -55t14.5 -68.5t-14.5 -69t-38 -55.5t-56 -36.5t-69.5 -13z" />
    <glyph glyph-name="ogonek" unicode="&#x2db;" 
d="M254 -213q0 -66 78 -66q51 0 100 21h6l-14 -76q-43 -24 -118 -24t-114.5 37t-39.5 85q0 81 56.5 140.5t129.5 95.5h117q-201 -109 -201 -213z" />
    <glyph glyph-name="tilde" unicode="&#x2dc;" 
d="M642 1273q-78 44 -103 44t-45.5 -21.5t-28.5 -62.5h-84q16 88 60.5 130t88.5 42q61 0 135.5 -44t103.5 -44q62 0 79 84h84q-14 -86 -60.5 -129t-98.5 -43q-53 0 -131 44z" />
    <glyph glyph-name="hungarumlaut" unicode="&#x2dd;" 
d="M809 1464h119l-146 -260h-86zM557 1464h119l-146 -260h-84z" />
    <glyph glyph-name="uni0394" unicode="&#x394;" horiz-adv-x="1257" 
d="M70 90h950l-213 1057q-19 79 -41 221h-4q-46 -107 -111 -221zM-43 84l764 1380h121l282 -1380l-14 -84h-1167z" />
    <glyph glyph-name="uni03A9" unicode="&#x3a9;" horiz-adv-x="1390" 
d="M207 655q0 -193 77.5 -338t213.5 -215l-19 -102h-491l18 92h346v4q-115 82 -186.5 226.5t-71.5 313.5t47 319.5t138.5 270.5t225 193.5t285.5 73.5q281 0 435.5 -169t154.5 -437t-119.5 -475t-342.5 -316v-4h327l-18 -92h-520l18 96q272 90 407.5 298t135.5 499
q0 228 -126.5 367t-338.5 139q-160 0 -272.5 -71t-184.5 -180.5t-105.5 -240.5t-33.5 -252z" />
    <glyph glyph-name="uni03BC" unicode="&#x3bc;" horiz-adv-x="952" 
d="M319 -25q-153 0 -202 111h-4l-84 -426h-99l273 1399h98l-143 -740q-49 -260 176 -260q149 0 263 107.5t148 275.5l119 617h99l-205 -1059h-99l35 178h-4q-118 -147 -210.5 -175t-160.5 -28z" />
    <glyph glyph-name="pi" unicode="&#x3c0;" horiz-adv-x="1126" 
d="M904 76q52 0 89 14h6l-16 -84q-37 -14 -90 -14q-104 0 -141 58.5t-19 152.5l150 774h-496l-188 -977h-101l189 977h-164l16 82h1022l-16 -82h-164l-152 -787q-10 -59 6.5 -86.5t68.5 -27.5z" />
    <glyph glyph-name="Wgrave" unicode="&#x1e80;" horiz-adv-x="1716" 
d="M987 1542l-141 225h135l94 -225h-88zM188 1464h103l86 -1011q4 -43 7 -98.5t7 -108.5t6 -113h4q23 57 51 127t74 176l441 1028h110l101 -1024q4 -41 7 -94t7 -104t8 -109h4l43 115q33 90 82 205l422 1011h102l-618 -1464h-115l-100 1090q-4 39 -6 82.5t-6 83.5t-7 83h-4
q-14 -41 -29 -81l-24 -64q-24 -64 -41 -104l-465 -1090h-116z" />
    <glyph glyph-name="wgrave" unicode="&#x1e81;" horiz-adv-x="1380" 
d="M754 1204l-142 260h131l97 -260h-86zM305 92h4q23 56 44 106t43 100t40 91l293 670h111l63 -670q4 -41 6 -91l4 -100t5 -106h4q24 58 48 110t46 107.5t43 98.5l289 651h100l-483 -1059h-119l-66 700q-4 41 -6 85t-4 84t-2 83h-4q-36 -98 -60 -154.5t-40 -97.5l-308 -700
h-123l-108 1059h102l64 -656q14 -158 14 -311z" />
    <glyph glyph-name="Wacute" unicode="&#x1e82;" horiz-adv-x="1716" 
d="M1143 1767h139l-203 -225h-90zM188 1464h103l86 -1011q4 -43 7 -98.5t7 -108.5t6 -113h4q23 57 51 127t74 176l441 1028h110l101 -1024q4 -41 7 -94t7 -104t8 -109h4l43 115q33 90 82 205l422 1011h102l-618 -1464h-115l-100 1090q-4 39 -6 82.5t-6 83.5t-7 83h-4
q-14 -41 -29 -81l-24 -64q-24 -64 -41 -104l-465 -1090h-116z" />
    <glyph glyph-name="wacute" unicode="&#x1e83;" horiz-adv-x="1380" 
d="M915 1464h140l-205 -260h-88zM305 92h4q23 56 44 106t43 100t40 91l293 670h111l63 -670q4 -41 6 -91l4 -100t5 -106h4q24 58 48 110t46 107.5t43 98.5l289 651h100l-483 -1059h-119l-66 700q-4 41 -6 85t-4 84t-2 83h-4q-36 -98 -60 -154.5t-40 -97.5l-308 -700h-123
l-108 1059h102l64 -656q14 -158 14 -311z" />
    <glyph glyph-name="Wdieresis" unicode="&#x1e84;" horiz-adv-x="1716" 
d="M1157 1710h100l-32 -164h-101zM852 1710h100l-32 -164h-101zM188 1464h103l86 -1011q4 -43 7 -98.5t7 -108.5t6 -113h4q23 57 51 127t74 176l441 1028h110l101 -1024q4 -41 7 -94t7 -104t8 -109h4l43 115q33 90 82 205l422 1011h102l-618 -1464h-115l-100 1090
q-4 39 -6 82.5t-6 83.5t-7 83h-4q-14 -41 -29 -81l-24 -64q-24 -64 -41 -104l-465 -1090h-116z" />
    <glyph glyph-name="wdieresis" unicode="&#x1e85;" horiz-adv-x="1380" 
d="M938 1464h100l-30 -164h-101zM633 1464h100l-31 -164h-100zM305 92h4q23 56 44 106t43 100t40 91l293 670h111l63 -670q4 -41 6 -91l4 -100t5 -106h4q24 58 48 110t46 107.5t43 98.5l289 651h100l-483 -1059h-119l-66 700q-4 41 -6 85t-4 84t-2 83h-4q-36 -98 -60 -154.5
t-40 -97.5l-308 -700h-123l-108 1059h102l64 -656q14 -158 14 -311z" />
    <glyph glyph-name="Ygrave" unicode="&#x1ef2;" horiz-adv-x="1118" 
d="M698 1542l-141 225h135l94 -225h-88zM528 651l-360 813h111l317 -727h4l567 727h117l-653 -825l-123 -639h-105z" />
    <glyph glyph-name="ygrave" unicode="&#x1ef3;" horiz-adv-x="917" 
d="M514 1204l-141 260h131l96 -260h-86zM94 -258q119 0 193 145l51 99l-232 1073h101l145 -697q26 -111 47 -270h4q76 171 127 266l351 701h104l-618 -1213q-55 -109 -122 -152.5t-136 -43.5t-117 12l18 90h4q30 -10 80 -10z" />
    <glyph glyph-name="uni2009" unicode="&#x2009;" horiz-adv-x="112" 
 />
    <glyph glyph-name="endash" unicode="&#x2013;" horiz-adv-x="1024" 
d="M82 565h872l-16 -86h-872z" />
    <glyph glyph-name="emdash" unicode="&#x2014;" horiz-adv-x="2048" 
d="M211 565h1638l-16 -86h-1638z" />
    <glyph glyph-name="quoteleft" unicode="&#x2018;" horiz-adv-x="288" 
d="M377 1409q-29 -12 -47.5 -32.5t-28.5 -69.5l-6 -33h51l-29 -156h-118l34 180q16 80 53.5 120t102.5 50z" />
    <glyph glyph-name="quoteright" unicode="&#x2019;" horiz-adv-x="288" 
d="M205 1174q29 12 47 32.5t29 69.5l6 33h-51l28 155h119l-35 -180q-16 -80 -53 -120t-102 -50z" />
    <glyph glyph-name="quotesinglbase" unicode="&#x201a;" horiz-adv-x="288" 
d="M-49 -135q29 12 47 32.5t29 69.5l6 33h-51l28 156h119l-35 -181q-16 -80 -53 -119.5t-102 -50.5z" />
    <glyph glyph-name="quotedblleft" unicode="&#x201c;" horiz-adv-x="516" 
d="M377 1409q-29 -12 -47.5 -32.5t-28.5 -69.5l-6 -33h51l-29 -156h-118l34 180q16 80 53.5 120t102.5 50zM606 1409q-29 -12 -47 -32.5t-29 -69.5l-6 -33h51l-28 -156h-119l35 180q16 80 53 120t102 50z" />
    <glyph glyph-name="quotedblright" unicode="&#x201d;" horiz-adv-x="516" 
d="M434 1174q29 12 47.5 32.5t28.5 69.5l6 33h-51l29 155h118l-34 -180q-16 -80 -53.5 -120t-102.5 -50zM205 1174q29 12 47 32.5t29 69.5l6 33h-51l28 155h119l-35 -180q-16 -80 -53 -120t-102 -50z" />
    <glyph glyph-name="quotedblbase" unicode="&#x201e;" horiz-adv-x="516" 
d="M180 -135q29 12 47.5 32.5t28.5 69.5l6 33h-51l29 156h118l-34 -181q-16 -80 -53.5 -119.5t-102.5 -50.5zM-49 -135q29 12 47 32.5t29 69.5l6 33h-51l28 156h119l-35 -181q-16 -80 -53 -119.5t-102 -50.5z" />
    <glyph glyph-name="dagger" unicode="&#x2020;" horiz-adv-x="999" 
d="M178 1053h371l80 411h102l-80 -411h371l-16 -86h-371l-229 -1180h-103l229 1180h-370z" />
    <glyph glyph-name="daggerdbl" unicode="&#x2021;" horiz-adv-x="999" 
d="M651 1053h371l-16 -86h-371l-131 -682h370l-18 -86h-371l-79 -412h-103l80 412h-371l19 86h370l131 682h-370l16 86h371l80 411h102z" />
    <glyph glyph-name="bullet" unicode="&#x2022;" horiz-adv-x="559" 
d="M305 461q-86 0 -146.5 60.5t-60.5 143t59 145t147 62.5t147 -62.5t59 -145.5q0 -84 -59.5 -143.5t-145.5 -59.5z" />
    <glyph glyph-name="ellipsis" unicode="&#x2026;" horiz-adv-x="1026" 
d="M379 162h123l-31 -162h-123zM748 162h122l-30 -162h-123zM10 162h123l-31 -162h-122z" />
    <glyph glyph-name="perthousand" unicode="&#x2030;" horiz-adv-x="2260" 
d="M2066 466q0 85 -39 152.5t-113 67.5q-131 0 -196 -119.5t-65 -281.5q0 -98 41.5 -165t115.5 -68t120 34t76 92.5t45 130t15 157.5zM2163 453q0 -199 -93 -339.5t-249 -140.5q-121 0 -193 85t-72 227q0 198 96.5 338.5t250.5 140.5q123 0 191.5 -85t68.5 -226zM1356 466
q0 85 -39 152.5t-113 67.5q-132 0 -197 -121t-65 -280q0 -98 42 -165t116 -68t120 34t75.5 92.5t45 130t15.5 157.5zM1192 764q123 0 191.5 -85t68.5 -226q0 -199 -93 -339.5t-249 -140.5q-121 0 -192.5 85t-71.5 227q0 200 96 339.5t250 139.5zM1315 1403h96l-1106 -1403
h-98zM672 1133q0 85 -39 153t-127 68q-119 0 -183.5 -121.5t-64.5 -250.5q0 -259 170 -263q119 0 181.5 122t62.5 292zM508 1432q123 0 191.5 -85t68.5 -227q0 -198 -93 -338.5t-249 -140.5q-121 0 -192.5 85t-71.5 226q0 201 96 340.5t250 139.5z" />
    <glyph glyph-name="uni2032" unicode="&#x2032;" horiz-adv-x="344" 
d="M338 1464h98l-164 -438h-100z" />
    <glyph glyph-name="uni2033" unicode="&#x2033;" horiz-adv-x="595" 
d="M338 1464h98l-164 -438h-100zM590 1464h98l-164 -438h-100z" />
    <glyph glyph-name="guilsinglleft" unicode="&#x2039;" horiz-adv-x="512" 
d="M113 492l26 137l316 225l-27 -135l-242 -162v-4l174 -176l-22 -119z" />
    <glyph glyph-name="guilsinglright" unicode="&#x203a;" horiz-adv-x="512" 
d="M410 621l-27 -138l-315 -225l26 135l242 162v4l-174 176l22 119z" />
    <glyph glyph-name="fraction" unicode="&#x2044;" horiz-adv-x="389" 
d="M811 1464h107l-1262 -1464h-107z" />
    <glyph glyph-name="zero.superior" unicode="&#x2070;" horiz-adv-x="757" 
d="M705 1133q-1 270 -167 270q-142 0 -217 -142.5t-75 -320.5q0 -86 41 -155.5t126 -69.5t137 45t103.5 143t51.5 230zM404 633q-114 0 -186.5 86t-72.5 258t104 338t286 166q125 0 197.5 -82.5t72.5 -258.5t-101.5 -341.5t-299.5 -165.5z" />
    <glyph glyph-name="four.superior" unicode="&#x2074;" horiz-adv-x="673" 
d="M195 926h309l78 409h-2l-385 -407v-2zM487 854h-399l18 88l508 531h84l-104 -547h121l-15 -72h-122l-39 -205h-88z" />
    <glyph glyph-name="five.superior" unicode="&#x2075;" horiz-adv-x="671" 
d="M592 922q0 184 -180 184q-92 0 -152 -78h-88l129 436h424l-16 -80h-349l-77 -262h2q66 62 168 62t168.5 -65.5t66.5 -188.5t-84.5 -210t-205.5 -87t-201 64t-84 171h92q6 -68 55 -111.5t135 -43.5t141.5 60.5t55.5 148.5z" />
    <glyph glyph-name="six.superior" unicode="&#x2076;" horiz-adv-x="692" 
d="M229 891q0 -88 51.5 -134t138.5 -46t141 63.5t54 148.5t-46 133t-132 48t-146.5 -62.5t-60.5 -150.5zM242 1065q79 117 237 117q82 0 154 -64.5t72 -187.5t-83 -210t-210 -87t-201 74q-74 80 -74 223q0 202 69.5 322t142.5 174.5t171 54.5q217 0 230 -226h-93
q-4 150 -139 150q-106 0 -179 -93t-101 -247h4z" />
    <glyph glyph-name="seven.superior" unicode="&#x2077;" horiz-adv-x="649" 
d="M649 1384h-446l14 80h547l-14 -78q-224 -194 -309 -407t-109 -330h-103q68 315 211.5 494.5t208.5 238.5v2z" />
    <glyph glyph-name="eight.superior" unicode="&#x2078;" horiz-adv-x="702" 
d="M315 1254q0 -68 46.5 -97t92.5 -29q83 0 138 35.5t55 104.5t-42.5 107t-116.5 38t-123.5 -45.5t-49.5 -113.5zM219 875q0 -87 55.5 -125.5t141.5 -38.5t147.5 45t60.5 130t-56 129t-137 44q-81 0 -146.5 -48.5t-65.5 -135.5zM315 1100q-92 47 -92 151t81 169t192 65
q156 0 198.5 -77.5t42.5 -139.5t-41 -110t-106 -71v-4q53 -23 90 -71.5t37 -141.5t-83.5 -163t-212.5 -70t-212.5 57t-83.5 159q0 184 190 243v4z" />
    <glyph glyph-name="nine.superior" unicode="&#x2079;" horiz-adv-x="706" 
d="M659 1224q0 89 -51 136t-136 47t-141.5 -65.5t-56.5 -149.5t47 -133t133 -49t145.5 62.5t59.5 151.5zM752 1182q0 -217 -92.5 -383t-280.5 -166q-98 0 -169 53t-81 184h92q7 -159 164 -159q86 0 135 48q99 97 133 290h-4q-37 -53 -97 -85t-116 -32q-108 0 -181 68
t-73 187t85.5 206.5t213.5 87.5q129 0 195 -74q76 -74 76 -225z" />
    <glyph glyph-name="zero.inferior" unicode="&#x2080;" horiz-adv-x="757" 
d="M61 -16q0 -86 40.5 -156t126.5 -70t138 45t103 144t51 231q0 268 -176 268q-131 0 -207 -142t-76 -320zM33.5 -238q-72.5 86 -72.5 259t103 338t286 165q125 0 198 -82t73 -258t-102.5 -342t-298.5 -166q-114 0 -186.5 86z" />
    <glyph glyph-name="one.inferior" unicode="&#x2081;" horiz-adv-x="442" 
d="M178 297h-188l12 65q111 4 161 38t75 114h75l-157 -821h-95z" />
    <glyph glyph-name="two.inferior" unicode="&#x2082;" horiz-adv-x="638" 
d="M438 312q0 56 -43 95t-111 39t-124 -49t-74 -153h-90q20 145 104 212.5t193 67.5q159 0 201.5 -81t42.5 -140q0 -104 -65.5 -166t-185.5 -125t-188.5 -114.5t-89.5 -126.5h441l-17 -78h-545q30 192 152.5 265.5t173.5 101.5t91 50.5t69.5 49t47 61.5t17.5 91z" />
    <glyph glyph-name="three.inferior" unicode="&#x2083;" horiz-adv-x="679" 
d="M438 312q0 138 -150 139q-70 0 -123.5 -47.5t-68.5 -137.5h-86q18 119 96 188.5t195 69.5q159 0 194 -73t35 -139t-43 -116.5t-108 -72.5v-4q55 -20 89 -69.5t34 -109.5q0 -121 -84.5 -192.5t-208.5 -71.5q-125 0 -205 71t-84 200h86q6 -92 58.5 -142.5t140.5 -50.5
t144.5 46t57.5 124t-42 120t-127 42h-43l14 74h59q72 -2 121 39t49 113z" />
    <glyph glyph-name="four.inferior" unicode="&#x2084;" horiz-adv-x="673" 
d="M10 -31h309l78 410h-2l-385 -408v-2zM303 -102h-399l18 88l508 530h84l-104 -547h120l-14 -71h-123l-39 -205h-88z" />
    <glyph glyph-name="five.inferior" unicode="&#x2085;" horiz-adv-x="671" 
d="M408 -35q0 185 -181 185q-92 0 -151 -78h-88l129 436h424l-17 -80h-348l-78 -262h2q65 61 167 61q103 0 170 -65.5t67 -188.5t-84.5 -210t-220.5 -87q-167 0 -218 89.5t-53 146.5h92q6 -68 55.5 -112t135.5 -44t141.5 60.5t55.5 148.5z" />
    <glyph glyph-name="six.inferior" unicode="&#x2086;" horiz-adv-x="692" 
d="M45 -66q0 -88 51 -134t138 -46t141.5 63.5t54.5 148.5t-46 133t-132 48t-146.5 -62.5t-60.5 -150.5zM-47 -27q0 203 69.5 323t142.5 174t171 54q218 0 229 -225h-92q-2 74 -38 112t-101 38q-106 0 -179 -93.5t-102 -246.5h4q37 55 96.5 85.5t122.5 30.5q100 0 172 -64.5
t72 -187.5t-83.5 -210t-210.5 -87t-200 77t-73 220z" />
    <glyph glyph-name="seven.inferior" unicode="&#x2087;" horiz-adv-x="649" 
d="M465 428h-447l15 80h547l-15 -78q-222 -193 -307.5 -406.5t-110.5 -330.5h-102q45 206 163 407.5t257 325.5v2z" />
    <glyph glyph-name="eight.inferior" unicode="&#x2088;" horiz-adv-x="702" 
d="M127 298q0 -68 46.5 -97t92.5 -29q85 0 139 35t54 104t-42 107.5t-117 38.5t-124 -45.5t-49 -113.5zM31 -81q0 -87 55 -126t141 -39t147.5 45t60.5 130t-55.5 129t-135.5 44q-82 0 -147.5 -48t-65.5 -135zM127 143q-92 47 -92 151t80 169t192 65q158 0 200 -77t42 -139
t-41 -110t-107 -71v-4q53 -23 90 -72t37 -141.5t-82.5 -162.5t-222.5 -70q-195 0 -240.5 83.5t-45.5 158.5t52 132.5t138 83.5v4z" />
    <glyph glyph-name="nine.inferior" unicode="&#x2089;" horiz-adv-x="706" 
d="M469 267q0 89 -51 136.5t-136 47.5t-141.5 -66t-56.5 -150t47 -133t133 -49t145.5 62.5t59.5 151.5zM246 -25q-109 0 -181.5 69t-72.5 187t85.5 205.5t215.5 87.5q53 0 106.5 -18.5t85.5 -54.5q76 -74 76 -226q0 -219 -93.5 -384t-279.5 -165q-98 0 -168.5 53.5
t-80.5 184.5h92q7 -160 164 -160q83 0 145 58q39 39 72.5 114.5t50.5 165.5h-4q-37 -53 -97.5 -85t-115.5 -32z" />
    <glyph glyph-name="Euro" unicode="&#x20ac;" horiz-adv-x="1208" 
d="M293 532v-36q0 -291 113.5 -362t207.5 -71q166 -2 275.5 117t159.5 330h98q-59 -270 -198.5 -403.5t-340.5 -133.5t-312.5 145t-111.5 378v36h-139l16 82h129q6 84 25 170h-121l17 82h122q109 389 284 477.5t292 88.5q186 0 282.5 -112t104.5 -300h-100q-13 227 -113 275
t-187 48q-172 0 -287 -135.5t-169 -341.5h448l-16 -82h-450q-18 -86 -25 -170h442l-16 -82h-430z" />
    <glyph glyph-name="afii61289" unicode="&#x2113;" horiz-adv-x="610" 
d="M578 1285q0 116 -78 116q-47 0 -74 -39t-43 -125l-141 -725q151 126 243.5 342.5t92.5 430.5zM297 76q51 0 106 30h7l-17 -90q-48 -24 -114 -24q-238 0 -187 262l23 115q-82 -28 -117 -33l16 82q54 9 117 35l152 786q23 111 70 176.5t143 65.5t135 -59.5t39 -165.5
t-33 -237.5t-127 -319t-287 -285.5l-30 -162q-14 -84 -2 -116t33.5 -46t72.5 -14z" />
    <glyph glyph-name="trademark" unicode="&#x2122;" horiz-adv-x="1277" 
d="M248 1464h457l-15 -73h-188l-99 -512h-79l98 512h-189zM801 1464h117l67 -483h2l248 483h123l-113 -585h-78l95 489h-5q-18 -36 -49.5 -102t-50.5 -101l-149 -286h-82l-39 286q-12 108 -25 203h-4l-94 -489h-76z" />
    <glyph glyph-name="Omega" unicode="&#x2126;" horiz-adv-x="1390" 
d="M207 655q0 -193 77.5 -338t213.5 -215l-19 -102h-491l18 92h346v4q-115 82 -186.5 226.5t-71.5 313.5t47 319.5t138.5 270.5t225 193.5t285.5 73.5q281 0 435.5 -169t154.5 -437t-119.5 -475t-342.5 -316v-4h327l-18 -92h-520l18 96q272 90 407.5 298t135.5 499
q0 228 -126.5 367t-338.5 139q-160 0 -272.5 -71t-184.5 -180.5t-105.5 -240.5t-33.5 -252z" />
    <glyph glyph-name="estimated" unicode="&#x212e;" horiz-adv-x="1312" 
d="M356 686h621v428q-102 98 -301 98t-320 -125v-401zM698 55q349 0 447 326h86q-42 -183 -178 -293.5t-355 -110.5q-285 0 -447.5 181t-162.5 472t168.5 472.5t431.5 181.5q214 0 354 -121q113 -96 156 -232t41 -315h-883v-440q121 -121 342 -121z" />
    <glyph glyph-name="onethird" unicode="&#x2153;" horiz-adv-x="1576" 
d="M1380 620q0 138 -150 138q-70 0 -123.5 -47t-68.5 -138h-86q18 119 96 188.5t195 69.5q158 0 194 -73.5t36 -139.5t-43.5 -115.5t-108.5 -72.5v-4q55 -20 89 -69.5t34 -109.5q0 -121 -83.5 -192t-209.5 -71q-125 0 -205 70.5t-84 199.5h86q6 -92 58.5 -142.5t140.5 -50.5
t144.5 46.5t57.5 124.5t-42 119.5t-127 41.5h-43l14 74h59q72 -2 121 39t49 114zM1307 1464h106l-1261 -1464h-107zM379 1253h-189l13 66q111 4 161 38t74 113h76l-158 -821h-94z" />
    <glyph glyph-name="twothirds" unicode="&#x2154;" horiz-adv-x="1671" 
d="M1473 620q0 138 -150 138q-70 0 -124 -47t-69 -138h-86q18 119 96.5 188.5t194.5 69.5q158 0 194 -73.5t36 -139.5t-43 -115.5t-109 -72.5v-4q55 -20 89 -69.5t34 -109.5q0 -121 -83.5 -192t-209.5 -71q-125 0 -205 70.5t-84 199.5h86q6 -92 58.5 -142.5t140.5 -50.5
t144.5 46.5t57.5 124.5t-42 119.5t-127 41.5h-43l14 74h60q72 -2 121 39t49 114zM1466 1464h107l-1262 -1464h-106zM618 1269q0 57 -43 95.5t-111 38.5t-123.5 -49t-74.5 -154h-90q20 145 104.5 213t187.5 68t176 -57t73 -162q0 -151 -110.5 -215t-185.5 -103t-143.5 -90
t-89.5 -127h441l-17 -78h-544q31 195 152.5 267.5t172.5 100.5t91 50.5t70 49t47 61t17 91.5z" />
    <glyph glyph-name="oneeighth" unicode="&#x215b;" horiz-adv-x="1531" 
d="M997 604q0 -68 46.5 -96.5t92.5 -28.5q82 0 137.5 35t55.5 104q0 70 -42.5 108t-116.5 38t-123.5 -46t-49.5 -114zM901 226q0 -87 55.5 -126t141.5 -39t147.5 45.5t60.5 130.5t-56 129t-137 44q-81 0 -146.5 -48.5t-65.5 -135.5zM997 451q-92 47 -92 150t80.5 169
t192.5 66q156 0 198.5 -77t42.5 -139t-41 -110.5t-106 -71.5v-4q53 -23 90 -72t37 -141.5t-83.5 -162.5t-221.5 -70q-195 0 -241 84t-46 158t52 132t138 84v5zM1286 1464h107l-1262 -1464h-106zM379 1253h-189l13 66q111 4 161 38t74 113h76l-158 -821h-94z" />
    <glyph glyph-name="threeeighths" unicode="&#x215c;" horiz-adv-x="1679" 
d="M1143 604q0 -68 46 -96.5t92 -28.5q83 0 138.5 35t55.5 104q0 70 -42 108t-117 38t-124 -46t-49 -114zM1047 226q0 -87 55 -126t141 -39t147.5 45.5t60.5 130.5t-56 129t-136 44t-146.5 -48.5t-65.5 -135.5zM1143 451q-92 47 -92 150t80 169t192 66q157 0 199.5 -77
t42.5 -139t-41 -110.5t-107 -71.5v-4q53 -23 90 -72t37 -141.5t-83.5 -162.5t-221.5 -70q-195 0 -241 84t-46 158t52.5 132t138.5 84v5zM1444 1464h106l-1261 -1464h-107zM633 1269q1 138 -149 138q-70 0 -124.5 -47t-68.5 -137h-86q18 119 96 188.5t195 69.5
q157 0 193 -73.5t36 -139.5t-43 -116t-109 -73v-4q55 -20 89 -69.5t34 -109.5q0 -121 -84.5 -192t-208.5 -71t-204 70.5t-84 199.5h86q6 -92 58.5 -142t140.5 -50t144 46t57 124t-42 119.5t-127 41.5h-43l14 74h60q72 -2 121 39t49 114z" />
    <glyph glyph-name="fiveeighths" unicode="&#x215d;" horiz-adv-x="1652" 
d="M1118 604q0 -68 46 -96.5t92 -28.5q82 0 138 35t56 104q0 70 -42 108t-117 38t-124 -46t-49 -114zM1022 226q0 -87 55.5 -126t141.5 -39t147 45.5t60 130.5t-56.5 129t-135.5 44q-81 0 -146.5 -48.5t-65.5 -135.5zM1118 451q-92 47 -92 150t80.5 169t191.5 66
q157 0 199.5 -77t42.5 -139t-41 -110.5t-106 -71.5v-4q53 -23 90 -72t37 -141.5t-83.5 -162.5t-222.5 -70q-194 0 -240 84t-46 158t52 132t138 84v5zM1432 1464h106l-1262 -1464h-106zM598 922q0 184 -180 184q-92 0 -152 -78h-88l129 436h424l-16 -80h-348l-78 -262h2
q66 62 168 62t168.5 -65.5t66.5 -188.5t-84.5 -210t-205.5 -87t-201 64t-84 171h92q6 -68 55 -111.5t135 -43.5t141.5 60.5t55.5 148.5z" />
    <glyph glyph-name="seveneighths" unicode="&#x215e;" horiz-adv-x="1560" 
d="M1024 604q0 -68 46 -96.5t92 -28.5q82 0 138 35t56 104q0 70 -42 108t-117 38t-124 -46t-49 -114zM928 226q0 -87 55 -126t141 -39t147.5 45.5t60.5 130.5t-56 129t-136 44t-146.5 -48.5t-65.5 -135.5zM1024 451q-92 47 -92 150t80.5 169t191.5 66q157 0 199.5 -77
t42.5 -139t-41 -110.5t-107 -71.5v-4q53 -23 90 -72t37 -141.5t-83.5 -162.5t-221.5 -70q-194 0 -240 84t-46 158t52 132t138 84v5zM1288 1464h107l-1262 -1464h-106zM664 1384h-447l14 80h547l-14 -78q-222 -193 -307.5 -406.5t-110.5 -330.5h-102q69 317 211.5 495.5
t208.5 237.5v2z" />
    <glyph glyph-name="partialdiff" unicode="&#x2202;" horiz-adv-x="1013" 
d="M238 174q76 -113 237 -113t258.5 141t97.5 339q0 247 -120.5 302.5t-200.5 55.5t-145.5 -34t-134 -125.5t-68.5 -271.5q0 -181 76 -294zM942 602q0 -118 -29.5 -239t-122 -254.5t-319.5 -133.5q-193 0 -306.5 129.5t-113.5 353.5t130.5 377.5t340.5 153.5t309 -178
q-61 353 -248.5 455t-340.5 120v89q258 -23 479 -205.5t221 -667.5z" />
    <glyph glyph-name="Delta" unicode="&#x2206;" horiz-adv-x="1257" 
d="M70 90h950l-213 1057q-19 79 -41 221h-4q-46 -107 -111 -221zM-43 84l764 1380h121l282 -1380l-14 -84h-1167z" />
    <glyph glyph-name="product" unicode="&#x220f;" horiz-adv-x="1343" 
d="M301 1368v-1573h-106v1669h1028v-1669h-107v1573h-815z" />
    <glyph glyph-name="summation" unicode="&#x2211;" horiz-adv-x="1277" 
d="M180 -205v82l645 793v4l-645 684v106h1016v-94h-887v-4l621 -659v-64l-621 -752v-4h887v-92h-1016z" />
    <glyph glyph-name="minus" unicode="&#x2212;" horiz-adv-x="1028" 
d="M147 715h803l-18 -92h-803z" />
    <glyph glyph-name="uni2215" unicode="&#x2215;" horiz-adv-x="389" 
d="M811 1464h107l-1262 -1464h-107z" />
    <glyph glyph-name="uni2219" unicode="&#x2219;" horiz-adv-x="288" 
d="M119 717h123l-33 -162h-123z" />
    <glyph glyph-name="radical" unicode="&#x221a;" horiz-adv-x="1103" 
d="M66 623h235l174 -445q16 -43 32.5 -90t32.5 -91t29 -87h4q45 178 78 278l400 1276h102l-524 -1669h-113l-297 737h-153v91z" />
    <glyph glyph-name="infinity" unicode="&#x221e;" horiz-adv-x="1464" 
d="M1244 433.5q52 73.5 52 191.5q0 180 -76.5 222t-127.5 42q-88 0 -146.5 -64t-142.5 -202q82 -136 141 -199.5t153 -63.5q95 0 147 73.5zM244 814q-51 -75 -51 -189q0 -186 75.5 -225.5t127.5 -39.5q94 0 163 71t139 192q-82 134 -146 200t-160 66q-97 0 -148 -75z
M390 274q-140 0 -220 99t-80 252q0 234 115 291t185 57q123 0 205.5 -71t154.5 -189q75 123 128.5 170t101.5 68.5t110 21.5q145 0 227 -96.5t82 -252.5t-82 -253t-232 -97q-185 0 -335 261q-73 -120 -130 -169t-108.5 -70.5t-121.5 -21.5z" />
    <glyph glyph-name="integral" unicode="&#x222b;" horiz-adv-x="755" 
d="M577 1430q-63 0 -102 -38t-39 -118v-1389q0 -117 -64.5 -181t-146.5 -64t-135 22v88h6q35 -22 99 -22q63 0 102 37.5t39 117.5v1389q0 117 64.5 181.5t146.5 64.5t135 -23v-88h-6q-36 23 -99 23z" />
    <glyph glyph-name="approxequal" unicode="&#x2248;" horiz-adv-x="1028" 
d="M707 477q115 0 139 115h92q-37 -209 -236 -209q-76 0 -171 37t-142 53t-91 16t-78 -29.5t-44 -84.5h-92q40 209 225 209q68 0 158 -37t140 -53.5t100 -16.5zM750 774q117 0 139 115h92q-37 -209 -236 -209q-76 0 -171 37t-142 53t-91 16t-78 -29.5t-44 -84.5h-92
q40 209 225 209q68 0 158 -37t140 -53.5t100 -16.5z" />
    <glyph glyph-name="notequal" unicode="&#x2260;" horiz-adv-x="1028" 
d="M174 834h428l139 241h99l-140 -241h275l-19 -93h-309l-125 -215h393l-18 -92h-428l-145 -254h-99l146 254h-277l19 92h311l125 215h-395z" />
    <glyph glyph-name="lessequal" unicode="&#x2264;" horiz-adv-x="989" 
d="M111 588l22 117l846 331l-21 -104l-749 -291v-4l635 -301l-21 -96zM14 92h781l-17 -92h-780z" />
    <glyph glyph-name="greaterequal" unicode="&#x2265;" horiz-adv-x="989" 
d="M920 688l-23 -117l-846 -331l21 104l749 291v4l-635 301l21 96zM23 92h780l-17 -92h-780z" />
    <glyph glyph-name="uni24C5" unicode="&#x24c5;" horiz-adv-x="1636" 
d="M920 731q194 0 194 172q0 82 -48 125t-140 43h-240v-340h234zM588 1157h348q139 0 208 -71q68 -70 68 -188t-71.5 -183.5t-208.5 -65.5h-246v-370h-98v878zM858 31q289 0 476.5 199t187.5 497t-187 498t-477 200t-476.5 -199.5t-186.5 -498.5t187 -497.5t476 -198.5z
M857 -35q-157 0 -292 57.5t-236.5 159t-158.5 241.5t-57 304t57 304t215.5 300t472.5 160q156 0 292 -57.5t237.5 -160t159 -242.5t57.5 -304t-57.5 -304t-159 -241.5t-237.5 -159t-293 -57.5z" />
    <glyph glyph-name="lozenge" unicode="&#x25ca;" horiz-adv-x="1064" 
d="M571 106l344 621l-348 631h-4l-344 -625l348 -627h4zM618 0h-100l-412 731l410 733h100l412 -735z" />
    <glyph glyph-name="f_i" unicode="&#xf001;" horiz-adv-x="808" 
d="M782 1464h99l-31 -161h-98zM705 1059h98l-205 -1059h-98zM563 1473h84l-16 -87h-70q-70 0 -99.5 -31.5t-39.5 -86.5l-41 -209h192l-16 -82h-192l-189 -977h-98l188 977h-155l16 82h156l43 223q20 100 78.5 145.5t158.5 45.5z" />
    <glyph glyph-name="f_l" unicode="&#xf002;" horiz-adv-x="802" 
d="M782 1464h99l-283 -1464h-98zM563 1473h84l-16 -87h-70q-70 0 -99.5 -31.5t-39.5 -86.5l-41 -209h192l-16 -82h-192l-189 -977h-98l188 977h-155l16 82h156l43 223q20 100 78.5 145.5t158.5 45.5z" />
    <glyph glyph-name="uniF8FF" unicode="&#xf8ff;" horiz-adv-x="1732" 
d="M418 588h344v-346h295v346h344v295h-344v334h-295v-334h-344v-295zM176 1466h1466v-1466h-1466v1466z" />
    <glyph glyph-name="dotlessj" horiz-adv-x="313" 
d="M-152 -254q104 0 127 113l234 1200h98l-233 -1204q-23 -111 -80 -153t-146 -42h-47l17 86h30z" />
    <glyph glyph-name="commaaccent" 
d="M213 -358q59 20 78 114h-53l28 146h121l-29 -152q-29 -150 -157 -168z" />
    <glyph glyph-name="zero.denominator" horiz-adv-x="757" 
d="M580 484q0 270 -166 270q-142 0 -217.5 -142.5t-75.5 -320.5q0 -86 41 -155.5t126 -69.5t137 45t103.5 143t51.5 230zM93 70q-73 86 -73 258t103.5 337.5t286.5 165.5q125 0 197.5 -81.5t72.5 -257.5t-101 -342t-299 -166q-114 0 -187 86z" />
    <glyph glyph-name="one.denominator" horiz-adv-x="442" 
d="M238 604h-189l12 66q111 4 161 37.5t75 113.5h76l-158 -821h-94z" />
    <glyph glyph-name="two.denominator" horiz-adv-x="638" 
d="M498 620q0 56 -43 95t-112 39t-124 -49.5t-74 -153.5h-90q20 145 104.5 212.5t192.5 67.5q160 0 202 -80.5t42 -140.5q0 -105 -67 -168t-185 -124q-119 -62 -187.5 -113t-88.5 -127h440l-16 -78h-545q30 191 151.5 265.5t173.5 102.5t91.5 50t69.5 49t47.5 62t17.5 91z
" />
    <glyph glyph-name="three.denominator" horiz-adv-x="679" 
d="M498 620q0 138 -150 138q-70 0 -124 -47t-68 -138h-86q18 119 96 188.5t194 69.5q158 0 194 -73.5t36 -139.5t-43 -115.5t-109 -72.5v-4q55 -20 89 -69.5t34 -109.5q0 -121 -83.5 -192t-209.5 -71q-125 0 -204.5 70.5t-83.5 199.5h86q6 -92 58 -142.5t140 -50.5
t144.5 46.5t57.5 124.5t-42 119.5t-127 41.5h-43l14 74h60q72 -2 121 39t49 114z" />
    <glyph glyph-name="four.denominator" horiz-adv-x="673" 
d="M70 276h309l78 410h-2l-385 -407v-3zM362 205h-399l19 88l507 530h84l-104 -547h121l-15 -71h-122l-39 -205h-88z" />
    <glyph glyph-name="five.denominator" horiz-adv-x="671" 
d="M467 272q0 184 -180 185q-92 0 -152 -78h-88l129 436h424l-16 -80h-348l-78 -262h2q66 62 168 62t168.5 -66t66.5 -189t-84.5 -209.5t-220.5 -86.5q-169 0 -218.5 89t-51.5 146h92q6 -68 55 -112t135 -44t141.5 60.5t55.5 148.5z" />
    <glyph glyph-name="six.denominator" horiz-adv-x="692" 
d="M104 242q0 -88 51.5 -134.5t138.5 -46.5t141 63.5t54 149.5t-46 133.5t-132 47.5t-146.5 -62.5t-60.5 -150.5zM117 416q78 116 237 116q82 0 154 -64.5t72 -186.5t-83 -209.5t-216 -87.5q-53 0 -161 39.5t-108 249.5q0 211 101.5 384.5t283.5 173.5q215 0 228 -225h-93
q-4 150 -139 150q-106 0 -179 -93.5t-101 -246.5h4z" />
    <glyph glyph-name="seven.denominator" horiz-adv-x="649" 
d="M524 735h-446l14 80h547l-14 -78q-224 -194 -309 -407t-109 -330h-103q68 315 211.5 494.5t208.5 238.5v2z" />
    <glyph glyph-name="eight.denominator" horiz-adv-x="702" 
d="M186 604q0 -68 46.5 -96.5t92.5 -28.5q82 0 137.5 35t55.5 104q0 70 -42 108t-117 38t-124 -46t-49 -114zM90 226q0 -87 55.5 -126t141.5 -39t147.5 45.5t60.5 130.5t-56 129t-137 44q-81 0 -146.5 -48.5t-65.5 -135.5zM186 451q-92 47 -92 150t80.5 169t192.5 66
q156 0 198.5 -77t42.5 -139t-41 -110.5t-106 -71.5v-4q53 -23 90 -72t37 -141.5t-83.5 -162.5t-221.5 -70q-195 0 -241 84t-46 158t52 132t138 84v5z" />
    <glyph glyph-name="nine.denominator" horiz-adv-x="706" 
d="M528 575q0 89 -51 136t-136 47t-141.5 -65.5t-56.5 -149.5t47.5 -133.5t133.5 -49.5t145 63t59 152zM621 532q0 -216 -93 -383t-280 -165q-98 0 -169 53t-81 184h92q7 -160 164 -160q85 1 135 49q99 97 133 289h-4q-37 -53 -97.5 -84.5t-115.5 -31.5q-109 0 -181.5 68.5
t-72.5 186.5t85.5 205.5t214.5 87.5t194 -73q76 -74 76 -226z" />
    <glyph glyph-name="zero.numerator" horiz-adv-x="757" 
d="M705 1133q-1 270 -167 270q-142 0 -217 -142.5t-75 -320.5q0 -86 41 -155.5t126 -69.5t137 45t103.5 143t51.5 230zM404 633q-114 0 -186.5 86t-72.5 258t104 338t286 166q125 0 197.5 -82.5t72.5 -258.5t-101.5 -341.5t-299.5 -165.5z" />
    <glyph glyph-name="one.numerator" horiz-adv-x="442" 
d="M362 1253h-188l12 66q111 4 161 38t75 113h76l-158 -821h-94z" />
    <glyph glyph-name="two.numerator" horiz-adv-x="638" 
d="M623 1269q0 57 -43 95.5t-112 38.5t-124 -49t-74 -154h-90q20 145 104.5 213t187.5 68t176 -57t73 -162q0 -151 -110.5 -215t-185.5 -103t-143.5 -90t-88.5 -127h440l-17 -78h-544q31 193 152.5 266.5t172.5 101.5t91 50.5t70 49t47.5 61t17.5 91.5z" />
    <glyph glyph-name="three.numerator" horiz-adv-x="679" 
d="M623 1269q0 138 -150 138q-70 0 -124 -47t-68 -137h-86q18 119 96 188.5t194 69.5q158 0 194 -73.5t36 -139.5t-43 -116t-109 -73v-4q55 -20 89 -69.5t34 -109.5q0 -121 -84.5 -192t-209.5 -71q-124 0 -203.5 70.5t-84.5 199.5h86q6 -92 58.5 -142t140.5 -50t144.5 46
t57.5 124t-42 119.5t-127 41.5h-43l14 74h60q72 -2 121 39t49 114z" />
    <glyph glyph-name="four.numerator" horiz-adv-x="673" 
d="M195 926h309l78 409h-2l-385 -407v-2zM487 854h-399l18 88l508 531h84l-104 -547h121l-15 -72h-122l-39 -205h-88z" />
    <glyph glyph-name="five.numerator" horiz-adv-x="671" 
d="M592 922q0 184 -180 184q-92 0 -152 -78h-88l129 436h424l-16 -80h-349l-77 -262h2q66 62 168 62t168.5 -65.5t66.5 -188.5t-84.5 -210t-205.5 -87t-201 64t-84 171h92q6 -68 55 -111.5t135 -43.5t141.5 60.5t55.5 148.5z" />
    <glyph glyph-name="six.numerator" horiz-adv-x="692" 
d="M229 891q0 -88 51.5 -134t138.5 -46t141 63.5t54 148.5t-46 133t-132 48t-146.5 -62.5t-60.5 -150.5zM242 1065q79 117 237 117q82 0 154 -64.5t72 -187.5t-83 -210t-210 -87t-201 74q-74 80 -74 223q0 202 69.5 322t142.5 174.5t171 54.5q217 0 230 -226h-93
q-4 150 -139 150q-106 0 -179 -93t-101 -247h4z" />
    <glyph glyph-name="seven.numerator" horiz-adv-x="649" 
d="M649 1384h-446l14 80h547l-14 -78q-224 -194 -309 -407t-109 -330h-103q68 315 211.5 494.5t208.5 238.5v2z" />
    <glyph glyph-name="eight.numerator" horiz-adv-x="702" 
d="M315 1254q0 -68 46.5 -97t92.5 -29q83 0 138 35.5t55 104.5t-42.5 107t-116.5 38t-123.5 -45.5t-49.5 -113.5zM219 875q0 -87 55.5 -125.5t141.5 -38.5t147.5 45t60.5 130t-56 129t-137 44q-81 0 -146.5 -48.5t-65.5 -135.5zM315 1100q-92 47 -92 151t81 169t192 65
q156 0 198.5 -77.5t42.5 -139.5t-41 -110t-106 -71v-4q53 -23 90 -71.5t37 -141.5t-83.5 -163t-212.5 -70t-212.5 57t-83.5 159q0 184 190 243v4z" />
    <glyph glyph-name="nine.numerator" horiz-adv-x="706" 
d="M659 1224q0 89 -51 136t-136 47t-141.5 -65.5t-56.5 -149.5t47 -133t133 -49t145.5 62.5t59.5 151.5zM752 1182q0 -217 -92.5 -383t-280.5 -166q-98 0 -169 53t-81 184h92q7 -159 164 -159q86 0 135 48q99 97 133 290h-4q-37 -53 -97 -85t-116 -32q-108 0 -181 68
t-73 187t85.5 206.5t213.5 87.5q129 0 195 -74q76 -74 76 -225z" />
    <glyph glyph-name="acute.cap" 
d="M772 1767h139l-202 -225h-91z" />
    <glyph glyph-name="breve.cap" 
d="M764 1636q120 0 158 115h94q-18 -90 -85 -149.5t-171.5 -59.5t-161.5 60.5t-57 148.5h90q4 -51 35.5 -83t97.5 -32z" />
    <glyph glyph-name="caron.alt" 
d="M575 1206q29 10 46 30t28 77h-53l29 151h120l-30 -159q-27 -139 -152 -158z" />
    <glyph glyph-name="caron.cap" 
d="M756 1538h-127l-150 207h109l110 -146h4l162 146h115z" />
    <glyph glyph-name="circumflex.cap" 
d="M672 1747h127l149 -207h-108l-111 146h-4l-162 -146h-114z" />
    <glyph glyph-name="commaaccent.alt" 
d="M213 -358q59 20 78 114h-53l28 146h121l-29 -152q-29 -150 -157 -168z" />
    <glyph glyph-name="dieresis.cap" horiz-adv-x="1048" 
d="M856 1710h100l-32 -164h-101zM551 1710h100l-33 -164h-100z" />
    <glyph glyph-name="dotaccent.cap" horiz-adv-x="1048" 
d="M702 1710h99l-33 -164h-98z" />
    <glyph glyph-name="grave.cap" 
d="M694 1542l-141 225h135l94 -225h-88z" />
    <glyph glyph-name="hungarumlaut.cap" 
d="M860 1767h119l-129 -225h-86zM600 1767h119l-129 -225h-84z" />
    <glyph glyph-name="macron.cap" 
d="M475 1661h477l-18 -98h-477z" />
    <glyph glyph-name="ring.cap" horiz-adv-x="1026" 
d="M737 1587q45 0 73 31t28 76t-28 75.5t-73 30.5t-72.5 -30.5t-27.5 -75.5t27.5 -76t72.5 -31zM737 1520q-37 0 -69.5 13t-56 36.5t-38 55.5t-14.5 69t14.5 68.5t38 55t56 37t69.5 13.5t70 -13.5t56.5 -37t37.5 -55t14 -68.5t-14 -69t-37.5 -55.5t-56.5 -36.5t-70 -13z" />
    <glyph glyph-name="tilde.cap" 
d="M838 1645q59 0 75 84h84q-14 -86 -60 -129.5t-90 -43.5q-61 0 -141.5 44.5t-106.5 44.5t-46.5 -21.5t-28.5 -62.5h-84q16 88 61.5 130t88.5 42q60 0 138 -44t110 -44z" />
    <glyph glyph-name="R.alt" horiz-adv-x="1185" 
d="M655 752q299 0 367 122.5t68 235.5t-71 186.5t-228 73.5h-400l-119 -618h383zM653 657h-399l-127 -657h-104l282 1464h488q299 0 351 -136t52 -224q0 -176 -94 -282t-258 -144l229 -678h-108l-224 662q-29 -5 -88 -5z" />
    <glyph glyph-name="Racute.alt" horiz-adv-x="1185" 
d="M860 1767h139l-202 -225h-90zM655 752q299 0 367 122.5t68 235.5t-71 186.5t-228 73.5h-400l-119 -618h383zM653 657h-399l-127 -657h-104l282 1464h488q299 0 351 -136t52 -224q0 -176 -94 -282t-258 -144l229 -678h-108l-224 662q-29 -5 -88 -5z" />
    <glyph glyph-name="Rcaron.alt" horiz-adv-x="1185" 
d="M825 1538h-127l-149 207h108l111 -146h4l162 146h115zM655 752q299 0 367 122.5t68 235.5t-71 186.5t-228 73.5h-400l-119 -618h383zM653 657h-399l-127 -657h-104l282 1464h488q299 0 351 -136t52 -224q0 -176 -94 -282t-258 -144l229 -678h-108l-224 662q-29 -5 -88 -5
z" />
    <glyph glyph-name="Rcommaaccent.alt" horiz-adv-x="1185" 
d="M340 -358q59 20 78 114h-53l28 146h121l-29 -152q-29 -150 -157 -168zM655 752q299 0 367 122.5t68 235.5t-71 186.5t-228 73.5h-400l-119 -618h383zM653 657h-399l-127 -657h-104l282 1464h488q299 0 351 -136t52 -224q0 -176 -94 -282t-258 -144l229 -678h-108
l-224 662q-29 -5 -88 -5z" />
    <glyph glyph-name="Tcommaaccent" horiz-adv-x="1128" 
d="M326 -358q58 20 77 114h-53l29 146h121l-29 -152q-29 -150 -158 -168zM211 1464h1059l-19 -94h-477l-264 -1370h-104l264 1370h-477z" />
    <glyph glyph-name="idotaccent" horiz-adv-x="313" 
d="M287 1464h98l-31 -161h-98zM209 1059h98l-205 -1059h-98z" />
    <glyph glyph-name="tcommaaccent" horiz-adv-x="536" 
d="M94 -358q59 20 78 114h-53l28 146h121l-28 -152q-29 -150 -158 -168zM298 76q52 0 89 14h6l-16 -84q-37 -14 -90 -14q-206 0 -162 211l149 774h-159l16 82h160l61 319h101l-62 -319h189l-17 -82h-188l-152 -787q-10 -59 6.5 -86.5t68.5 -27.5z" />
    <glyph glyph-name="space_uni0326" 
d="M268 -358q59 20 78 114h-53l29 146h120l-28 -152q-29 -150 -158 -168z" />
    <glyph glyph-name="space_uni0326.alt" 
d="M752 1485q-59 -20 -78 -115h53l-29 -145h-120l28 151q29 150 158 168z" />
    <glyph glyph-name="a.alt" horiz-adv-x="944" 
d="M336 55q172 0 266 92t121 226l41 202q-72 -28 -168 -35.5t-237.5 -17.5t-201 -81t-57.5 -173t70 -157.5t166 -55.5zM336 -27q-139 0 -238.5 78t-99.5 216t84 224.5t232 104.5t246 20t150 24t69.5 57.5t17.5 101.5q0 198 -264 198t-316 -239h-102q29 152 139.5 237.5
t288.5 85.5q288 0 325 -139t17 -248l-103 -516q-14 -72 -7 -116t18 -56v-6h-101q-23 53 -10 139h-4q-114 -166 -342 -166z" />
    <glyph glyph-name="agrave.alt" horiz-adv-x="944" 
d="M604 1204l-141 260h131l96 -260h-86zM336 55q172 0 266 92t121 226l41 202q-72 -28 -168 -35.5t-237.5 -17.5t-201 -81t-57.5 -173t70 -157.5t166 -55.5zM336 -27q-139 0 -238.5 78t-99.5 216t84 224.5t232 104.5t246 20t150 24t69.5 57.5t17.5 101.5q0 198 -264 198
t-316 -239h-102q29 152 139.5 237.5t288.5 85.5q288 0 325 -139t17 -248l-103 -516q-14 -72 -7 -116t18 -56v-6h-101q-23 53 -10 139h-4q-114 -166 -342 -166z" />
    <glyph glyph-name="aacute.alt" horiz-adv-x="944" 
d="M694 1464h140l-205 -260h-88zM336 55q172 0 266 92t121 226l41 202q-72 -28 -168 -35.5t-237.5 -17.5t-201 -81t-57.5 -173t70 -157.5t166 -55.5zM336 -27q-139 0 -238.5 78t-99.5 216t84 224.5t232 104.5t246 20t150 24t69.5 57.5t17.5 101.5q0 198 -264 198t-316 -239
h-102q29 152 139.5 237.5t288.5 85.5q288 0 325 -139t17 -248l-103 -516q-14 -72 -7 -116t18 -56v-6h-101q-23 53 -10 139h-4q-114 -166 -342 -166z" />
    <glyph glyph-name="acircumflex.alt" horiz-adv-x="944" 
d="M590 1430h127l123 -218h-109l-84 156h-4l-135 -156h-115zM336 55q172 0 266 92t121 226l41 202q-72 -28 -168 -35.5t-237.5 -17.5t-201 -81t-57.5 -173t70 -157.5t166 -55.5zM336 -27q-139 0 -238.5 78t-99.5 216t84 224.5t232 104.5t246 20t150 24t69.5 57.5t17.5 101.5
q0 198 -264 198t-316 -239h-102q29 152 139.5 237.5t288.5 85.5q288 0 325 -139t17 -248l-103 -516q-14 -72 -7 -116t18 -56v-6h-101q-23 53 -10 139h-4q-114 -166 -342 -166z" />
    <glyph glyph-name="atilde.alt" horiz-adv-x="944" 
d="M754 1317q59 0 75 84h84q-14 -86 -60 -129t-90 -43q-63 0 -139.5 44t-102.5 44q-57 0 -75 -84h-84q16 88 61.5 130t88.5 42q60 0 135.5 -44t106.5 -44zM336 55q172 0 266 92t121 226l41 202q-72 -28 -168 -35.5t-237.5 -17.5t-201 -81t-57.5 -173t70 -157.5t166 -55.5z
M336 -27q-139 0 -238.5 78t-99.5 216t84 224.5t232 104.5t246 20t150 24t69.5 57.5t17.5 101.5q0 198 -264 198t-316 -239h-102q29 152 139.5 237.5t288.5 85.5q288 0 325 -139t17 -248l-103 -516q-14 -72 -7 -116t18 -56v-6h-101q-23 53 -10 139h-4q-114 -166 -342 -166z
" />
    <glyph glyph-name="adieresis.alt" horiz-adv-x="944" 
d="M766 1464h100l-30 -164h-101zM461 1464h100l-31 -164h-100zM336 55q172 0 266 92t121 226l41 202q-72 -28 -168 -35.5t-237.5 -17.5t-201 -81t-57.5 -173t70 -157.5t166 -55.5zM336 -27q-139 0 -238.5 78t-99.5 216t84 224.5t232 104.5t246 20t150 24t69.5 57.5
t17.5 101.5q0 198 -264 198t-316 -239h-102q29 152 139.5 237.5t288.5 85.5q288 0 325 -139t17 -248l-103 -516q-14 -72 -7 -116t18 -56v-6h-101q-23 53 -10 139h-4q-114 -166 -342 -166z" />
    <glyph glyph-name="amacron.alt" horiz-adv-x="944" 
d="M406 1391h466l-18 -99h-467zM336 55q172 0 266 92t121 226l41 202q-72 -28 -168 -35.5t-237.5 -17.5t-201 -81t-57.5 -173t70 -157.5t166 -55.5zM336 -27q-139 0 -238.5 78t-99.5 216t84 224.5t232 104.5t246 20t150 24t69.5 57.5t17.5 101.5q0 198 -264 198t-316 -239
h-102q29 152 139.5 237.5t288.5 85.5q288 0 325 -139t17 -248l-103 -516q-14 -72 -7 -116t18 -56v-6h-101q-23 53 -10 139h-4q-114 -166 -342 -166z" />
    <glyph glyph-name="abreve.alt" horiz-adv-x="944" 
d="M633 1300q120 0 158 123h94q-18 -96 -85 -156.5t-171.5 -60.5t-161.5 61.5t-57 155.5h90q4 -55 35.5 -89t97.5 -34zM336 55q172 0 266 92t121 226l41 202q-72 -28 -168 -35.5t-237.5 -17.5t-201 -81t-57.5 -173t70 -157.5t166 -55.5zM336 -27q-139 0 -238.5 78t-99.5 216
t84 224.5t232 104.5t246 20t150 24t69.5 57.5t17.5 101.5q0 198 -264 198t-316 -239h-102q29 152 139.5 237.5t288.5 85.5q288 0 325 -139t17 -248l-103 -516q-14 -72 -7 -116t18 -56v-6h-101q-23 53 -10 139h-4q-114 -166 -342 -166z" />
    <glyph glyph-name="aring.alt" horiz-adv-x="944" 
d="M641 1247q45 0 72.5 31t27.5 76t-27.5 75.5t-72.5 30.5t-72.5 -30.5t-27.5 -75.5t27.5 -76t72.5 -31zM641 1180q-37 0 -69.5 13t-56 36.5t-38 55.5t-14.5 69t14.5 68.5t38 55t56 37t69.5 13.5t69.5 -13.5t56.5 -37t38 -55t14 -68.5t-14 -69t-38 -55.5t-56.5 -36.5
t-69.5 -13zM336 55q172 0 266 92t121 226l41 202q-72 -28 -168 -35.5t-237.5 -17.5t-201 -81t-57.5 -173t70 -157.5t166 -55.5zM336 -27q-139 0 -238.5 78t-99.5 216t84 224.5t232 104.5t246 20t150 24t69.5 57.5t17.5 101.5q0 198 -264 198t-316 -239h-102
q29 152 139.5 237.5t288.5 85.5q288 0 325 -139t17 -248l-103 -516q-14 -72 -7 -116t18 -56v-6h-101q-23 53 -10 139h-4q-114 -166 -342 -166z" />
    <glyph glyph-name="aogonek.alt" horiz-adv-x="944" 
d="M336 55q172 0 266 92t121 226l41 202q-72 -28 -168 -35.5t-237.5 -17.5t-201 -81t-57.5 -173t70 -157.5t166 -55.5zM592 -213q0 -66 78 -66q51 0 100 21h6l-14 -76q-43 -24 -118 -24t-115 37.5t-40 97.5q0 127 199 231q-19 55 -6 131h-4q-114 -166 -342 -166
q-139 0 -238.5 78t-99.5 216t84 224.5t232 104.5t246 20t150 24t69.5 57.5t17.5 101.5q0 198 -264 198t-316 -239h-102q29 152 139.5 237.5t288.5 85.5q288 0 325 -139t17 -248l-103 -516q-14 -72 -7 -116t18 -56v-6q-201 -109 -201 -213z" />
    <glyph glyph-name="Ccedilla.alt" horiz-adv-x="1312" 
d="M644 -27q-259 0 -404.5 165t-145.5 446q0 158 44 319.5t135.5 292.5t230 214t328.5 83t323 -105.5t162 -324.5h-103q-23 162 -124 251t-267 89t-283.5 -75t-226 -248.5t-108.5 -493.5q0 -371 165 -445.5t274 -74.5q204 0 340.5 124t186.5 340h101q-97 -399 -297.5 -478
t-330.5 -79zM487 -285q27 4 45.5 21.5t28.5 66.5h-51l25 131h118l-24 -129q-27 -143 -152 -149z" />
    <glyph glyph-name="Scedilla.alt" horiz-adv-x="1144" 
d="M530 63q184 0 302 88.5t118 272.5q0 107 -86.5 173t-292.5 130q-215 72 -304 148t-89 217q0 185 139.5 293t402.5 108t333.5 -151.5t72.5 -256.5h-102q-4 158 -104.5 238t-260.5 80q-262 0 -319 -114.5t-57 -206.5t75.5 -150t207.5 -100t217 -74.5t179.5 -101
t94.5 -232.5q0 -212 -148.5 -331.5t-376.5 -119.5q-237 0 -381.5 123.5t-140.5 366.5h105q-6 -296 159.5 -348t255.5 -52zM369 -285q27 4 45 21.5t28 66.5h-51l25 131h119l-25 -129q-27 -143 -152 -149z" />
    <glyph glyph-name="ccedilla.alt" horiz-adv-x="944" 
d="M450 -27q-185 0 -295 113.5t-110 353.5t139.5 440.5t390.5 200.5q154 0 247 -88t110 -239h-94q-15 161 -106.5 202t-181.5 41t-170.5 -52t-157.5 -175t-77 -364t114 -294t196 -53q129 2 217 85t123 214h96q-72 -269 -213 -327t-228 -58zM289 -285q27 4 45 21.5t28 66.5
h-51l25 131h119l-25 -129q-27 -143 -151 -149z" />
    <glyph glyph-name="scedilla.alt" horiz-adv-x="866" 
d="M92 319q15 -260 295 -260q135 0 211 59.5t76 169.5t-94 152.5t-168 70.5q-165 63 -231 124t-66 181t101.5 192.5t256.5 72.5q156 0 248 -79.5t100 -221.5h-94q-8 106 -77.5 160.5t-182.5 54.5t-163 -31.5t-71.5 -68.5t-21.5 -82q0 -78 57.5 -124.5t164.5 -84.5
q108 -39 223.5 -93.5t115.5 -208.5t-108 -241.5t-276.5 -87.5t-281 86.5t-112.5 259.5h98zM244 -285q27 4 45 21.5t28 66.5h-51l25 131h119l-25 -129q-27 -143 -152 -149z" />
    <glyph glyph-name="hyphen.cap" horiz-adv-x="661" 
d="M102 717h529l-19 -90h-528z" />
    <glyph glyph-name="endash.cap" horiz-adv-x="1024" 
d="M111 715h872l-16 -86h-873z" />
    <glyph glyph-name="emdash.cap" horiz-adv-x="2048" 
d="M240 715h1638l-16 -86h-1639z" />
    <glyph glyph-name="questiondown.cap" horiz-adv-x="980" 
d="M729 1303h-123l31 161h123zM228.5 126.5q74.5 -60.5 203.5 -60.5t227.5 88t126.5 252h107q-25 -185 -153 -309t-332 -124q-153 0 -258 85.5t-105 235.5t71.5 239.5t229.5 203.5q49 37 122.5 99t113.5 274h100q-34 -183 -80.5 -253.5t-92 -109t-99.5 -78.5t-99 -75
t-101 -105t-56 -186t74.5 -176.5z" />
    <glyph glyph-name="exclamdown.cap" horiz-adv-x="397" 
d="M410 1303h-123l30 161h123zM242 469l-90 -469h-111l92 481l143 629h70z" />
    <glyph glyph-name="parenleft.cap" horiz-adv-x="546" 
d="M266 414q0 -329 107 -594h-92q-120 262 -125 559q-11 536 273 967q89 135 202 260h102q-467 -548 -467 -1192z" />
    <glyph glyph-name="parenright.cap" horiz-adv-x="546" 
d="M352 1012q0 330 -106 594h92q118 -258 125 -559q11 -539 -274 -967q-89 -135 -201 -260h-103q467 549 467 1192z" />
    <glyph glyph-name="bracketleft.cap" horiz-adv-x="567" 
d="M375 1606h332l-19 -90h-231l-312 -1604h232l-19 -92h-331z" />
    <glyph glyph-name="bracketright.cap" horiz-adv-x="567" 
d="M264 -180h-334l19 92h233l312 1604h-234l19 90h333z" />
    <glyph glyph-name="braceleft.cap" horiz-adv-x="567" 
d="M295 -180q-133 0 -176 70.5t-21 183.5l88 454q14 72 -7 109t-103 39l18 92q80 2 115 35t51 108l88 455q23 129 83.5 184.5t184.5 55.5h58l-19 -90h-39q-77 0 -115 -34t-55 -128l-90 -467q-27 -137 -145 -168v-4q49 -23 69.5 -68t4.5 -129l-90 -467q-16 -78 12.5 -108.5
t95.5 -30.5h43l-18 -92h-33z" />
    <glyph glyph-name="braceright.cap" horiz-adv-x="567" 
d="M340 1606q243 0 197 -254l-88 -455q-14 -72 7 -108.5t103 -38.5l-18 -93q-80 -2 -115 -34.5t-51 -108.5l-88 -455q-34 -190 -119.5 -214.5t-149.5 -24.5h-57l19 92h38q76 0 114 31.5t56 128.5l91 467q14 72 48.5 111.5t96.5 56.5v4q-49 23 -69.5 67.5t-4.5 128.5l90 467
q16 78 -12.5 110t-95.5 32h-43l18 90h33z" />
    <glyph glyph-name="guillemotleft.cap" horiz-adv-x="811" 
d="M133 588l27 135l293 223l-27 -135l-219 -158v-4l153 -178l-22 -121zM453 588l26 135l293 223l-27 -135l-221 -158v-4l156 -178l-23 -121z" />
    <glyph glyph-name="guillemotright.cap" horiz-adv-x="811" 
d="M725 709l-27 -136l-292 -223l26 135l219 158v4l-153 178l22 121zM406 709l-27 -136l-293 -223l27 135l221 158v4l-156 178l23 121z" />
    <glyph glyph-name="guilsinglleft.cap" horiz-adv-x="512" 
d="M131 584l27 137l315 225l-27 -135l-241 -162v-4l174 -176l-23 -119z" />
    <glyph glyph-name="guilsinglright.cap" horiz-adv-x="512" 
d="M428 713l-27 -138l-315 -225l27 135l241 162v4l-174 176l23 119z" />
    <glyph glyph-name="registered.alt" horiz-adv-x="1636" 
d="M1096 958.5q0 116.5 -170 116.5h-269v-317h258q90 0 135.5 42t45.5 158.5zM559 1161h383q121 0 187.5 -63.5t66.5 -171.5q0 -162 -152 -207v-4q68 -20 95.5 -69.5t35.5 -189.5t35 -153v-6h-100q-16 8 -22.5 49.5t-10.5 145.5t-47 144t-135 40h-238v-379h-98v864zM858 31
q289 0 476.5 199t187.5 497t-187 498t-477 200t-476.5 -199.5t-186.5 -498.5t187 -497.5t476 -198.5zM857 -35q-157 0 -292 57.5t-236.5 159t-158.5 241.5t-57 304t57 304t215.5 300t472.5 160q156 0 292 -57.5t237.5 -160t159 -242.5t57.5 -304t-57.5 -304t-159 -241.5
t-237.5 -159t-293 -57.5z" />
    <glyph glyph-name="dollar.cap" horiz-adv-x="1107" 
d="M309 1091q0 -83 62.5 -141.5t208.5 -111.5l104 544l-39 2q-231 0 -283.5 -105t-52.5 -188zM918 440q0 90 -65 151.5t-216 121.5l-119 -607h35q250 0 307.5 122t57.5 212zM1024 461q0 -221 -133 -332t-338 -111h-19q-20 0 -32 2l-35 -184h-82l37 195q-165 28 -273 143.5
t-120 312.5h104q10 -164 92 -254t213 -116l121 622q-180 66 -266 144t-86 207q0 180 126.5 283.5t315.5 103.5l53 -2l25 124h82l-27 -137q135 -31 223.5 -124t96.5 -251h-101q-6 115 -72.5 184.5t-164.5 96.5l-109 -557q188 -69 278.5 -150t90.5 -200z" />
    <glyph glyph-name="Euro.cap" horiz-adv-x="1255" 
d="M307 557v-47q0 -291 121 -366.5t219 -75.5q343 -4 457 464h98q-63 -281 -209.5 -420t-353.5 -139t-323.5 151t-116.5 382v51h-150l17 84h139q7 83 28 180h-133l17 84h137q114 406 294.5 497t301.5 91q190 0 292.5 -114.5t110.5 -313.5h-102q-19 336 -305 336
q-185 0 -306.5 -137t-181.5 -359h467l-16 -84h-471q-18 -92 -25 -180h461l-16 -84h-451z" />
    <glyph glyph-name="sterling.cap" horiz-adv-x="1101" 
d="M973 84q-147 -104 -269 -104q-74 0 -128 16t-104 34.5t-98 35t-112 16.5t-123 -28.5t-108 -57.5l-51 96q294 178 294 459q0 46 -14 123h-166l17 86h129q-16 68 -31.5 136t-15.5 154t34.5 171.5t130 178.5t295.5 93t311 -122.5t103 -328.5h-104q6 261 -112 311t-198 50
q-157 0 -255.5 -96.5t-98.5 -268.5q0 -78 45 -278h383l-16 -86h-351q13 -101 13 -119q0 -131 -59.5 -238.5t-163.5 -183.5l2 -4q81 37 144 37q64 0 111.5 -15.5t133 -48t171.5 -32.5t208 90z" />
    <glyph glyph-name="yen.cap" horiz-adv-x="1060" 
d="M133 696h356l-303 768h115l270 -708h4l531 708h123l-586 -768h354l-16 -84h-381l-31 -163h379l-16 -84h-379l-70 -365h-104l70 365h-381l16 84h381l31 163h-379z" />
    <glyph glyph-name="zero.cap" horiz-adv-x="1196" 
d="M267.5 208q81.5 -140 265.5 -140t324 172t163.5 390t23.5 297q0 193 -79.5 332.5t-261.5 139.5t-299 -139.5t-167.5 -335.5t-50.5 -386t81.5 -330zM534 -27q-226 0 -343 159t-117 411q0 334 123.5 575.5t259 308t304.5 66.5t283.5 -159t114.5 -406q0 -334 -117 -579
t-252.5 -310.5t-255.5 -65.5z" />
    <glyph glyph-name="one.cap" horiz-adv-x="630" 
d="M449 1128h-295l14 70q195 12 250 53t80.5 92.5t48.5 129.5h71l-284 -1473h-105z" />
    <glyph glyph-name="two.cap" horiz-adv-x="1042" 
d="M936 1134q0 116 -81 191.5t-219 75.5t-242.5 -89t-143.5 -296h-105q33 240 172.5 358.5t315.5 118.5t293.5 -96t117.5 -288q0 -267 -198.5 -383t-286.5 -166q-203 -116 -314.5 -220.5t-146.5 -245.5h789l-19 -94h-897q50 329 251.5 459.5t288.5 179.5t162 92t133 96.5
t94 122t36 184.5z" />
    <glyph glyph-name="three.cap" horiz-adv-x="1050" 
d="M174.5 98.5q-129.5 125.5 -129.5 335.5h107q8 -170 98 -267t256 -97t267 94.5t101 265.5q0 129 -78.5 215t-236.5 86h-80l19 92h112q145 0 237.5 78t92.5 222t-77 212t-211 68t-237 -103t-124 -260h-107q25 202 160 327.5t324 125.5q256 0 317.5 -132t61.5 -224
q0 -145 -76 -234.5t-187 -130.5v-6q90 -41 144.5 -133t54.5 -199t-35 -192.5t-131 -177t-305 -91.5q-208 0 -337.5 125.5z" />
    <glyph glyph-name="four.cap" horiz-adv-x="1089" 
d="M152 481h553l157 805h-4l-706 -799v-6zM686 391h-668l21 101l868 987h97l-195 -998h217l-18 -90h-217l-74 -391h-105z" />
    <glyph glyph-name="five.cap" horiz-adv-x="1013" 
d="M248 813q123 123 302.5 123t289.5 -112t110 -326t-129.5 -369.5t-357.5 -155.5q-178 0 -305.5 107.5t-141.5 298.5h107q10 -141 99 -226t257 -85t264.5 121.5t96.5 300.5q0 178 -80 266t-228 88q-199 0 -313 -154h-104l229 774h680l-16 -92h-598l-168 -559h6z" />
    <glyph glyph-name="six.cap" horiz-adv-x="1077" 
d="M285.5 155.5q92.5 -92.5 236.5 -92.5q189 0 285 126t96 296q0 169 -84.5 263t-224.5 94q-179 0 -290 -127t-111 -297t92.5 -262.5zM536 -27q-186 0 -294 93q-160 132 -160 392q0 392 104.5 590.5t219 321.5t331.5 123q164 0 260.5 -92t104.5 -268h-107
q-2 121 -70.5 194.5t-180.5 73.5q-208 0 -346 -186.5t-195 -518.5h4q68 117 172.5 176.5t204.5 59.5q195 0 312.5 -114t117.5 -326t-95.5 -323.5t-187 -153.5t-195.5 -42z" />
    <glyph glyph-name="seven.cap" horiz-adv-x="987" 
d="M963 1372h-781l19 92h899l-19 -94q-395 -363 -549.5 -759t-205.5 -611h-117q90 382 295 752t459 616v4z" />
    <glyph glyph-name="eight.cap" horiz-adv-x="1093" 
d="M401 898q82 -67 214 -67q133 0 231 77t98 211t-84 210t-215 76t-228.5 -89t-97.5 -220t82 -198zM251 148q104 -85 265 -85q162 0 273.5 98t111.5 262t-102.5 243t-258.5 79t-274.5 -96.5t-118.5 -256.5q0 -159 104 -244zM518 -27q-194 0 -336.5 105t-142.5 301
q0 243 134 322t210 102v6q-74 37 -122 108.5t-48 161.5q0 178 125.5 296t320.5 118q156 0 274 -92t118 -264q0 -135 -74 -222.5t-197 -132.5v-6q98 -39 163 -129.5t67 -202.5t-35 -198t-103.5 -146.5t-161 -93.5t-192.5 -33z" />
    <glyph glyph-name="nine.cap" horiz-adv-x="1079" 
d="M846 1313q-94 90 -254 90t-261.5 -128t-101.5 -294t83.5 -260t219.5 -94q185 0 296.5 126t111.5 298t-94 262zM596 1493q248 0 351.5 -142.5t103.5 -387.5q0 -390 -107.5 -590.5t-185.5 -270.5q-145 -129 -328 -129t-289 94.5t-114 266.5h108q10 -141 86.5 -204.5
t178.5 -63.5t166 26t136 94t135.5 225.5t96.5 358.5h-4q-68 -117 -174.5 -175t-205.5 -58q-192 0 -312.5 113t-120.5 325t99 322t189.5 153t190.5 43z" />
    <glyph glyph-name="percent.cap" horiz-adv-x="1591" 
d="M1397 466q0 85 -39.5 152.5t-113.5 67.5q-132 0 -196.5 -121t-64.5 -280q0 -98 41.5 -165t115.5 -68t120.5 34t76 92.5t45 130t15.5 157.5zM1233 764q123 0 191.5 -85t68.5 -226q0 -199 -93 -339.5t-249 -140.5q-121 0 -192.5 85t-71.5 227q0 200 96 339.5t250 139.5z
M1348 1464h96l-1118 -1464h-99zM684 1195q0 85 -39 152.5t-113 67.5q-133 0 -197.5 -121t-64.5 -250q0 -260 170 -264q118 0 181 122.5t63 292.5zM520 1493q123 0 191.5 -85t68.5 -226q0 -199 -93 -339.5t-249 -140.5q-121 0 -192.5 85t-71.5 227q0 200 96 339.5t250 139.5z
" />
    <glyph glyph-name="perthousand.cap" horiz-adv-x="2258" 
d="M2066 466q0 85 -39 152.5t-113 67.5q-131 0 -196 -119.5t-65 -281.5q0 -98 41.5 -165t115.5 -68t120 34t76 92.5t45 130t15 157.5zM2163 453q0 -199 -93 -339.5t-249 -140.5q-121 0 -193 85t-72 227q0 198 96.5 338.5t250.5 140.5q123 0 191.5 -85t68.5 -226zM1356 466
q0 85 -39 152.5t-113 67.5q-132 0 -197 -121t-65 -280q0 -98 42 -165t116 -68t120 34t75.5 92.5t45 130t15.5 157.5zM1192 764q123 0 191.5 -85t68.5 -226q0 -199 -93 -339.5t-249 -140.5q-121 0 -192.5 85t-71.5 227q0 200 96 339.5t250 139.5zM1327 1464h96l-1118 -1464
h-98zM684 1195q0 85 -39 152.5t-113 67.5q-133 0 -197.5 -121t-64.5 -250q0 -260 170 -264q118 0 181 122.5t63 292.5zM520 1493q123 0 191.5 -85t68.5 -226q0 -199 -93 -339.5t-249 -140.5q-121 0 -192.5 85t-71.5 227q0 200 96 339.5t250 139.5z" />
    </font>
</defs>
</svg>
