<?xml version="1.0" standalone="no"?>
<!DOCTYPE svg PUBLIC "-//W3C//DTD SVG 1.1//EN" "http://www.w3.org/Graphics/SVG/1.1/DTD/svg11.dtd" >
<svg xmlns="http://www.w3.org/2000/svg">
<metadata>
Created by FontPrep 20130207 at Mon Nov  4 15:07:32 2013
 By Michael Hurley
Copyright (c) 2011 - 2012 Linotype Corp., www.linotype.com. All rights reserved. This font software may not be reproduced, modified, disclosed or transferred without the express written approval of Linotype Corp. Neue Haas Grotesk is a trademark of Linotype Corp. registered in the U.S. Patent and Trademark Office and may be registered in certain other jurisdictions in the name of Linotype Corp. or its licensee Linotype GmbH. This typeface is original artwork of Christian Schwartz. The design may be protected in certain jurisdictions.
</metadata>
<defs>
<font id="061174c4e3635639abad8f559b3d6d0a" horiz-adv-x='1024' >
  <font-face 
    font-family="NHaasGroteskDSPro-56It"
    font-weight="450"
    font-style="italic"
    font-stretch="normal"
    units-per-em="2048"
    panose-1="2 11 5 4 2 2 2 9 2 4"
    ascent="1587"
    descent="-461"
    x-height="1059"
    cap-height="1464"
    bbox="-442 -467 2257 1876"
    underline-thickness="40"
    underline-position="-231"
    slope="-11"
    unicode-range="U+000D-FB04"
  />
<missing-glyph 
 />
    <glyph glyph-name="f_f" unicode="ff" horiz-adv-x="1087" 
d="M627 1464q56 0 90 -4l-27 -139q-23 2 -26 2h-37q-80 0 -107.5 -29.5t-38.5 -85.5l-28 -149h333l33 170q27 135 98.5 191.5t206.5 56.5q58 0 90 -4l-26 -140q-23 2 -26 2h-38q-80 0 -107.5 -29.5t-37.5 -84.5l-31 -162h195l-27 -133h-194l-179 -926h-161l178 926h-334
l-178 -926h-162l178 926h-143l26 133h144l31 158q27 135 98.5 191t206.5 56z" />
    <glyph glyph-name="fi" unicode="fi" horiz-adv-x="958" 
d="M864 1464h164l-39 -204h-164zM786 1059h164l-205 -1059h-163zM629 1477q56 0 90 -4l-27 -140q-23 2 -26 2h-37q-80 0 -107.5 -29.5t-38.5 -84.5l-30 -162h194l-26 -133h-195l-178 -926h-162l178 926h-143l26 133h144l33 170q27 135 98.5 191.5t206.5 56.5z" />
    <glyph glyph-name="fl" unicode="fl" horiz-adv-x="970" 
d="M870 1464h164l-282 -1464h-164zM629 1477q56 0 90 -4l-27 -140q-23 2 -26 2h-37q-80 0 -107.5 -29.5t-38.5 -84.5l-30 -162h194l-26 -133h-195l-178 -926h-162l178 926h-143l26 133h144l33 170q27 135 98.5 191.5t206.5 56.5z" />
    <glyph glyph-name="f_f_i" unicode="ffi" horiz-adv-x="1454" 
d="M1360 1464h164l-39 -204h-164zM1282 1059h164l-205 -1059h-164zM627 1464q56 0 90 -4l-27 -139q-23 2 -26 2h-37q-80 0 -107.5 -29.5t-38.5 -85.5l-28 -149h333l33 170q27 135 98.5 191.5t206.5 56.5q58 0 90 -4l-26 -140q-23 2 -26 2h-38q-80 0 -107.5 -29.5
t-37.5 -84.5l-31 -162h195l-27 -133h-194l-179 -926h-161l178 926h-334l-178 -926h-162l178 926h-143l26 133h144l31 158q27 135 98.5 191t206.5 56z" />
    <glyph glyph-name="f_f_l" unicode="ffl" horiz-adv-x="1466" 
d="M1366 1464h164l-283 -1464h-164zM627 1464q56 0 90 -4l-27 -139q-23 2 -26 2h-37q-80 0 -107.5 -29.5t-38.5 -85.5l-28 -149h333l33 170q27 135 98.5 191.5t206.5 56.5q58 0 90 -4l-26 -140q-23 2 -26 2h-38q-80 0 -107.5 -29.5t-37.5 -84.5l-31 -162h195l-27 -133h-194
l-179 -926h-161l178 926h-334l-178 -926h-162l178 926h-143l26 133h144l31 158q27 135 98.5 191t206.5 56z" />
    <glyph glyph-name=".notdef" 
 />
    <glyph glyph-name=".null" horiz-adv-x="0" 
 />
    <glyph glyph-name=".null" horiz-adv-x="0" 
 />
    <glyph glyph-name="nonmarkingreturn" unicode="&#xd;" horiz-adv-x="0" 
 />
    <glyph glyph-name="space" unicode=" " horiz-adv-x="325" 
 />
    <glyph glyph-name="exclam" unicode="!" horiz-adv-x="473" 
d="M76 203h194l-39 -203h-194zM238 995l90 469h178l-92 -481l-170 -629h-92z" />
    <glyph glyph-name="quotedbl" unicode="&#x22;" horiz-adv-x="598" 
d="M264 1464h150l-84 -438h-150zM545 1464h149l-84 -438h-149z" />
    <glyph glyph-name="numbersign" unicode="#" horiz-adv-x="1110" 
d="M408 553h272l88 315h-274zM193 1016h202l107 389h137l-107 -389h275l106 389h136l-105 -389h203l-41 -148h-201l-88 -315h203l-43 -147h-199l-108 -406h-138l109 406h-274l-109 -406h-137l108 406h-204l41 147h204l86 315h-204z" />
    <glyph glyph-name="dollar" unicode="$" horiz-adv-x="1126" 
d="M324 1054q0 -73 54 -124t187 -94l90 469h-8q-221 0 -272 -89t-51 -162zM887 417q0 79 -56.5 131t-189.5 99l-100 -514h10q229 0 282.5 102.5t53.5 181.5zM1053 422q0 -192 -141.5 -308t-364.5 -116h-33l-33 -172h-112l34 182q-288 45 -347.5 203t-61.5 262h170
q2 -143 72.5 -224t193.5 -106l105 539q-195 66 -283 146.5t-88 238.5t137.5 264.5t349.5 106.5l31 -2l23 114h112l-24 -125q318 -55 344 -362h-164q-8 100 -65.5 154.5t-141.5 74.5l-94 -489q200 -66 290.5 -149t90.5 -232z" />
    <glyph glyph-name="percent" unicode="%" horiz-adv-x="1638" 
d="M1051 283q0 -193 143 -193q112 0 164.5 115t52.5 229t-29.5 169.5t-99.5 55.5q-119 0 -175 -119.5t-56 -256.5zM979 52q-78 83 -78 251t101.5 322.5t297.5 154.5q112 0 186.5 -81t74.5 -254t-98 -324.5t-271 -151.5q-135 0 -213 83zM289 938q0 -193 143 -193
q114 0 165.5 116t51.5 229q0 112 -29.5 168.5t-99.5 56.5q-117 0 -174 -119.5t-57 -257.5zM1307 1403h137l-1045 -1403h-137zM430 625q-135 0 -213 83t-78 251t102.5 322.5t296.5 154.5q112 0 186.5 -81t74.5 -254t-97.5 -324.5t-271.5 -151.5z" />
    <glyph glyph-name="ampersand" unicode="&#x26;" horiz-adv-x="1167" 
d="M630 1315q-75 0 -120 -52.5t-45 -124.5t18.5 -127t71.5 -134q39 25 80 51t93 82t52 135q0 78 -37.5 124t-112.5 46zM431 115q103 0 177 34.5t140 100.5l-271 448q-134 -68 -208 -144t-74 -194q0 -117 66.5 -181t169.5 -64zM29 348q0 231 153.5 327.5t229.5 133.5
q-109 161 -109 305t96 240t232 96t221.5 -79t85.5 -208q0 -187 -130 -273.5t-192 -119.5l238 -389q76 128 94 297h142q-28 -234 -160 -422l160 -256h-191l-82 129q-162 -158 -385 -158q-166 0 -284.5 97.5t-118.5 279.5z" />
    <glyph glyph-name="quotesingle" unicode="'" horiz-adv-x="317" 
d="M264 1464h150l-84 -438h-150z" />
    <glyph glyph-name="parenleft" unicode="(" horiz-adv-x="612" 
d="M145 413q0 343 127 617.5t365 513.5h143q-454 -531 -454 -1157q0 -325 102 -629h-133q-150 312 -150 655z" />
    <glyph glyph-name="parenright" unicode=")" horiz-adv-x="612" 
d="M524 887q0 -492 -186 -751t-305 -378h-144q455 533 455 1157q0 193 -28.5 341.5t-73.5 287.5h133q149 -310 149 -657z" />
    <glyph glyph-name="asterisk" unicode="*" horiz-adv-x="741" 
d="M246 977l155 174l-174 78l45 88l181 -76l43 223h110l-43 -223l203 55l22 -98l-210 -59l88 -191l-95 -45l-90 187l-157 -183z" />
    <glyph glyph-name="plus" unicode="+" horiz-adv-x="1128" 
d="M145 733h392l79 410h134l-80 -410h391l-25 -131h-391l-80 -409h-133l80 409h-391z" />
    <glyph glyph-name="comma" unicode="," horiz-adv-x="372" 
d="M-47 -170q74 25 95.5 74t31.5 96h-94l39 203h196l-43 -219q-42 -216 -241 -246z" />
    <glyph glyph-name="hyphen" unicode="-" horiz-adv-x="692" 
d="M96 641h541l-29 -149h-540z" />
    <glyph glyph-name="period" unicode="." horiz-adv-x="372" 
d="M25 203h196l-39 -203h-196z" />
    <glyph glyph-name="slash" unicode="/" horiz-adv-x="806" 
d="M780 1464h174l-850 -1464h-174z" />
    <glyph glyph-name="zero" unicode="0" horiz-adv-x="1249" 
d="M351 228q72 -111 233 -111q129 0 216 77.5t160.5 244.5t73.5 445t-104.5 342t-190.5 64t-153.5 -38t-118.5 -100t-87 -144t-68.5 -207.5t-32.5 -293.5t72 -279zM576 -31q-221 0 -347.5 145t-126.5 392q0 345 131 577t265.5 292.5t299.5 60.5t288.5 -147.5t123.5 -389.5
q0 -354 -126.5 -583.5t-261 -288t-246.5 -58.5z" />
    <glyph glyph-name="one" unicode="1" horiz-adv-x="677" 
d="M424 1022h-303l22 115q222 7 297.5 103.5t98.5 170.5h131l-273 -1411h-170z" />
    <glyph glyph-name="two" unicode="2" horiz-adv-x="1110" 
d="M659 1292q-158 0 -242.5 -93t-117.5 -277h-166q39 244 172 378t361 134q182 0 301.5 -101.5t119.5 -283.5q0 -264 -182.5 -369t-260.5 -143q-194 -94 -306 -176t-152 -199h762l-30 -162h-955q62 362 291.5 488t315.5 170q185 93 266.5 174.5t80.5 209.5t-71 189t-187 61z
" />
    <glyph glyph-name="three" unicode="3" horiz-adv-x="1130" 
d="M167 97.5q-142 128.5 -142 365.5h172q0 -251 128 -301.5t222 -50.5q154 0 247 82.5t93 222.5t-89 203t-216 63h-97l25 131h121q206 0 255.5 92.5t49.5 186.5t-71.5 152.5t-203.5 58.5t-224.5 -86.5t-119.5 -241.5h-170q36 214 180.5 337.5t335.5 123.5t317 -89.5
t126 -267.5q0 -113 -67.5 -204t-190.5 -132v-6q98 -35 156.5 -111t58.5 -190t-41 -197t-150 -176.5t-336 -93.5t-369 128.5z" />
    <glyph glyph-name="four" unicode="4" horiz-adv-x="1140" 
d="M215 479h477l127 651h-4l-600 -645v-6zM666 344h-650l31 152l860 921h133l-182 -938h227l-26 -135h-228l-65 -344h-166z" />
    <glyph glyph-name="five" unicode="5" horiz-adv-x="1093" 
d="M618.5 946q181.5 0 299.5 -116t118 -310q0 -242 -149 -396.5t-368 -154.5q-218 0 -356.5 118.5t-146.5 318.5h170q10 -129 92 -208t237 -79t251 110t96 289q0 129 -74.5 205t-196.5 76t-192.5 -45t-117.5 -105h-164l223 754h760l-29 -152h-627l-122 -420h4
q111 115 292.5 115z" />
    <glyph glyph-name="six" unicode="6" horiz-adv-x="1163" 
d="M339 190.5q81 -84.5 228 -84.5t244.5 105.5t97.5 280.5q0 125 -71.5 206.5t-219.5 81.5t-254 -100.5t-106 -252.5t81 -236.5zM653 920q178 0 297 -115.5t119 -320.5q0 -204 -146 -359.5t-353 -155.5t-341 127q-133 127 -133 406q0 206 92 489t266.5 364t286.5 81
q180 0 283.5 -97.5t116.5 -291.5h-164q-25 246 -244 245q-257 0 -337.5 -213t-106.5 -334h4q145 175 360 175z" />
    <glyph glyph-name="seven" unicode="7" horiz-adv-x="1009" 
d="M926 1253h-756l31 150h940l-27 -137q-262 -207 -476.5 -542t-283.5 -724h-182q68 356 281 705.5t473 543.5v4z" />
    <glyph glyph-name="eight" unicode="8" horiz-adv-x="1165" 
d="M391 1039q0 -107 76 -155t192 -48q201 0 252.5 87t51.5 149q0 115 -78 169.5t-195 54.5q-201 0 -250 -99.5t-49 -157.5zM312.5 176.5q97.5 -65.5 244.5 -65.5q244 0 301 120.5t57 199.5q0 139 -88.5 205t-242.5 66q-153 0 -261 -82t-108 -230t97.5 -213.5zM387 780
q-164 78 -164 254t143 290t322 114t309.5 -85.5t130.5 -262.5q0 -123 -72.5 -206t-191.5 -124v-6q98 -39 159.5 -116t61.5 -193q0 -222 -154 -349t-367 -127q-212 0 -368.5 96t-156.5 279q0 184 95 286.5t253 143.5v6z" />
    <glyph glyph-name="nine" unicode="9" horiz-adv-x="1171" 
d="M879.5 1214q-85.5 84 -231.5 84q-147 0 -246 -104.5t-99 -280.5q0 -125 73 -206.5t223 -81.5t258 101.5t108 252.5t-85.5 235zM561 485q-177 0 -297.5 117t-120.5 322t150.5 358.5t361.5 153.5t336 -121q66 -63 100.5 -165.5t34.5 -213.5q0 -243 -72.5 -476.5
t-219.5 -363.5q-151 -127 -353 -127q-292 0 -361 152.5t-73 259.5h166q14 -268 276 -268t338 198.5t111 352.5h-4q-149 -179 -373 -179z" />
    <glyph glyph-name="colon" unicode=":" horiz-adv-x="385" 
d="M31 203h196l-39 -203h-196zM152 823h196l-41 -202h-196z" />
    <glyph glyph-name="semicolon" unicode=";" horiz-adv-x="385" 
d="M-41 -170q74 25 95.5 74t31.5 96h-94l39 203h196l-43 -219q-42 -216 -241 -246zM152 823h196l-41 -202h-196z" />
    <glyph glyph-name="less" unicode="&#x3c;" horiz-adv-x="1030" 
d="M104 553l33 170l891 354l-31 -157l-747 -285v-4l635 -289l-29 -143z" />
    <glyph glyph-name="equal" unicode="=" horiz-adv-x="1128" 
d="M106 526h916l-27 -129h-915zM176 887h916l-27 -129h-915z" />
    <glyph glyph-name="greater" unicode="&#x3e;" horiz-adv-x="1030" 
d="M967 723l-33 -170l-891 -354l31 157l747 285v4l-635 289l29 143z" />
    <glyph glyph-name="question" unicode="?" horiz-adv-x="1015" 
d="M342 203h195l-39 -203h-195zM628 1346q-126 0 -217.5 -89.5t-123.5 -263.5h-166q32 225 172.5 361.5t357.5 136.5q173 0 293.5 -91t120.5 -261q0 -135 -66.5 -228.5t-195.5 -178.5t-170 -137t-60.5 -106.5t-33.5 -134.5h-156q32 179 96.5 280t202.5 197q37 27 123 87
t86 213q0 106 -68.5 160.5t-194.5 54.5z" />
    <glyph glyph-name="at" unicode="@" horiz-adv-x="1773" 
d="M803 293q155 0 235 129.5t80 294.5q0 100 -52 160.5t-142 60.5t-143.5 -39t-105.5 -125t-52 -219q0 -262 180 -262zM457 524q0 212 120 377.5t320 165.5t268 -156h4l31 136h160l-131 -586q-33 -154 104 -154q96 0 180 108t84 316q0 290 -179 445t-466 155
q-143 0 -276 -51t-235.5 -149.5t-164 -242.5t-61.5 -304q0 -308 174.5 -491t495.5 -183q198 0 383 72l45 -113q-193 -84 -399 -84q-393 0 -618.5 216t-225.5 560q0 217 77.5 385t203.5 282.5t286 173t317 58.5t298 -47t248.5 -139t173 -227t65.5 -285q0 -272 -120.5 -429
t-310.5 -157t-225 137h-4q-116 -145 -277 -145q-160 0 -252.5 94.5t-92.5 261.5z" />
    <glyph glyph-name="A" unicode="A" horiz-adv-x="1306" 
d="M418 594h475l-82 493q-21 107 -29 207h-4q-14 -33 -39 -81t-63 -126zM918 446h-578l-231 -446h-189l785 1464h202l277 -1464h-193z" />
    <glyph glyph-name="B" unicode="B" horiz-adv-x="1273" 
d="M741 838q318 0 318 268q0 98 -61.5 149.5t-180.5 51.5h-352l-90 -469h366zM1020 461q0 223 -275 223h-401l-100 -520h420q264 0 310 112.5t46 184.5zM829 1464q174 0 293 -87t119 -259q0 -133 -72.5 -224t-199.5 -126v-6q164 -47 198.5 -141.5t34.5 -178.5t-42 -174
t-113 -149q-141 -119 -379 -119h-635l282 1464h514z" />
    <glyph glyph-name="C" unicode="C" horiz-adv-x="1400" 
d="M102 616q0 164 52.5 323t152 283t242.5 199.5t325 75.5q229 0 368.5 -122t158.5 -345h-182q-20 147 -111.5 228t-239.5 81q-273 0 -425 -211t-152 -505q0 -214 105 -353t323 -139q183 0 297.5 112.5t157.5 293.5h180q-41 -223 -193 -385q-168 -181 -455 -181
q-286 0 -445 175.5t-159 469.5z" />
    <glyph glyph-name="D" unicode="D" horiz-adv-x="1378" 
d="M1167 868q0 439 -403 439h-299l-221 -1147h311q299 0 455.5 196.5t156.5 511.5zM774 1464q290 0 435 -155t145 -428q0 -375 -149.5 -557.5t-299 -253t-346.5 -70.5h-526l282 1464h459z" />
    <glyph glyph-name="E" unicode="E" horiz-adv-x="1212" 
d="M315 1464h957l-31 -159h-776l-90 -465h712l-30 -154h-713l-98 -518h821l-33 -168h-1001z" />
    <glyph glyph-name="F" unicode="F" horiz-adv-x="1130" 
d="M315 1464h938l-30 -159h-758l-88 -459h655l-31 -154h-655l-133 -692h-180z" />
    <glyph glyph-name="G" unicode="G" horiz-adv-x="1478" 
d="M1130 193q-172 -224 -430 -224q-274 0 -436 169.5t-162 469.5q0 164 52.5 323t153 284.5t245.5 203.5t332 78q353 0 440.5 -177t95.5 -296h-182q-12 141 -106.5 227t-246.5 86q-287 0 -441 -212.5t-154 -512.5q0 -218 109.5 -352.5t308.5 -134.5q299 0 382 179t101 280
l6 32h-432l31 158h614l-149 -774h-127v193h-5z" />
    <glyph glyph-name="H" unicode="H" horiz-adv-x="1361" 
d="M315 1464h181l-121 -622h729l121 622h182l-283 -1464h-182l133 694h-729l-133 -694h-180z" />
    <glyph glyph-name="I" unicode="I" horiz-adv-x="458" 
d="M319 1464h181l-283 -1464h-180z" />
    <glyph glyph-name="J" unicode="J" horiz-adv-x="991" 
d="M403 121q109 0 169.5 57.5t86.5 186.5l213 1099h183l-217 -1128q-33 -164 -141.5 -264.5t-321.5 -100.5t-308.5 116t-41.5 388h176q-36 -181 2.5 -267.5t199.5 -86.5z" />
    <glyph glyph-name="K" unicode="K" horiz-adv-x="1277" 
d="M719 874l461 -874h-203l-395 752l-271 -244l-98 -508h-180l282 1464h181l-142 -723l791 723h229z" />
    <glyph glyph-name="L" unicode="L" horiz-adv-x="1103" 
d="M315 1464h181l-250 -1296h735l-33 -168h-915z" />
    <glyph glyph-name="M" unicode="M" horiz-adv-x="1644" 
d="M315 1464h226l225 -1220h4l678 1220h242l-283 -1464h-174l233 1204h-4l-32 -65q-14 -29 -32 -60.5t-34 -60.5l-571 -1018h-140l-194 1020q-19 100 -25 184h-4l-233 -1204h-164z" />
    <glyph glyph-name="N" unicode="N" horiz-adv-x="1376" 
d="M315 1464h191l440 -1022q21 -49 39 -104q18 -54 29 -84h4l233 1210h170l-282 -1464h-187l-442 1024q-18 38 -38 95q-19 57 -32 87h-4l-233 -1206h-170z" />
    <glyph glyph-name="O" unicode="O" horiz-adv-x="1552" 
d="M291 639q0 -242 127 -376t348 -134q272 0 422.5 194.5t150.5 497.5q0 235 -128 376.5t-347 141.5q-268 0 -420.5 -200.5t-152.5 -499.5zM782 -31q-307 0 -493.5 180t-186.5 490q0 174 55.5 329.5t156 273.5t242.5 186.5t298 68.5q305 0 488.5 -181t183.5 -493
q0 -363 -150.5 -541t-293 -245.5t-300.5 -67.5z" />
    <glyph glyph-name="P" unicode="P" horiz-adv-x="1191" 
d="M737 764q242 0 289 116t47 212t-71.5 154.5t-196.5 58.5h-340l-105 -541h377zM825 1464q215 0 334 -121q94 -94 94 -256q0 -218 -138 -345.5t-374 -127.5h-409l-119 -614h-180l282 1464h510z" />
    <glyph glyph-name="Q" unicode="Q" horiz-adv-x="1552" 
d="M291 639q0 -242 127 -376t348 -134q111 0 205 35l-140 127l109 121l178 -162q111 94 166 243t55 297q0 267 -128 408t-347 141q-268 0 -420.5 -200.5t-152.5 -499.5zM784 -31q-310 0 -496 180t-186 490q0 174 55.5 329.5t156 273.5t242.5 186.5t298 68.5
q305 0 488.5 -181t183.5 -493q0 -209 -74 -387t-211 -297l158 -141l-109 -121l-188 170q-156 -78 -318 -78z" />
    <glyph glyph-name="R" unicode="R" horiz-adv-x="1325" 
d="M1112 1077q0 230 -268 230h-379l-105 -539h412q156 0 248 79t92 230zM975 146q0 94 6 178q12 166 -40.5 231.5t-197.5 65.5h-411l-119 -621h-180l282 1464h555q182 0 295 -84q135 -101 135 -299q0 -152 -80.5 -249t-203.5 -138v-6q94 -44 123.5 -125t20.5 -205
q-23 -315 36 -350v-8h-184q-37 52 -37 146z" />
    <glyph glyph-name="S" unicode="S" horiz-adv-x="1232" 
d="M195 496q0 -375 401 -375q168 0 267.5 75.5t99.5 219.5q0 104 -79 158t-230 109q-150 55 -305.5 130.5t-155.5 280.5q0 180 135 289.5t346 109.5q363 0 443.5 -167t86.5 -290h-172q-8 164 -100 237t-258 73q-215 0 -263.5 -84t-48.5 -142t22 -91.5t70.5 -67.5t184.5 -84
q135 -50 221 -86.5t183.5 -110.5t97.5 -244q0 -208 -147.5 -336.5t-401.5 -128.5q-396 0 -486 189.5t-86 335.5h175z" />
    <glyph glyph-name="T" unicode="T" horiz-adv-x="1179" 
d="M215 1464h1112l-31 -159h-467l-251 -1305h-181l252 1305h-465z" />
    <glyph glyph-name="U" unicode="U" horiz-adv-x="1312" 
d="M618 133q166 0 260.5 78t129.5 250l194 1003h180l-200 -1034q-88 -453 -583 -453q-264 0 -403.5 137.5t-84.5 420.5l180 929h182l-180 -929q-41 -201 37 -301.5t288 -100.5z" />
    <glyph glyph-name="V" unicode="V" horiz-adv-x="1222" 
d="M184 1464h187l166 -1089q4 -27 7 -59.5t7 -66.5t8 -71h4q18 37 48 102t46 95l541 1089h193l-762 -1464h-199z" />
    <glyph glyph-name="W" unicode="W" horiz-adv-x="1814" 
d="M193 1464h184l59 -952q4 -37 5.5 -98t7.5 -150h4q61 153 104 252l420 948h197l90 -948q4 -37 6 -81t4 -86t4 -85h4q16 45 34 87t34 84t30 77l404 952h184l-647 -1464h-174l-90 1032q-4 33 -6 73t-4 77t-3 78h-4q-14 -39 -29 -76t-30.5 -77t-32.5 -75l-459 -1032h-180z
" />
    <glyph glyph-name="X" unicode="X" horiz-adv-x="1179" 
d="M526 760l-340 704h203l262 -581h4l447 581h198l-573 -727l356 -737h-200l-277 618h-4l-477 -618h-203z" />
    <glyph glyph-name="Y" unicode="Y" horiz-adv-x="1187" 
d="M526 621l-360 843h194l283 -694h4l518 694h203l-663 -858l-117 -606h-180z" />
    <glyph glyph-name="Z" unicode="Z" horiz-adv-x="1212" 
d="M1034 1313h-782l29 151h1015l-26 -139l-1059 -1157v-6h879l-31 -162h-1100l33 172l1042 1135v6z" />
    <glyph glyph-name="bracketleft" unicode="[" horiz-adv-x="595" 
d="M352 1544h381l-26 -133h-213l-293 -1513h213l-27 -140h-381z" />
    <glyph glyph-name="backslash" unicode="\" horiz-adv-x="937" 
d="M193 1464h159l471 -1464h-159z" />
    <glyph glyph-name="bracketright" unicode="]" horiz-adv-x="595" 
d="M-61 -102h211l292 1513h-211l27 133h379l-346 -1786h-379z" />
    <glyph glyph-name="asciicircum" unicode="^" horiz-adv-x="913" 
d="M512 1464h193l247 -587h-166l-188 458h-4l-334 -458h-176z" />
    <glyph glyph-name="underscore" unicode="_" horiz-adv-x="821" 
d="M-147 -217h827l-25 -123h-827z" />
    <glyph glyph-name="grave" unicode="`" 
d="M438 1485h195l86 -260h-137z" />
    <glyph glyph-name="a" unicode="a" horiz-adv-x="1017" 
d="M174 283q0 -76 51 -126.5t137 -50.5q152 0 240.5 84t114.5 213l28 146q-63 -35 -207 -46.5t-188.5 -18.5t-83.5 -27.5t-65.5 -59t-26.5 -114.5zM8 266q0 196 114 268t323 83t260 35t66 54.5t15 80.5q0 94 -59.5 129.5t-173.5 36.5q-113 1 -186.5 -48t-96.5 -166h-166
q29 160 150 251t311 91t293.5 -88.5t69.5 -271.5l-97 -490q-10 -59 4.5 -90.5t88.5 -17.5h6l-25 -119q-16 -4 -35.5 -9t-48.5 -5q-84 0 -114.5 43t-32.5 102h-2q-121 -155 -334 -155q-153 0 -241.5 86.5t-88.5 199.5z" />
    <glyph glyph-name="b" unicode="b" horiz-adv-x="1120" 
d="M256 439q0 -157 68.5 -245t203.5 -88q182 0 277.5 162.5t95.5 370.5t-89 256.5t-172 48.5t-156.5 -45t-124 -118.5t-77 -167t-26.5 -174.5zM696 1083q173 0 273 -119.5t100 -318.5q0 -265 -141 -470.5t-383 -205.5t-340 187h-4l-29 -156h-164l283 1464h164l-105 -551h4
q133 170 342 170z" />
    <glyph glyph-name="c" unicode="c" horiz-adv-x="1030" 
d="M612 1085q180 0 279.5 -95t116.5 -273h-166q-10 104 -66 168.5t-162 64.5q-192 0 -296.5 -159.5t-104.5 -373.5q0 -215 101.5 -261.5t195.5 -46.5t176 68.5t115 195.5h157q-45 -193 -171 -297.5t-313 -104.5t-307 117.5t-120 356.5t113.5 383.5t218 200.5t233.5 56z" />
    <glyph glyph-name="d" unicode="d" horiz-adv-x="1118" 
d="M213 432q0 -149 62.5 -237.5t195.5 -88.5q100 0 175 48.5t145.5 166t70.5 332.5q0 123 -68.5 207t-180.5 84q-113 0 -185 -50t-120 -128t-71.5 -170t-23.5 -164zM760 115q-127 -146 -309 -146q-183 0 -293.5 116t-110.5 349t150.5 441t406.5 208q207 0 307 -186h4
l109 567h164l-283 -1464h-164l23 115h-4z" />
    <glyph glyph-name="e" unicode="e" horiz-adv-x="1054" 
d="M592 956q-141 0 -233.5 -95t-127.5 -247h617q16 150 -49.5 246t-206.5 96zM213 470v-40q0 -141 72.5 -231t220.5 -90q104 0 184 57t115 162h160q-61 -180 -185 -268.5t-302 -88.5t-304.5 126.5t-126.5 334.5q0 273 160 463t391 190q161 -1 264 -77q198 -148 142 -519
h-789q-2 -16 -2 -19z" />
    <glyph glyph-name="f" unicode="f" horiz-adv-x="591" 
d="M629 1477q56 0 90 -4l-27 -140q-23 2 -26 2h-37q-80 0 -107.5 -29.5t-38.5 -84.5l-30 -162h194l-26 -133h-195l-178 -926h-162l178 926h-143l26 133h144l33 170q27 135 98.5 191.5t206.5 56.5z" />
    <glyph glyph-name="g" unicode="g" horiz-adv-x="1087" 
d="M213 482q0 -308 258 -308q178 0 275.5 145t97.5 336q0 135 -66.5 212t-204.5 77q-176 0 -268 -141t-92 -321zM582 1083q206 0 303 -178h2l31 154h161l-205 -1059q-31 -162 -152.5 -257t-307.5 -95q-268 0 -334 106.5t-68 186.5h162q14 -164 238 -164q129 0 204.5 63.5
t98.5 173.5l33 166h-3q-128 -143 -302 -143q-175 0 -284.5 113.5t-109.5 308.5q0 253 142.5 438.5t390.5 185.5z" />
    <glyph glyph-name="h" unicode="h" horiz-adv-x="1056" 
d="M739 1083q158 0 222.5 -90t35.5 -245l-145 -748h-162l146 748q36 198 -128 198q-155 0 -273.5 -103t-147.5 -249l-115 -594h-164l283 1464h164l-111 -571h4q66 86 169.5 138t221.5 52z" />
    <glyph glyph-name="i" unicode="i" horiz-adv-x="385" 
d="M291 1464h164l-39 -204h-164zM213 1059h164l-205 -1059h-164z" />
    <glyph glyph-name="j" unicode="j" horiz-adv-x="385" 
d="M291 1464h164l-39 -204h-164zM-116 -166q40 0 70 20.5t42 84.5l217 1120h164l-223 -1147q-22 -119 -92 -166t-151 -47q-82 0 -124 12l25 131h4q28 -8 68 -8z" />
    <glyph glyph-name="k" unicode="k" horiz-adv-x="944" 
d="M561 668l289 -668h-176l-238 559l-188 -168l-76 -391h-164l283 1464h164l-170 -878l501 473h215z" />
    <glyph glyph-name="l" unicode="l" horiz-adv-x="397" 
d="M297 1464h164l-283 -1464h-164z" />
    <glyph glyph-name="m" unicode="m" horiz-adv-x="1579" 
d="M694 1083q86 0 144.5 -47t74.5 -145h5q159 192 364 192t230.5 -120.5t7.5 -210.5l-146 -752h-162l148 756q37 190 -129 190q-115 0 -214 -94.5t-122 -228.5l-121 -623h-164l148 766q33 180 -123 180q-108 0 -212.5 -95.5t-129.5 -227.5l-121 -623h-164l205 1059h164
l-31 -162h4q153 186 344 186z" />
    <glyph glyph-name="n" unicode="n" horiz-adv-x="1056" 
d="M739 1083q158 0 222.5 -90t35.5 -245l-145 -748h-162l146 748q36 198 -128 198q-155 0 -273.5 -103t-147.5 -249l-115 -594h-164l205 1059h164l-31 -164h4q66 86 168.5 137t220.5 51z" />
    <glyph glyph-name="o" unicode="o" horiz-adv-x="1097" 
d="M211 450q0 -158 74 -249.5t215 -91.5q177 0 281 146t104 368t-104.5 274.5t-190.5 52.5t-159 -43t-122 -115.5t-73.5 -165t-24.5 -176.5zM514 -29q-215 0 -341 124t-126 339q0 271 153 461t406 190q194 0 319.5 -127.5t125.5 -339.5q0 -267 -107.5 -402.5t-211.5 -190
t-218 -54.5z" />
    <glyph glyph-name="p" unicode="p" horiz-adv-x="1120" 
d="M256 439q0 -157 68.5 -245t203.5 -88q182 0 277.5 162.5t95.5 370.5t-89 256.5t-172 48.5t-156.5 -45t-124 -118.5t-77 -167t-26.5 -174.5zM696 1083q173 0 273 -119.5t100 -318.5q0 -265 -141 -470.5t-383 -205.5t-338 191h-4l-97 -500h-163l272 1399h164l-29 -146h4
q130 170 342 170z" />
    <glyph glyph-name="q" unicode="q" horiz-adv-x="1118" 
d="M213 432q0 -149 62.5 -237.5t195.5 -88.5q100 0 175 48.5t145.5 166t70.5 332.5q0 124 -70 207.5t-202 83.5q-176 0 -253 -128t-100.5 -220t-23.5 -164zM760 115q-127 -146 -309 -146q-183 0 -293.5 116t-110.5 348t105.5 380t208 209t235.5 61q216 0 313 -190h4l33 166
h164l-272 -1399h-164l90 455h-4z" />
    <glyph glyph-name="r" unicode="r" horiz-adv-x="671" 
d="M651 1071q58 0 86 -12l-30 -158h-7q-29 10 -75 10q-121 0 -217.5 -91t-128.5 -261l-107 -559h-164l205 1059h164l-33 -168h4q126 180 303 180z" />
    <glyph glyph-name="s" unicode="s" horiz-adv-x="950" 
d="M281 809q0 -67 52 -102.5t156 -77.5q105 -42 232 -97.5t127 -225.5t-119 -253.5t-299 -83.5q-181 0 -307.5 97t-126.5 278h158q8 -240 295 -240q95 0 145.5 31t72 68t21.5 96t-57 96t-155 75t-223.5 96.5t-125.5 228.5q0 135 100.5 210.5t318 75.5t282.5 -121.5
t71 -209.5h-160q-22 204 -245 204q-146 0 -179.5 -53t-33.5 -92z" />
    <glyph glyph-name="t" unicode="t" horiz-adv-x="608" 
d="M397 135q54 0 95 19h6l-29 -144q-45 -16 -115 -16q-123 0 -181 66.5t-32 199.5l129 666h-149l26 133h150l65 334h164l-65 -334h203l-27 -133h-203l-129 -672q-25 -119 92 -119z" />
    <glyph glyph-name="u" unicode="u" horiz-adv-x="1032" 
d="M346 113q156 0 263.5 103.5t135.5 250.5l115 592h164l-205 -1059h-164l27 147h-4q-146 -172 -356 -172q-156 0 -225.5 92.5t-39.5 254.5l144 737h161l-143 -735q-44 -211 127 -211z" />
    <glyph glyph-name="v" unicode="v" horiz-adv-x="919" 
d="M100 1059h172l95 -672q4 -35 12.5 -104t11.5 -123h4q13 38 31 72t35.5 74t38.5 81l338 672h174l-559 -1059h-183z" />
    <glyph glyph-name="w" unicode="w" horiz-adv-x="1449" 
d="M350 176h4q38 117 86 230l289 653h170l57 -653q7 -58 7 -148v-82h4q52 140 96 236l305 647h172l-520 -1059h-168l-59 633q-4 33 -5.5 74t-3.5 79t-2 80h-4q-23 -69 -92 -233l-280 -633h-170l-130 1059h173l61 -641q4 -35 5 -77t3 -82t2 -83z" />
    <glyph glyph-name="x" unicode="x" horiz-adv-x="972" 
d="M393 565l-231 494h182l162 -389h4l313 389h193l-434 -502l272 -557h-184l-203 453h-4l-367 -453h-196z" />
    <glyph glyph-name="y" unicode="y" horiz-adv-x="935" 
d="M88 -205q56 0 96.5 22.5t71.5 82.5l70 133l-226 1026h168l135 -656q6 -35 17 -94.5t14 -111.5h4q12 31 28 63t32 68.5t34 72.5l326 658h170l-618 -1190q-66 -125 -144 -172t-170 -47t-147 24l28 144h9q46 -23 102 -23z" />
    <glyph glyph-name="z" unicode="z" horiz-adv-x="907" 
d="M682 918h-524l26 141h756l-18 -94l-729 -811v-7h598l-27 -147h-811l24 127l705 784v7z" />
    <glyph glyph-name="braceleft" unicode="{" horiz-adv-x="595" 
d="M362 -242q-162 0 -228 78t-32 252l70 365q14 68 -7.5 100.5t-105.5 36.5l29 137q78 6 114 35t52 102l76 398q29 154 112.5 218t219.5 64h71l-26 -135h-39q-76 0 -116 -37t-58 -135l-80 -401q-27 -147 -148 -183v-6q47 -25 68.5 -73t3.5 -140l-68 -344q-33 -158 19.5 -174
t89.5 -16h35l-27 -142h-25z" />
    <glyph glyph-name="bar" unicode="|" horiz-adv-x="450" 
d="M195 1544h143v-1786h-143v1786z" />
    <glyph glyph-name="braceright" unicode="}" horiz-adv-x="595" 
d="M283 1544q162 0 228.5 -77.5t31.5 -252.5l-70 -364q-14 -68 7.5 -100.5t105.5 -36.5l-29 -138q-78 -6 -113.5 -34.5t-52.5 -102.5l-76 -397q-29 -154 -112.5 -218.5t-218.5 -64.5h-72l27 142h38q76 0 116 33.5t59 132.5l79 401q27 147 148 182v6q-47 25 -68.5 73
t-3.5 140l68 344q23 115 -5 156t-104 41h-35l27 135h25z" />
    <glyph glyph-name="asciitilde" unicode="~" horiz-adv-x="792" 
d="M285 645q-59 0 -72 -84h-131q16 111 70.5 174.5t126.5 63.5q72 1 135 -33t84.5 -44.5t48.5 -10.5q66 0 78 84h131q-37 -238 -207 -238q-57 0 -121 32t-90.5 44t-52.5 12z" />
    <glyph glyph-name="uni00A0" unicode="&#xa0;" horiz-adv-x="325" 
 />
    <glyph glyph-name="exclamdown" unicode="&#xa1;" horiz-adv-x="473" 
d="M424 1001h-195l39 203h195zM262 209l-90 -469h-178l92 481l170 629h92z" />
    <glyph glyph-name="cent" unicode="&#xa2;" horiz-adv-x="1030" 
d="M213 412q0 -102 44 -185.5t151 -109.5l161 831q-168 -19 -262 -173.5t-94 -362.5zM47 426q0 252 151.5 450.5t397.5 206.5l25 127h112l-26 -133q270 -50 301 -360h-166q-22 186 -162 223l-160 -829q102 8 176 75.5t105 186.5h157q-45 -193 -169.5 -296.5t-294.5 -105.5
l-29 -145h-113l29 156q-154 29 -244 140t-90 304z" />
    <glyph glyph-name="sterling" unicode="&#xa3;" horiz-adv-x="1089" 
d="M207 989q0 88 36 173t132 178.5t309 93.5t319.5 -125t96.5 -344h-168q19 327 -260 327q-133 0 -211 -82t-78 -239q0 -78 27 -223h295l-25 -130h-254l2 -59q0 -119 -52 -207t-157 -166l2 -4q72 25 136 25q83 0 192.5 -41t191.5 -41t187 78l76 -127q-146 -101 -302 -101
q-78 0 -132 17.5t-100 38t-91 38t-104.5 17.5t-116 -30.5t-103.5 -57.5l-69 139q127 80 202.5 171t75.5 222q0 22 -6 88h-170l25 130h123q-29 153 -29 241z" />
    <glyph glyph-name="currency" unicode="&#xa4;" horiz-adv-x="974" 
d="M125 714q0 140 74 244l-136 140l89 84l131 -135q103 77 238 77t241 -77l131 135l88 -84l-135 -140q72 -106 72 -243t-74 -244l137 -141l-88 -84l-133 135q-99 -74 -237.5 -74t-237.5 74l-133 -135l-89 84l136 139q-74 105 -74 245zM522.5 434q112.5 0 173 80t60.5 201
q0 195 -89 238.5t-170.5 43.5t-145.5 -77t-64 -202q0 -124 61.5 -204t174 -80z" />
    <glyph glyph-name="yen" unicode="&#xa5;" horiz-adv-x="1112" 
d="M150 668h333l-301 735h180l244 -645h4l463 645h187l-553 -735h337l-22 -109h-363l-26 -143h362l-22 -109h-363l-57 -307h-170l57 307h-362l22 109h363l26 143h-362z" />
    <glyph glyph-name="brokenbar" unicode="&#xa6;" horiz-adv-x="458" 
d="M158 1544h143v-811h-143v811zM158 602h143v-844h-143v844z" />
    <glyph glyph-name="section" unicode="&#xa7;" horiz-adv-x="1173" 
d="M250 678q0 -69 40 -117.5t85 -85.5t159 -125t189 -166q133 30 167 91t34 106q0 78 -69 149.5t-168 143.5t-150.5 112.5t-92.5 85.5q-194 -42 -194 -194zM336 1108q0 149 112 238.5t279 89.5q166 0 268.5 -96.5t102.5 -280.5h-168q0 157 -78 194t-129 37q-95 0 -155 -41
t-60 -121t59 -140t155 -128q189 -132 278.5 -235t89.5 -228t-80 -200.5t-215 -106.5q47 -76 47 -155q0 -146 -110.5 -231t-280.5 -85q-169 0 -284.5 108t-115.5 296h168q7 -181 97 -220t142 -39q99 0 157.5 41.5t58.5 118.5q0 78 -73 147.5t-181 149.5t-221 177t-113 267
q0 121 78 193t213 103q-41 71 -41 147z" />
    <glyph glyph-name="dieresis" unicode="&#xa8;" 
d="M440 1454h158l-39 -194h-158zM770 1454h158l-39 -194h-158z" />
    <glyph glyph-name="copyright" unicode="&#xa9;" horiz-adv-x="1636" 
d="M549.5 393q-119.5 133 -119.5 339q0 205 117 338.5t317 133.5q156 0 255 -84.5t116 -214.5h-156q-14 76 -69.5 122t-135.5 46q-143 0 -213.5 -96.5t-70.5 -247.5q0 -150 73 -244t187 -94t170.5 56.5t66.5 140.5h152q-4 -139 -103 -233.5t-283 -94.5t-303.5 133zM856 45
q141 0 261 51t207 142.5t137 216.5t50 272t-50 272t-137 217.5t-207 143.5t-261 51t-261 -51t-207 -143.5t-137 -217.5t-50 -272t50 -272t137 -216.5t207 -142.5t261 -51zM856 -35q-158 0 -295 57.5t-238.5 159t-159 241.5t-57.5 304t57.5 304t159 242.5t238.5 160t295 57.5
t295 -57.5t238.5 -160t159 -242.5t57.5 -304t-57.5 -304t-159 -241.5t-238.5 -159t-295 -57.5z" />
    <glyph glyph-name="ordfeminine" unicode="&#xaa;" horiz-adv-x="966" 
d="M427 586q132 0 207 68t97 177l27 134q-73 -32 -276 -48q-204 -17 -210 -178q-2 -72 39 -112.5t116 -40.5zM113 716q0 169 103 236t279 77q177 11 224 32.5t60.5 48.5t13.5 68q0 80 -52.5 110.5t-146.5 30.5q-197 0 -234 -199h-151q25 141 129 228.5t285 87.5
q247 0 286 -115t23 -203l-84 -422q-4 -25 -4 -45t11.5 -40t72.5 -9h6l-23 -115q-42 -12 -75 -12q-80 0 -111 42t-29 93h-4q-114 -143 -289 -143q-136 0 -213 76t-77 173z" />
    <glyph glyph-name="guillemotleft" unicode="&#xab;" horiz-adv-x="854" 
d="M90 477l35 178l319 226l-32 -170l-222 -154v-4l158 -168l-29 -154zM467 477l35 178l319 226l-33 -170l-221 -154v-4l158 -168l-29 -154z" />
    <glyph glyph-name="logicalnot" unicode="&#xac;" horiz-adv-x="1128" 
d="M182 815h834l-103 -520h-133l76 391h-700z" />
    <glyph glyph-name="uni00AD" unicode="&#xad;" horiz-adv-x="692" 
d="M96 641h541l-29 -149h-540z" />
    <glyph glyph-name="registered" unicode="&#xae;" horiz-adv-x="1064" 
d="M539 1030h114q43 0 64.5 20.5t21.5 53.5t-21.5 53.5t-64.5 20.5h-114v-148zM842 1116q0 -100 -99 -125v-2q75 -19 82 -106q6 -55 7.5 -93t15.5 -45v-6h-100q-17 7 -22 109t-101 102h-86v-211h-105v525h242q72 0 119 -41t47 -107zM625 571q88 0 161.5 32t127 88.5t84 134
t30.5 169.5t-30.5 169t-84 134.5t-127 89t-161.5 31.5t-162 -31.5t-128 -89t-84 -134.5t-30 -169t30 -169.5t84 -134t128 -88.5t162 -32zM137 996q0 210 142.5 352.5t345 142.5t345 -142.5t142.5 -352.5t-140 -353t-347.5 -143t-347.5 143t-140 353z" />
    <glyph glyph-name="macron" unicode="&#xaf;" 
d="M414 1411h520l-27 -135h-520z" />
    <glyph glyph-name="degree" unicode="&#xb0;" horiz-adv-x="641" 
d="M446.5 1028q65.5 0 104.5 44t39 111t-39 111.5t-104.5 44.5t-104.5 -45.5t-39 -111.5t39 -110t104.5 -44zM265.5 1006q-75.5 74 -75.5 177t75 178t182.5 75t181 -73.5t73.5 -179.5t-74 -178.5t-180.5 -72.5t-182 74z" />
    <glyph glyph-name="plusminus" unicode="&#xb1;" horiz-adv-x="1128" 
d="M29 129h915l-24 -129h-916zM154 774h391l71 369h134l-72 -369h391l-25 -129h-391l-71 -369h-133l71 369h-391z" />
    <glyph glyph-name="twosuperior" unicode="&#xb2;" horiz-adv-x="702" 
d="M629 1250q0 50 -36.5 81t-98.5 31t-112 -47t-65 -144h-139q23 154 114 233t210 78t196.5 -58.5t77.5 -180.5q0 -151 -108.5 -215.5t-184.5 -101.5t-143.5 -78t-89.5 -105h440l-22 -120h-611q41 211 172 290.5t189 108.5t94.5 50.5t62 45t40 53t14.5 79.5z" />
    <glyph glyph-name="threesuperior" unicode="&#xb3;" horiz-adv-x="739" 
d="M633 1247q-1 127 -139 127q-68 0 -117 -45t-66 -125h-139q23 135 114 207t210 72t198.5 -54.5t79.5 -146.5q0 -166 -158 -217v-4q63 -16 100.5 -64.5t37.5 -143.5t-94 -172t-232 -77q-139 0 -229 77t-95 224h138q0 -75 49 -130.5t136 -55.5t132 39.5t47 109.5t-41 107
t-123 37h-43l21 112h57q63 -4 109.5 28t46.5 95z" />
    <glyph glyph-name="acute" unicode="&#xb4;" 
d="M688 1485h201l-189 -260h-141z" />
    <glyph glyph-name="mu" unicode="&#xb5;" horiz-adv-x="1050" 
d="M349 -25q-122 0 -165 80h-4l-78 -395h-163l272 1399h162l-142 -725q-47 -221 150 -221q135 0 239.5 101.5t135.5 252.5l114 592h164l-205 -1059h-163l26 147h-4q-66 -78 -141.5 -125t-197.5 -47z" />
    <glyph glyph-name="paragraph" unicode="&#xb6;" horiz-adv-x="1095" 
d="M541 723q-182 0 -278.5 91t-98.5 243q0 193 139 311q112 96 305 96h533l-283 -1464h-149l252 1307h-138l-252 -1307h-149l139 723h-20z" />
    <glyph glyph-name="periodcentered" unicode="&#xb7;" horiz-adv-x="372" 
d="M135 741h197l-39 -202h-197z" />
    <glyph glyph-name="cedilla" unicode="&#xb8;" 
d="M317 -180q-42 0 -81 -15l-25 48l131 147h121l-117 -102v-4q65 13 119.5 -18.5t54.5 -104.5t-60.5 -117.5t-171.5 -44.5q-110 0 -202 63l35 60q68 -35 149 -35t100 22.5t19 47.5q0 53 -72 53z" />
    <glyph glyph-name="onesuperior" unicode="&#xb9;" horiz-adv-x="512" 
d="M379 1214h-199l19 101q104 4 164.5 41t87.5 114h122l-163 -847h-146z" />
    <glyph glyph-name="ordmasculine" unicode="&#xba;" horiz-adv-x="1026" 
d="M295 846q0 -104 60.5 -183t181.5 -79q152 0 240.5 125.5t88.5 314.5q0 123 -59.5 205t-177.5 82q-157 0 -245.5 -131t-88.5 -334zM546 457q-187 0 -297 108t-110 297q0 235 137 404.5t355 169.5q170 0 280.5 -112t110.5 -300q0 -233 -96.5 -353t-188 -167t-191.5 -47z
" />
    <glyph glyph-name="guillemotright" unicode="&#xbb;" horiz-adv-x="854" 
d="M774 635l-35 -178l-319 -226l33 170l221 154v4l-158 168l29 154zM397 635l-35 -178l-319 -226l33 170l221 154v4l-158 168l29 154z" />
    <glyph glyph-name="onequarter" unicode="&#xbc;" horiz-adv-x="1570" 
d="M922 303h284l68 352h-4l-348 -348v-4zM1184 193h-408l29 143l508 516h137l-104 -549h131l-23 -110h-131l-37 -193h-139zM1282 1464h148l-1154 -1464h-149zM385 1214h-199l19 101q104 4 164.5 41t87.5 114h123l-164 -847h-146z" />
    <glyph glyph-name="onehalf" unicode="&#xbd;" horiz-adv-x="1619" 
d="M1419 628q0 50 -35.5 80.5t-98.5 30.5t-113 -47t-64 -143h-139q23 154 114 232.5t210 77.5t196.5 -58.5t77.5 -179.5q0 -148 -108.5 -214.5t-184.5 -103.5t-143.5 -78t-90.5 -104h441l-23 -121h-610q41 211 171.5 291t188.5 109t94.5 50t62.5 44.5t40 53.5t14 80z
M1260 1464h147l-1153 -1464h-150zM385 1214h-199l19 101q104 4 164.5 41t87.5 114h123l-164 -847h-146z" />
    <glyph glyph-name="threequarters" unicode="&#xbe;" horiz-adv-x="1701" 
d="M1055 303h284l68 352h-4l-348 -348v-4zM1317 193h-408l29 143l508 516h137l-104 -549h131l-23 -110h-131l-37 -193h-139zM1438 1464h147l-1153 -1464h-149zM639 1247q-1 127 -139 127q-68 0 -117 -45t-66 -125h-139q23 135 114 207t211 72t198.5 -54.5t78.5 -146.5
t-45 -143.5t-112 -73.5v-4q63 -16 100 -64.5t37 -144t-93.5 -172t-232.5 -76.5t-229 77t-94 224h137q0 -75 49 -130.5t136 -55.5t132 39.5t47 109.5t-41 107t-122 37h-43l20 112h57q63 -4 109.5 28t46.5 95z" />
    <glyph glyph-name="questiondown" unicode="&#xbf;" horiz-adv-x="1015" 
d="M702 1001h-194l39 203h194zM416 -141q126 0 217.5 89t124.5 263h166q-32 -224 -173 -361t-358 -137q-171 0 -292 90.5t-121 262.5q0 135 66.5 228.5t156.5 151.5q159 103 217.5 175.5t85.5 228.5h156q-45 -255 -138.5 -342.5t-145.5 -124.5t-138 -98t-86 -211
q0 -106 68 -160.5t194 -54.5z" />
    <glyph glyph-name="Agrave" unicode="&#xc0;" horiz-adv-x="1306" 
d="M610 1790h195l86 -248h-139zM418 594h475l-82 493q-21 107 -29 207h-4q-14 -33 -39 -81t-63 -126zM918 446h-578l-231 -446h-189l785 1464h202l277 -1464h-193z" />
    <glyph glyph-name="Aacute" unicode="&#xc1;" horiz-adv-x="1306" 
d="M883 1790h200l-188 -248h-139zM418 594h475l-82 493q-21 107 -29 207h-4q-14 -33 -39 -81t-63 -126zM918 446h-578l-231 -446h-189l785 1464h202l277 -1464h-193z" />
    <glyph glyph-name="Acircumflex" unicode="&#xc2;" horiz-adv-x="1306" 
d="M754 1767h184l152 -217h-168l-86 129h-5l-114 -129h-180zM418 594h475l-82 493q-21 107 -29 207h-4q-14 -33 -39 -81t-63 -126zM918 446h-578l-231 -446h-189l785 1464h202l277 -1464h-193z" />
    <glyph glyph-name="Atilde" unicode="&#xc3;" horiz-adv-x="1306" 
d="M962.5 1683q38.5 0 53.5 62h117q-16 -78 -59.5 -133.5t-108.5 -55.5t-149.5 33t-106.5 33q-47 0 -56 -61h-121q43 188 181 188q60 0 109.5 -22.5t75.5 -33t64.5 -10.5zM418 594h475l-82 493q-21 107 -29 207h-4q-14 -33 -39 -81t-63 -126zM918 446h-578l-231 -446h-189
l785 1464h202l277 -1464h-193z" />
    <glyph glyph-name="Adieresis" unicode="&#xc4;" horiz-adv-x="1306" 
d="M614 1751h158l-39 -195h-158zM944 1751h158l-39 -195h-158zM418 594h475l-82 493q-21 107 -29 207h-4q-14 -33 -39 -81t-63 -126zM918 446h-578l-231 -446h-189l785 1464h202l277 -1464h-193z" />
    <glyph glyph-name="Aring" unicode="&#xc5;" horiz-adv-x="1306" 
d="M829 1599q43 0 70 30t27 73t-27 72.5t-70 29.5t-69.5 -29.5t-26.5 -72.5t26.5 -73t69.5 -30zM829.5 1528q-36.5 0 -69.5 13t-56.5 37t-38 55.5t-14.5 68.5t14.5 68.5t38 55t56.5 37t69.5 13.5t69.5 -13.5t56.5 -37t38 -55t14.5 -68.5t-14.5 -68.5t-38 -55.5t-56.5 -37
t-69.5 -13zM418 594h475l-82 493q-21 107 -29 207h-4q-14 -33 -39 -81t-63 -126zM918 446h-578l-231 -446h-189l785 1464h202l277 -1464h-193z" />
    <glyph glyph-name="AE" unicode="&#xc6;" horiz-adv-x="1904" 
d="M438 596h451l137 709h-203zM860 449h-502l-243 -449h-189l807 1464h1231l-31 -159h-727l-90 -465h664l-31 -154h-664l-98 -518h772l-33 -168h-952z" />
    <glyph glyph-name="Ccedilla" unicode="&#xc7;" horiz-adv-x="1400" 
d="M604 -180q-41 0 -82 -15l-24 48l110 124q-243 27 -374.5 199t-131.5 440q0 164 52.5 323t152 283t242.5 199.5t325 75.5q229 0 368.5 -122t158.5 -345h-182q-20 147 -111.5 228t-239.5 81q-273 0 -425 -211t-152 -505q0 -214 105 -353t323 -139q183 0 297.5 112.5
t157.5 293.5h180q-41 -223 -199 -392t-438 -174l-84 -73v-4q65 13 119.5 -18.5t54.5 -104.5t-60.5 -117.5t-171.5 -44.5q-110 0 -202 63l35 60q68 -35 147 -35q121 0 121 70q0 53 -72 53z" />
    <glyph glyph-name="Egrave" unicode="&#xc8;" horiz-adv-x="1212" 
d="M625 1790h194l86 -248h-139zM315 1464h957l-31 -159h-776l-90 -465h712l-30 -154h-713l-98 -518h821l-33 -168h-1001z" />
    <glyph glyph-name="Eacute" unicode="&#xc9;" horiz-adv-x="1212" 
d="M862 1790h201l-189 -248h-139zM315 1464h957l-31 -159h-776l-90 -465h712l-30 -154h-713l-98 -518h821l-33 -168h-1001z" />
    <glyph glyph-name="Ecircumflex" unicode="&#xca;" horiz-adv-x="1212" 
d="M756 1767h184l152 -217h-168l-86 129h-4l-115 -129h-180zM315 1464h957l-31 -159h-776l-90 -465h712l-30 -154h-713l-98 -518h821l-33 -168h-1001z" />
    <glyph glyph-name="Edieresis" unicode="&#xcb;" horiz-adv-x="1212" 
d="M614 1751h158l-39 -195h-158zM944 1751h158l-39 -195h-158zM315 1464h957l-31 -159h-776l-90 -465h712l-30 -154h-713l-98 -518h821l-33 -168h-1001z" />
    <glyph glyph-name="Igrave" unicode="&#xcc;" horiz-adv-x="458" 
d="M211 1790h195l86 -248h-140zM319 1464h181l-283 -1464h-180z" />
    <glyph glyph-name="Iacute" unicode="&#xcd;" horiz-adv-x="458" 
d="M477 1790h201l-189 -248h-139zM319 1464h181l-283 -1464h-180z" />
    <glyph glyph-name="Icircumflex" unicode="&#xce;" horiz-adv-x="458" 
d="M358 1767h185l151 -217h-168l-86 129h-4l-114 -129h-181zM319 1464h181l-283 -1464h-180z" />
    <glyph glyph-name="Idieresis" unicode="&#xcf;" horiz-adv-x="458" 
d="M217 1751h158l-39 -195h-158zM547 1751h158l-39 -195h-158zM319 1464h181l-283 -1464h-180z" />
    <glyph glyph-name="Eth" unicode="&#xd0;" horiz-adv-x="1400" 
d="M1190 868q0 439 -404 439h-299l-96 -494h420l-31 -154h-418l-96 -499h312q300 0 456 197.5t156 510.5zM797 1464q289 0 434 -154t145 -429q0 -376 -149.5 -558t-299 -252.5t-345.5 -70.5h-527l127 659h-147l31 154h145l127 651h459z" />
    <glyph glyph-name="Ntilde" unicode="&#xd1;" horiz-adv-x="1376" 
d="M1035 1683q38 0 55 62h116q-16 -78 -59 -133.5t-108 -55.5t-149.5 33t-107.5 33q-46 0 -55 -61h-121q43 188 180 188q61 0 110.5 -22.5t75 -33t63.5 -10.5zM315 1464h191l440 -1022q21 -49 39 -104q18 -54 29 -84h4l233 1210h170l-282 -1464h-187l-442 1024
q-18 38 -38 95q-19 57 -32 87h-4l-233 -1206h-170z" />
    <glyph glyph-name="Ograve" unicode="&#xd2;" horiz-adv-x="1552" 
d="M692 1790h195l86 -248h-139zM291 639q0 -242 127 -376t348 -134q272 0 422.5 194.5t150.5 497.5q0 235 -128 376.5t-347 141.5q-268 0 -420.5 -200.5t-152.5 -499.5zM782 -31q-307 0 -493.5 180t-186.5 490q0 174 55.5 329.5t156 273.5t242.5 186.5t298 68.5
q305 0 488.5 -181t183.5 -493q0 -363 -150.5 -541t-293 -245.5t-300.5 -67.5z" />
    <glyph glyph-name="Oacute" unicode="&#xd3;" horiz-adv-x="1552" 
d="M961 1790h200l-188 -248h-139zM291 639q0 -242 127 -376t348 -134q272 0 422.5 194.5t150.5 497.5q0 235 -128 376.5t-347 141.5q-268 0 -420.5 -200.5t-152.5 -499.5zM782 -31q-307 0 -493.5 180t-186.5 490q0 174 55.5 329.5t156 273.5t242.5 186.5t298 68.5
q305 0 488.5 -181t183.5 -493q0 -363 -150.5 -541t-293 -245.5t-300.5 -67.5z" />
    <glyph glyph-name="Ocircumflex" unicode="&#xd4;" horiz-adv-x="1552" 
d="M829 1767h185l151 -217h-168l-86 129h-4l-114 -129h-181zM291 639q0 -242 127 -376t348 -134q272 0 422.5 194.5t150.5 497.5q0 235 -128 376.5t-347 141.5q-268 0 -420.5 -200.5t-152.5 -499.5zM782 -31q-307 0 -493.5 180t-186.5 490q0 174 55.5 329.5t156 273.5
t242.5 186.5t298 68.5q305 0 488.5 -181t183.5 -493q0 -363 -150.5 -541t-293 -245.5t-300.5 -67.5z" />
    <glyph glyph-name="Otilde" unicode="&#xd5;" horiz-adv-x="1552" 
d="M1031.5 1683q38.5 0 53.5 62h117q-16 -78 -59 -133.5t-109 -55.5t-149 33t-107 33q-46 0 -55 -61h-121q43 188 180 188q61 0 110.5 -22.5t75 -33t64 -10.5zM291 639q0 -242 127 -376t348 -134q272 0 422.5 194.5t150.5 497.5q0 235 -128 376.5t-347 141.5
q-268 0 -420.5 -200.5t-152.5 -499.5zM782 -31q-307 0 -493.5 180t-186.5 490q0 174 55.5 329.5t156 273.5t242.5 186.5t298 68.5q305 0 488.5 -181t183.5 -493q0 -363 -150.5 -541t-293 -245.5t-300.5 -67.5z" />
    <glyph glyph-name="Odieresis" unicode="&#xd6;" horiz-adv-x="1552" 
d="M692 1751h158l-39 -195h-158zM1022 1751h158l-39 -195h-158zM291 639q0 -242 127 -376t348 -134q272 0 422.5 194.5t150.5 497.5q0 235 -128 376.5t-347 141.5q-268 0 -420.5 -200.5t-152.5 -499.5zM782 -31q-307 0 -493.5 180t-186.5 490q0 174 55.5 329.5t156 273.5
t242.5 186.5t298 68.5q305 0 488.5 -181t183.5 -493q0 -363 -150.5 -541t-293 -245.5t-300.5 -67.5z" />
    <glyph glyph-name="multiply" unicode="&#xd7;" horiz-adv-x="1087" 
d="M483 672l-268 340l98 84l267 -336l368 336l82 -95l-375 -339l271 -338l-101 -84l-266 335l-369 -335l-79 94z" />
    <glyph glyph-name="Oslash" unicode="&#xd8;" horiz-adv-x="1552" 
d="M291 639q0 -176 67 -295l840 868q-131 127 -334 127q-268 0 -420.5 -200.5t-152.5 -499.5zM1339 792q0 199 -73 330l-838 -868q125 -125 338 -125q272 0 386 147.5t150.5 273.5t36.5 242zM1526 823q0 -363 -150.5 -541t-293 -245.5t-320.5 -67.5q-272 0 -455 160
l-157 -164l-80 80l161 168q-129 173 -129 426q0 174 55.5 329.5t156 273.5t242.5 186.5t316 68.5q271 0 447 -160l154 158l77 -80l-155 -160q131 -180 131 -432z" />
    <glyph glyph-name="Ugrave" unicode="&#xd9;" horiz-adv-x="1312" 
d="M649 1790h195l86 -248h-139zM618 133q166 0 260.5 78t129.5 250l194 1003h180l-200 -1034q-88 -453 -583 -453q-264 0 -403.5 137.5t-84.5 420.5l180 929h182l-180 -929q-41 -201 37 -301.5t288 -100.5z" />
    <glyph glyph-name="Uacute" unicode="&#xda;" horiz-adv-x="1312" 
d="M897 1790h201l-189 -248h-139zM618 133q166 0 260.5 78t129.5 250l194 1003h180l-200 -1034q-88 -453 -583 -453q-264 0 -403.5 137.5t-84.5 420.5l180 929h182l-180 -929q-41 -201 37 -301.5t288 -100.5z" />
    <glyph glyph-name="Ucircumflex" unicode="&#xdb;" horiz-adv-x="1312" 
d="M795 1767h184l151 -217h-167l-86 129h-5l-114 -129h-180zM618 133q166 0 260.5 78t129.5 250l194 1003h180l-200 -1034q-88 -453 -583 -453q-264 0 -403.5 137.5t-84.5 420.5l180 929h182l-180 -929q-41 -201 37 -301.5t288 -100.5z" />
    <glyph glyph-name="Udieresis" unicode="&#xdc;" horiz-adv-x="1312" 
d="M649 1751h158l-39 -195h-158zM979 1751h158l-39 -195h-158zM618 133q166 0 260.5 78t129.5 250l194 1003h180l-200 -1034q-88 -453 -583 -453q-264 0 -403.5 137.5t-84.5 420.5l180 929h182l-180 -929q-41 -201 37 -301.5t288 -100.5z" />
    <glyph glyph-name="Yacute" unicode="&#xdd;" horiz-adv-x="1187" 
d="M817 1790h201l-189 -248h-139zM526 621l-360 843h194l283 -694h4l518 694h203l-663 -858l-117 -606h-180z" />
    <glyph glyph-name="Thorn" unicode="&#xde;" horiz-adv-x="1208" 
d="M686 504q242 0 289 116t47 212t-71.5 155.5t-196.5 59.5h-340l-105 -543h377zM774 1204q215 0 334 -121q94 -94 94 -256q0 -219 -137.5 -345t-374.5 -126h-409l-68 -356h-180l282 1464h181l-52 -260h330z" />
    <glyph glyph-name="germandbls" unicode="&#xdf;" horiz-adv-x="1013" 
d="M473 113q152 0 229.5 98t77.5 258q0 194 -105.5 238.5t-178.5 44.5h-27l25 125h47q199 0 243.5 99t44.5 179t-48.5 137.5t-152.5 57.5t-162 -65.5t-79 -170.5l-215 -1114h-164l219 1133q28 154 141 251t268 97t254 -86.5t99 -229.5t-69.5 -228t-178.5 -124v-4
q92 -37 149.5 -128t57.5 -209q0 -230 -126.5 -362.5t-352.5 -132.5q-85 0 -164 23l27 131h4q63 -18 137 -18z" />
    <glyph glyph-name="agrave" unicode="&#xe0;" horiz-adv-x="1017" 
d="M401 1485h195l86 -260h-137zM174 283q0 -76 51 -126.5t137 -50.5q152 0 240.5 84t114.5 213l28 146q-63 -35 -207 -46.5t-188.5 -18.5t-83.5 -27.5t-65.5 -59t-26.5 -114.5zM8 266q0 196 114 268t323 83t260 35t66 54.5t15 80.5q0 94 -59.5 129.5t-173.5 36.5
q-113 1 -186.5 -48t-96.5 -166h-166q29 160 150 251t311 91t293.5 -88.5t69.5 -271.5l-97 -490q-10 -59 4.5 -90.5t88.5 -17.5h6l-25 -119q-16 -4 -35.5 -9t-48.5 -5q-84 0 -114.5 43t-32.5 102h-2q-121 -155 -334 -155q-153 0 -241.5 86.5t-88.5 199.5z" />
    <glyph glyph-name="aacute" unicode="&#xe1;" horiz-adv-x="1017" 
d="M670 1485h200l-188 -260h-141zM174 283q0 -76 51 -126.5t137 -50.5q152 0 240.5 84t114.5 213l28 146q-63 -35 -207 -46.5t-188.5 -18.5t-83.5 -27.5t-65.5 -59t-26.5 -114.5zM8 266q0 196 114 268t323 83t260 35t66 54.5t15 80.5q0 94 -59.5 129.5t-173.5 36.5
q-113 1 -186.5 -48t-96.5 -166h-166q29 160 150 251t311 91t293.5 -88.5t69.5 -271.5l-97 -490q-10 -59 4.5 -90.5t88.5 -17.5h6l-25 -119q-16 -4 -35.5 -9t-48.5 -5q-84 0 -114.5 43t-32.5 102h-2q-121 -155 -334 -155q-153 0 -241.5 86.5t-88.5 199.5z" />
    <glyph glyph-name="acircumflex" unicode="&#xe2;" horiz-adv-x="1017" 
d="M543 1450h184l152 -217h-168l-86 129h-4l-115 -129h-180zM174 283q0 -76 51 -126.5t137 -50.5q152 0 240.5 84t114.5 213l28 146q-63 -35 -207 -46.5t-188.5 -18.5t-83.5 -27.5t-65.5 -59t-26.5 -114.5zM8 266q0 196 114 268t323 83t260 35t66 54.5t15 80.5
q0 94 -59.5 129.5t-173.5 36.5q-113 1 -186.5 -48t-96.5 -166h-166q29 160 150 251t311 91t293.5 -88.5t69.5 -271.5l-97 -490q-10 -59 4.5 -90.5t88.5 -17.5h6l-25 -119q-16 -4 -35.5 -9t-48.5 -5q-84 0 -114.5 43t-32.5 102h-2q-121 -155 -334 -155q-153 0 -241.5 86.5
t-88.5 199.5z" />
    <glyph glyph-name="atilde" unicode="&#xe3;" horiz-adv-x="1017" 
d="M739.5 1358q37.5 0 55.5 61h116q-16 -78 -59 -133t-109 -55t-120 22.5t-78.5 32.5t-44.5 10q-45 0 -56 -61h-120q43 188 180 188q59 0 105 -22.5t69.5 -32.5t61 -10zM174 283q0 -76 51 -126.5t137 -50.5q152 0 240.5 84t114.5 213l28 146q-63 -35 -207 -46.5
t-188.5 -18.5t-83.5 -27.5t-65.5 -59t-26.5 -114.5zM8 266q0 196 114 268t323 83t260 35t66 54.5t15 80.5q0 94 -59.5 129.5t-173.5 36.5q-113 1 -186.5 -48t-96.5 -166h-166q29 160 150 251t311 91t293.5 -88.5t69.5 -271.5l-97 -490q-10 -59 4.5 -90.5t88.5 -17.5h6
l-25 -119q-16 -4 -35.5 -9t-48.5 -5q-84 0 -114.5 43t-32.5 102h-2q-121 -155 -334 -155q-153 0 -241.5 86.5t-88.5 199.5z" />
    <glyph glyph-name="adieresis" unicode="&#xe4;" horiz-adv-x="1017" 
d="M406 1454h157l-39 -194h-157zM735 1454h158l-39 -194h-158zM174 283q0 -76 51 -126.5t137 -50.5q152 0 240.5 84t114.5 213l28 146q-63 -35 -207 -46.5t-188.5 -18.5t-83.5 -27.5t-65.5 -59t-26.5 -114.5zM8 266q0 196 114 268t323 83t260 35t66 54.5t15 80.5
q0 94 -59.5 129.5t-173.5 36.5q-113 1 -186.5 -48t-96.5 -166h-166q29 160 150 251t311 91t293.5 -88.5t69.5 -271.5l-97 -490q-10 -59 4.5 -90.5t88.5 -17.5h6l-25 -119q-16 -4 -35.5 -9t-48.5 -5q-84 0 -114.5 43t-32.5 102h-2q-121 -155 -334 -155q-153 0 -241.5 86.5
t-88.5 199.5z" />
    <glyph glyph-name="aring" unicode="&#xe5;" horiz-adv-x="1017" 
d="M598 1217q43 0 69.5 29.5t26.5 72.5t-26.5 72.5t-69.5 29.5t-69.5 -29.5t-26.5 -72.5t26.5 -72.5t69.5 -29.5zM598 1145q-37 0 -69.5 13t-56 37t-38 55.5t-14.5 68.5t14.5 68.5t38 55t56 37t69.5 13.5t69.5 -13.5t56.5 -37t38 -55t14 -68.5t-14 -68.5t-38 -55.5
t-56.5 -37t-69.5 -13zM174 283q0 -76 51 -126.5t137 -50.5q152 0 240.5 84t114.5 213l28 146q-63 -35 -207 -46.5t-188.5 -18.5t-83.5 -27.5t-65.5 -59t-26.5 -114.5zM8 266q0 196 114 268t323 83t260 35t66 54.5t15 80.5q0 94 -59.5 129.5t-173.5 36.5q-113 1 -186.5 -48
t-96.5 -166h-166q29 160 150 251t311 91t293.5 -88.5t69.5 -271.5l-97 -490q-10 -59 4.5 -90.5t88.5 -17.5h6l-25 -119q-16 -4 -35.5 -9t-48.5 -5q-84 0 -114.5 43t-32.5 102h-2q-121 -155 -334 -155q-153 0 -241.5 86.5t-88.5 199.5z" />
    <glyph glyph-name="ae" unicode="&#xe6;" horiz-adv-x="1679" 
d="M1235 956q-135 0 -222 -95t-122 -247h582q16 149 -43.5 245.5t-194.5 96.5zM362 106q280 0 343 297l26 140q-80 -47 -267 -62q-77 -6 -118 -12t-105 -38.5t-67 -145.5q-2 -78 50 -128.5t138 -50.5zM1239 1085q156 0 301 -112t88 -484h-754q-2 -16 -2 -19v-40
q0 -141 62.5 -231t202.5 -90q104 0 181 57t112 162h159q-61 -180 -183 -268.5t-266 -88.5q-292 0 -380 246h-4q-57 -123 -165.5 -180t-214.5 -57q-185 0 -276.5 82t-91.5 194q0 194 114 265t314 82t252.5 39t68 60.5t15.5 85.5q0 164 -205 164q-129 2 -201.5 -47t-95.5 -166
h-166q29 160 150 252t326 90q111 -2 194.5 -37.5t118.5 -128.5q148 170 346 170z" />
    <glyph glyph-name="ccedilla" unicode="&#xe7;" horiz-adv-x="1030" 
d="M391 -180q-41 0 -82 -15l-24 48l110 127q-160 25 -254 136t-94 310q0 258 113.5 402.5t218 200.5t233.5 56q180 0 279.5 -95t116.5 -273h-166q-10 104 -66 168.5t-162 64.5q-192 0 -296.5 -159.5t-104.5 -373.5q0 -215 101.5 -261.5t195.5 -46.5t176 68.5t115 195.5h157
q-45 -190 -166.5 -294t-287.5 -108l-84 -73v-4q65 13 119.5 -18.5t54.5 -104.5t-60.5 -117.5t-171.5 -44.5q-110 0 -202 63l35 60q68 -35 147 -35q121 0 121 70q0 53 -72 53z" />
    <glyph glyph-name="egrave" unicode="&#xe8;" horiz-adv-x="1054" 
d="M426 1485h195l86 -260h-138zM592 956q-141 0 -233.5 -95t-127.5 -247h617q16 150 -49.5 246t-206.5 96zM213 470v-40q0 -141 72.5 -231t220.5 -90q104 0 184 57t115 162h160q-61 -180 -185 -268.5t-302 -88.5t-304.5 126.5t-126.5 334.5q0 273 160 463t391 190
q161 -1 264 -77q198 -148 142 -519h-789q-2 -16 -2 -19z" />
    <glyph glyph-name="eacute" unicode="&#xe9;" horiz-adv-x="1054" 
d="M696 1485h201l-188 -260h-142zM592 956q-141 0 -233.5 -95t-127.5 -247h617q16 150 -49.5 246t-206.5 96zM213 470v-40q0 -141 72.5 -231t220.5 -90q104 0 184 57t115 162h160q-61 -180 -185 -268.5t-302 -88.5t-304.5 126.5t-126.5 334.5q0 273 160 463t391 190
q161 -1 264 -77q198 -148 142 -519h-789q-2 -16 -2 -19z" />
    <glyph glyph-name="ecircumflex" unicode="&#xea;" horiz-adv-x="1054" 
d="M559 1450h184l152 -217h-168l-86 129h-4l-115 -129h-180zM592 956q-141 0 -233.5 -95t-127.5 -247h617q16 150 -49.5 246t-206.5 96zM213 470v-40q0 -141 72.5 -231t220.5 -90q104 0 184 57t115 162h160q-61 -180 -185 -268.5t-302 -88.5t-304.5 126.5t-126.5 334.5
q0 273 160 463t391 190q161 -1 264 -77q198 -148 142 -519h-789q-2 -16 -2 -19z" />
    <glyph glyph-name="edieresis" unicode="&#xeb;" horiz-adv-x="1054" 
d="M428 1454h158l-39 -194h-158zM758 1454h157l-38 -194h-158zM592 956q-141 0 -233.5 -95t-127.5 -247h617q16 150 -49.5 246t-206.5 96zM213 470v-40q0 -141 72.5 -231t220.5 -90q104 0 184 57t115 162h160q-61 -180 -185 -268.5t-302 -88.5t-304.5 126.5t-126.5 334.5
q0 273 160 463t391 190q161 -1 264 -77q198 -148 142 -519h-789q-2 -16 -2 -19z" />
    <glyph glyph-name="igrave" unicode="&#xec;" horiz-adv-x="385" 
d="M213 1059h164l-205 -1059h-164zM147 1485h195l47 -260h-137z" />
    <glyph glyph-name="iacute" unicode="&#xed;" horiz-adv-x="385" 
d="M213 1059h164l-205 -1059h-164zM362 1485h197l-164 -260h-141z" />
    <glyph glyph-name="icircumflex" unicode="&#xee;" horiz-adv-x="385" 
d="M213 1059h164l-205 -1059h-164zM262 1450h184l123 -217h-163l-60 129h-4l-96 -129h-176z" />
    <glyph glyph-name="idieresis" unicode="&#xef;" horiz-adv-x="385" 
d="M213 1059h164l-205 -1059h-164zM156 1454h157l-39 -194h-157zM430 1454h158l-39 -194h-158z" />
    <glyph glyph-name="eth" unicode="&#xf0;" horiz-adv-x="1101" 
d="M496 109q183 0 286 151t103 368t-106.5 265.5t-192.5 48.5t-159 -44t-144.5 -150.5t-71.5 -311.5q0 -147 73 -237t212 -90zM881 1278q180 -243 180 -559t-149 -532t-423 -216q-205 0 -323.5 131t-118.5 355t108.5 365t212 198t223.5 57t185.5 -36.5t112.5 -104.5
q-52 162 -160 297l-299 -90l-20 90l252 76q-68 68 -175 155h207q59 -43 121 -108l223 67l23 -90z" />
    <glyph glyph-name="ntilde" unicode="&#xf1;" horiz-adv-x="1056" 
d="M794.5 1358q38.5 0 53.5 61h117q-16 -78 -59.5 -133t-109.5 -55t-143 32.5t-100 32.5q-47 0 -55 -61h-121q43 188 180 188q58 0 105 -22.5t70.5 -32.5t62 -10zM739 1083q158 0 222.5 -90t35.5 -245l-145 -748h-162l146 748q36 198 -128 198q-155 0 -273.5 -103
t-147.5 -249l-115 -594h-164l205 1059h164l-31 -164h4q66 86 168.5 137t220.5 51z" />
    <glyph glyph-name="ograve" unicode="&#xf2;" horiz-adv-x="1097" 
d="M426 1485h195l86 -260h-138zM211 450q0 -158 74 -249.5t215 -91.5q177 0 281 146t104 368t-104.5 274.5t-190.5 52.5t-159 -43t-122 -115.5t-73.5 -165t-24.5 -176.5zM514 -29q-215 0 -341 124t-126 339q0 271 153 461t406 190q194 0 319.5 -127.5t125.5 -339.5
q0 -267 -107.5 -402.5t-211.5 -190t-218 -54.5z" />
    <glyph glyph-name="oacute" unicode="&#xf3;" horiz-adv-x="1097" 
d="M696 1485h201l-188 -260h-142zM211 450q0 -158 74 -249.5t215 -91.5q177 0 281 146t104 368t-104.5 274.5t-190.5 52.5t-159 -43t-122 -115.5t-73.5 -165t-24.5 -176.5zM514 -29q-215 0 -341 124t-126 339q0 271 153 461t406 190q194 0 319.5 -127.5t125.5 -339.5
q0 -267 -107.5 -402.5t-211.5 -190t-218 -54.5z" />
    <glyph glyph-name="ocircumflex" unicode="&#xf4;" horiz-adv-x="1097" 
d="M575 1450h185l151 -217h-168l-86 129h-4l-114 -129h-181zM211 450q0 -158 74 -249.5t215 -91.5q177 0 281 146t104 368t-104.5 274.5t-190.5 52.5t-159 -43t-122 -115.5t-73.5 -165t-24.5 -176.5zM514 -29q-215 0 -341 124t-126 339q0 271 153 461t406 190
q194 0 319.5 -127.5t125.5 -339.5q0 -267 -107.5 -402.5t-211.5 -190t-218 -54.5z" />
    <glyph glyph-name="otilde" unicode="&#xf5;" horiz-adv-x="1097" 
d="M773.5 1358q38.5 0 53.5 61h117q-16 -78 -59 -133t-109 -55t-120 22.5t-78.5 32.5t-45.5 10q-47 0 -55 -61h-121q43 188 181 188q59 0 105 -22.5t69.5 -32.5t62 -10zM211 450q0 -158 74 -249.5t215 -91.5q177 0 281 146t104 368t-104.5 274.5t-190.5 52.5t-159 -43
t-122 -115.5t-73.5 -165t-24.5 -176.5zM514 -29q-215 0 -341 124t-126 339q0 271 153 461t406 190q194 0 319.5 -127.5t125.5 -339.5q0 -267 -107.5 -402.5t-211.5 -190t-218 -54.5z" />
    <glyph glyph-name="odieresis" unicode="&#xf6;" horiz-adv-x="1097" 
d="M436 1454h158l-39 -194h-158zM766 1454h158l-39 -194h-158zM211 450q0 -158 74 -249.5t215 -91.5q177 0 281 146t104 368t-104.5 274.5t-190.5 52.5t-159 -43t-122 -115.5t-73.5 -165t-24.5 -176.5zM514 -29q-215 0 -341 124t-126 339q0 271 153 461t406 190
q194 0 319.5 -127.5t125.5 -339.5q0 -267 -107.5 -402.5t-211.5 -190t-218 -54.5z" />
    <glyph glyph-name="divide" unicode="&#xf7;" horiz-adv-x="1128" 
d="M582 1120h196l-39 -202h-196zM444 420h197l-39 -203h-196zM145 733h916l-25 -129h-915z" />
    <glyph glyph-name="oslash" unicode="&#xf8;" horiz-adv-x="1097" 
d="M618 950q-202 0 -304.5 -152t-102.5 -362q0 -90 27 -155l565 589q-75 80 -185 80zM496 109q176 0 282.5 146.5t106.5 358.5q0 98 -33 179l-569 -594q74 -90 213 -90zM1051 641q0 -150 -38 -266.5t-111 -205.5t-177.5 -143.5t-235.5 -54.5q-194 0 -313 117l-110 -117
l-64 64l119 123q-74 115 -74 260q0 285 156 476t407 191q174 0 297 -106l103 106l63 -63l-106 -111q84 -120 84 -270z" />
    <glyph glyph-name="ugrave" unicode="&#xf9;" horiz-adv-x="1032" 
d="M426 1485h195l86 -260h-138zM346 113q156 0 263.5 103.5t135.5 250.5l115 592h164l-205 -1059h-164l27 147h-4q-146 -172 -356 -172q-156 0 -225.5 92.5t-39.5 254.5l144 737h161l-143 -735q-44 -211 127 -211z" />
    <glyph glyph-name="uacute" unicode="&#xfa;" horiz-adv-x="1032" 
d="M692 1485h201l-188 -260h-142zM346 113q156 0 263.5 103.5t135.5 250.5l115 592h164l-205 -1059h-164l27 147h-4q-146 -172 -356 -172q-156 0 -225.5 92.5t-39.5 254.5l144 737h161l-143 -735q-44 -211 127 -211z" />
    <glyph glyph-name="ucircumflex" unicode="&#xfb;" horiz-adv-x="1032" 
d="M578 1450h184l151 -217h-168l-86 129h-4l-114 -129h-181zM346 113q156 0 263.5 103.5t135.5 250.5l115 592h164l-205 -1059h-164l27 147h-4q-146 -172 -356 -172q-156 0 -225.5 92.5t-39.5 254.5l144 737h161l-143 -735q-44 -211 127 -211z" />
    <glyph glyph-name="udieresis" unicode="&#xfc;" horiz-adv-x="1032" 
d="M436 1454h158l-39 -194h-158zM766 1454h158l-39 -194h-158zM346 113q156 0 263.5 103.5t135.5 250.5l115 592h164l-205 -1059h-164l27 147h-4q-146 -172 -356 -172q-156 0 -225.5 92.5t-39.5 254.5l144 737h161l-143 -735q-44 -211 127 -211z" />
    <glyph glyph-name="yacute" unicode="&#xfd;" horiz-adv-x="935" 
d="M631 1485h200l-188 -260h-141zM88 -205q56 0 96.5 22.5t71.5 82.5l70 133l-226 1026h168l135 -656q6 -35 17 -94.5t14 -111.5h4q12 31 28 63t32 68.5t34 72.5l326 658h170l-618 -1190q-66 -125 -144 -172t-170 -47t-147 24l28 144h9q46 -23 102 -23z" />
    <glyph glyph-name="thorn" unicode="&#xfe;" horiz-adv-x="1120" 
d="M256 439q0 -157 68.5 -245t203.5 -88q182 0 277.5 162.5t95.5 370.5t-89 256.5t-172 48.5t-156.5 -45t-124 -118.5t-77 -167t-26.5 -174.5zM696 1083q173 0 273 -119.5t100 -318.5q0 -265 -141 -470.5t-382 -205.5t-339 187h-4l-97 -496h-163l348 1804h164l-105 -551h4
q137 170 342 170z" />
    <glyph glyph-name="ydieresis" unicode="&#xff;" horiz-adv-x="935" 
d="M383 1454h158l-39 -194h-158zM713 1454h157l-39 -194h-157zM88 -205q56 0 96.5 22.5t71.5 82.5l70 133l-226 1026h168l135 -656q6 -35 17 -94.5t14 -111.5h4q12 31 28 63t32 68.5t34 72.5l326 658h170l-618 -1190q-66 -125 -144 -172t-170 -47t-147 24l28 144h9
q46 -23 102 -23z" />
    <glyph glyph-name="Amacron" unicode="&#x100;" horiz-adv-x="1306" 
d="M584 1692h520l-27 -136h-520zM418 594h475l-82 493q-21 107 -29 207h-4q-14 -33 -39 -81t-63 -126zM918 446h-578l-231 -446h-189l785 1464h202l277 -1464h-193z" />
    <glyph glyph-name="amacron" unicode="&#x101;" horiz-adv-x="1017" 
d="M381 1411h520l-27 -135h-520zM174 283q0 -76 51 -126.5t137 -50.5q152 0 240.5 84t114.5 213l28 146q-63 -35 -207 -46.5t-188.5 -18.5t-83.5 -27.5t-65.5 -59t-26.5 -114.5zM8 266q0 196 114 268t323 83t260 35t66 54.5t15 80.5q0 94 -59.5 129.5t-173.5 36.5
q-113 1 -186.5 -48t-96.5 -166h-166q29 160 150 251t311 91t293.5 -88.5t69.5 -271.5l-97 -490q-10 -59 4.5 -90.5t88.5 -17.5h6l-25 -119q-16 -4 -35.5 -9t-48.5 -5q-84 0 -114.5 43t-32.5 102h-2q-121 -155 -334 -155q-153 0 -241.5 86.5t-88.5 199.5z" />
    <glyph glyph-name="Abreve" unicode="&#x102;" horiz-adv-x="1306" 
d="M827 1554q-113 0 -179 61.5t-68 166.5h120q13 -101 129 -101t146 101h117q-14 -92 -83 -160t-182 -68zM418 594h475l-82 493q-21 107 -29 207h-4q-14 -33 -39 -81t-63 -126zM918 446h-578l-231 -446h-189l785 1464h202l277 -1464h-193z" />
    <glyph glyph-name="abreve" unicode="&#x103;" horiz-adv-x="1017" 
d="M620 1237q-113 0 -179 61.5t-68 165.5h121q13 -100 128.5 -100t145.5 100h117q-14 -92 -83 -159.5t-182 -67.5zM174 283q0 -76 51 -126.5t137 -50.5q152 0 240.5 84t114.5 213l28 146q-63 -35 -207 -46.5t-188.5 -18.5t-83.5 -27.5t-65.5 -59t-26.5 -114.5zM8 266
q0 196 114 268t323 83t260 35t66 54.5t15 80.5q0 94 -59.5 129.5t-173.5 36.5q-113 1 -186.5 -48t-96.5 -166h-166q29 160 150 251t311 91t293.5 -88.5t69.5 -271.5l-97 -490q-10 -59 4.5 -90.5t88.5 -17.5h6l-25 -119q-16 -4 -35.5 -9t-48.5 -5q-84 0 -114.5 43t-32.5 102
h-2q-121 -155 -334 -155q-153 0 -241.5 86.5t-88.5 199.5z" />
    <glyph glyph-name="Aogonek" unicode="&#x104;" horiz-adv-x="1306" 
d="M418 594h475l-82 493q-21 107 -29 207h-4q-14 -33 -39 -81t-63 -126zM1030 -352q-68 0 -121 39t-53 112q0 112 137 187l-75 460h-578l-231 -446h-189l785 1464h202l275 -1454q-170 -106 -170 -190q0 -55 69 -56q28 0 74 13h4l-22 -115q-39 -14 -107 -14z" />
    <glyph glyph-name="aogonek" unicode="&#x105;" horiz-adv-x="1017" 
d="M174 284q0 -77 51 -127.5t137 -50.5q152 0 240.5 84t114.5 213l28 146q-63 -35 -207 -46.5t-188.5 -18.5t-83.5 -26.5t-65.5 -58t-26.5 -115.5zM742 -352q-68 0 -121.5 39t-53.5 112q0 127 172 207q-60 26 -65 129h-2q-121 -155 -334 -155q-153 0 -241.5 86.5
t-88.5 199.5q0 196 114 268t323 83t260 35t66 54.5t15 80.5q0 94 -59.5 129.5t-173.5 36.5q-113 1 -186.5 -48t-96.5 -166h-166q29 160 150 251t311 91t293.5 -88.5t69.5 -271.5l-97 -490q-10 -59 4.5 -90.5t88.5 -17.5h6l-25 -117q-74 -29 -128 -81t-54 -106t70 -55
q28 0 73 13h4l-22 -115q-38 -14 -106 -14z" />
    <glyph glyph-name="Cacute" unicode="&#x106;" horiz-adv-x="1400" 
d="M932 1790h201l-189 -248h-139zM102 616q0 164 52.5 323t152 283t242.5 199.5t325 75.5q229 0 368.5 -122t158.5 -345h-182q-20 147 -111.5 228t-239.5 81q-273 0 -425 -211t-152 -505q0 -214 105 -353t323 -139q183 0 297.5 112.5t157.5 293.5h180q-41 -223 -193 -385
q-168 -181 -455 -181q-286 0 -445 175.5t-159 469.5z" />
    <glyph glyph-name="cacute" unicode="&#x107;" horiz-adv-x="1030" 
d="M702 1485h201l-188 -260h-142zM612 1085q180 0 279.5 -95t116.5 -273h-166q-10 104 -66 168.5t-162 64.5q-192 0 -296.5 -159.5t-104.5 -373.5q0 -215 101.5 -261.5t195.5 -46.5t176 68.5t115 195.5h157q-45 -193 -171 -297.5t-313 -104.5t-307 117.5t-120 356.5
t113.5 383.5t218 200.5t233.5 56z" />
    <glyph glyph-name="Ccircumflex" unicode="&#x108;" horiz-adv-x="1400" 
d="M819 1767h185l151 -217h-168l-86 129h-4l-115 -129h-180zM102 616q0 164 52.5 323t152 283t242.5 199.5t325 75.5q229 0 368.5 -122t158.5 -345h-182q-20 147 -111.5 228t-239.5 81q-273 0 -425 -211t-152 -505q0 -214 105 -353t323 -139q183 0 297.5 112.5t157.5 293.5
h180q-41 -223 -193 -385q-168 -181 -455 -181q-286 0 -445 175.5t-159 469.5z" />
    <glyph glyph-name="ccircumflex" unicode="&#x109;" horiz-adv-x="1030" 
d="M578 1450h184l151 -217h-168l-86 129h-4l-114 -129h-181zM612 1085q180 0 279.5 -95t116.5 -273h-166q-10 104 -66 168.5t-162 64.5q-192 0 -296.5 -159.5t-104.5 -373.5q0 -215 101.5 -261.5t195.5 -46.5t176 68.5t115 195.5h157q-45 -193 -171 -297.5t-313 -104.5
t-307 117.5t-120 356.5t113.5 383.5t218 200.5t233.5 56z" />
    <glyph glyph-name="Cdotaccent" unicode="&#x10a;" horiz-adv-x="1400" 
d="M852 1751h156l-39 -195h-156zM102 616q0 164 52.5 323t152 283t242.5 199.5t325 75.5q229 0 368.5 -122t158.5 -345h-182q-20 147 -111.5 228t-239.5 81q-273 0 -425 -211t-152 -505q0 -214 105 -353t323 -139q183 0 297.5 112.5t157.5 293.5h180q-41 -223 -193 -385
q-168 -181 -455 -181q-286 0 -445 175.5t-159 469.5z" />
    <glyph glyph-name="cdotaccent" unicode="&#x10b;" horiz-adv-x="1030" 
d="M594 1464h162l-39 -204h-162zM612 1085q180 0 279.5 -95t116.5 -273h-166q-10 104 -66 168.5t-162 64.5q-192 0 -296.5 -159.5t-104.5 -373.5q0 -215 101.5 -261.5t195.5 -46.5t176 68.5t115 195.5h157q-45 -193 -171 -297.5t-313 -104.5t-307 117.5t-120 356.5
t113.5 383.5t218 200.5t233.5 56z" />
    <glyph glyph-name="Ccaron" unicode="&#x10c;" horiz-adv-x="1400" 
d="M973 1550h-185l-151 217h168l86 -129h4l115 129h180zM102 616q0 164 52.5 323t152 283t242.5 199.5t325 75.5q229 0 368.5 -122t158.5 -345h-182q-20 147 -111.5 228t-239.5 81q-273 0 -425 -211t-152 -505q0 -214 105 -353t323 -139q183 0 297.5 112.5t157.5 293.5h180
q-41 -223 -193 -385q-168 -181 -455 -181q-286 0 -445 175.5t-159 469.5z" />
    <glyph glyph-name="ccaron" unicode="&#x10d;" horiz-adv-x="1030" 
d="M731 1233h-184l-152 217h168l86 -129h4l115 129h180zM612 1085q180 0 279.5 -95t116.5 -273h-166q-10 104 -66 168.5t-162 64.5q-192 0 -296.5 -159.5t-104.5 -373.5q0 -215 101.5 -261.5t195.5 -46.5t176 68.5t115 195.5h157q-45 -193 -171 -297.5t-313 -104.5
t-307 117.5t-120 356.5t113.5 383.5t218 200.5t233.5 56z" />
    <glyph glyph-name="Dcaron" unicode="&#x10e;" horiz-adv-x="1378" 
d="M887 1550h-185l-151 217h168l86 -129h4l115 129h180zM1167 868q0 439 -403 439h-299l-221 -1147h311q299 0 455.5 196.5t156.5 511.5zM774 1464q290 0 435 -155t145 -428q0 -375 -149.5 -557.5t-299 -253t-346.5 -70.5h-526l282 1464h459z" />
    <glyph glyph-name="dcaron" unicode="&#x10f;" horiz-adv-x="1118" 
d="M1425 1290q-29 -164 -204 -178l14 78q43 10 67.5 31.5t34.5 78.5h-80l31 164h170zM213 432q0 -149 62.5 -237.5t195.5 -88.5q100 0 175 48.5t145.5 166t70.5 332.5q0 123 -68.5 207t-180.5 84q-113 0 -185 -50t-120 -128t-71.5 -170t-23.5 -164zM760 115
q-127 -146 -309 -146q-183 0 -293.5 116t-110.5 349t150.5 441t406.5 208q207 0 307 -186h4l109 567h164l-283 -1464h-164l23 115h-4z" />
    <glyph glyph-name="Dcroat" unicode="&#x110;" horiz-adv-x="1400" 
d="M1190 868q0 439 -404 439h-299l-96 -494h420l-31 -154h-418l-96 -499h312q300 0 456 197.5t156 510.5zM797 1464q289 0 434 -154t145 -429q0 -376 -149.5 -558t-299 -252.5t-345.5 -70.5h-527l127 659h-147l31 154h145l127 651h459z" />
    <glyph glyph-name="dcroat" unicode="&#x111;" horiz-adv-x="1118" 
d="M213 432q0 -149 62.5 -237.5t195.5 -88.5q100 0 175 48.5t145.5 166t70.5 332.5q0 123 -68.5 207t-180.5 84q-113 0 -185 -50t-120 -128t-71.5 -170t-23.5 -164zM760 115q-127 -146 -309 -146q-183 0 -293.5 116t-110.5 349t150.5 441t406.5 208q207 0 307 -186h4l56 289
h-275l25 127h274l29 151h164l-29 -151h125l-24 -127h-125l-230 -1186h-164l23 115h-4z" />
    <glyph glyph-name="Emacron" unicode="&#x112;" horiz-adv-x="1212" 
d="M592 1692h520l-27 -136h-520zM315 1464h957l-31 -159h-776l-90 -465h712l-30 -154h-713l-98 -518h821l-33 -168h-1001z" />
    <glyph glyph-name="emacron" unicode="&#x113;" horiz-adv-x="1054" 
d="M414 1411h520l-27 -135h-520zM592 956q-141 0 -233.5 -95t-127.5 -247h617q16 150 -49.5 246t-206.5 96zM213 470v-40q0 -141 72.5 -231t220.5 -90q104 0 184 57t115 162h160q-61 -180 -185 -268.5t-302 -88.5t-304.5 126.5t-126.5 334.5q0 273 160 463t391 190
q161 -1 264 -77q198 -148 142 -519h-789q-2 -16 -2 -19z" />
    <glyph glyph-name="Ebreve" unicode="&#x114;" horiz-adv-x="1212" 
d="M827 1554q-113 0 -179 61.5t-68 166.5h120q13 -101 129 -101t146 101h117q-14 -92 -83 -160t-182 -68zM315 1464h957l-31 -159h-776l-90 -465h712l-30 -154h-713l-98 -518h821l-33 -168h-1001z" />
    <glyph glyph-name="ebreve" unicode="&#x115;" horiz-adv-x="1054" 
d="M641 1237q-113 0 -179.5 61.5t-68.5 165.5h121q13 -100 128.5 -100t145.5 100h117q-14 -92 -82.5 -159.5t-181.5 -67.5zM592 956q-141 0 -233.5 -95t-127.5 -247h617q16 150 -49.5 246t-206.5 96zM213 470v-40q0 -141 72.5 -231t220.5 -90q104 0 184 57t115 162h160
q-61 -180 -185 -268.5t-302 -88.5t-304.5 126.5t-126.5 334.5q0 273 160 463t391 190q161 -1 264 -77q198 -148 142 -519h-789q-2 -16 -2 -19z" />
    <glyph glyph-name="Edotaccent" unicode="&#x116;" horiz-adv-x="1212" 
d="M776 1751h156l-39 -195h-156zM315 1464h957l-31 -159h-776l-90 -465h712l-30 -154h-713l-98 -518h821l-33 -168h-1001z" />
    <glyph glyph-name="edotaccent" unicode="&#x117;" horiz-adv-x="1054" 
d="M586 1464h162l-39 -204h-162zM592 956q-141 0 -233.5 -95t-127.5 -247h617q16 150 -49.5 246t-206.5 96zM213 470v-40q0 -141 72.5 -231t220.5 -90q104 0 184 57t115 162h160q-61 -180 -185 -268.5t-302 -88.5t-304.5 126.5t-126.5 334.5q0 273 160 463t391 190
q161 -1 264 -77q198 -148 142 -519h-789q-2 -16 -2 -19z" />
    <glyph glyph-name="Eogonek" unicode="&#x118;" horiz-adv-x="1212" 
d="M778 -352q-68 0 -121 39t-53 111t47 122.5t105 79.5h-723l282 1464h957l-31 -159h-776l-90 -465h712l-30 -154h-713l-98 -518h821l-33 -168h-121q-96 -58 -124.5 -105t-28.5 -75q0 -55 69 -56q28 0 74 13h4l-22 -115q-39 -14 -107 -14z" />
    <glyph glyph-name="eogonek" unicode="&#x119;" horiz-adv-x="1054" 
d="M592 956q-141 0 -233.5 -95t-127.5 -247h617q16 150 -49.5 246t-206.5 96zM560 -352q-68 0 -121.5 39t-53.5 112q0 102 123 172h-19q-189 0 -315.5 126.5t-126.5 334.5q0 273 160 463t391 190q161 -1 264 -77q198 -148 142 -519h-789q-2 -16 -2 -19v-40q0 -141 72.5 -231
t220.5 -90q104 0 184 57t115 162h160q-64 -182 -199 -277q-29 -20 -68 -45.5t-98 -78.5t-59 -108q0 -54 69 -55q28 0 74 13h4l-22 -115q-38 -14 -106 -14z" />
    <glyph glyph-name="Ecaron" unicode="&#x11a;" horiz-adv-x="1212" 
d="M901 1550h-184l-152 217h168l86 -129h4l115 129h180zM315 1464h957l-31 -159h-776l-90 -465h712l-30 -154h-713l-98 -518h821l-33 -168h-1001z" />
    <glyph glyph-name="ecaron" unicode="&#x11b;" horiz-adv-x="1054" 
d="M705 1233h-185l-151 217h168l86 -129h4l114 129h181zM592 956q-141 0 -233.5 -95t-127.5 -247h617q16 150 -49.5 246t-206.5 96zM213 470v-40q0 -141 72.5 -231t220.5 -90q104 0 184 57t115 162h160q-61 -180 -185 -268.5t-302 -88.5t-304.5 126.5t-126.5 334.5
q0 273 160 463t391 190q161 -1 264 -77q198 -148 142 -519h-789q-2 -16 -2 -19z" />
    <glyph glyph-name="Gcircumflex" unicode="&#x11c;" horiz-adv-x="1478" 
d="M846 1767h184l152 -217h-168l-86 129h-4l-115 -129h-180zM1130 193q-172 -224 -430 -224q-274 0 -436 169.5t-162 469.5q0 164 52.5 323t153 284.5t245.5 203.5t332 78q353 0 440.5 -177t95.5 -296h-182q-12 141 -106.5 227t-246.5 86q-287 0 -441 -212.5t-154 -512.5
q0 -218 109.5 -352.5t308.5 -134.5q299 0 382 179t101 280l6 32h-432l31 158h614l-149 -774h-127v193h-5z" />
    <glyph glyph-name="gcircumflex" unicode="&#x11d;" horiz-adv-x="1087" 
d="M582 1450h184l152 -217h-168l-86 129h-5l-114 -129h-180zM213 482q0 -308 258 -308q178 0 275.5 145t97.5 336q0 135 -66.5 212t-204.5 77q-176 0 -268 -141t-92 -321zM582 1083q206 0 303 -178h2l31 154h161l-205 -1059q-31 -162 -152.5 -257t-307.5 -95
q-268 0 -334 106.5t-68 186.5h162q14 -164 238 -164q129 0 204.5 63.5t98.5 173.5l33 166h-3q-128 -143 -302 -143q-175 0 -284.5 113.5t-109.5 308.5q0 253 142.5 438.5t390.5 185.5z" />
    <glyph glyph-name="Gbreve" unicode="&#x11e;" horiz-adv-x="1478" 
d="M903 1554q-113 0 -179.5 61.5t-68.5 166.5h121q13 -101 128 -101t147 101h116q-14 -92 -82.5 -160t-181.5 -68zM1130 193q-172 -224 -430 -224q-274 0 -436 169.5t-162 469.5q0 164 52.5 323t153 284.5t245.5 203.5t332 78q353 0 440.5 -177t95.5 -296h-182
q-12 141 -106.5 227t-246.5 86q-287 0 -441 -212.5t-154 -512.5q0 -218 109.5 -352.5t308.5 -134.5q299 0 382 179t101 280l6 32h-432l31 158h614l-149 -774h-127v193h-5z" />
    <glyph glyph-name="gbreve" unicode="&#x11f;" horiz-adv-x="1087" 
d="M664 1237q-113 0 -179.5 61.5t-68.5 165.5h121q13 -100 128.5 -100t145.5 100h117q-14 -92 -82.5 -159.5t-181.5 -67.5zM213 482q0 -308 258 -308q178 0 275.5 145t97.5 336q0 135 -66.5 212t-204.5 77q-176 0 -268 -141t-92 -321zM582 1083q206 0 303 -178h2l31 154h161
l-205 -1059q-31 -162 -152.5 -257t-307.5 -95q-268 0 -334 106.5t-68 186.5h162q14 -164 238 -164q129 0 204.5 63.5t98.5 173.5l33 166h-3q-128 -143 -302 -143q-175 0 -284.5 113.5t-109.5 308.5q0 253 142.5 438.5t390.5 185.5z" />
    <glyph glyph-name="Gdotaccent" unicode="&#x120;" horiz-adv-x="1478" 
d="M856 1751h156l-39 -195h-156zM1130 193q-172 -224 -430 -224q-274 0 -436 169.5t-162 469.5q0 164 52.5 323t153 284.5t245.5 203.5t332 78q353 0 440.5 -177t95.5 -296h-182q-12 141 -106.5 227t-246.5 86q-287 0 -441 -212.5t-154 -512.5q0 -218 109.5 -352.5
t308.5 -134.5q299 0 382 179t101 280l6 32h-432l31 158h614l-149 -774h-127v193h-5z" />
    <glyph glyph-name="gdotaccent" unicode="&#x121;" horiz-adv-x="1087" 
d="M592 1464h162l-39 -204h-162zM213 482q0 -308 258 -308q178 0 275.5 145t97.5 336q0 135 -66.5 212t-204.5 77q-176 0 -268 -141t-92 -321zM582 1083q206 0 303 -178h2l31 154h161l-205 -1059q-31 -162 -152.5 -257t-307.5 -95q-268 0 -334 106.5t-68 186.5h162
q14 -164 238 -164q129 0 204.5 63.5t98.5 173.5l33 166h-3q-128 -143 -302 -143q-175 0 -284.5 113.5t-109.5 308.5q0 253 142.5 438.5t390.5 185.5z" />
    <glyph glyph-name="Gcommaaccent" unicode="&#x122;" horiz-adv-x="1478" 
d="M705 -285q-29 -169 -209 -182l16 78q86 20 102 117h-77l34 182h170zM1130 193q-172 -224 -430 -224q-274 0 -436 169.5t-162 469.5q0 164 52.5 323t153 284.5t245.5 203.5t332 78q353 0 440.5 -177t95.5 -296h-182q-12 141 -106.5 227t-246.5 86q-287 0 -441 -212.5
t-154 -512.5q0 -218 109.5 -352.5t308.5 -134.5q299 0 382 179t101 280l6 32h-432l31 158h614l-149 -774h-127v193h-5z" />
    <glyph glyph-name="gcommaaccent" unicode="&#x123;" horiz-adv-x="1087" 
d="M571 1432q29 169 209 182l-16 -78q-86 -20 -102 -117h77l-34 -182h-170zM213 482q0 -308 258 -308q178 0 275.5 145t97.5 336q0 135 -66.5 212t-204.5 77q-176 0 -268 -141t-92 -321zM582 1083q206 0 303 -178h2l31 154h161l-205 -1059q-31 -162 -152.5 -257t-307.5 -95
q-268 0 -334 106.5t-68 186.5h162q14 -164 238 -164q129 0 204.5 63.5t98.5 173.5l33 166h-3q-128 -143 -302 -143q-175 0 -284.5 113.5t-109.5 308.5q0 253 142.5 438.5t390.5 185.5z" />
    <glyph glyph-name="Hcircumflex" unicode="&#x124;" horiz-adv-x="1361" 
d="M803 1767h184l152 -217h-168l-86 129h-4l-115 -129h-180zM315 1464h181l-121 -622h729l121 622h182l-283 -1464h-182l133 694h-729l-133 -694h-180z" />
    <glyph glyph-name="hcircumflex" unicode="&#x125;" horiz-adv-x="1056" 
d="M651 1767h185l151 -217h-168l-86 129h-4l-115 -129h-180zM739 1083q158 0 222.5 -90t35.5 -245l-145 -748h-162l146 748q36 198 -128 198q-155 0 -273.5 -103t-147.5 -249l-115 -594h-164l283 1464h164l-111 -571h4q66 86 169.5 138t221.5 52z" />
    <glyph glyph-name="Hbar" unicode="&#x126;" horiz-adv-x="1361" 
d="M1104 842l37 196h-729l-37 -196h729zM233 1038h-141l27 138h141l55 288h181l-58 -288h729l58 288h182l-55 -288h141l-27 -138h-141l-201 -1038h-182l133 694h-729l-133 -694h-180z" />
    <glyph glyph-name="hbar" unicode="&#x127;" horiz-adv-x="1056" 
d="M739 1083q158 0 222.5 -90t35.5 -245l-145 -748h-162l146 748q36 198 -128 198q-155 0 -273.5 -103t-147.5 -249l-115 -594h-164l230 1186h-127l24 127h127l29 151h164l-31 -151h274l-24 -127h-275l-55 -293h4q66 86 169.5 138t221.5 52z" />
    <glyph glyph-name="Itilde" unicode="&#x128;" horiz-adv-x="458" 
d="M562.5 1683q38.5 0 53.5 62h117q-16 -78 -59 -133.5t-109 -55.5t-149 33t-107 33q-46 0 -55 -61h-121q43 188 180 188q61 0 110.5 -22.5t75 -33t64 -10.5zM319 1464h181l-283 -1464h-180z" />
    <glyph glyph-name="itilde" unicode="&#x129;" horiz-adv-x="385" 
d="M213 1059h164l-205 -1059h-164zM248 1294q-35 0 -43 -59h-119q33 188 166 188q36 0 105.5 -31.5t89.5 -31.5q33 0 45 59h112q-23 -188 -164 -188q-39 0 -85 21.5t-67.5 31.5t-39.5 10z" />
    <glyph glyph-name="Imacron" unicode="&#x12a;" horiz-adv-x="458" 
d="M319 1464h181l-283 -1464h-180zM233 1694h439l-27 -135h-438z" />
    <glyph glyph-name="imacron" unicode="&#x12b;" horiz-adv-x="385" 
d="M213 1059h164l-205 -1059h-164zM162 1411h399l-26 -135h-400z" />
    <glyph glyph-name="Ibreve" unicode="&#x12c;" horiz-adv-x="458" 
d="M446 1554q-113 0 -179 61.5t-68 166.5h120q13 -101 129 -101t146 101h117q-14 -92 -83 -160t-182 -68zM319 1464h181l-283 -1464h-180z" />
    <glyph glyph-name="ibreve" unicode="&#x12d;" horiz-adv-x="385" 
d="M213 1059h164l-205 -1059h-164zM340 1237q-113 0 -179.5 61.5t-68.5 165.5h121q13 -100 128.5 -100t145.5 100h117q-14 -92 -82.5 -159.5t-181.5 -67.5z" />
    <glyph glyph-name="Iogonek" unicode="&#x12e;" horiz-adv-x="458" 
d="M80 -352q-68 0 -121 39t-53 111t48 122.5t107 79.5h-24l282 1464h181l-283 -1460q-97 -59 -126.5 -107.5t-29.5 -76.5q0 -55 70 -56q25 0 74 13h4l-23 -115q-38 -14 -106 -14z" />
    <glyph glyph-name="iogonek" unicode="&#x12f;" horiz-adv-x="385" 
d="M291 1464h164l-39 -204h-164zM32 -352q-68 0 -120.5 38.5t-52.5 109.5q0 116 147 194l207 1069h164l-205 -1055q-100 -61 -129 -108.5t-29 -75.5q0 -55 70 -56q25 0 74 13h4l-23 -115q-39 -14 -107 -14z" />
    <glyph glyph-name="Idotaccent" unicode="&#x130;" horiz-adv-x="458" 
d="M385 1751h156l-39 -195h-156zM319 1464h181l-283 -1464h-180z" />
    <glyph glyph-name="dotlessi" unicode="&#x131;" horiz-adv-x="385" 
d="M213 1059h164l-205 -1059h-164z" />
    <glyph glyph-name="IJ" unicode="&#x132;" horiz-adv-x="1427" 
d="M810 -29q-214 0 -308.5 117t-40.5 387h176q-36 -181 2.5 -267.5t200.5 -86.5q109 0 169 57.5t87 186.5l213 1099h182l-217 -1128q-33 -164 -141.5 -264.5t-322.5 -100.5zM319 1464h181l-283 -1464h-180z" />
    <glyph glyph-name="ij" unicode="&#x133;" horiz-adv-x="770" 
d="M676 1464h164l-39 -204h-164zM268 -166q40 0 70.5 20.5t42.5 84.5l217 1120h164l-223 -1147q-22 -119 -92 -166t-151 -47q-82 0 -124 12l25 131h4q27 -8 67 -8zM291 1464h164l-39 -204h-164zM213 1059h164l-205 -1059h-164z" />
    <glyph glyph-name="Jcircumflex" unicode="&#x134;" horiz-adv-x="991" 
d="M909 1767h185l151 -217h-168l-86 129h-4l-115 -129h-180zM403 121q109 0 169.5 57.5t86.5 186.5l213 1099h183l-217 -1128q-33 -164 -141.5 -264.5t-321.5 -100.5t-308.5 116t-41.5 388h176q-36 -181 2.5 -267.5t199.5 -86.5z" />
    <glyph glyph-name="jcircumflex" unicode="&#x135;" horiz-adv-x="385" 
d="M-116 -166q40 0 70 20.5t42 84.5l217 1120h164l-223 -1147q-22 -119 -92 -166t-151 -47q-82 0 -124 12l25 131h4q28 -8 68 -8zM262 1450h184l123 -217h-163l-60 129h-4l-96 -129h-176z" />
    <glyph glyph-name="Kcommaaccent" unicode="&#x136;" horiz-adv-x="1277" 
d="M618 -285q-29 -169 -208 -182l16 78q86 20 102 117h-77l34 182h170zM719 874l461 -874h-203l-395 752l-271 -244l-98 -508h-180l282 1464h181l-142 -723l791 723h229z" />
    <glyph glyph-name="kcommaaccent" unicode="&#x137;" horiz-adv-x="944" 
d="M461 -285q-29 -169 -209 -182l16 78q85 19 103 117h-78l35 182h170zM561 668l289 -668h-176l-238 559l-188 -168l-76 -391h-164l283 1464h164l-170 -878l501 473h215z" />
    <glyph glyph-name="kgreenlandic" unicode="&#x138;" horiz-adv-x="944" 
d="M561 668l289 -668h-176l-238 559l-188 -168l-76 -391h-164l205 1059h164l-92 -473l501 473h215z" />
    <glyph glyph-name="Lacute" unicode="&#x139;" horiz-adv-x="1103" 
d="M471 1790h201l-189 -248h-139zM315 1464h181l-250 -1296h735l-33 -168h-915z" />
    <glyph glyph-name="lacute" unicode="&#x13a;" horiz-adv-x="397" 
d="M457 1790h200l-188 -248h-139zM297 1464h164l-283 -1464h-164z" />
    <glyph glyph-name="Lcommaaccent" unicode="&#x13b;" horiz-adv-x="1103" 
d="M551 -285q-29 -169 -209 -182l16 78q87 20 103 117h-78l35 182h170zM315 1464h181l-250 -1296h735l-33 -168h-915z" />
    <glyph glyph-name="lcommaaccent" unicode="&#x13c;" horiz-adv-x="397" 
d="M125 -285q-29 -169 -209 -182l16 78q87 20 103 117h-78l35 182h170zM297 1464h164l-283 -1464h-164z" />
    <glyph glyph-name="Lcaron" unicode="&#x13d;" horiz-adv-x="1103" 
d="M958 1290q-29 -164 -204 -178l14 78q43 10 67.5 31.5t34.5 78.5h-79l30 164h170zM315 1464h181l-250 -1296h735l-33 -168h-915z" />
    <glyph glyph-name="lcaron" unicode="&#x13e;" horiz-adv-x="397" 
d="M705 1290q-29 -164 -205 -178l14 78q43 10 67.5 31.5t34.5 78.5h-79l30 164h170zM297 1464h164l-283 -1464h-164z" />
    <glyph glyph-name="Ldot" unicode="&#x13f;" horiz-adv-x="1103" 
d="M776 803h197l-39 -203h-197zM315 1464h181l-250 -1296h735l-33 -168h-915z" />
    <glyph glyph-name="ldot" unicode="&#x140;" horiz-adv-x="579" 
d="M442 803h197l-39 -203h-197zM297 1464h164l-283 -1464h-164z" />
    <glyph glyph-name="Lslash" unicode="&#x141;" horiz-adv-x="1124" 
d="M20 578l158 75l158 811h180l-137 -712l553 268l-33 -166l-553 -268l-80 -418h735l-32 -168h-916l94 489l-159 -77z" />
    <glyph glyph-name="lslash" unicode="&#x142;" horiz-adv-x="485" 
d="M43 651l160 113l135 700h164l-109 -567l182 131l-30 -158l-183 -131l-143 -739h-164l117 606l-160 -112z" />
    <glyph glyph-name="Nacute" unicode="&#x143;" horiz-adv-x="1376" 
d="M940 1790h201l-189 -248h-139zM315 1464h191l440 -1022q21 -49 39 -104q18 -54 29 -84h4l233 1210h170l-282 -1464h-187l-442 1024q-18 38 -38 95q-19 57 -32 87h-4l-233 -1206h-170z" />
    <glyph glyph-name="nacute" unicode="&#x144;" horiz-adv-x="1056" 
d="M715 1485h200l-188 -260h-141zM739 1083q158 0 222.5 -90t35.5 -245l-145 -748h-162l146 748q36 198 -128 198q-155 0 -273.5 -103t-147.5 -249l-115 -594h-164l205 1059h164l-31 -164h4q66 86 168.5 137t220.5 51z" />
    <glyph glyph-name="Ncommaaccent" unicode="&#x145;" horiz-adv-x="1376" 
d="M623 -285q-29 -169 -209 -182l16 78q86 20 102 117h-77l34 182h170zM315 1464h191l440 -1022q21 -49 39 -104q18 -54 29 -84h4l233 1210h170l-282 -1464h-187l-442 1024q-18 38 -38 95q-19 57 -32 87h-4l-233 -1206h-170z" />
    <glyph glyph-name="ncommaaccent" unicode="&#x146;" horiz-adv-x="1056" 
d="M463 -285q-29 -169 -209 -182l16 78q85 19 103 117h-78l35 182h170zM739 1083q158 0 222.5 -90t35.5 -245l-145 -748h-162l146 748q36 198 -128 198q-155 0 -273.5 -103t-147.5 -249l-115 -594h-164l205 1059h164l-31 -164h4q66 86 168.5 137t220.5 51z" />
    <glyph glyph-name="Ncaron" unicode="&#x147;" horiz-adv-x="1376" 
d="M981 1550h-184l-152 217h168l86 -129h4l115 129h180zM315 1464h191l440 -1022q21 -49 39 -104q18 -54 29 -84h4l233 1210h170l-282 -1464h-187l-442 1024q-18 38 -38 95q-19 57 -32 87h-4l-233 -1206h-170z" />
    <glyph glyph-name="ncaron" unicode="&#x148;" horiz-adv-x="1056" 
d="M745 1233h-184l-151 217h168l86 -129h4l114 129h181zM739 1083q158 0 222.5 -90t35.5 -245l-145 -748h-162l146 748q36 198 -128 198q-155 0 -273.5 -103t-147.5 -249l-115 -594h-164l205 1059h164l-31 -164h4q66 86 168.5 137t220.5 51z" />
    <glyph glyph-name="napostrophe" unicode="&#x149;" horiz-adv-x="1056" 
d="M739 1083q158 0 222.5 -90t35.5 -245l-145 -748h-162l146 748q36 198 -128 198q-157 0 -274.5 -104.5t-146.5 -249.5l-115 -592h-164l205 1059h164l-31 -164h4q66 86 168.5 137t220.5 51zM295 1290q-16 -86 -72.5 -130t-134.5 -48l14 78q45 10 70 31.5t35 78.5h-82
l31 164h172z" />
    <glyph glyph-name="Eng" unicode="&#x14a;" horiz-adv-x="1376" 
d="M694 -203q104 0 170 42t94 147l-448 1038q-32 76 -45 114q-14 38 -25 68h-4l-233 -1206h-170l282 1464h191l440 -1022q21 -49 39 -104q18 -54 29 -84h4l233 1210h170l-276 -1423q-36 -187 -130 -290t-308 -103q-70 0 -129 16l28 143q40 -10 88 -10z" />
    <glyph glyph-name="eng" unicode="&#x14b;" horiz-adv-x="1056" 
d="M739 1083q158 0 223.5 -90t34.5 -245l-161 -836q-39 -213 -261 -213q-64 0 -106 12l25 131h4q28 -8 68 -8t70 20.5t42 84.5l158 809q36 198 -128 198q-155 0 -273.5 -103t-147.5 -249l-115 -594h-164l205 1059h164l-31 -164h4q66 86 168.5 137t220.5 51z" />
    <glyph glyph-name="Omacron" unicode="&#x14c;" horiz-adv-x="1552" 
d="M659 1692h521l-27 -136h-520zM291 639q0 -242 127 -376t348 -134q272 0 422.5 194.5t150.5 497.5q0 235 -128 376.5t-347 141.5q-268 0 -420.5 -200.5t-152.5 -499.5zM782 -31q-307 0 -493.5 180t-186.5 490q0 174 55.5 329.5t156 273.5t242.5 186.5t298 68.5
q305 0 488.5 -181t183.5 -493q0 -363 -150.5 -541t-293 -245.5t-300.5 -67.5z" />
    <glyph glyph-name="omacron" unicode="&#x14d;" horiz-adv-x="1097" 
d="M410 1411h520l-27 -135h-520zM211 450q0 -158 74 -249.5t215 -91.5q177 0 281 146t104 368t-104.5 274.5t-190.5 52.5t-159 -43t-122 -115.5t-73.5 -165t-24.5 -176.5zM514 -29q-215 0 -341 124t-126 339q0 271 153 461t406 190q194 0 319.5 -127.5t125.5 -339.5
q0 -267 -107.5 -402.5t-211.5 -190t-218 -54.5z" />
    <glyph glyph-name="Obreve" unicode="&#x14e;" horiz-adv-x="1552" 
d="M909 1554q-113 0 -179 61.5t-68 166.5h120q13 -101 128 -101t147 101h117q-14 -92 -83 -160t-182 -68zM291 639q0 -242 127 -376t348 -134q272 0 422.5 194.5t150.5 497.5q0 235 -128 376.5t-347 141.5q-268 0 -420.5 -200.5t-152.5 -499.5zM782 -31q-307 0 -493.5 180
t-186.5 490q0 174 55.5 329.5t156 273.5t242.5 186.5t298 68.5q305 0 488.5 -181t183.5 -493q0 -363 -150.5 -541t-293 -245.5t-300.5 -67.5z" />
    <glyph glyph-name="obreve" unicode="&#x14f;" horiz-adv-x="1097" 
d="M649 1237q-113 0 -179.5 61.5t-68.5 165.5h121q13 -100 128 -100t147 100h116q-14 -92 -82.5 -159.5t-181.5 -67.5zM211 450q0 -158 74 -249.5t215 -91.5q177 0 281 146t104 368t-104.5 274.5t-190.5 52.5t-159 -43t-122 -115.5t-73.5 -165t-24.5 -176.5zM514 -29
q-215 0 -341 124t-126 339q0 271 153 461t406 190q194 0 319.5 -127.5t125.5 -339.5q0 -267 -107.5 -402.5t-211.5 -190t-218 -54.5z" />
    <glyph glyph-name="Ohungarumlaut" unicode="&#x150;" horiz-adv-x="1552" 
d="M782 1802h166l-127 -260h-123zM1044 1802h166l-127 -260h-122zM291 639q0 -242 127 -376t348 -134q272 0 422.5 194.5t150.5 497.5q0 235 -128 376.5t-347 141.5q-268 0 -420.5 -200.5t-152.5 -499.5zM782 -31q-307 0 -493.5 180t-186.5 490q0 174 55.5 329.5t156 273.5
t242.5 186.5t298 68.5q305 0 488.5 -181t183.5 -493q0 -363 -150.5 -541t-293 -245.5t-300.5 -67.5z" />
    <glyph glyph-name="ohungarumlaut" unicode="&#x151;" horiz-adv-x="1097" 
d="M518 1485h166l-127 -260h-123zM780 1485h166l-127 -260h-123zM211 450q0 -158 74 -249.5t215 -91.5q177 0 281 146t104 368t-104.5 274.5t-190.5 52.5t-159 -43t-122 -115.5t-73.5 -165t-24.5 -176.5zM514 -29q-215 0 -341 124t-126 339q0 271 153 461t406 190
q194 0 319.5 -127.5t125.5 -339.5q0 -267 -107.5 -402.5t-211.5 -190t-218 -54.5z" />
    <glyph glyph-name="OE" unicode="&#x152;" horiz-adv-x="2179" 
d="M885 1497q281 0 397 -188l29 155h927l-30 -159h-748l-90 -465h684l-31 -154h-684l-98 -518h793l-33 -168h-973l23 113q-61 -59 -165 -101.5t-224 -42.5q-243 0 -400.5 168t-157.5 467q0 172 54.5 334t155 286t244.5 198.5t327 74.5zM291 602q0 -217 98 -345t301 -128
q138 0 263.5 72t148.5 196l125 629q27 135 -79 224t-263 89q-284 0 -439 -222t-155 -515z" />
    <glyph glyph-name="oe" unicode="&#x153;" horiz-adv-x="1736" 
d="M1302 956q-130 0 -215.5 -93t-117.5 -249h565q18 160 -42 251t-190 91zM211 445q0 -336 246 -336q161 0 258.5 151.5t97.5 374.5q0 131 -60.5 223t-183.5 92q-170 0 -264 -151.5t-94 -353.5zM920 842q146 243 404 243q136 0 230 -71q191 -149 129 -525h-731
q-2 -16 -2 -21v-48q0 -137 65.5 -224t198.5 -87q208 0 277 219h158q-57 -188 -176 -272.5t-261 -84.5q-280 0 -368 240q-66 -109 -165 -174.5t-209 -65.5q-202 0 -312.5 120.5t-110.5 326.5q0 279 148 473t376 194q125 0 216.5 -61t132.5 -182z" />
    <glyph glyph-name="Racute" unicode="&#x154;" horiz-adv-x="1325" 
d="M858 1790h201l-189 -248h-139zM1112 1077q0 230 -268 230h-379l-105 -539h412q156 0 248 79t92 230zM975 146q0 94 6 178q12 166 -40.5 231.5t-197.5 65.5h-411l-119 -621h-180l282 1464h555q182 0 295 -84q135 -101 135 -299q0 -152 -80.5 -249t-203.5 -138v-6
q94 -44 123.5 -125t20.5 -205q-23 -315 36 -350v-8h-184q-37 52 -37 146z" />
    <glyph glyph-name="racute" unicode="&#x155;" horiz-adv-x="671" 
d="M561 1485h201l-189 -260h-141zM651 1071q58 0 86 -12l-30 -158h-7q-29 10 -75 10q-121 0 -217.5 -91t-128.5 -261l-107 -559h-164l205 1059h164l-33 -168h4q126 180 303 180z" />
    <glyph glyph-name="Rcommaaccent" unicode="&#x156;" horiz-adv-x="1325" 
d="M664 -285q-29 -169 -209 -182l16 78q86 20 102 117h-77l34 182h170zM1112 1077q0 230 -268 230h-379l-105 -539h412q156 0 248 79t92 230zM975 146q0 94 6 178q12 166 -40.5 231.5t-197.5 65.5h-411l-119 -621h-180l282 1464h555q182 0 295 -84q135 -101 135 -299
q0 -152 -80.5 -249t-203.5 -138v-6q94 -44 123.5 -125t20.5 -205q-23 -315 36 -350v-8h-184q-37 52 -37 146z" />
    <glyph glyph-name="rcommaaccent" unicode="&#x157;" horiz-adv-x="671" 
d="M119 -285q-29 -169 -209 -182l16 78q85 19 103 117h-78l35 182h170zM651 1071q58 0 86 -12l-30 -158h-7q-29 10 -75 10q-121 0 -217.5 -91t-128.5 -261l-107 -559h-164l205 1059h164l-33 -168h4q126 180 303 180z" />
    <glyph glyph-name="Rcaron" unicode="&#x158;" horiz-adv-x="1325" 
d="M905 1550h-184l-152 217h168l86 -129h4l115 129h180zM1112 1077q0 230 -268 230h-379l-105 -539h412q156 0 248 79t92 230zM975 146q0 94 6 178q12 166 -40.5 231.5t-197.5 65.5h-411l-119 -621h-180l282 1464h555q182 0 295 -84q135 -101 135 -299q0 -152 -80.5 -249
t-203.5 -138v-6q94 -44 123.5 -125t20.5 -205q-23 -315 36 -350v-8h-184q-37 52 -37 146z" />
    <glyph glyph-name="rcaron" unicode="&#x159;" horiz-adv-x="671" 
d="M602 1233h-184l-152 217h168l86 -129h4l115 129h180zM651 1071q58 0 86 -12l-30 -158h-7q-29 10 -75 10q-121 0 -217.5 -91t-128.5 -261l-107 -559h-164l205 1059h164l-33 -168h4q126 180 303 180z" />
    <glyph glyph-name="Sacute" unicode="&#x15a;" horiz-adv-x="1232" 
d="M776 1790h201l-189 -248h-139zM195 496q0 -375 401 -375q168 0 267.5 75.5t99.5 219.5q0 104 -79 158t-230 109q-150 55 -305.5 130.5t-155.5 280.5q0 180 135 289.5t346 109.5q363 0 443.5 -167t86.5 -290h-172q-8 164 -100 237t-258 73q-215 0 -263.5 -84t-48.5 -142
t22 -91.5t70.5 -67.5t184.5 -84q135 -50 221 -86.5t183.5 -110.5t97.5 -244q0 -208 -147.5 -336.5t-401.5 -128.5q-396 0 -486 189.5t-86 335.5h175z" />
    <glyph glyph-name="sacute" unicode="&#x15b;" horiz-adv-x="950" 
d="M623 1485h200l-188 -260h-141zM281 809q0 -67 52 -102.5t156 -77.5q105 -42 232 -97.5t127 -225.5t-119 -253.5t-299 -83.5q-181 0 -307.5 97t-126.5 278h158q8 -240 295 -240q95 0 145.5 31t72 68t21.5 96t-57 96t-155 75t-223.5 96.5t-125.5 228.5q0 135 100.5 210.5
t318 75.5t282.5 -121.5t71 -209.5h-160q-22 204 -245 204q-146 0 -179.5 -53t-33.5 -92z" />
    <glyph glyph-name="Scircumflex" unicode="&#x15c;" horiz-adv-x="1232" 
d="M674 1767h184l152 -217h-168l-86 129h-4l-115 -129h-180zM195 496q0 -375 401 -375q168 0 267.5 75.5t99.5 219.5q0 104 -79 158t-230 109q-150 55 -305.5 130.5t-155.5 280.5q0 180 135 289.5t346 109.5q363 0 443.5 -167t86.5 -290h-172q-8 164 -100 237t-258 73
q-215 0 -263.5 -84t-48.5 -142t22 -91.5t70.5 -67.5t184.5 -84q135 -50 221 -86.5t183.5 -110.5t97.5 -244q0 -208 -147.5 -336.5t-401.5 -128.5q-396 0 -486 189.5t-86 335.5h175z" />
    <glyph glyph-name="scircumflex" unicode="&#x15d;" horiz-adv-x="950" 
d="M504 1450h184l152 -217h-168l-86 129h-4l-115 -129h-180zM281 809q0 -67 52 -102.5t156 -77.5q105 -42 232 -97.5t127 -225.5t-119 -253.5t-299 -83.5q-181 0 -307.5 97t-126.5 278h158q8 -240 295 -240q95 0 145.5 31t72 68t21.5 96t-57 96t-155 75t-223.5 96.5
t-125.5 228.5q0 135 100.5 210.5t318 75.5t282.5 -121.5t71 -209.5h-160q-22 204 -245 204q-146 0 -179.5 -53t-33.5 -92z" />
    <glyph glyph-name="Scedilla" unicode="&#x15e;" horiz-adv-x="1232" 
d="M195 496q0 -375 401 -375q168 0 267.5 75.5t99.5 219.5q0 104 -79 158t-230 109q-150 55 -305.5 130.5t-155.5 280.5q0 180 135 289.5t346 109.5q363 0 443.5 -167t86.5 -290h-172q-8 164 -100 237t-258 73q-215 0 -263.5 -84t-48.5 -142t22 -91.5t70.5 -67.5t184.5 -84
q135 -50 221 -86.5t183.5 -110.5t97.5 -244q0 -202 -142 -331.5t-385 -133.5l-84 -73v-4q66 13 120.5 -18.5t54.5 -104.5q0 -74 -61.5 -118t-171.5 -44t-202 63l35 60q68 -35 149 -35t100 22.5t19 47.5q0 53 -71 53q-43 0 -82 -15l-25 48l109 122q-216 18 -353.5 145
t-130.5 376h175z" />
    <glyph glyph-name="scedilla" unicode="&#x15f;" horiz-adv-x="950" 
d="M281 809q0 -67 52 -102.5t156 -77.5q105 -42 232 -97.5t127 -232.5q0 -156 -111 -240t-272 -88l-82 -73v-4q65 13 119.5 -18.5t54.5 -104.5t-60.5 -117.5t-171.5 -44.5q-110 0 -202 63l35 60q68 -35 147 -35q121 0 121 70q0 53 -72 53q-41 0 -82 -15l-24 48l106 120
q-151 16 -254.5 112.5t-103.5 258.5h158q8 -240 295 -240q95 0 145.5 31t72 68t21.5 96t-57 96t-155 75t-223.5 96.5t-125.5 228.5q0 135 100.5 210.5t318 75.5t282.5 -121.5t71 -209.5h-160q-22 204 -245 204q-146 0 -179.5 -53t-33.5 -92z" />
    <glyph glyph-name="Scaron" unicode="&#x160;" horiz-adv-x="1232" 
d="M817 1550h-184l-152 217h168l86 -129h4l115 129h180zM195 496q0 -375 401 -375q168 0 267.5 75.5t99.5 219.5q0 104 -79 158t-230 109q-150 55 -305.5 130.5t-155.5 280.5q0 180 135 289.5t346 109.5q363 0 443.5 -167t86.5 -290h-172q-8 164 -100 237t-258 73
q-215 0 -263.5 -84t-48.5 -142t22 -91.5t70.5 -67.5t184.5 -84q135 -50 221 -86.5t183.5 -110.5t97.5 -244q0 -208 -147.5 -336.5t-401.5 -128.5q-396 0 -486 189.5t-86 335.5h175z" />
    <glyph glyph-name="scaron" unicode="&#x161;" horiz-adv-x="950" 
d="M637 1233h-184l-152 217h168l86 -129h4l115 129h180zM281 809q0 -67 52 -102.5t156 -77.5q105 -42 232 -97.5t127 -225.5t-119 -253.5t-299 -83.5q-181 0 -307.5 97t-126.5 278h158q8 -240 295 -240q95 0 145.5 31t72 68t21.5 96t-57 96t-155 75t-223.5 96.5
t-125.5 228.5q0 135 100.5 210.5t318 75.5t282.5 -121.5t71 -209.5h-160q-22 204 -245 204q-146 0 -179.5 -53t-33.5 -92z" />
    <glyph glyph-name="uni0162" unicode="&#x162;" horiz-adv-x="1179" 
d="M518 -285q-29 -169 -209 -182l17 78q86 20 102 117h-78l35 182h170zM215 1464h1112l-31 -159h-467l-251 -1305h-181l252 1305h-465z" />
    <glyph glyph-name="uni0163" unicode="&#x163;" horiz-adv-x="608" 
d="M313 -285q-29 -169 -209 -182l17 78q86 20 102 117h-78l35 182h170zM397 135q54 0 95 19h6l-29 -144q-45 -16 -115 -16q-123 0 -181 66.5t-32 199.5l129 666h-149l26 133h150l65 334h164l-65 -334h203l-27 -133h-203l-129 -672q-25 -119 92 -119z" />
    <glyph glyph-name="Tcaron" unicode="&#x164;" horiz-adv-x="1179" 
d="M877 1550h-185l-151 217h168l86 -129h4l114 129h181zM215 1464h1112l-31 -159h-467l-251 -1305h-181l252 1305h-465z" />
    <glyph glyph-name="tcaron" unicode="&#x165;" horiz-adv-x="608" 
d="M397 135q54 0 95 19h6l-29 -144q-45 -16 -115 -16q-123 0 -181 66.5t-32 199.5l129 666h-149l26 133h150l65 334h164l-65 -334h203l-27 -133h-203l-129 -672q-25 -119 92 -119zM805 1307q-16 -78 -72.5 -116t-128.5 -42l14 78q41 6 65 25.5t34 64.5h-80l27 147h170z" />
    <glyph glyph-name="Tbar" unicode="&#x166;" horiz-adv-x="1179" 
d="M215 1464h1112l-31 -159h-467l-88 -457h312l-27 -137h-311l-137 -711h-181l138 711h-299l26 137h299l88 457h-465z" />
    <glyph glyph-name="tbar" unicode="&#x167;" horiz-adv-x="608" 
d="M397 135q54 0 95 19h6l-29 -144q-45 -16 -115 -16q-123 0 -181 66.5t-32 199.5l70 358h-150l27 134h148l34 174h-149l26 133h150l65 334h164l-65 -334h203l-27 -133h-203l-35 -174h205l-26 -134h-203l-70 -364q-25 -119 92 -119z" />
    <glyph glyph-name="Utilde" unicode="&#x168;" horiz-adv-x="1312" 
d="M992 1683q38 0 55 62h116q-16 -78 -59 -133.5t-108 -55.5t-149.5 33t-107.5 33q-46 0 -55 -61h-121q43 188 180 188q61 0 110.5 -22.5t75 -33t63.5 -10.5zM618 133q166 0 260.5 78t129.5 250l194 1003h180l-200 -1034q-88 -453 -583 -453q-264 0 -403.5 137.5
t-84.5 420.5l180 929h182l-180 -929q-41 -201 37 -301.5t288 -100.5z" />
    <glyph glyph-name="utilde" unicode="&#x169;" horiz-adv-x="1032" 
d="M775.5 1358q38.5 0 53.5 61h117q-16 -78 -59 -133t-109 -55t-120 22.5t-78.5 32.5t-44.5 10q-48 0 -56 -61h-121q43 188 181 188q59 0 105 -22.5t69.5 -32.5t62 -10zM346 113q156 0 263.5 103.5t135.5 250.5l115 592h164l-205 -1059h-164l27 147h-4q-146 -172 -356 -172
q-156 0 -225.5 92.5t-39.5 254.5l144 737h161l-143 -735q-44 -211 127 -211z" />
    <glyph glyph-name="Umacron" unicode="&#x16a;" horiz-adv-x="1312" 
d="M621 1692h520l-27 -136h-520zM618 133q166 0 260.5 78t129.5 250l194 1003h180l-200 -1034q-88 -453 -583 -453q-264 0 -403.5 137.5t-84.5 420.5l180 929h182l-180 -929q-41 -201 37 -301.5t288 -100.5z" />
    <glyph glyph-name="umacron" unicode="&#x16b;" horiz-adv-x="1032" 
d="M412 1411h520l-27 -135h-520zM346 113q156 0 263.5 103.5t135.5 250.5l115 592h164l-205 -1059h-164l27 147h-4q-146 -172 -356 -172q-156 0 -225.5 92.5t-39.5 254.5l144 737h161l-143 -735q-44 -211 127 -211z" />
    <glyph glyph-name="Ubreve" unicode="&#x16c;" horiz-adv-x="1312" 
d="M852 1554q-113 0 -179.5 61.5t-68.5 166.5h121q13 -101 128.5 -101t145.5 101h117q-14 -92 -82.5 -160t-181.5 -68zM618 133q166 0 260.5 78t129.5 250l194 1003h180l-200 -1034q-88 -453 -583 -453q-264 0 -403.5 137.5t-84.5 420.5l180 929h182l-180 -929
q-41 -201 37 -301.5t288 -100.5z" />
    <glyph glyph-name="ubreve" unicode="&#x16d;" horiz-adv-x="1032" 
d="M649 1237q-113 0 -179.5 61.5t-68.5 165.5h121q13 -100 128 -100t147 100h116q-14 -92 -82.5 -159.5t-181.5 -67.5zM346 113q156 0 263.5 103.5t135.5 250.5l115 592h164l-205 -1059h-164l27 147h-4q-146 -172 -356 -172q-156 0 -225.5 92.5t-39.5 254.5l144 737h161
l-143 -735q-44 -211 127 -211z" />
    <glyph glyph-name="Uring" unicode="&#x16e;" horiz-adv-x="1312" 
d="M846 1577q43 0 69.5 29.5t26.5 72.5t-26.5 73t-69.5 30t-69.5 -30t-26.5 -73t26.5 -72.5t69.5 -29.5zM846 1505q-37 0 -70 13.5t-56.5 37t-37.5 55t-14 68.5t14 69t37.5 55.5t56.5 36.5t70 13t69.5 -13t56 -36.5t38 -55.5t14.5 -69t-14.5 -68.5t-38 -55t-56 -37
t-69.5 -13.5zM618 133q166 0 260.5 78t129.5 250l194 1003h180l-200 -1034q-88 -453 -583 -453q-264 0 -403.5 137.5t-84.5 420.5l180 929h182l-180 -929q-41 -201 37 -301.5t288 -100.5z" />
    <glyph glyph-name="uring" unicode="&#x16f;" horiz-adv-x="1032" 
d="M641 1217q43 0 69.5 29.5t26.5 72.5t-26.5 72.5t-69.5 29.5t-69.5 -29.5t-26.5 -72.5t26.5 -72.5t69.5 -29.5zM641 1145q-37 0 -69.5 13t-56 37t-38 55.5t-14.5 68.5t14.5 68.5t38 55t56 37t69.5 13.5t69.5 -13.5t56.5 -37t38 -55t14 -68.5t-14 -68.5t-38 -55.5
t-56.5 -37t-69.5 -13zM346 113q156 0 263.5 103.5t135.5 250.5l115 592h164l-205 -1059h-164l27 147h-4q-146 -172 -356 -172q-156 0 -225.5 92.5t-39.5 254.5l144 737h161l-143 -735q-44 -211 127 -211z" />
    <glyph glyph-name="Uhungarumlaut" unicode="&#x170;" horiz-adv-x="1312" 
d="M727 1802h166l-127 -260h-123zM989 1802h166l-127 -260h-123zM618 133q166 0 260.5 78t129.5 250l194 1003h180l-200 -1034q-88 -453 -583 -453q-264 0 -403.5 137.5t-84.5 420.5l180 929h182l-180 -929q-41 -201 37 -301.5t288 -100.5z" />
    <glyph glyph-name="uhungarumlaut" unicode="&#x171;" horiz-adv-x="1032" 
d="M528 1485h166l-127 -260h-123zM791 1485h165l-127 -260h-122zM346 113q156 0 263.5 103.5t135.5 250.5l115 592h164l-205 -1059h-164l27 147h-4q-146 -172 -356 -172q-156 0 -225.5 92.5t-39.5 254.5l144 737h161l-143 -735q-44 -211 127 -211z" />
    <glyph glyph-name="Uogonek" unicode="&#x172;" horiz-adv-x="1312" 
d="M620 -352q-68 0 -121 38.5t-53 112.5q0 109 121 181q-399 20 -442 216.5t-14 338.5l180 929h182l-180 -929q-41 -201 37 -301.5t288 -100.5q166 0 260.5 78t129.5 250l194 1003h180l-200 -1034q-31 -160 -109 -254t-199 -147q-41 -18 -88 -35t-115.5 -54.5t-68.5 -119.5
q0 -55 70 -56q28 0 73 13h5l-23 -115q-39 -14 -107 -14z" />
    <glyph glyph-name="uogonek" unicode="&#x173;" horiz-adv-x="1032" 
d="M680 -352q-68 0 -121 38.5t-53 112.5q0 111 147 191l29 157h-4q-146 -172 -356 -172q-156 0 -225.5 92.5t-39.5 254.5l144 737h161l-143 -735q-44 -211 127 -211q156 0 263.5 103.5t135.5 250.5l115 592h164l-205 -1057q-157 -96 -157 -182q0 -55 69 -56q28 0 74 13h4
l-23 -115q-38 -14 -106 -14z" />
    <glyph glyph-name="Wcircumflex" unicode="&#x174;" horiz-adv-x="1814" 
d="M1032 1767h185l151 -217h-168l-86 129h-4l-115 -129h-180zM193 1464h184l59 -952q4 -37 5.5 -98t7.5 -150h4q61 153 104 252l420 948h197l90 -948q4 -37 6 -81t4 -86t4 -85h4q16 45 34 87t34 84t30 77l404 952h184l-647 -1464h-174l-90 1032q-4 33 -6 73t-4 77t-3 78h-4
q-14 -39 -29 -76t-30.5 -77t-32.5 -75l-459 -1032h-180z" />
    <glyph glyph-name="wcircumflex" unicode="&#x175;" horiz-adv-x="1449" 
d="M770 1450h184l152 -217h-168l-86 129h-4l-115 -129h-180zM350 176h4q38 117 86 230l289 653h170l57 -653q7 -58 7 -148v-82h4q52 140 96 236l305 647h172l-520 -1059h-168l-59 633q-4 33 -5.5 74t-3.5 79t-2 80h-4q-23 -69 -92 -233l-280 -633h-170l-130 1059h173
l61 -641q4 -35 5 -77t3 -82t2 -83z" />
    <glyph glyph-name="Ycircumflex" unicode="&#x176;" horiz-adv-x="1187" 
d="M711 1767h184l152 -217h-168l-86 129h-5l-114 -129h-180zM526 621l-360 843h194l283 -694h4l518 694h203l-663 -858l-117 -606h-180z" />
    <glyph glyph-name="ycircumflex" unicode="&#x177;" horiz-adv-x="935" 
d="M522 1450h185l151 -217h-168l-86 129h-4l-115 -129h-180zM88 -205q56 0 96.5 22.5t71.5 82.5l70 133l-226 1026h168l135 -656q6 -35 17 -94.5t14 -111.5h4q12 31 28 63t32 68.5t34 72.5l326 658h170l-618 -1190q-66 -125 -144 -172t-170 -47t-147 24l28 144h9
q46 -23 102 -23z" />
    <glyph glyph-name="Ydieresis" unicode="&#x178;" horiz-adv-x="1187" 
d="M561 1751h158l-39 -195h-158zM891 1751h158l-39 -195h-158zM526 621l-360 843h194l283 -694h4l518 694h203l-663 -858l-117 -606h-180z" />
    <glyph glyph-name="Zacute" unicode="&#x179;" horiz-adv-x="1212" 
d="M834 1790h200l-188 -248h-139zM1034 1313h-782l29 151h1015l-26 -139l-1059 -1157v-6h879l-31 -162h-1100l33 172l1042 1135v6z" />
    <glyph glyph-name="zacute" unicode="&#x17a;" horiz-adv-x="907" 
d="M635 1485h201l-189 -260h-141zM682 918h-524l26 141h756l-18 -94l-729 -811v-7h598l-27 -147h-811l24 127l705 784v7z" />
    <glyph glyph-name="Zdotaccent" unicode="&#x17b;" horiz-adv-x="1212" 
d="M754 1751h155l-39 -195h-155zM1034 1313h-782l29 151h1015l-26 -139l-1059 -1157v-6h879l-31 -162h-1100l33 172l1042 1135v6z" />
    <glyph glyph-name="zdotaccent" unicode="&#x17c;" horiz-adv-x="907" 
d="M524 1464h162l-39 -204h-162zM682 918h-524l26 141h756l-18 -94l-729 -811v-7h598l-27 -147h-811l24 127l705 784v7z" />
    <glyph glyph-name="Zcaron" unicode="&#x17d;" horiz-adv-x="1212" 
d="M887 1550h-185l-151 217h168l86 -129h4l115 129h180zM1034 1313h-782l29 151h1015l-26 -139l-1059 -1157v-6h879l-31 -162h-1100l33 172l1042 1135v6z" />
    <glyph glyph-name="zcaron" unicode="&#x17e;" horiz-adv-x="907" 
d="M670 1233h-185l-151 217h168l86 -129h4l115 129h180zM682 918h-524l26 141h756l-18 -94l-729 -811v-7h598l-27 -147h-811l24 127l705 784v7z" />
    <glyph glyph-name="florin" unicode="&#x192;" horiz-adv-x="694" 
d="M111 831h182l80 340q37 156 133 212.5t280 35.5l-26 -141q-117 14 -164 -16.5t-66 -112.5l-71 -318h213l-25 -131h-219l-174 -768q-35 -152 -117 -205t-235 -32l26 137q74 -8 110 12.5t52 98.5l172 757h-176z" />
    <glyph glyph-name="AEacute" unicode="&#x1fc;" horiz-adv-x="1904" 
d="M1382 1790h201l-188 -248h-140zM438 596h451l137 709h-203zM860 449h-502l-243 -449h-189l807 1464h1231l-31 -159h-727l-90 -465h664l-31 -154h-664l-98 -518h772l-33 -168h-952z" />
    <glyph glyph-name="aeacute" unicode="&#x1fd;" horiz-adv-x="1679" 
d="M1001 1485h201l-188 -260h-142zM1235 956q-135 0 -222 -95t-122 -247h582q16 149 -43.5 245.5t-194.5 96.5zM362 106q280 0 343 297l26 140q-80 -47 -267 -62q-77 -6 -118 -12t-105 -38.5t-67 -145.5q-2 -78 50 -128.5t138 -50.5zM1239 1085q156 0 301 -112t88 -484h-754
q-2 -16 -2 -19v-40q0 -141 62.5 -231t202.5 -90q104 0 181 57t112 162h159q-61 -180 -183 -268.5t-266 -88.5q-292 0 -380 246h-4q-57 -123 -165.5 -180t-214.5 -57q-185 0 -276.5 82t-91.5 194q0 194 114 265t314 82t252.5 39t68 60.5t15.5 85.5q0 164 -205 164
q-129 2 -201.5 -47t-95.5 -166h-166q29 160 150 252t326 90q111 -2 194.5 -37.5t118.5 -128.5q148 170 346 170z" />
    <glyph glyph-name="Oslashacute" unicode="&#x1fe;" horiz-adv-x="1552" 
d="M971 1790h200l-188 -248h-139zM291 639q0 -176 67 -295l840 868q-131 127 -334 127q-268 0 -420.5 -200.5t-152.5 -499.5zM1339 792q0 199 -73 330l-838 -868q125 -125 338 -125q272 0 386 147.5t150.5 273.5t36.5 242zM1526 823q0 -363 -150.5 -541t-293 -245.5
t-320.5 -67.5q-272 0 -455 160l-157 -164l-80 80l161 168q-129 173 -129 426q0 174 55.5 329.5t156 273.5t242.5 186.5t316 68.5q271 0 447 -160l154 158l77 -80l-155 -160q131 -180 131 -432z" />
    <glyph glyph-name="oslashacute" unicode="&#x1ff;" horiz-adv-x="1097" 
d="M696 1485h201l-188 -260h-142zM618 950q-202 0 -304.5 -152t-102.5 -362q0 -90 27 -155l565 589q-75 80 -185 80zM496 109q176 0 282.5 146.5t106.5 358.5q0 98 -33 179l-569 -594q74 -90 213 -90zM1051 641q0 -150 -38 -266.5t-111 -205.5t-177.5 -143.5t-235.5 -54.5
q-194 0 -313 117l-110 -117l-64 64l119 123q-74 115 -74 260q0 285 156 476t407 191q174 0 297 -106l103 106l63 -63l-106 -111q84 -120 84 -270z" />
    <glyph glyph-name="Scommaaccent" unicode="&#x218;" horiz-adv-x="1232" 
d="M590 -285q-29 -169 -209 -182l16 78q85 19 103 117h-78l35 182h170zM195 496q0 -375 401 -375q168 0 267.5 75.5t99.5 219.5q0 104 -79 158t-230 109q-150 55 -305.5 130.5t-155.5 280.5q0 180 135 289.5t346 109.5q363 0 443.5 -167t86.5 -290h-172q-8 164 -100 237
t-258 73q-215 0 -263.5 -84t-48.5 -142t22 -91.5t70.5 -67.5t184.5 -84q135 -50 221 -86.5t183.5 -110.5t97.5 -244q0 -208 -147.5 -336.5t-401.5 -128.5q-396 0 -486 189.5t-86 335.5h175z" />
    <glyph glyph-name="scommaaccent" unicode="&#x219;" horiz-adv-x="950" 
d="M440 -285q-29 -169 -209 -182l17 78q86 20 102 117h-78l35 182h170zM281 809q0 -67 52 -102.5t156 -77.5q105 -42 232 -97.5t127 -225.5t-119 -253.5t-299 -83.5q-181 0 -307.5 97t-126.5 278h158q8 -240 295 -240q95 0 145.5 31t72 68t21.5 96t-57 96t-155 75
t-223.5 96.5t-125.5 228.5q0 135 100.5 210.5t318 75.5t282.5 -121.5t71 -209.5h-160q-22 204 -245 204q-146 0 -179.5 -53t-33.5 -92z" />
    <glyph glyph-name="uni021A" unicode="&#x21a;" horiz-adv-x="1179" 
d="M518 -285q-29 -169 -209 -182l17 78q86 20 102 117h-78l35 182h170zM215 1464h1112l-31 -159h-467l-251 -1305h-181l252 1305h-465z" />
    <glyph glyph-name="uni021B" unicode="&#x21b;" horiz-adv-x="608" 
d="M313 -285q-29 -169 -209 -182l17 78q86 20 102 117h-78l35 182h170zM397 135q54 0 95 19h6l-29 -144q-45 -16 -115 -16q-123 0 -181 66.5t-32 199.5l129 666h-149l26 133h150l65 334h164l-65 -334h203l-27 -133h-203l-129 -672q-25 -119 92 -119z" />
    <glyph glyph-name="uni0237" unicode="&#x237;" horiz-adv-x="385" 
d="M-116 -166q40 0 70 20.5t42 84.5l217 1120h164l-223 -1147q-22 -119 -92 -166t-151 -47q-82 0 -124 12l25 131h4q28 -8 68 -8z" />
    <glyph glyph-name="circumflex" unicode="&#x2c6;" 
d="M582 1450h184l152 -217h-168l-86 129h-5l-114 -129h-180z" />
    <glyph glyph-name="caron" unicode="&#x2c7;" 
d="M741 1233h-184l-151 217h167l86 -129h5l114 129h180z" />
    <glyph glyph-name="uni02C9" unicode="&#x2c9;" 
d="M414 1411h520l-27 -135h-520z" />
    <glyph glyph-name="breve" unicode="&#x2d8;" 
d="M666 1237q-113 0 -179.5 61.5t-68.5 165.5h121q13 -100 128.5 -100t145.5 100h117q-14 -92 -82.5 -159.5t-181.5 -67.5z" />
    <glyph glyph-name="dotaccent" unicode="&#x2d9;" 
d="M602 1464h162l-39 -204h-162z" />
    <glyph glyph-name="ring" unicode="&#x2da;" horiz-adv-x="1026" 
d="M664 1217q43 0 69.5 29.5t26.5 72.5t-26.5 72.5t-69.5 29.5t-70 -29.5t-27 -72.5t27 -72.5t70 -29.5zM663.5 1145q-36.5 0 -69.5 13t-56.5 37t-38 55.5t-14.5 68.5t14.5 68.5t38 55t56.5 37t69.5 13.5t69.5 -13.5t56.5 -37t38 -55t14.5 -68.5t-14.5 -68.5t-38 -55.5
t-56.5 -37t-69.5 -13z" />
    <glyph glyph-name="ogonek" unicode="&#x2db;" 
d="M296 -352q-68 0 -120.5 39t-52.5 108t50 123.5t120 81.5h139q-153 -93 -153 -180q0 -55 69 -56q28 0 74 13h4l-23 -115q-39 -14 -107 -14z" />
    <glyph glyph-name="tilde" unicode="&#x2dc;" 
d="M778.5 1358q37.5 0 55.5 61h116q-16 -78 -59 -133t-109 -55t-120 22.5t-78.5 32.5t-44.5 10q-48 0 -56 -61h-121q43 188 181 188q59 0 105 -22.5t69.5 -32.5t61 -10z" />
    <glyph glyph-name="hungarumlaut" unicode="&#x2dd;" 
d="M496 1485h166l-127 -260h-123zM758 1485h166l-127 -260h-123z" />
    <glyph glyph-name="uni0394" unicode="&#x394;" horiz-adv-x="1306" 
d="M143 150h867l-199 946q-21 109 -29 207h-4q-23 -54 -56.5 -115.5t-49.5 -91.5zM-33 164l740 1300h202l285 -1302l-29 -162h-1228z" />
    <glyph glyph-name="uni03A9" unicode="&#x3a9;" horiz-adv-x="1490" 
d="M317 158q-215 152 -215 466q0 158 50.5 316t146.5 280.5t237.5 198.5t297.5 77q292 2 458 -161t166 -454q0 -222 -102 -426t-299 -297v-4h276l-28 -154h-580l29 154q252 22 385 234.5t133 488.5q0 215 -107.5 338.5t-310.5 123.5q-147 0 -253.5 -64.5t-209 -214
t-102.5 -446.5q0 -178 73.5 -302t227.5 -154l-29 -158h-563l29 154h290v4z" />
    <glyph glyph-name="uni03BC" unicode="&#x3bc;" horiz-adv-x="1050" 
d="M349 -25q-122 0 -165 80h-4l-78 -395h-163l272 1399h162l-142 -725q-47 -221 150 -221q135 0 239.5 101.5t135.5 252.5l114 592h164l-205 -1059h-163l26 147h-4q-66 -78 -141.5 -125t-197.5 -47z" />
    <glyph glyph-name="pi" unicode="&#x3c0;" horiz-adv-x="1218" 
d="M932 246q-20 -111 72 -111q48 0 81 17h7l-29 -144q-58 -14 -98 -14q-117 0 -170.5 63.5t-26.5 194.5l131 674h-455l-178 -926h-164l179 926h-160l26 133h1113l-27 -133h-170z" />
    <glyph glyph-name="Wgrave" unicode="&#x1e80;" horiz-adv-x="1814" 
d="M874 1790h195l86 -248h-139zM193 1464h184l59 -952q4 -37 5.5 -98t7.5 -150h4q61 153 104 252l420 948h197l90 -948q4 -37 6 -81t4 -86t4 -85h4q16 45 34 87t34 84t30 77l404 952h184l-647 -1464h-174l-90 1032q-4 33 -6 73t-4 77t-3 78h-4q-14 -39 -29 -76t-30.5 -77
t-32.5 -75l-459 -1032h-180z" />
    <glyph glyph-name="wgrave" unicode="&#x1e81;" horiz-adv-x="1449" 
d="M614 1485h195l86 -260h-137zM350 176h4q38 117 86 230l289 653h170l57 -653q7 -58 7 -148v-82h4q52 140 96 236l305 647h172l-520 -1059h-168l-59 633q-4 33 -5.5 74t-3.5 79t-2 80h-4q-23 -69 -92 -233l-280 -633h-170l-130 1059h173l61 -641q4 -35 5 -77t3 -82t2 -83z
" />
    <glyph glyph-name="Wacute" unicode="&#x1e82;" horiz-adv-x="1814" 
d="M1153 1790h201l-189 -248h-139zM193 1464h184l59 -952q4 -37 5.5 -98t7.5 -150h4q61 153 104 252l420 948h197l90 -948q4 -37 6 -81t4 -86t4 -85h4q16 45 34 87t34 84t30 77l404 952h184l-647 -1464h-174l-90 1032q-4 33 -6 73t-4 77t-3 78h-4q-14 -39 -29 -76t-30.5 -77
t-32.5 -75l-459 -1032h-180z" />
    <glyph glyph-name="wacute" unicode="&#x1e83;" horiz-adv-x="1449" 
d="M903 1485h201l-189 -260h-141zM350 176h4q38 117 86 230l289 653h170l57 -653q7 -58 7 -148v-82h4q52 140 96 236l305 647h172l-520 -1059h-168l-59 633q-4 33 -5.5 74t-3.5 79t-2 80h-4q-23 -69 -92 -233l-280 -633h-170l-130 1059h173l61 -641q4 -35 5 -77t3 -82t2 -83
z" />
    <glyph glyph-name="Wdieresis" unicode="&#x1e84;" horiz-adv-x="1814" 
d="M883 1751h157l-39 -195h-157zM1212 1751h158l-39 -195h-157zM193 1464h184l59 -952q4 -37 5.5 -98t7.5 -150h4q61 153 104 252l420 948h197l90 -948q4 -37 6 -81t4 -86t4 -85h4q16 45 34 87t34 84t30 77l404 952h184l-647 -1464h-174l-90 1032q-4 33 -6 73t-4 77t-3 78
h-4q-14 -39 -29 -76t-30.5 -77t-32.5 -75l-459 -1032h-180z" />
    <glyph glyph-name="wdieresis" unicode="&#x1e85;" horiz-adv-x="1449" 
d="M631 1454h157l-38 -194h-158zM961 1454h157l-39 -194h-157zM350 176h4q38 117 86 230l289 653h170l57 -653q7 -58 7 -148v-82h4q52 140 96 236l305 647h172l-520 -1059h-168l-59 633q-4 33 -5.5 74t-3.5 79t-2 80h-4q-23 -69 -92 -233l-280 -633h-170l-130 1059h173
l61 -641q4 -35 5 -77t3 -82t2 -83z" />
    <glyph glyph-name="Ygrave" unicode="&#x1ef2;" horiz-adv-x="1187" 
d="M555 1790h195l86 -248h-140zM526 621l-360 843h194l283 -694h4l518 694h203l-663 -858l-117 -606h-180z" />
    <glyph glyph-name="ygrave" unicode="&#x1ef3;" horiz-adv-x="935" 
d="M373 1485h194l86 -260h-137zM88 -205q56 0 96.5 22.5t71.5 82.5l70 133l-226 1026h168l135 -656q6 -35 17 -94.5t14 -111.5h4q12 31 28 63t32 68.5t34 72.5l326 658h170l-618 -1190q-66 -125 -144 -172t-170 -47t-147 24l28 144h9q46 -23 102 -23z" />
    <glyph glyph-name="uni2009" unicode="&#x2009;" horiz-adv-x="112" 
 />
    <glyph glyph-name="endash" unicode="&#x2013;" horiz-adv-x="1024" 
d="M109 592h829l-29 -139h-829z" />
    <glyph glyph-name="emdash" unicode="&#x2014;" horiz-adv-x="2048" 
d="M217 592h1638l-28 -139h-1639z" />
    <glyph glyph-name="quoteleft" unicode="&#x2018;" horiz-adv-x="339" 
d="M225 1266q32 184 209 202l-14 -77q-35 -10 -64.5 -39t-42.5 -109h80l-39 -205h-172z" />
    <glyph glyph-name="quoteright" unicode="&#x2019;" horiz-adv-x="339" 
d="M393 1237q-33 -185 -209 -203l15 78q35 10 64.5 39t41.5 109h-80l39 204h172z" />
    <glyph glyph-name="quotesinglbase" unicode="&#x201a;" horiz-adv-x="339" 
d="M150 -23q-32 -184 -209 -202l14 78q35 10 64.5 38.5t41.5 108.5h-79l38 205h173z" />
    <glyph glyph-name="quotedblleft" unicode="&#x201c;" horiz-adv-x="645" 
d="M225 1266q32 184 209 202l-14 -77q-35 -10 -64.5 -39t-42.5 -109h80l-39 -205h-172zM530 1266q32 184 209 202l-14 -77q-35 -10 -64.5 -39t-42.5 -109h80l-39 -205h-172z" />
    <glyph glyph-name="quotedblright" unicode="&#x201d;" horiz-adv-x="645" 
d="M698 1237q-33 -185 -209 -203l15 78q35 10 64.5 39t41.5 109h-80l39 204h172zM393 1237q-33 -185 -209 -203l15 78q35 10 64.5 39t41.5 109h-80l39 204h172z" />
    <glyph glyph-name="quotedblbase" unicode="&#x201e;" horiz-adv-x="645" 
d="M455 -23q-32 -184 -209 -202l14 78q35 10 64.5 38.5t42.5 108.5h-80l39 205h172zM150 -23q-32 -184 -209 -202l14 78q35 10 64.5 38.5t41.5 108.5h-79l38 205h173z" />
    <glyph glyph-name="dagger" unicode="&#x2020;" horiz-adv-x="1099" 
d="M174 1083h399l74 381h166l-74 -381h400l-29 -147h-399l-224 -1149h-165l223 1149h-400z" />
    <glyph glyph-name="daggerdbl" unicode="&#x2021;" horiz-adv-x="1099" 
d="M174 1083h399l74 381h166l-74 -381h400l-29 -147h-399l-119 -621h399l-30 -147h-400l-74 -381h-165l73 381h-399l31 147h399l119 621h-400z" />
    <glyph glyph-name="bullet" unicode="&#x2022;" horiz-adv-x="614" 
d="M335 424q-98 0 -170.5 71t-72.5 171.5t72.5 171.5t170.5 71t170.5 -71t72.5 -171.5t-72.5 -171.5t-170.5 -71z" />
    <glyph glyph-name="ellipsis" unicode="&#x2026;" horiz-adv-x="1239" 
d="M459 203h194l-39 -203h-194zM25 203h196l-39 -203h-196zM891 203h196l-38 -203h-197z" />
    <glyph glyph-name="perthousand" unicode="&#x2030;" horiz-adv-x="2326" 
d="M1739 283q0 -193 143 -193q114 0 165.5 115.5t51.5 228.5t-29.5 169t-99.5 56q-118 0 -174.5 -119t-56.5 -257zM1880 -31q-135 0 -213 83t-78 252t102.5 322.5t296.5 153.5q112 0 186.5 -81t74.5 -254t-98 -324.5t-271 -151.5zM1010 283q0 -193 143 -193q112 0 164.5 115
t52.5 229t-29 169.5t-99 55.5q-119 0 -175.5 -119.5t-56.5 -256.5zM1151 -31q-135 0 -213 83t-78 251t101 322.5t297 154.5q112 0 187 -81t75 -254t-98 -324.5t-271 -151.5zM289 938q0 -193 143 -193q114 0 165.5 116t51.5 229q0 112 -29.5 168.5t-99.5 56.5
q-117 0 -174 -119.5t-57 -257.5zM1286 1403h137l-1044 -1403h-137zM430 625q-135 0 -213 83t-78 251t102.5 322.5t296.5 154.5q112 0 186.5 -81t74.5 -254t-97.5 -324.5t-271.5 -151.5z" />
    <glyph glyph-name="uni2032" unicode="&#x2032;" horiz-adv-x="317" 
d="M303 1464h152l-166 -438h-150z" />
    <glyph glyph-name="uni2033" unicode="&#x2033;" horiz-adv-x="598" 
d="M303 1464h152l-166 -438h-150zM584 1464h151l-166 -438h-151z" />
    <glyph glyph-name="guilsinglleft" unicode="&#x2039;" horiz-adv-x="495" 
d="M90 477l35 178l338 226l-33 -168l-242 -154v-4l179 -168l-29 -156z" />
    <glyph glyph-name="guilsinglright" unicode="&#x203a;" horiz-adv-x="495" 
d="M414 635l-35 -178l-338 -226l33 168l241 154v4l-178 168l29 156z" />
    <glyph glyph-name="fraction" unicode="&#x2044;" horiz-adv-x="339" 
d="M713 1464h147l-1153 -1464h-149z" />
    <glyph glyph-name="zero.superior" unicode="&#x2070;" horiz-adv-x="796" 
d="M336 787q39 -64 115 -64t159.5 77t83.5 353q0 140 -55 176.5t-109 36.5t-100.5 -40t-89.5 -133t-43 -217q0 -125 39 -189zM432 602q-120 0 -202.5 91t-82.5 245q0 220 105.5 382.5t298.5 162.5q141 0 218 -93.5t77 -242.5q0 -222 -72 -336.5t-147 -161.5t-195 -47z" />
    <glyph glyph-name="four.superior" unicode="&#x2074;" horiz-adv-x="780" 
d="M258 926h285l67 352h-4l-348 -348v-4zM520 815h-407l28 143l508 517h137l-104 -549h131l-22 -111h-132l-36 -192h-140z" />
    <glyph glyph-name="five.superior" unicode="&#x2075;" horiz-adv-x="733" 
d="M608 908q0 168 -164 169q-86 0 -149 -69h-129l135 456h481l-22 -121h-367l-61 -208h4q63 59 172 59t179.5 -72.5t70.5 -208.5t-96 -222.5t-230 -86.5t-226.5 71t-96.5 191h143q4 -59 51 -101t125 -42t129 51.5t51 133.5z" />
    <glyph glyph-name="six.superior" unicode="&#x2076;" horiz-adv-x="749" 
d="M287 887q0 -82 43.5 -127t121.5 -45t128.5 56.5t50.5 136.5q0 168 -150 167q-86 0 -140 -53t-54 -135zM315 1102q83 88 197 88t186 -73.5t72 -201.5q0 -129 -92 -221t-236 -92q-63 0 -129.5 27t-103.5 77q-66 90 -66 195t23.5 203t73 182t128 139.5t186.5 55.5
t178.5 -53.5t80.5 -170.5h-139q-4 45 -33 77t-90 32q-100 0 -156.5 -77t-83.5 -187h4z" />
    <glyph glyph-name="seven.superior" unicode="&#x2077;" horiz-adv-x="712" 
d="M662 1337h-455l24 127h600l-22 -121q-237 -199 -323.5 -401.5t-108.5 -318.5h-154q42 207 168.5 399.5t270.5 312.5v2z" />
    <glyph glyph-name="eight.superior" unicode="&#x2078;" horiz-adv-x="780" 
d="M367 1238q0 -64 43 -89t85 -25q81 0 130 31.5t49 94.5q0 64 -45 94t-105 30t-108.5 -36t-48.5 -100zM274 863q0 -81 55 -113.5t111 -32.5q97 0 154 40t57 120t-51 114.5t-128 34.5t-137.5 -41t-60.5 -122zM815 1266q0 -137 -145 -191v-4q55 -23 92 -73t37 -116
q0 -130 -100 -204t-248 -74q-222 0 -274 90t-52 150q0 177 199 241v5q-98 51 -98 159t93.5 171t248.5 63t201 -80t46 -137z" />
    <glyph glyph-name="nine.superior" unicode="&#x2079;" horiz-adv-x="753" 
d="M307 1177q0 -161 160 -161q80 0 133 49t53 131t-44.5 127t-122.5 45t-128.5 -55.5t-50.5 -135.5zM268 831q8 -112 146 -112q72 0 125 55q52 55 88 209h-4q-82 -86 -193 -86t-186.5 70t-75.5 201t92 223t236 92q63 0 129.5 -26.5t103.5 -76.5q66 -90 66 -225
q0 -134 -57 -309.5t-165 -208.5t-197 -33t-165 54.5t-86 172.5h143z" />
    <glyph glyph-name="zero.inferior" unicode="&#x2080;" horiz-adv-x="796" 
d="M155.5 -142q38.5 -65 115.5 -65q76 0 159.5 77t83.5 353q0 141 -55.5 177t-109.5 36t-100 -40t-89 -131t-43 -217q0 -125 38.5 -190zM252 -328q-120 0 -202.5 91.5t-82.5 244.5q0 222 106 383.5t298 161.5q141 0 218 -93t77 -243q0 -220 -101.5 -382.5t-312.5 -162.5z
" />
    <glyph glyph-name="one.inferior" unicode="&#x2081;" horiz-adv-x="512" 
d="M199 285h-199l18 100q104 4 165 41t87 115h123l-164 -848h-145z" />
    <glyph glyph-name="two.inferior" unicode="&#x2082;" horiz-adv-x="702" 
d="M449 320q0 50 -36 81t-99 31t-112.5 -47t-64.5 -143h-139q23 154 114 232.5t210 77.5t196.5 -58.5t77.5 -180.5q0 -149 -108.5 -214.5t-184.5 -102.5t-143.5 -78t-89.5 -104h440l-23 -121h-610q41 212 172 291t189 108t94.5 50.5t62 45t40 53t14.5 79.5z" />
    <glyph glyph-name="three.inferior" unicode="&#x2083;" horiz-adv-x="739" 
d="M453 318q-1 126 -139 126q-68 0 -117.5 -45t-65.5 -125h-139q23 135 114 207t210 72t198.5 -54.5t79.5 -146.5q0 -164 -158 -217v-4q63 -16 100 -64.5t37 -144t-93.5 -172t-231.5 -76.5q-139 0 -229.5 77t-94.5 224h137q0 -74 49.5 -130t136.5 -56t132 40t47 110
t-41 106.5t-123 36.5h-43l21 113h57q63 -4 109.5 27.5t46.5 95.5z" />
    <glyph glyph-name="four.inferior" unicode="&#x2084;" horiz-adv-x="780" 
d="M78 -4h284l68 352h-4l-348 -348v-4zM340 -115h-408l29 144l508 516h137l-104 -549h131l-23 -111h-131l-37 -192h-139z" />
    <glyph glyph-name="five.inferior" unicode="&#x2085;" horiz-adv-x="733" 
d="M262 147q-88 0 -147 -69h-129l135 457h481l-22 -121h-367l-61 -209h4q63 59 172 59t179.5 -72.5t70.5 -207.5t-95.5 -222.5t-230.5 -87.5t-227.5 71.5t-96.5 191.5h144q4 -59 51 -101.5t125 -42.5t129 52.5t51 133.5t-39 124.5t-127 43.5z" />
    <glyph glyph-name="six.inferior" unicode="&#x2086;" horiz-adv-x="749" 
d="M451 -22q0 167 -156 167q-80 0 -134.5 -53t-54.5 -135t44 -127t122 -45t128.5 56.5t50.5 136.5zM135 172q83 88 196 88q112 0 185.5 -72t73.5 -202t-92 -222t-236 -92q-63 0 -129.5 27t-103.5 77q-66 89 -66 195q0 105 23.5 203t73 182t128 139.5t186.5 55.5t178.5 -53.5
t80.5 -169.5h-139q-4 45 -33 76.5t-90 31.5q-100 0 -156.5 -76.5t-83.5 -187.5h4z" />
    <glyph glyph-name="seven.inferior" unicode="&#x2087;" horiz-adv-x="712" 
d="M481 408h-454l24 127h600l-22 -121q-236 -198 -323 -401t-109 -320h-154q42 206 166 395.5t272 317.5v2z" />
    <glyph glyph-name="eight.inferior" unicode="&#x2088;" horiz-adv-x="780" 
d="M186 308q0 -112 144 -113q107 0 135.5 47t28.5 95t-45.5 77.5t-105.5 29.5t-108.5 -36t-48.5 -100zM94 -67q0 -81 55 -113.5t111 -32.5q97 0 154 40t57 120t-51 114.5t-128 34.5t-137.5 -41t-60.5 -122zM635 336q0 -137 -146 -191v-4q55 -23 92 -73t37 -116
q0 -131 -99.5 -204.5t-248.5 -73.5q-220 0 -272.5 90.5t-52.5 149.5q0 175 198 242v4q-98 51 -98 159t93.5 171t249 63t201.5 -80t46 -137z" />
    <glyph glyph-name="nine.inferior" unicode="&#x2089;" horiz-adv-x="753" 
d="M127 248q0 -162 160 -162q80 0 133 49t53 131t-44 127t-123 45t-129 -55t-50 -135zM88 -98q8 -113 146 -113q72 0 126 56q53 56 86 208h-4q-82 -86 -193 -86q-112 0 -186.5 71t-74.5 201t92 222t235 92q63 0 130 -26.5t104 -76.5q65 -89 65 -214q0 -247 -85 -380.5
t-164.5 -157.5t-168.5 -24t-165 54.5t-86 173.5h143z" />
    <glyph glyph-name="Euro" unicode="&#x20ac;" horiz-adv-x="1230" 
d="M346 518q0 -399 313 -399q260 0 371 346h160q-53 -233 -199 -364.5t-342 -131.5q-232 0 -354.5 152.5t-122.5 396.5h-129l20 111h115q12 103 21 141h-107l21 111h116q121 377 307.5 466t307.5 89q193 0 303 -106.5t110 -311.5h-170q-2 119 -60 195.5t-205 76.5
t-254.5 -112t-168.5 -297h420l-20 -111h-426q-16 -76 -23 -141h422l-20 -111h-406z" />
    <glyph glyph-name="afii61289" unicode="&#x2113;" horiz-adv-x="679" 
d="M612 1253q0 47 -15 74t-56 27t-65.5 -30t-39.5 -97l-114 -582q179 141 234.5 310t55.5 298zM250 204.5q0 -73.5 106 -73.5q57 0 93 13.5t67 27.5h6l-26 -141q-66 -37 -160 -37q-141 0 -205.5 83t-34.5 245l19 96q-54 -19 -115 -27l25 121q70 18 114 35l135 690
q23 119 93.5 181.5t174.5 62.5q210 0 210 -226q0 -252 -130 -450t-329 -309l-35 -181q-8 -37 -8 -110.5z" />
    <glyph glyph-name="trademark" unicode="&#x2122;" horiz-adv-x="1288" 
d="M233 1464h478l-19 -96h-182l-94 -489h-113l94 489h-182zM885 1331h-4l-86 -452h-103l113 585h160l39 -446h2l213 446h163l-112 -585h-105l86 452h-4q-30 -81 -76 -170l-139 -282h-106l-29 282q-4 27 -6 57.5t-4 57.5t-2 55z" />
    <glyph glyph-name="Omega" unicode="&#x2126;" horiz-adv-x="1490" 
d="M317 158q-215 152 -215 466q0 158 50.5 316t146.5 280.5t237.5 198.5t297.5 77q292 2 458 -161t166 -454q0 -222 -102 -426t-299 -297v-4h276l-28 -154h-580l29 154q252 22 385 234.5t133 488.5q0 215 -107.5 338.5t-310.5 123.5q-147 0 -253.5 -64.5t-209 -214
t-102.5 -446.5q0 -178 73.5 -302t227.5 -154l-29 -158h-563l29 154h290v4z" />
    <glyph glyph-name="estimated" unicode="&#x212e;" horiz-adv-x="1271" 
d="M668 1192q-201 0 -320 -127v-358h621v385q-100 100 -301 100zM690 -23q-287 0 -448.5 181.5t-161.5 472.5t168.5 472t431.5 181q214 0 354 -121q113 -96 156 -232t41 -315h-883v-415q121 -125 342 -125q180 0 279.5 81t148.5 224h105q-42 -183 -178 -293.5t-355 -110.5z
" />
    <glyph glyph-name="onethird" unicode="&#x2153;" horiz-adv-x="1685" 
d="M1452 624q0 128 -138 128q-68 0 -117.5 -45t-66.5 -125h-139q23 135 114 206.5t220 71.5q180 0 224 -80t44 -146t-45 -117.5t-112 -74.5v-4q63 -16 100 -64t37 -144t-92.5 -172t-232.5 -76t-230 76.5t-94 224.5h137q0 -76 50 -131.5t136 -55.5t131 40t47 110t-41 106.5
t-122 36.5h-43l20 113h57q63 -4 109.5 27t46.5 95zM1280 1464h147l-1153 -1464h-149zM385 1214h-199l19 101q104 4 164.5 41t87.5 114h123l-164 -847h-146z" />
    <glyph glyph-name="twothirds" unicode="&#x2154;" horiz-adv-x="1785" 
d="M1552 624q0 128 -138 128q-69 0 -118 -45t-65 -125h-139q23 135 113.5 206.5t219.5 71.5q181 0 225 -80t44 -146t-45 -117.5t-113 -74.5v-4q63 -16 100 -64t37 -144t-92.5 -172t-232.5 -76q-139 0 -229.5 76.5t-94.5 224.5h137q0 -75 49.5 -131t136.5 -56t132 40t47 110
t-41 106.5t-123 36.5h-43l20 113h58q63 -4 109 27t46 95zM1448 1464h147l-1153 -1464h-149zM635 1250q0 50 -36.5 81t-98.5 31t-112 -47t-64 -144h-140q23 154 114 233t220 77q179 0 221.5 -86.5t42.5 -146.5q0 -107 -65.5 -175.5t-224.5 -144.5q-78 -39 -145.5 -80
t-90.5 -105h440l-22 -120h-611q41 211 172.5 290.5t188.5 108.5t94 50.5t62.5 45t40 53t14.5 79.5z" />
    <glyph glyph-name="oneeighth" unicode="&#x215b;" horiz-adv-x="1679" 
d="M1139 614q0 -112 143 -112q107 0 135.5 47t28.5 95t-45 78t-105 30t-108.5 -37t-48.5 -101zM1047 240q0 -81 54.5 -113.5t110.5 -32.5q95 0 153 40t58 120t-51 114.5t-128 34.5t-137 -41t-60 -122zM1587 643q0 -138 -145 -190v-4q55 -23 92 -73t37 -116
q0 -131 -99.5 -204.5t-248.5 -73.5q-222 0 -274 90t-52 149q0 175 199 242v4q-98 51 -98 159t93.5 171t248.5 63t201 -80t46 -137zM1272 1464h147l-1153 -1464h-149zM385 1214h-199l19 101q104 4 164.5 41t87.5 114h123l-164 -847h-146z" />
    <glyph glyph-name="threeeighths" unicode="&#x215c;" horiz-adv-x="1796" 
d="M1255 614q0 -112 144 -112q107 0 135.5 47t28.5 95t-45.5 78t-105.5 30t-108.5 -37t-48.5 -101zM1163 240q0 -81 55.5 -113.5t111.5 -32.5q96 0 153 40.5t57 120.5q0 79 -51 113.5t-128 34.5t-137.5 -41t-60.5 -122zM1704 643q0 -138 -145 -190v-4q55 -23 92 -73t37 -116
q0 -130 -99 -204t-250 -74q-221 0 -273 90t-52 149q0 175 198 242v4q-98 51 -98 159t93.5 171t249 63t201.5 -80t46 -137zM1419 1464h148l-1153 -1464h-150zM639 1247q-1 127 -139 127q-68 0 -117 -45t-66 -125h-139q23 135 114 207t211 72t198.5 -54.5t78.5 -146.5
t-45 -143.5t-112 -73.5v-4q63 -16 100 -64.5t37 -144t-93.5 -172t-232.5 -76.5t-229 77t-94 224h137q0 -75 49 -130.5t136 -55.5t132 39.5t47 109.5t-41 107t-122 37h-43l20 112h57q63 -4 109.5 28t46.5 95z" />
    <glyph glyph-name="fiveeighths" unicode="&#x215d;" horiz-adv-x="1773" 
d="M1233 614q0 -112 143 -112q107 0 135.5 47t28.5 95t-45 78t-105 30t-108.5 -37t-48.5 -101zM1141 240q0 -81 54.5 -113.5t110.5 -32.5q97 0 154.5 40.5t57.5 120.5q0 79 -51.5 113.5t-128.5 34.5t-137 -41t-60 -122zM1681 643q0 -139 -145 -190v-4q55 -23 92 -73t37 -116
q0 -131 -98.5 -204.5t-249.5 -73.5q-222 0 -274 90t-52 149q0 175 199 242v4q-98 51 -98 159t93.5 171t248.5 63t201 -80t46 -137zM1419 1464h148l-1153 -1464h-150zM450 1077q-87 0 -149 -69h-129l135 456h481l-22 -121h-367l-61 -208h4q63 59 172 59t179.5 -72.5
t70.5 -208.5t-95 -222.5t-230 -86.5t-227.5 71t-96.5 191h143q4 -59 51 -101t125 -42t129 51.5t51 133.5t-38.5 125.5t-125.5 43.5z" />
    <glyph glyph-name="seveneighths" unicode="&#x215e;" horiz-adv-x="1644" 
d="M1104 614q0 -112 143 -112q107 0 135.5 47t28.5 95t-45 78t-105 30t-108.5 -37t-48.5 -101zM1012 240q0 -81 55 -113.5t111 -32.5q95 0 153 40.5t58 119.5q0 80 -51.5 114.5t-128.5 34.5t-137 -41t-60 -122zM1552 643q0 -139 -145 -190v-4q55 -23 92 -73t37 -116
q0 -131 -99.5 -204.5t-248.5 -73.5q-222 0 -274 90t-52 149q0 175 199 242v4q-98 51 -98 159t93.5 171t248.5 63t201 -80t46 -137zM1251 1464h148l-1153 -1464h-150zM668 1337h-455l25 127h600l-23 -121q-236 -197 -322.5 -400.5t-109.5 -319.5h-154q42 207 168.5 399.5
t270.5 312.5v2z" />
    <glyph glyph-name="partialdiff" unicode="&#x2202;" horiz-adv-x="1124" 
d="M524 109q141 0 234.5 125t93.5 265t-75 222t-209 82t-224 -109.5t-90 -287.5q0 -207 100 -252t170 -45zM1028 618q0 -281 -131.5 -464t-378.5 -183q-201 0 -317.5 122.5t-116.5 332.5t133.5 362t351.5 152q78 0 152 -32t121 -95q-29 233 -163 356t-364 162v148
q571 -69 642 -392t71 -469z" />
    <glyph glyph-name="Delta" unicode="&#x2206;" horiz-adv-x="1306" 
d="M143 150h867l-199 946q-21 109 -29 207h-4q-23 -54 -56.5 -115.5t-49.5 -91.5zM-33 164l740 1300h202l285 -1302l-29 -162h-1228z" />
    <glyph glyph-name="product" unicode="&#x220f;" horiz-adv-x="1439" 
d="M1335 1464v-1669h-184v1508h-780v-1508h-185v1669h1149z" />
    <glyph glyph-name="summation" unicode="&#x2211;" horiz-adv-x="1261" 
d="M129 -205v187l578 663v4l-578 639v176h1081v-161h-866v-5l559 -604v-82l-573 -643v-4h901v-170h-1102z" />
    <glyph glyph-name="minus" unicode="&#x2212;" horiz-adv-x="1128" 
d="M145 733h916l-25 -129h-915z" />
    <glyph glyph-name="uni2215" unicode="&#x2215;" horiz-adv-x="339" 
d="M713 1464h147l-1153 -1464h-149z" />
    <glyph glyph-name="uni2219" unicode="&#x2219;" horiz-adv-x="372" 
d="M135 741h197l-39 -202h-197z" />
    <glyph glyph-name="radical" unicode="&#x221a;" horiz-adv-x="1144" 
d="M66 641h266l162 -422q12 -35 27.5 -77t28.5 -84t28 -87h4q12 43 29 105t42 143l377 1245h172l-524 -1669h-189l-272 694h-151v152z" />
    <glyph glyph-name="infinity" unicode="&#x221e;" horiz-adv-x="1464" 
d="M1235 624q0 87 -38 147t-132 60t-150.5 -83.5t-80.5 -124.5q63 -104 117.5 -155.5t130.5 -51.5q77 0 115 60.5t38 147.5zM238 624q0 -87 36.5 -147.5t122.5 -60.5q131 0 252 207q-61 100 -118 154t-138 54q-82 0 -118.5 -60t-36.5 -147zM385 268q-146 0 -227.5 102.5
t-81.5 252.5t81 253t228 103q209 0 356 -240q73 116 156 178t188 62q144 0 228 -99t84 -256t-84 -256.5t-228 -99.5q-192 0 -344 240q-152 -240 -356 -240z" />
    <glyph glyph-name="integral" unicode="&#x222b;" horiz-adv-x="690" 
d="M117 -213q139 0 139 143v1307q0 142 75.5 211.5t181.5 69.5q107 0 169 -19v-147h-6q-48 18 -115 18q-139 0 -139 -143v-1307q0 -142 -75 -211t-182 -69t-169 20v147h6q53 -20 115 -20z" />
    <glyph glyph-name="approxequal" unicode="&#x2248;" horiz-adv-x="1128" 
d="M285 449q-92 0 -101 -101h-131q14 117 76.5 176.5t142.5 59.5q102 0 288 -42t232 -42t73.5 26.5t31.5 73.5h131q-30 -235 -235 -235q-86 0 -214 28.5t-189.5 42t-104.5 13.5zM844 690q-82 0 -212 29t-191.5 42t-104.5 13q-88 0 -103 -100h-131q16 117 79 176t143 59
t150.5 -13t139 -28.5t128 -29t103.5 -13.5t71.5 27t31.5 74h131q-30 -236 -235 -236z" />
    <glyph glyph-name="notequal" unicode="&#x2260;" horiz-adv-x="1128" 
d="M176 887h494l118 196h138l-119 -196h285l-27 -129h-336l-139 -232h432l-27 -129h-483l-135 -225h-137l135 225h-295l26 129h347l139 232h-442z" />
    <glyph glyph-name="lessequal" unicode="&#x2264;" horiz-adv-x="1030" 
d="M106 563l33 170l889 344l-31 -159l-745 -275v-4l637 -279l-29 -141zM23 129h821l-25 -129h-821z" />
    <glyph glyph-name="greaterequal" unicode="&#x2265;" horiz-adv-x="1030" 
d="M969 733l-33 -170l-889 -344l31 160l745 274v4l-637 279l29 141zM827 0h-821l25 129h821z" />
    <glyph glyph-name="uni24C5" unicode="&#x24c5;" horiz-adv-x="1636" 
d="M913 752q154 0 154 139q0 66 -39 101.5t-110 35.5h-199v-276h194zM571 1153h363q141 0 211 -75q69 -76 69 -190t-71.5 -183.5t-206.5 -69.5h-217v-326h-148v844zM856 45q141 0 261 51t207 142.5t137 216.5t50 272t-50 272t-137 217.5t-207 143.5t-261 51t-261 -51
t-207 -143.5t-137 -217.5t-50 -272t50 -272t137 -216.5t207 -142.5t261 -51zM856 -35q-158 0 -295 57.5t-238.5 159t-159 241.5t-57.5 304t57.5 304t159 242.5t238.5 160t295 57.5t295 -57.5t238.5 -160t159 -242.5t57.5 -304t-57.5 -304t-159 -241.5t-238.5 -159
t-295 -57.5z" />
    <glyph glyph-name="lozenge" unicode="&#x25ca;" horiz-adv-x="1118" 
d="M276 737l314 -575h4l307 563l-311 578h-4zM1096 731l-412 -731h-186l-414 733l412 731h186z" />
    <glyph glyph-name="f_i" unicode="&#xf001;" horiz-adv-x="958" 
d="M864 1464h164l-39 -204h-164zM786 1059h164l-205 -1059h-163zM629 1477q56 0 90 -4l-27 -140q-23 2 -26 2h-37q-80 0 -107.5 -29.5t-38.5 -84.5l-30 -162h194l-26 -133h-195l-178 -926h-162l178 926h-143l26 133h144l33 170q27 135 98.5 191.5t206.5 56.5z" />
    <glyph glyph-name="f_l" unicode="&#xf002;" horiz-adv-x="970" 
d="M870 1464h164l-282 -1464h-164zM629 1477q56 0 90 -4l-27 -140q-23 2 -26 2h-37q-80 0 -107.5 -29.5t-38.5 -84.5l-30 -162h194l-26 -133h-195l-178 -926h-162l178 926h-143l26 133h144l33 170q27 135 98.5 191.5t206.5 56.5z" />
    <glyph glyph-name="uniF8FF" unicode="&#xf8ff;" horiz-adv-x="1732" 
d="M403 588h345v-346h294v346h344v295h-344v334h-294v-334h-345v-295zM162 1466h1466v-1466h-1466v1466z" />
    <glyph glyph-name="dotlessj" horiz-adv-x="385" 
d="M-116 -166q40 0 70 20.5t42 84.5l217 1120h164l-223 -1147q-22 -119 -92 -166t-151 -47q-82 0 -124 12l25 131h4q28 -8 68 -8z" />
    <glyph glyph-name="commaaccent" 
d="M377 -285q-29 -169 -209 -182l16 78q85 19 103 117h-78l35 182h170z" />
    <glyph glyph-name="zero.denominator" horiz-adv-x="796" 
d="M329 100q131 0 187.5 130t56.5 286t-55 191.5t-109 35.5t-100.5 -39.5t-89.5 -132.5t-43 -216q0 -255 153 -255zM27 315q0 222 105 383.5t298 161.5q141 0 218 -93t77 -243q0 -222 -100.5 -383t-312.5 -161q-120 0 -202.5 91t-82.5 244z" />
    <glyph glyph-name="one.denominator" horiz-adv-x="512" 
d="M258 592h-199l19 100q104 4 164.5 41t87.5 115h123l-164 -848h-146z" />
    <glyph glyph-name="two.denominator" horiz-adv-x="702" 
d="M508 628q0 50 -36 80.5t-98 30.5t-112.5 -47t-64.5 -143h-140q23 154 114 232.5t220 76.5q179 0 221.5 -87t42.5 -146q0 -108 -66.5 -176.5t-223.5 -143.5q-78 -39 -145.5 -80t-90.5 -104h440l-22 -121h-610q30 152 120.5 238t225.5 155t165.5 97t45 58t14.5 80z" />
    <glyph glyph-name="three.denominator" horiz-adv-x="739" 
d="M512 624q0 128 -138 128q-68 0 -117.5 -45t-66.5 -125h-139q23 135 114 206.5t220 71.5q180 0 224 -80t44 -146t-45 -117.5t-112 -74.5v-4q63 -16 100 -64t37 -144t-92.5 -172t-232.5 -76t-230 76.5t-94 224.5h137q0 -76 50 -131.5t136 -55.5t131 40t47 110t-41 106.5
t-122 36.5h-43l20 113h57q63 -4 109.5 27t46.5 95z" />
    <glyph glyph-name="four.denominator" horiz-adv-x="780" 
d="M137 303h285l67 352h-4l-348 -348v-4zM399 193h-407l28 143l508 516h138l-105 -549h131l-22 -110h-131l-37 -193h-140z" />
    <glyph glyph-name="five.denominator" horiz-adv-x="733" 
d="M487 286q0 169 -164 169q-87 0 -149 -70h-129l135 457h482l-23 -121h-367l-61 -209h4q63 59 172 59t179.5 -72.5t70.5 -207.5t-95 -222t-231 -87t-227.5 70.5t-95.5 191.5h143q4 -59 51 -101.5t125 -42.5t129 52.5t51 133.5z" />
    <glyph glyph-name="six.denominator" horiz-adv-x="749" 
d="M510 285q0 168 -156 168q-80 0 -134 -53.5t-54 -135.5t43 -127t122 -45t129 56.5t50 136.5zM195 479q83 88 196 88t185.5 -72.5t72.5 -201.5t-92 -221t-235 -92q-63 0 -130 26.5t-104 76.5q-65 88 -65 194t23.5 204.5t72.5 182.5t128 139t187 55t178 -53t80 -170h-139
q-4 45 -32.5 76.5t-90.5 31.5q-100 0 -156.5 -76.5t-83.5 -187.5h5z" />
    <glyph glyph-name="seven.denominator" horiz-adv-x="712" 
d="M541 715h-455l25 127h600l-23 -121q-236 -197 -322.5 -400.5t-109.5 -320.5h-154q42 209 167 398.5t272 314.5v2z" />
    <glyph glyph-name="eight.denominator" horiz-adv-x="780" 
d="M246 614q0 -112 143 -112q107 0 135.5 47t28.5 95t-45.5 78t-105.5 30t-108 -37t-48 -101zM154 240q0 -81 55 -113.5t111 -32.5q95 0 152.5 40t57.5 120t-51 114.5t-128 34.5t-137 -41t-60 -122zM694 643q0 -138 -145 -190v-4q55 -23 92 -73t37 -116q0 -131 -99.5 -204.5
t-248.5 -73.5q-222 0 -274 90t-52 149q0 175 199 242v4q-99 51 -99 159t94 171t249 63t201 -80t46 -137z" />
    <glyph glyph-name="nine.denominator" horiz-adv-x="753" 
d="M186 555q0 -162 160 -162q80 0 133 49.5t53 131.5t-44 126.5t-122 44.5t-129 -55t-51 -135zM147 209q9 -113 147 -113q73 0 126 57t86 207h-4q-82 -86 -193 -86q-112 0 -187 71t-75 201t92 222t236 92q63 0 129.5 -26.5t103.5 -76.5q66 -89 66 -224q0 -134 -45.5 -274.5
t-132.5 -208.5t-209 -68q-264 0 -283 227h143z" />
    <glyph glyph-name="zero.numerator" horiz-adv-x="796" 
d="M336 787q39 -64 115 -64t159.5 77t83.5 353q0 140 -55 176.5t-109 36.5t-100.5 -40t-89.5 -133t-43 -217q0 -125 39 -189zM432 602q-120 0 -202.5 91t-82.5 245q0 220 105.5 382.5t298.5 162.5q141 0 218 -93.5t77 -242.5q0 -222 -72 -336.5t-147 -161.5t-195 -47z" />
    <glyph glyph-name="one.numerator" horiz-adv-x="512" 
d="M379 1214h-199l19 101q104 4 164.5 41t87.5 114h122l-163 -847h-146z" />
    <glyph glyph-name="two.numerator" horiz-adv-x="702" 
d="M629 1250q0 50 -36.5 81t-98.5 31t-112 -47t-65 -144h-139q23 154 114 233t210 78t196.5 -58.5t77.5 -180.5q0 -151 -108.5 -215.5t-184.5 -101.5t-143.5 -78t-89.5 -105h440l-22 -120h-611q41 211 172 290.5t189 108.5t94.5 50.5t62 45t40 53t14.5 79.5z" />
    <glyph glyph-name="three.numerator" horiz-adv-x="739" 
d="M633 1247q-1 127 -139 127q-68 0 -117 -45t-66 -125h-139q23 135 114 207t210 72t198.5 -54.5t79.5 -146.5q0 -166 -158 -217v-4q63 -16 100.5 -64.5t37.5 -143.5t-94 -172t-232 -77q-139 0 -229 77t-95 224h138q0 -75 49 -130.5t136 -55.5t132 39.5t47 109.5t-41 107
t-123 37h-43l21 112h57q63 -4 109.5 28t46.5 95z" />
    <glyph glyph-name="four.numerator" horiz-adv-x="780" 
d="M258 926h285l67 352h-4l-348 -348v-4zM520 815h-407l28 143l508 517h137l-104 -549h131l-22 -111h-132l-36 -192h-140z" />
    <glyph glyph-name="five.numerator" horiz-adv-x="733" 
d="M608 908q0 168 -164 169q-86 0 -149 -69h-129l135 456h481l-22 -121h-367l-61 -208h4q63 59 172 59t179.5 -72.5t70.5 -208.5t-96 -222.5t-230 -86.5t-226.5 71t-96.5 191h143q4 -59 51 -101t125 -42t129 51.5t51 133.5z" />
    <glyph glyph-name="six.numerator" horiz-adv-x="749" 
d="M287 887q0 -82 43.5 -127t121.5 -45t128.5 56.5t50.5 136.5q0 168 -150 167q-86 0 -140 -53t-54 -135zM315 1102q83 88 197 88t186 -73.5t72 -201.5q0 -129 -92 -221t-236 -92q-63 0 -129.5 27t-103.5 77q-66 90 -66 195t23.5 203t73 182t128 139.5t186.5 55.5
t178.5 -53.5t80.5 -170.5h-139q-4 45 -33 77t-90 32q-100 0 -156.5 -77t-83.5 -187h4z" />
    <glyph glyph-name="seven.numerator" horiz-adv-x="712" 
d="M662 1337h-455l24 127h600l-22 -121q-237 -199 -323.5 -401.5t-108.5 -318.5h-154q42 207 168.5 399.5t270.5 312.5v2z" />
    <glyph glyph-name="eight.numerator" horiz-adv-x="780" 
d="M367 1238q0 -64 43 -89t85 -25q81 0 130 31.5t49 94.5q0 64 -45 94t-105 30t-108.5 -36t-48.5 -100zM274 863q0 -81 55 -113.5t111 -32.5q97 0 154 40t57 120t-51 114.5t-128 34.5t-137.5 -41t-60.5 -122zM815 1266q0 -137 -145 -191v-4q55 -23 92 -73t37 -116
q0 -130 -100 -204t-248 -74q-222 0 -274 90t-52 150q0 177 199 241v5q-98 51 -98 159t93.5 171t248.5 63t201 -80t46 -137z" />
    <glyph glyph-name="nine.numerator" horiz-adv-x="753" 
d="M307 1177q0 -161 160 -161q80 0 133 49t53 131t-44.5 127t-122.5 45t-128.5 -55.5t-50.5 -135.5zM268 831q8 -112 146 -112q72 0 125 55q52 55 88 209h-4q-82 -86 -193 -86t-186.5 70t-75.5 201t92 223t236 92q63 0 129.5 -26.5t103.5 -76.5q66 -90 66 -225
q0 -134 -57 -309.5t-165 -208.5t-197 -33t-165 54.5t-86 172.5h143z" />
    <glyph glyph-name="acute.cap" 
d="M748 1790h200l-188 -248h-139z" />
    <glyph glyph-name="breve.cap" 
d="M735 1554q-113 0 -179.5 61.5t-68.5 166.5h121q13 -101 128 -101t147 101h116q-14 -92 -82.5 -160t-181.5 -68z" />
    <glyph glyph-name="caron.alt" 
d="M735 1290q-29 -164 -205 -178l15 78q43 10 67.5 31.5t34.5 78.5h-80l31 164h170z" />
    <glyph glyph-name="caron.cap" 
d="M803 1550h-185l-151 217h168l86 -129h4l115 129h180z" />
    <glyph glyph-name="circumflex.cap" 
d="M643 1767h184l152 -217h-168l-86 129h-4l-115 -129h-180z" />
    <glyph glyph-name="commaaccent.alt" 
d="M377 -285q-29 -169 -209 -182l16 78q85 19 103 117h-78l35 182h170z" />
    <glyph glyph-name="dieresis.cap" 
d="M498 1751h157l-39 -195h-157zM827 1751h158l-39 -195h-158z" />
    <glyph glyph-name="dotaccent.cap" 
d="M664 1751h155l-39 -195h-155z" />
    <glyph glyph-name="grave.cap" 
d="M500 1790h194l86 -248h-139z" />
    <glyph glyph-name="hungarumlaut.cap" 
d="M557 1802h166l-127 -260h-123zM819 1802h166l-127 -260h-123z" />
    <glyph glyph-name="macron.cap" 
d="M469 1692h520l-26 -136h-521z" />
    <glyph glyph-name="ring.cap" horiz-adv-x="1026" 
d="M739 1599q43 0 70 30t27 73t-27 72.5t-70 29.5t-69.5 -29.5t-26.5 -72.5t26.5 -73t69.5 -30zM739 1528q-37 0 -69.5 13t-56 37t-38 55.5t-14.5 68.5t14.5 68.5t38 55t56 37t69.5 13.5t70 -13.5t56.5 -37t38 -55t14.5 -68.5t-14.5 -68.5t-38 -55.5t-56.5 -37t-70 -13z" />
    <glyph glyph-name="tilde.cap" 
d="M851.5 1683q38.5 0 53.5 62h117q-16 -78 -59 -133.5t-109 -55.5t-149 33t-107 33q-46 0 -55 -61h-121q43 188 180 188q61 0 110.5 -22.5t75 -33t64 -10.5z" />
    <glyph glyph-name="R.alt" horiz-adv-x="1306" 
d="M766 762q242 0 289 117t47 213t-72 155.5t-196 59.5h-369l-105 -545h406zM854 1464q213 0 334 -121q94 -94 94 -267t-97.5 -292.5t-271.5 -154.5l256 -629h-192l-248 614h-397l-119 -614h-180l282 1464h539z" />
    <glyph glyph-name="Racute.alt" horiz-adv-x="1306" 
d="M831 1790h201l-188 -248h-139zM766 762q242 0 289 117t47 213t-72 155.5t-196 59.5h-369l-105 -545h406zM854 1464q213 0 334 -121q94 -94 94 -267t-97.5 -292.5t-271.5 -154.5l256 -629h-192l-248 614h-397l-119 -614h-180l282 1464h539z" />
    <glyph glyph-name="Rcaron.alt" horiz-adv-x="1306" 
d="M874 1550h-184l-151 217h168l86 -129h4l114 129h181zM766 762q242 0 289 117t47 213t-72 155.5t-196 59.5h-369l-105 -545h406zM854 1464q213 0 334 -121q94 -94 94 -267t-97.5 -292.5t-271.5 -154.5l256 -629h-192l-248 614h-397l-119 -614h-180l282 1464h539z" />
    <glyph glyph-name="Rcommaaccent.alt" horiz-adv-x="1306" 
d="M631 -285q-29 -169 -209 -182l16 78q85 19 103 117h-78l35 182h170zM766 762q242 0 289 117t47 213t-72 155.5t-196 59.5h-369l-105 -545h406zM854 1464q213 0 334 -121q94 -94 94 -267t-97.5 -292.5t-271.5 -154.5l256 -629h-192l-248 614h-397l-119 -614h-180l282 1464
h539z" />
    <glyph glyph-name="Tcommaaccent" horiz-adv-x="1179" 
d="M518 -285q-29 -169 -209 -182l17 78q86 20 102 117h-78l35 182h170zM215 1464h1112l-31 -159h-467l-251 -1305h-181l252 1305h-465z" />
    <glyph glyph-name="idotaccent" horiz-adv-x="385" 
d="M291 1464h164l-39 -204h-164zM213 1059h164l-205 -1059h-164z" />
    <glyph glyph-name="tcommaaccent" horiz-adv-x="608" 
d="M313 -285q-29 -169 -209 -182l17 78q86 20 102 117h-78l35 182h170zM397 135q54 0 95 19h6l-29 -144q-45 -16 -115 -16q-123 0 -181 66.5t-32 199.5l129 666h-149l26 133h150l65 334h164l-65 -334h203l-27 -133h-203l-129 -672q-25 -119 92 -119z" />
    <glyph glyph-name="space_uni0326" 
d="M432 -285q-29 -169 -209 -182l17 78q86 20 102 117h-78l35 182h170z" />
    <glyph glyph-name="space_uni0326.alt" 
d="M592 1432q29 169 209 182l-17 -78q-86 -20 -102 -117h78l-35 -182h-170z" />
    <glyph glyph-name="a.alt" horiz-adv-x="995" 
d="M174 284q0 -75 51 -126.5t137 -51.5q155 0 242 84.5t113 212.5l31 152q-67 -38 -165 -47.5t-146 -13.5t-90 -10.5t-81 -27t-65.5 -59t-26.5 -113.5zM8 266q0 196 114 268t318 83t260 37t71 56.5t15 78.5q0 92 -57.5 127.5t-171.5 36.5q-115 1 -183.5 -48t-90.5 -166h-166
q29 160 146.5 251t314.5 91q286 0 327 -131t23 -229l-105 -539q-16 -82 -8 -124t21 -52v-6h-158q-27 38 -14 125h-2q-116 -145 -324 -145q-153 0 -241.5 86.5t-88.5 199.5z" />
    <glyph glyph-name="agrave.alt" horiz-adv-x="995" 
d="M387 1485h195l86 -260h-138zM174 284q0 -75 51 -126.5t137 -51.5q155 0 242 84.5t113 212.5l31 152q-67 -38 -165 -47.5t-146 -13.5t-90 -10.5t-81 -27t-65.5 -59t-26.5 -113.5zM8 266q0 196 114 268t318 83t260 37t71 56.5t15 78.5q0 92 -57.5 127.5t-171.5 36.5
q-115 1 -183.5 -48t-90.5 -166h-166q29 160 146.5 251t314.5 91q286 0 327 -131t23 -229l-105 -539q-16 -82 -8 -124t21 -52v-6h-158q-27 38 -14 125h-2q-116 -145 -324 -145q-153 0 -241.5 86.5t-88.5 199.5z" />
    <glyph glyph-name="aacute.alt" horiz-adv-x="995" 
d="M659 1485h201l-188 -260h-142zM174 284q0 -75 51 -126.5t137 -51.5q155 0 242 84.5t113 212.5l31 152q-67 -38 -165 -47.5t-146 -13.5t-90 -10.5t-81 -27t-65.5 -59t-26.5 -113.5zM8 266q0 196 114 268t318 83t260 37t71 56.5t15 78.5q0 92 -57.5 127.5t-171.5 36.5
q-115 1 -183.5 -48t-90.5 -166h-166q29 160 146.5 251t314.5 91q286 0 327 -131t23 -229l-105 -539q-16 -82 -8 -124t21 -52v-6h-158q-27 38 -14 125h-2q-116 -145 -324 -145q-153 0 -241.5 86.5t-88.5 199.5z" />
    <glyph glyph-name="acircumflex.alt" horiz-adv-x="995" 
d="M537 1450h184l151 -217h-167l-87 129h-4l-114 -129h-181zM174 284q0 -75 51 -126.5t137 -51.5q155 0 242 84.5t113 212.5l31 152q-67 -38 -165 -47.5t-146 -13.5t-90 -10.5t-81 -27t-65.5 -59t-26.5 -113.5zM8 266q0 196 114 268t318 83t260 37t71 56.5t15 78.5
q0 92 -57.5 127.5t-171.5 36.5q-115 1 -183.5 -48t-90.5 -166h-166q29 160 146.5 251t314.5 91q286 0 327 -131t23 -229l-105 -539q-16 -82 -8 -124t21 -52v-6h-158q-27 38 -14 125h-2q-116 -145 -324 -145q-153 0 -241.5 86.5t-88.5 199.5z" />
    <glyph glyph-name="atilde.alt" horiz-adv-x="995" 
d="M724.5 1358q38.5 0 53.5 61h117q-16 -78 -59 -133t-110 -55t-120 22.5t-77.5 32.5t-45.5 10q-47 0 -55 -61h-121q43 188 180 188q60 0 106 -22.5t69.5 -32.5t62 -10zM174 284q0 -75 51 -126.5t137 -51.5q155 0 242 84.5t113 212.5l31 152q-67 -38 -165 -47.5t-146 -13.5
t-90 -10.5t-81 -27t-65.5 -59t-26.5 -113.5zM8 266q0 196 114 268t318 83t260 37t71 56.5t15 78.5q0 92 -57.5 127.5t-171.5 36.5q-115 1 -183.5 -48t-90.5 -166h-166q29 160 146.5 251t314.5 91q286 0 327 -131t23 -229l-105 -539q-16 -82 -8 -124t21 -52v-6h-158
q-27 38 -14 125h-2q-116 -145 -324 -145q-153 0 -241.5 86.5t-88.5 199.5z" />
    <glyph glyph-name="adieresis.alt" horiz-adv-x="995" 
d="M397 1454h158l-39 -194h-158zM727 1454h158l-39 -194h-158zM174 284q0 -75 51 -126.5t137 -51.5q155 0 242 84.5t113 212.5l31 152q-67 -38 -165 -47.5t-146 -13.5t-90 -10.5t-81 -27t-65.5 -59t-26.5 -113.5zM8 266q0 196 114 268t318 83t260 37t71 56.5t15 78.5
q0 92 -57.5 127.5t-171.5 36.5q-115 1 -183.5 -48t-90.5 -166h-166q29 160 146.5 251t314.5 91q286 0 327 -131t23 -229l-105 -539q-16 -82 -8 -124t21 -52v-6h-158q-27 38 -14 125h-2q-116 -145 -324 -145q-153 0 -241.5 86.5t-88.5 199.5z" />
    <glyph glyph-name="amacron.alt" horiz-adv-x="995" 
d="M379 1411h520l-27 -135h-520zM174 284q0 -75 51 -126.5t137 -51.5q155 0 242 84.5t113 212.5l31 152q-67 -38 -165 -47.5t-146 -13.5t-90 -10.5t-81 -27t-65.5 -59t-26.5 -113.5zM8 266q0 196 114 268t318 83t260 37t71 56.5t15 78.5q0 92 -57.5 127.5t-171.5 36.5
q-115 1 -183.5 -48t-90.5 -166h-166q29 160 146.5 251t314.5 91q286 0 327 -131t23 -229l-105 -539q-16 -82 -8 -124t21 -52v-6h-158q-27 38 -14 125h-2q-116 -145 -324 -145q-153 0 -241.5 86.5t-88.5 199.5z" />
    <glyph glyph-name="abreve.alt" horiz-adv-x="995" 
d="M620 1237q-113 0 -179 61.5t-68 165.5h121q13 -100 128.5 -100t145.5 100h117q-14 -92 -83 -159.5t-182 -67.5zM174 284q0 -75 51 -126.5t137 -51.5q155 0 242 84.5t113 212.5l31 152q-67 -38 -165 -47.5t-146 -13.5t-90 -10.5t-81 -27t-65.5 -59t-26.5 -113.5zM8 266
q0 196 114 268t318 83t260 37t71 56.5t15 78.5q0 92 -57.5 127.5t-171.5 36.5q-115 1 -183.5 -48t-90.5 -166h-166q29 160 146.5 251t314.5 91q286 0 327 -131t23 -229l-105 -539q-16 -82 -8 -124t21 -52v-6h-158q-27 38 -14 125h-2q-116 -145 -324 -145q-153 0 -241.5 86.5
t-88.5 199.5z" />
    <glyph glyph-name="aring.alt" horiz-adv-x="995" 
d="M616 1217q43 0 70 29.5t27 72.5t-27 72.5t-70 29.5t-69.5 -29.5t-26.5 -72.5t26.5 -72.5t69.5 -29.5zM616.5 1145q-36.5 0 -69.5 13t-56.5 37t-38 55.5t-14.5 68.5t14.5 68.5t38 55t56.5 37t69.5 13.5t69.5 -13.5t56.5 -37t38 -55t14.5 -68.5t-14.5 -68.5t-38 -55.5
t-56.5 -37t-69.5 -13zM174 284q0 -75 51 -126.5t137 -51.5q155 0 242 84.5t113 212.5l31 152q-67 -38 -165 -47.5t-146 -13.5t-90 -10.5t-81 -27t-65.5 -59t-26.5 -113.5zM8 266q0 196 114 268t318 83t260 37t71 56.5t15 78.5q0 92 -57.5 127.5t-171.5 36.5
q-115 1 -183.5 -48t-90.5 -166h-166q29 160 146.5 251t314.5 91q286 0 327 -131t23 -229l-105 -539q-16 -82 -8 -124t21 -52v-6h-158q-27 38 -14 125h-2q-116 -145 -324 -145q-153 0 -241.5 86.5t-88.5 199.5z" />
    <glyph glyph-name="aogonek.alt" horiz-adv-x="995" 
d="M174 284q0 -75 51 -126.5t137 -51.5q155 0 242 84.5t113 212.5l31 152q-67 -38 -165 -47.5t-146 -13.5t-90 -10.5t-81 -27t-65.5 -59t-26.5 -113.5zM682 -180q0 -55 70 -56q28 0 73 13h4l-22 -115q-39 -14 -107 -14t-121 39t-53 111t47.5 121.5t106.5 78.5
q-30 39 -16 127h-2q-116 -145 -324 -145q-153 0 -241.5 86.5t-88.5 199.5q0 196 114 268t318 83t260 37t71 56.5t15 78.5q0 92 -59.5 127.5t-175.5 36.5q-115 1 -186.5 -48t-94.5 -166h-166q29 160 150 251t317 91q289 0 332 -131t25 -229l-105 -539q-16 -82 -8 -124t21 -52
v-6q-154 -94 -154 -180z" />
    <glyph glyph-name="Ccedilla.alt" horiz-adv-x="1400" 
d="M102 616q0 164 52.5 323t152 283t242.5 199.5t325 75.5q229 0 368.5 -122t158.5 -345h-182q-20 147 -111.5 228t-239.5 81q-273 0 -425 -211t-152 -505q0 -214 105 -353t323 -139q183 0 297.5 112.5t157.5 293.5h180q-41 -223 -193 -385q-168 -181 -455 -181
q-286 0 -445 175.5t-159 469.5zM539 -279q43 2 72.5 18.5t39.5 63.5h-94l29 146h178l-29 -139q-16 -90 -69.5 -120t-139.5 -32z" />
    <glyph glyph-name="Scedilla.alt" horiz-adv-x="1232" 
d="M195 496q0 -375 401 -375q168 0 267.5 75.5t99.5 219.5q0 104 -79 158t-230 109q-150 55 -305.5 130.5t-155.5 280.5q0 180 135 289.5t346 109.5q363 0 443.5 -167t86.5 -290h-172q-8 164 -100 237t-258 73q-215 0 -263.5 -84t-48.5 -142t22 -91.5t70.5 -67.5t184.5 -84
q135 -50 221 -86.5t183.5 -110.5t97.5 -244q0 -208 -147.5 -336.5t-401.5 -128.5q-396 0 -486 189.5t-86 335.5h175zM416 -279q43 2 72.5 18.5t39.5 63.5h-94l29 146h178l-29 -139q-16 -90 -69.5 -120t-139.5 -32z" />
    <glyph glyph-name="ccedilla.alt" horiz-adv-x="1030" 
d="M612 1085q180 0 279.5 -95t116.5 -273h-166q-10 104 -66 168.5t-162 64.5q-192 0 -296.5 -159.5t-104.5 -373.5q0 -215 101.5 -261.5t195.5 -46.5t176 68.5t115 195.5h157q-45 -193 -171 -297.5t-313 -104.5t-307 117.5t-120 356.5t113.5 383.5t218 200.5t233.5 56z
M311 -279q43 2 73 18.5t40 63.5h-94l28 146h179l-29 -139q-16 -90 -69.5 -120t-139.5 -32z" />
    <glyph glyph-name="scedilla.alt" horiz-adv-x="950" 
d="M281 809q0 -67 52 -102.5t156 -77.5q105 -42 232 -97.5t127 -225.5t-119 -253.5t-299 -83.5q-181 0 -307.5 97t-126.5 278h158q8 -240 295 -240q95 0 145.5 31t72 68t21.5 96t-57 96t-155 75t-223.5 96.5t-125.5 228.5q0 135 100.5 210.5t318 75.5t282.5 -121.5
t71 -209.5h-160q-22 204 -245 204q-146 0 -179.5 -53t-33.5 -92zM266 -279q43 2 73 18.5t40 63.5h-94l28 146h179l-29 -139q-16 -90 -69.5 -120t-139.5 -32z" />
    <glyph glyph-name="hyphen.cap" horiz-adv-x="733" 
d="M119 758h581l-32 -172h-582z" />
    <glyph glyph-name="endash.cap" horiz-adv-x="1024" 
d="M137 741h830l-29 -139h-829z" />
    <glyph glyph-name="emdash.cap" horiz-adv-x="2048" 
d="M246 741h1638l-29 -139h-1638z" />
    <glyph glyph-name="questiondown.cap" horiz-adv-x="1015" 
d="M752 1262h-195l39 202h195zM203 332q0 -104 68.5 -158.5t194.5 -54.5t217 89t124 263h166q-32 -224 -173 -361t-358 -137q-172 0 -292.5 90.5t-120.5 262.5q0 135 66.5 228.5t156.5 151.5q159 103 217.5 175.5t85.5 228.5h156q-46 -257 -142 -346.5t-231 -183.5
t-135 -248z" />
    <glyph glyph-name="exclamdown.cap" horiz-adv-x="473" 
d="M475 1262h-194l38 202h195zM313 469l-90 -469h-178l92 481l170 629h92z" />
    <glyph glyph-name="parenleft.cap" horiz-adv-x="612" 
d="M158 474q0 343 127 617.5t364 514.5h144q-455 -533 -455 -1157q0 -327 102 -629h-133q-149 311 -149 654z" />
    <glyph glyph-name="parenright.cap" horiz-adv-x="612" 
d="M535 948q0 -490 -186.5 -749.5t-305.5 -378.5h-143q454 531 454 1157q0 193 -28.5 341t-73.5 288h133q150 -312 150 -658z" />
    <glyph glyph-name="bracketleft.cap" horiz-adv-x="595" 
d="M365 1606h380l-26 -133h-213l-293 -1514h213l-29 -139h-381z" />
    <glyph glyph-name="bracketright.cap" horiz-adv-x="595" 
d="M-49 -41h211l293 1514h-211l26 133h379l-348 -1786h-379z" />
    <glyph glyph-name="braceleft.cap" horiz-adv-x="595" 
d="M375 -180q-162 0 -228.5 77.5t-31.5 252.5l69 364q14 68 -7 100.5t-105 36.5l28 137q78 6 114 35t52 103l76 397q29 154 113 218.5t219 64.5h71l-26 -136h-39q-76 0 -116 -36.5t-58 -135.5l-80 -401q-27 -147 -147 -182v-6q47 -25 68.5 -73t2.5 -140l-67 -344
q-34 -159 18.5 -175t89.5 -16h35l-27 -141h-24z" />
    <glyph glyph-name="braceright.cap" horiz-adv-x="595" 
d="M295 1606q162 0 228.5 -78t31.5 -252l-70 -365q-14 -68 7.5 -100.5t105.5 -36.5l-29 -137q-78 -6 -113.5 -35t-52.5 -102l-75 -398q-29 -154 -113 -218t-219 -64h-72l27 141h39q76 0 115.5 34t58.5 132l80 401q27 147 147 183v6q-47 25 -68.5 73t-3.5 140l68 344
q23 115 -5 155.5t-103 40.5h-35l26 136h25z" />
    <glyph glyph-name="guillemotleft.cap" horiz-adv-x="854" 
d="M109 569l34 179l320 225l-33 -170l-221 -154v-4l158 -168l-29 -153zM485 569l35 179l320 225l-33 -170l-221 -154v-4l157 -168l-28 -153z" />
    <glyph glyph-name="guillemotright.cap" horiz-adv-x="854" 
d="M791 727l-35 -178l-320 -225l33 170l221 153v4l-158 168l29 154zM414 727l-35 -178l-320 -225l33 170l221 153v4l-157 168l28 154z" />
    <glyph glyph-name="guilsinglleft.cap" horiz-adv-x="495" 
d="M106 569l35 179l338 225l-33 -168l-241 -154v-4l178 -168l-29 -155z" />
    <glyph glyph-name="guilsinglright.cap" horiz-adv-x="495" 
d="M430 727l-35 -178l-338 -225l33 168l242 153v4l-178 168l28 156z" />
    <glyph glyph-name="registered.alt" horiz-adv-x="1636" 
d="M694 764h211q78 0 116 36t38 96t-37 96t-115 36h-213v-264zM1204 915q0 -163 -157 -206v-4q66 -18 92.5 -60.5t36.5 -131.5t15 -140t23 -60v-8h-143q-24 12 -33 193q-8 154 -166 153h-178v-346h-143v844h389q117 0 190.5 -64.5t73.5 -169.5zM856 45q141 0 261 51
t207 142.5t137 216.5t50 272t-50 272t-137 217.5t-207 143.5t-261 51t-261 -51t-207 -143.5t-137 -217.5t-50 -272t50 -272t137 -216.5t207 -142.5t261 -51zM856 -35q-158 0 -295 57.5t-238.5 159t-159 241.5t-57.5 304t57.5 304t159 242.5t238.5 160t295 57.5t295 -57.5
t238.5 -160t159 -242.5t57.5 -304t-57.5 -304t-159 -241.5t-238.5 -159t-295 -57.5z" />
    <glyph glyph-name="dollar.cap" horiz-adv-x="1155" 
d="M344 1068q0 -73 51 -122t185 -92l90 465h-8q-220 0 -269 -89t-49 -162zM893 430q0 78 -54.5 129t-183.5 98l-100 -507h4q229 0 281.5 101t52.5 179zM1067 436q0 -191 -145 -307.5t-367 -116.5h-27l-32 -172h-113l35 183q-178 29 -290 141t-118 323h170q4 -141 73 -223
t191 -104l105 532q-186 61 -278.5 143t-92.5 243q0 160 136.5 267t351.5 107l30 -2l23 115h112l-24 -125q320 -55 342 -363h-164q-15 182 -205 230l-94 -486q200 -66 290.5 -151t90.5 -234z" />
    <glyph glyph-name="Euro.cap" horiz-adv-x="1273" 
d="M352 541q0 -416 322 -416q274 0 389 360h166q-58 -245 -211 -380.5t-354 -135.5q-244 0 -367 159t-123 413h-137l22 114h121q12 109 23 148h-115l23 117h122q129 394 326 485.5t322 91.5q201 0 312.5 -110.5t111.5 -323.5h-177q0 201 -95 242t-176 41q-156 0 -274 -122
t-173 -304h440l-23 -117h-448q-13 -60 -23 -148h443l-23 -114h-424z" />
    <glyph glyph-name="sterling.cap" horiz-adv-x="1124" 
d="M211 1031q0 207 138 336.5t360 129.5t333 -130t101 -359h-174q13 241 -89 291.5t-184 50.5q-137 0 -218 -83t-81 -247q0 -57 11.5 -116.5t23.5 -123.5h309l-26 -135h-262q2 -16 2 -19v-40q0 -123 -54.5 -216.5t-164.5 -172.5l2 -4q75 26 143 26q99 0 205 -44t188 -44
t201 82l78 -131q-151 -107 -314 -107q-114 0 -201 38t-131.5 55.5t-122.5 17.5t-221 -86l-71 145q131 84 185 147.5t80 124.5t26 121t-7 107h-178l25 135h125q-37 151 -37 251z" />
    <glyph glyph-name="yen.cap" horiz-adv-x="1130" 
d="M141 696h348l-313 768h189l253 -673h5l483 673h194l-577 -768h352l-22 -112h-379l-29 -150h379l-23 -112h-378l-60 -322h-178l59 322h-376l22 112h379l27 150h-377z" />
    <glyph glyph-name="zero.cap" horiz-adv-x="1292" 
d="M361 242q76 -115 243 -115q135 0 226.5 80t170 252t78.5 462t-109.5 355t-199.5 65t-160.5 -38.5t-125 -103t-92.5 -148.5t-72.5 -217t-34.5 -305t76 -287zM595 -31q-236 0 -365.5 153t-129.5 410q0 154 39 323t122 312.5t211 236.5t304 93q232 0 360 -155.5t128 -407.5
q0 -356 -133.5 -598t-274.5 -304.5t-261 -62.5z" />
    <glyph glyph-name="one.cap" horiz-adv-x="684" 
d="M449 1067h-318l25 119q232 7 310.5 109t100.5 178h142l-285 -1473h-182z" />
    <glyph glyph-name="two.cap" horiz-adv-x="1153" 
d="M696 1350q-166 0 -256 -101.5t-123 -285.5h-176q41 252 182.5 393t378.5 141q193 0 317 -107.5t124 -297.5q0 -270 -192.5 -379t-276.5 -149q-196 -93 -318 -184.5t-157 -209.5h786l-33 -170h-989q61 379 301 511t330 177q198 99 283.5 181t84.5 216t-72 199.5t-194 65.5
z" />
    <glyph glyph-name="three.cap" horiz-adv-x="1196" 
d="M196.5 102q-145.5 133 -149.5 381h180q0 -258 133.5 -311t231.5 -53q160 0 257 86t97 228t-91 210t-226 68h-101l27 139h125q214 0 264.5 97t50.5 193t-72.5 156t-210.5 60t-235.5 -88t-126.5 -250h-174q36 224 186.5 351.5t348.5 127.5q199 0 331 -91.5t132 -279.5
q0 -117 -70 -213t-199 -137v-6q102 -35 163.5 -115.5t61.5 -198.5t-41.5 -205t-157 -184.5t-352.5 -97.5t-382.5 133z" />
    <glyph glyph-name="four.cap" horiz-adv-x="1171" 
d="M203 502h504l133 682h-2l-635 -676v-6zM680 358h-678l31 160l897 961h145l-190 -977h237l-26 -144h-238l-70 -358h-176z" />
    <glyph glyph-name="five.cap" horiz-adv-x="1163" 
d="M350 868q115 119 303.5 119t312.5 -120t124 -322q0 -251 -156.5 -413.5t-381.5 -162.5q-226 0 -372.5 122.5t-154.5 332.5h178q10 -135 96 -216t246 -81t262 113.5t102 302.5q0 133 -78.5 209.5t-206.5 76.5t-202 -47t-123 -106h-172l235 788h793l-29 -159h-653
l-127 -437h4z" />
    <glyph glyph-name="six.cap" horiz-adv-x="1210" 
d="M357.5 202.5q85.5 -87.5 237.5 -87.5q153 0 249 107.5t96 291.5q0 129 -76 214t-229 85t-258 -103t-105 -261q0 -159 85.5 -246.5zM1014 1092q-28 254 -244 254q-193 0 -303 -146.5t-174 -421.5h4q144 183 379 183q187 0 312.5 -124t125.5 -340q0 -215 -147 -371.5
t-369 -156.5t-362 131t-140 424q0 214 96 509.5t277.5 379.5t300.5 84q188 0 296 -100.5t120 -304.5h-172z" />
    <glyph glyph-name="seven.cap" horiz-adv-x="1071" 
d="M983 1307h-801l31 157h1001l-28 -145q-450 -359 -609 -730.5t-198 -588.5h-195q73 375 297 731.5t502 571.5v4z" />
    <glyph glyph-name="eight.cap" horiz-adv-x="1228" 
d="M502.5 924.5q78.5 -50.5 199.5 -50.5q205 0 260.5 89.5t55.5 153.5q0 119 -80.5 176t-207.5 57t-216.5 -71t-89.5 -187q0 -117 78.5 -167.5zM240 397q0 -210 139 -244t254 -34t223.5 85.5t108.5 256.5q0 135 -92 203.5t-250 68.5t-270.5 -86.5t-112.5 -249.5zM418 813
q-170 81 -170 263q0 183 147 302t346 119q200 0 324.5 -97t124.5 -263q0 -129 -76 -215t-199 -127v-7q100 -41 165 -121.5t65 -256.5t-165 -308.5t-386 -132.5q-220 0 -378.5 102t-158.5 302q0 167 98 278t263 156v6z" />
    <glyph glyph-name="nine.cap" horiz-adv-x="1210" 
d="M922.5 1264.5q-85.5 87.5 -238.5 87.5q-154 0 -254 -105.5t-100 -292.5q0 -131 74.5 -216t229.5 -85t264.5 107.5t109.5 261.5q0 155 -85.5 242.5zM612 506q-201 0 -327.5 122.5t-126.5 337.5t156 373t377 158q222 0 351 -127q70 -66 106 -171t36 -220
q0 -250 -76.5 -493.5t-230.5 -383.5q-152 -133 -367 -133q-308 0 -378.5 159t-74.5 269h174q21 -276 287 -276q164 0 268 115q72 76 118 186t81 270h-4q-63 -86 -166 -136t-203 -50z" />
    <glyph glyph-name="percent.cap" horiz-adv-x="1638" 
d="M1051 283q0 -193 143 -193q112 0 164.5 115t52.5 229t-29.5 169.5t-99.5 55.5q-119 0 -175 -119.5t-56 -256.5zM979 52q-78 83 -78 251t101.5 322.5t297.5 154.5q112 0 186.5 -81t74.5 -254t-98 -324.5t-271 -151.5q-135 0 -213 83zM301 999q0 -192 143 -192
q114 0 166 116.5t52 228.5t-30 168t-100 56q-118 0 -174.5 -120.5t-56.5 -256.5zM1339 1464h138l-1098 -1464h-137zM442 686q-135 0 -212.5 83t-77.5 251t101.5 322.5t281.5 154.5q127 0 201.5 -81t74.5 -253t-97.5 -324.5t-271.5 -152.5z" />
    <glyph glyph-name="perthousand.cap" horiz-adv-x="2334" 
d="M1747 283q0 -193 143 -193q114 0 165.5 115.5t51.5 228.5t-29.5 169t-99.5 56q-118 0 -174.5 -120.5t-56.5 -255.5zM1888 -31q-135 0 -213 83t-78 250t102.5 322.5t296.5 155.5q112 0 186.5 -81t74.5 -253t-97.5 -324.5t-271.5 -152.5zM1022 283q0 -193 143 -193
q114 0 165.5 115.5t51.5 228.5t-29 169t-99 56q-118 0 -175 -120.5t-57 -255.5zM1163 -31q-135 0 -213 83t-78 250t102 322.5t296 155.5q112 0 187 -81t75 -253t-97.5 -324.5t-271.5 -152.5zM301 999q0 -192 143 -192q114 0 166 116.5t52 228.5t-30 168t-100 56
q-118 0 -174.5 -120.5t-56.5 -256.5zM1319 1464h137l-1098 -1464h-137zM442 686q-135 0 -212.5 83t-77.5 251t101.5 322.5t281.5 154.5q127 0 201.5 -81t74.5 -253t-97.5 -324.5t-271.5 -152.5z" />
    </font>
</defs>
</svg>
